  0
SECTION
  2
HEADER
  9
$ACADVER
  1
AC1014
  9
$HANDSEED
  5
FFFF
  9
$MEASUREMENT
 70
     1
  0
ENDSEC
  0
SECTION
  2
TABLES
  0
TABLE
  2
VPORT
  5
8
330
0
100
AcDbSymbolTable
 70
     4
  0
VPORT
  5
2E
330
8
100
AcDbSymbolTableRecord
100
AcDbViewportTableRecord
  2
*ACTIVE
 70
     0
 10
0.0
 20
0.0
 11
1.0
 21
1.0
 12
210.0
 22
148.5
 13
0.0
 23
0.0
 14
10.0
 24
10.0
 15
10.0
 25
10.0
 16
0.0
 26
0.0
 36
1.0
 17
0.0
 27
0.0
 37
0.0
 40
341.0
 41
1.24
 42
50.0
 43
0.0
 44
0.0
 50
0.0
 51
0.0
 71
     0
 72
   100
 73
     1
 74
     3
 75
     0
 76
     0
 77
     0
 78
     0
  0
ENDTAB
  0
TABLE
  2
LTYPE
  5
5
330
0
100
AcDbSymbolTable
 70
     1
  0
LTYPE
  5
14
330
5
100
AcDbSymbolTableRecord
100
AcDbLinetypeTableRecord
  2
BYBLOCK
 70
     0
  3

 72
    65
 73
     0
 40
0.0
  0
LTYPE
  5
15
330
5
100
AcDbSymbolTableRecord
100
AcDbLinetypeTableRecord
  2
BYLAYER
 70
     0
  3

 72
    65
 73
     0
 40
0.0
  0
LTYPE
  5
16
330
5
100
AcDbSymbolTableRecord
100
AcDbLinetypeTableRecord
  2
CONTINUOUS
 70
     0
  3
Solid line
 72
    65
 73
     0
 40
0.0
  0
ENDTAB
  0
TABLE
  2
LAYER
  5
2
100
AcDbSymbolTable
 70
1
  0
LAYER
  5
50
100
AcDbSymbolTableRecord
100
AcDbLayerTableRecord
  2
0
 70
0
  6
CONTINUOUS
  0
ENDTAB
  0
TABLE
  2
STYLE
  5
3
330
0
100
AcDbSymbolTable
 70
     1
  0
STYLE
  5
11
330
3
100
AcDbSymbolTableRecord
100
AcDbTextStyleTableRecord
  2
STANDARD
 70
     0
 40
0.0
 41
1.0
 50
0.0
 71
     0
 42
2.5
  3
txt
  4

  0
ENDTAB
  0
TABLE
  2
VIEW
  5
6
330
0
100
AcDbSymbolTable
 70
     0
  0
ENDTAB
  0
TABLE
  2
UCS
  5
7
330
0
100
AcDbSymbolTable
 70
     0
  0
ENDTAB
  0
TABLE
  2
APPID
  5
9
330
0
100
AcDbSymbolTable
 70
     2
  0
APPID
  5
12
330
9
100
AcDbSymbolTableRecord
100
AcDbRegAppTableRecord
  2
ACAD
 70
     0
  0
ENDTAB
  0
TABLE
  2
DIMSTYLE
  5
A
330
0
100
AcDbSymbolTable
 70
     1
  0
DIMSTYLE
105
27
330
A
100
AcDbSymbolTableRecord
100
AcDbDimStyleTableRecord
  2
ISO-25
 70
     0
  3

  4

  5

  6

  7

 40
1.0
 41
2.5
 42
0.625
 43
3.75
 44
1.25
 45
0.0
 46
0.0
 47
0.0
 48
0.0
140
2.5
141
2.5
142
0.0
143
0.03937007874016
144
1.0
145
0.0
146
1.0
147
0.625
 71
     0
 72
     0
 73
     0
 74
     0
 75
     0
 76
     0
 77
     1
 78
     8
170
     0
171
     3
172
     1
173
     0
174
     0
175
     0
176
     0
177
     0
178
     0
270
     2
271
     2
272
     2
273
     2
274
     3
340
11
275
     0
280
     0
281
     0
282
     0
283
     0
284
     8
285
     0
286
     0
287
     3
288
     0
  0
ENDTAB
  0
TABLE
  2
BLOCK_RECORD
  5
1
330
0
100
AcDbSymbolTable
 70
     1
  0
BLOCK_RECORD
  5
1F
330
1
100
AcDbSymbolTableRecord
100
AcDbBlockTableRecord
  2
*MODEL_SPACE
  0
BLOCK_RECORD
  5
1B
330
1
100
AcDbSymbolTableRecord
100
AcDbBlockTableRecord
  2
*PAPER_SPACE
  0
ENDTAB
  0
ENDSEC
  0
SECTION
  2
BLOCKS
  0
BLOCK
  5
20
330
1F
100
AcDbEntity
  8
0
100
AcDbBlockBegin
  2
*MODEL_SPACE
 70
     0
 10
0.0
 20
0.0
 30
0.0
  3
*MODEL_SPACE
  1

  0
ENDBLK
  5
21
330
1F
100
AcDbEntity
  8
0
100
AcDbBlockEnd
  0
BLOCK
  5
1C
330
1B
100
AcDbEntity
 67
     1
  8
0
100
AcDbBlockBegin
  2
*PAPER_SPACE
  1

  0
ENDBLK
  5
1D
330
1B
100
AcDbEntity
 67
     1
  8
0
100
AcDbBlockEnd
  0
ENDSEC
  0
SECTION
  2
ENTITIES
  0
SPLINE
  5
100
100
AcDbEntity
  8
0
 62
4
100
AcDbSpline
 70
8
 71
3
 72
8
 73
4
 74
0
 40
0
 40
0
 40
0
 40
0
 40
1
 40
1
 40
1
 40
1
 10
75.101430
 20
265.123858
 30
0.0
 10
66.789725
 20
265.123858
 30
0.0
 10
59.296445
 20
260.117008
 30
0.0
 10
56.115693
 20
252.437994
 30
0.0
  0
SPLINE
  5
101
100
AcDbEntity
  8
0
 62
4
100
AcDbSpline
 70
8
 71
3
 72
8
 73
4
 74
0
 40
0
 40
0
 40
0
 40
0
 40
1
 40
1
 40
1
 40
1
 10
56.115693
 20
252.437994
 30
0.0
 10
52.934942
 20
244.758981
 30
0.0
 10
54.693114
 20
235.920054
 30
0.0
 10
60.570376
 20
230.042791
 30
0.0
  0
SPLINE
  5
102
100
AcDbEntity
  8
0
 62
4
100
AcDbSpline
 70
8
 71
3
 72
8
 73
4
 74
0
 40
0
 40
0
 40
0
 40
0
 40
1
 40
1
 40
1
 40
1
 10
60.570376
 20
230.042791
 30
0.0
 10
66.447639
 20
224.165529
 30
0.0
 10
75.286566
 20
222.407357
 30
0.0
 10
82.965579
 20
225.588108
 30
0.0
  0
SPLINE
  5
103
100
AcDbEntity
  8
0
 62
4
100
AcDbSpline
 70
8
 71
3
 72
8
 73
4
 74
0
 40
0
 40
0
 40
0
 40
0
 40
1
 40
1
 40
1
 40
1
 10
82.965579
 20
225.588108
 30
0.0
 10
90.644593
 20
228.768860
 30
0.0
 10
95.651442
 20
236.262140
 30
0.0
 10
95.651442
 20
244.573845
 30
0.0
  0
SPLINE
  5
104
100
AcDbEntity
  8
0
 62
4
100
AcDbSpline
 70
8
 71
3
 72
8
 73
4
 74
0
 40
0
 40
0
 40
0
 40
0
 40
1
 40
1
 40
1
 40
1
 10
95.651442
 20
244.573845
 30
0.0
 10
95.651442
 20
250.024047
 30
0.0
 10
93.486358
 20
255.251023
 30
0.0
 10
89.632483
 20
259.104898
 30
0.0
  0
SPLINE
  5
105
100
AcDbEntity
  8
0
 62
4
100
AcDbSpline
 70
8
 71
3
 72
8
 73
4
 74
0
 40
0
 40
0
 40
0
 40
0
 40
1
 40
1
 40
1
 40
1
 10
89.632483
 20
259.104898
 30
0.0
 10
85.778608
 20
262.958773
 30
0.0
 10
80.551632
 20
265.123858
 30
0.0
 10
75.101430
 20
265.123858
 30
0.0
  0
SPLINE
  5
106
100
AcDbEntity
  8
0
 62
7
100
AcDbSpline
 70
8
 71
3
 72
8
 73
4
 74
0
 40
0
 40
0
 40
0
 40
0
 40
1
 40
1
 40
1
 40
1
 10
115.641468
 20
194.733801
 30
0.0
 10
114.731427
 20
194.733801
 30
0.0
 10
113.910995
 20
194.185606
 30
0.0
 10
113.562738
 20
193.344838
 30
0.0
  0
SPLINE
  5
107
100
AcDbEntity
  8
0
 62
7
100
AcDbSpline
 70
8
 71
3
 72
8
 73
4
 74
0
 40
0
 40
0
 40
0
 40
0
 40
1
 40
1
 40
1
 40
1
 10
113.562738
 20
193.344838
 30
0.0
 10
113.214480
 20
192.504070
 30
0.0
 10
113.406981
 20
191.536304
 30
0.0
 10
114.050477
 20
190.892808
 30
0.0
  0
SPLINE
  5
108
100
AcDbEntity
  8
0
 62
7
100
AcDbSpline
 70
8
 71
3
 72
8
 73
4
 74
0
 40
0
 40
0
 40
0
 40
0
 40
1
 40
1
 40
1
 40
1
 10
114.050477
 20
190.892808
 30
0.0
 10
114.693972
 20
190.249312
 30
0.0
 10
115.661738
 20
190.056812
 30
0.0
 10
116.502506
 20
190.405069
 30
0.0
  0
SPLINE
  5
109
100
AcDbEntity
  8
0
 62
7
100
AcDbSpline
 70
8
 71
3
 72
8
 73
4
 74
0
 40
0
 40
0
 40
0
 40
0
 40
1
 40
1
 40
1
 40
1
 10
116.502506
 20
190.405069
 30
0.0
 10
117.343274
 20
190.753327
 30
0.0
 10
117.891469
 20
191.573759
 30
0.0
 10
117.891469
 20
192.483800
 30
0.0
  0
SPLINE
  5
10a
100
AcDbEntity
  8
0
 62
7
100
AcDbSpline
 70
8
 71
3
 72
8
 73
4
 74
0
 40
0
 40
0
 40
0
 40
0
 40
1
 40
1
 40
1
 40
1
 10
117.891469
 20
192.483800
 30
0.0
 10
117.891469
 20
193.726441
 30
0.0
 10
116.884109
 20
194.733801
 30
0.0
 10
115.641468
 20
194.733801
 30
0.0
  0
LWPOLYLINE
  5
10b
100
AcDbEntity
  8
0
 62
4
100
AcDbPolyline
 90
1
 70
1
 10
75.101430
 20
265.123858
 30
0.0
  0
SPLINE
  5
10c
100
AcDbEntity
  8
0
 62
7
100
AcDbSpline
 70
8
 71
3
 72
8
 73
4
 74
0
 40
0
 40
0
 40
0
 40
0
 40
1
 40
1
 40
1
 40
1
 10
139.641484
 20
235.983827
 30
0.0
 10
138.731443
 20
235.983827
 30
0.0
 10
137.911011
 20
235.435632
 30
0.0
 10
137.562754
 20
234.594864
 30
0.0
  0
SPLINE
  5
10d
100
AcDbEntity
  8
0
 62
7
100
AcDbSpline
 70
8
 71
3
 72
8
 73
4
 74
0
 40
0
 40
0
 40
0
 40
0
 40
1
 40
1
 40
1
 40
1
 10
137.562754
 20
234.594864
 30
0.0
 10
137.214496
 20
233.754096
 30
0.0
 10
137.406997
 20
232.786330
 30
0.0
 10
138.050493
 20
232.142834
 30
0.0
  0
SPLINE
  5
10e
100
AcDbEntity
  8
0
 62
7
100
AcDbSpline
 70
8
 71
3
 72
8
 73
4
 74
0
 40
0
 40
0
 40
0
 40
0
 40
1
 40
1
 40
1
 40
1
 10
138.050493
 20
232.142834
 30
0.0
 10
138.693989
 20
231.499338
 30
0.0
 10
139.661754
 20
231.306838
 30
0.0
 10
140.502522
 20
231.655095
 30
0.0
  0
SPLINE
  5
10f
100
AcDbEntity
  8
0
 62
7
100
AcDbSpline
 70
8
 71
3
 72
8
 73
4
 74
0
 40
0
 40
0
 40
0
 40
0
 40
1
 40
1
 40
1
 40
1
 10
140.502522
 20
231.655095
 30
0.0
 10
141.343290
 20
232.003353
 30
0.0
 10
141.891486
 20
232.823785
 30
0.0
 10
141.891486
 20
233.733825
 30
0.0
  0
SPLINE
  5
110
100
AcDbEntity
  8
0
 62
7
100
AcDbSpline
 70
8
 71
3
 72
8
 73
4
 74
0
 40
0
 40
0
 40
0
 40
0
 40
1
 40
1
 40
1
 40
1
 10
141.891486
 20
233.733825
 30
0.0
 10
141.891486
 20
234.330563
 30
0.0
 10
141.654432
 20
234.902860
 30
0.0
 10
141.232475
 20
235.324817
 30
0.0
  0
SPLINE
  5
111
100
AcDbEntity
  8
0
 62
7
100
AcDbSpline
 70
8
 71
3
 72
8
 73
4
 74
0
 40
0
 40
0
 40
0
 40
0
 40
1
 40
1
 40
1
 40
1
 10
141.232475
 20
235.324817
 30
0.0
 10
140.810518
 20
235.746774
 30
0.0
 10
140.238222
 20
235.983827
 30
0.0
 10
139.641484
 20
235.983827
 30
0.0
  0
LWPOLYLINE
  5
112
100
AcDbEntity
  8
0
 62
7
100
AcDbPolyline
 90
1
 70
1
 10
115.641468
 20
194.733801
 30
0.0
  0
SPLINE
  5
113
100
AcDbEntity
  8
0
 62
7
100
AcDbSpline
 70
8
 71
3
 72
8
 73
4
 74
0
 40
0
 40
0
 40
0
 40
0
 40
1
 40
1
 40
1
 40
1
 10
126.391475
 20
235.983827
 30
0.0
 10
125.481434
 20
235.983827
 30
0.0
 10
124.661002
 20
235.435632
 30
0.0
 10
124.312745
 20
234.594864
 30
0.0
  0
SPLINE
  5
114
100
AcDbEntity
  8
0
 62
7
100
AcDbSpline
 70
8
 71
3
 72
8
 73
4
 74
0
 40
0
 40
0
 40
0
 40
0
 40
1
 40
1
 40
1
 40
1
 10
124.312745
 20
234.594864
 30
0.0
 10
123.964487
 20
233.754096
 30
0.0
 10
124.156988
 20
232.786330
 30
0.0
 10
124.800484
 20
232.142834
 30
0.0
  0
SPLINE
  5
115
100
AcDbEntity
  8
0
 62
7
100
AcDbSpline
 70
8
 71
3
 72
8
 73
4
 74
0
 40
0
 40
0
 40
0
 40
0
 40
1
 40
1
 40
1
 40
1
 10
124.800484
 20
232.142834
 30
0.0
 10
125.443980
 20
231.499338
 30
0.0
 10
126.411745
 20
231.306838
 30
0.0
 10
127.252513
 20
231.655095
 30
0.0
  0
SPLINE
  5
116
100
AcDbEntity
  8
0
 62
7
100
AcDbSpline
 70
8
 71
3
 72
8
 73
4
 74
0
 40
0
 40
0
 40
0
 40
0
 40
1
 40
1
 40
1
 40
1
 10
127.252513
 20
231.655095
 30
0.0
 10
128.093281
 20
232.003353
 30
0.0
 10
128.641477
 20
232.823785
 30
0.0
 10
128.641477
 20
233.733825
 30
0.0
  0
SPLINE
  5
117
100
AcDbEntity
  8
0
 62
7
100
AcDbSpline
 70
8
 71
3
 72
8
 73
4
 74
0
 40
0
 40
0
 40
0
 40
0
 40
1
 40
1
 40
1
 40
1
 10
128.641477
 20
233.733825
 30
0.0
 10
128.641477
 20
234.330563
 30
0.0
 10
128.404424
 20
234.902860
 30
0.0
 10
127.982466
 20
235.324817
 30
0.0
  0
SPLINE
  5
118
100
AcDbEntity
  8
0
 62
7
100
AcDbSpline
 70
8
 71
3
 72
8
 73
4
 74
0
 40
0
 40
0
 40
0
 40
0
 40
1
 40
1
 40
1
 40
1
 10
127.982466
 20
235.324817
 30
0.0
 10
127.560509
 20
235.746774
 30
0.0
 10
126.988213
 20
235.983827
 30
0.0
 10
126.391475
 20
235.983827
 30
0.0
  0
LWPOLYLINE
  5
119
100
AcDbEntity
  8
0
 62
7
100
AcDbPolyline
 90
1
 70
1
 10
139.641484
 20
235.983827
 30
0.0
  0
SPLINE
  5
11a
100
AcDbEntity
  8
0
 62
7
100
AcDbSpline
 70
8
 71
3
 72
8
 73
4
 74
0
 40
0
 40
0
 40
0
 40
0
 40
1
 40
1
 40
1
 40
1
 10
102.141459
 20
275.983864
 30
0.0
 10
101.231418
 20
275.983864
 30
0.0
 10
100.410986
 20
275.435669
 30
0.0
 10
100.062728
 20
274.594901
 30
0.0
  0
SPLINE
  5
11b
100
AcDbEntity
  8
0
 62
7
100
AcDbSpline
 70
8
 71
3
 72
8
 73
4
 74
0
 40
0
 40
0
 40
0
 40
0
 40
1
 40
1
 40
1
 40
1
 10
100.062728
 20
274.594901
 30
0.0
 10
99.714471
 20
273.754133
 30
0.0
 10
99.906972
 20
272.786367
 30
0.0
 10
100.550467
 20
272.142871
 30
0.0
  0
SPLINE
  5
11c
100
AcDbEntity
  8
0
 62
7
100
AcDbSpline
 70
8
 71
3
 72
8
 73
4
 74
0
 40
0
 40
0
 40
0
 40
0
 40
1
 40
1
 40
1
 40
1
 10
100.550467
 20
272.142871
 30
0.0
 10
101.193963
 20
271.499375
 30
0.0
 10
102.161729
 20
271.306874
 30
0.0
 10
103.002497
 20
271.655132
 30
0.0
  0
SPLINE
  5
11d
100
AcDbEntity
  8
0
 62
7
100
AcDbSpline
 70
8
 71
3
 72
8
 73
4
 74
0
 40
0
 40
0
 40
0
 40
0
 40
1
 40
1
 40
1
 40
1
 10
103.002497
 20
271.655132
 30
0.0
 10
103.843265
 20
272.003389
 30
0.0
 10
104.391460
 20
272.823822
 30
0.0
 10
104.391460
 20
273.733862
 30
0.0
  0
SPLINE
  5
11e
100
AcDbEntity
  8
0
 62
7
100
AcDbSpline
 70
8
 71
3
 72
8
 73
4
 74
0
 40
0
 40
0
 40
0
 40
0
 40
1
 40
1
 40
1
 40
1
 10
104.391460
 20
273.733862
 30
0.0
 10
104.391460
 20
274.976504
 30
0.0
 10
103.384100
 20
275.983864
 30
0.0
 10
102.141459
 20
275.983864
 30
0.0
  0
LWPOLYLINE
  5
11f
100
AcDbEntity
  8
0
 62
7
100
AcDbPolyline
 90
1
 70
1
 10
126.391475
 20
235.983827
 30
0.0
  0
SPLINE
  5
120
100
AcDbEntity
  8
0
 62
7
100
AcDbSpline
 70
8
 71
3
 72
8
 73
4
 74
0
 40
0
 40
0
 40
0
 40
0
 40
1
 40
1
 40
1
 40
1
 10
42.891417
 20
208.233808
 30
0.0
 10
41.981376
 20
208.233808
 30
0.0
 10
41.160944
 20
207.685613
 30
0.0
 10
40.812687
 20
206.844845
 30
0.0
  0
SPLINE
  5
121
100
AcDbEntity
  8
0
 62
7
100
AcDbSpline
 70
8
 71
3
 72
8
 73
4
 74
0
 40
0
 40
0
 40
0
 40
0
 40
1
 40
1
 40
1
 40
1
 10
40.812687
 20
206.844845
 30
0.0
 10
40.464429
 20
206.004077
 30
0.0
 10
40.656930
 20
205.036311
 30
0.0
 10
41.300426
 20
204.392815
 30
0.0
  0
SPLINE
  5
122
100
AcDbEntity
  8
0
 62
7
100
AcDbSpline
 70
8
 71
3
 72
8
 73
4
 74
0
 40
0
 40
0
 40
0
 40
0
 40
1
 40
1
 40
1
 40
1
 10
41.300426
 20
204.392815
 30
0.0
 10
41.943921
 20
203.749319
 30
0.0
 10
42.911687
 20
203.556819
 30
0.0
 10
43.752455
 20
203.905076
 30
0.0
  0
SPLINE
  5
123
100
AcDbEntity
  8
0
 62
7
100
AcDbSpline
 70
8
 71
3
 72
8
 73
4
 74
0
 40
0
 40
0
 40
0
 40
0
 40
1
 40
1
 40
1
 40
1
 10
43.752455
 20
203.905076
 30
0.0
 10
44.593223
 20
204.253334
 30
0.0
 10
45.141418
 20
205.073766
 30
0.0
 10
45.141418
 20
205.983807
 30
0.0
  0
SPLINE
  5
124
100
AcDbEntity
  8
0
 62
7
100
AcDbSpline
 70
8
 71
3
 72
8
 73
4
 74
0
 40
0
 40
0
 40
0
 40
0
 40
1
 40
1
 40
1
 40
1
 10
45.141418
 20
205.983807
 30
0.0
 10
45.141418
 20
206.580544
 30
0.0
 10
44.904365
 20
207.152841
 30
0.0
 10
44.482408
 20
207.574798
 30
0.0
  0
SPLINE
  5
125
100
AcDbEntity
  8
0
 62
7
100
AcDbSpline
 70
8
 71
3
 72
8
 73
4
 74
0
 40
0
 40
0
 40
0
 40
0
 40
1
 40
1
 40
1
 40
1
 10
44.482408
 20
207.574798
 30
0.0
 10
44.060451
 20
207.996755
 30
0.0
 10
43.488154
 20
208.233808
 30
0.0
 10
42.891417
 20
208.233808
 30
0.0
  0
LWPOLYLINE
  5
126
100
AcDbEntity
  8
0
 62
7
100
AcDbPolyline
 90
1
 70
1
 10
102.141459
 20
275.983864
 30
0.0
  0
SPLINE
  5
127
100
AcDbEntity
  8
0
 62
7
100
AcDbSpline
 70
8
 71
3
 72
8
 73
4
 74
0
 40
0
 40
0
 40
0
 40
0
 40
1
 40
1
 40
1
 40
1
 10
29.641410
 20
260.733852
 30
0.0
 10
28.731369
 20
260.733852
 30
0.0
 10
27.910937
 20
260.185656
 30
0.0
 10
27.562680
 20
259.344888
 30
0.0
  0
SPLINE
  5
128
100
AcDbEntity
  8
0
 62
7
100
AcDbSpline
 70
8
 71
3
 72
8
 73
4
 74
0
 40
0
 40
0
 40
0
 40
0
 40
1
 40
1
 40
1
 40
1
 10
27.562680
 20
259.344888
 30
0.0
 10
27.214422
 20
258.504120
 30
0.0
 10
27.406923
 20
257.536355
 30
0.0
 10
28.050419
 20
256.892859
 30
0.0
  0
SPLINE
  5
129
100
AcDbEntity
  8
0
 62
7
100
AcDbSpline
 70
8
 71
3
 72
8
 73
4
 74
0
 40
0
 40
0
 40
0
 40
0
 40
1
 40
1
 40
1
 40
1
 10
28.050419
 20
256.892859
 30
0.0
 10
28.693915
 20
256.249363
 30
0.0
 10
29.661680
 20
256.056862
 30
0.0
 10
30.502448
 20
256.405120
 30
0.0
  0
SPLINE
  5
12a
100
AcDbEntity
  8
0
 62
7
100
AcDbSpline
 70
8
 71
3
 72
8
 73
4
 74
0
 40
0
 40
0
 40
0
 40
0
 40
1
 40
1
 40
1
 40
1
 10
30.502448
 20
256.405120
 30
0.0
 10
31.343216
 20
256.753377
 30
0.0
 10
31.891411
 20
257.573809
 30
0.0
 10
31.891411
 20
258.483850
 30
0.0
  0
SPLINE
  5
12b
100
AcDbEntity
  8
0
 62
7
100
AcDbSpline
 70
8
 71
3
 72
8
 73
4
 74
0
 40
0
 40
0
 40
0
 40
0
 40
1
 40
1
 40
1
 40
1
 10
31.891411
 20
258.483850
 30
0.0
 10
31.891411
 20
259.726492
 30
0.0
 10
30.884051
 20
260.733852
 30
0.0
 10
29.641410
 20
260.733852
 30
0.0
  0
LWPOLYLINE
  5
12c
100
AcDbEntity
  8
0
 62
7
100
AcDbPolyline
 90
1
 70
1
 10
42.891417
 20
208.233808
 30
0.0
  0
LWPOLYLINE
  5
12d
100
AcDbEntity
  8
0
 62
7
100
AcDbPolyline
 90
1
 70
1
 10
29.641410
 20
260.733852
 30
0.0
  0
LWPOLYLINE
  5
12e
100
AcDbEntity
  8
0
 62
2
100
AcDbPolyline
 90
2
 70
0
 10
15.105694
 20
253.951848
 30
0.0
 10
19.856997
 20
200.086112
 30
0.0
  0
LWPOLYLINE
  5
12f
100
AcDbEntity
  8
0
 62
2
100
AcDbPolyline
 90
2
 70
0
 10
152.134882
 20
255.754349
 30
0.0
 10
152.141882
 20
267.983857
 30
0.0
  0
SPLINE
  5
130
100
AcDbEntity
  8
0
 62
2
100
AcDbSpline
 70
8
 71
3
 72
8
 73
4
 74
0
 40
0
 40
0
 40
0
 40
0
 40
1
 40
1
 40
1
 40
1
 10
143.891477
 20
258.483851
 30
0.0
 10
143.879889
 20
258.613283
 30
0.0
 10
143.771426
 20
258.712468
 30
0.0
 10
143.641477
 20
258.712468
 30
0.0
  0
SPLINE
  5
131
100
AcDbEntity
  8
0
 62
2
100
AcDbSpline
 70
8
 71
3
 72
8
 73
4
 74
0
 40
0
 40
0
 40
0
 40
0
 40
1
 40
1
 40
1
 40
1
 10
143.641477
 20
258.712468
 30
0.0
 10
143.511527
 20
258.712468
 30
0.0
 10
143.403065
 20
258.613283
 30
0.0
 10
143.391477
 20
258.483851
 30
0.0
  0
SPLINE
  5
132
100
AcDbEntity
  8
0
 62
2
100
AcDbSpline
 70
8
 71
3
 72
8
 73
4
 74
0
 40
0
 40
0
 40
0
 40
0
 40
1
 40
1
 40
1
 40
1
 10
142.391476
 20
226.233829
 30
0.0
 10
141.839806
 20
226.232346
 30
0.0
 10
141.392959
 20
225.785498
 30
0.0
 10
141.391475
 20
225.233829
 30
0.0
  0
LWPOLYLINE
  5
133
100
AcDbEntity
  8
0
 62
2
100
AcDbPolyline
 90
2
 70
0
 10
143.391477
 20
201.733813
 30
0.0
 10
143.391477
 20
217.226823
 30
0.0
  0
SPLINE
  5
134
100
AcDbEntity
  8
0
 62
2
100
AcDbSpline
 70
8
 71
3
 72
8
 73
4
 74
0
 40
0
 40
0
 40
0
 40
0
 40
1
 40
1
 40
1
 40
1
 10
143.391477
 20
267.968557
 30
0.0
 10
143.358678
 20
268.375166
 30
0.0
 10
143.037084
 20
268.698662
 30
0.0
 10
142.630676
 20
268.733858
 30
0.0
  0
SPLINE
  5
135
100
AcDbEntity
  8
0
 62
2
100
AcDbSpline
 70
8
 71
3
 72
8
 73
4
 74
0
 40
0
 40
0
 40
0
 40
0
 40
1
 40
1
 40
1
 40
1
 10
143.891477
 20
255.733849
 30
0.0
 10
143.923767
 20
255.333772
 30
0.0
 10
144.241401
 20
255.016139
 30
0.0
 10
144.641477
 20
254.983849
 30
0.0
  0
LWPOLYLINE
  5
136
100
AcDbEntity
  8
0
 62
2
100
AcDbPolyline
 90
2
 70
0
 10
144.641477
 20
268.733858
 30
0.0
 10
151.380682
 20
268.749158
 30
0.0
  0
LWPOLYLINE
  5
137
100
AcDbEntity
  8
0
 62
2
100
AcDbPolyline
 90
2
 70
0
 10
142.630676
 20
268.733858
 30
0.0
 10
122.641463
 20
268.733858
 30
0.0
  0
LWPOLYLINE
  5
138
100
AcDbEntity
  8
0
 62
2
100
AcDbPolyline
 90
2
 70
0
 10
143.391477
 20
265.962956
 30
0.0
 10
143.391477
 20
267.968557
 30
0.0
  0
LWPOLYLINE
  5
139
100
AcDbEntity
  8
0
 62
2
100
AcDbPolyline
 90
2
 70
0
 10
92.521444
 20
186.493806
 30
0.0
 10
109.881454
 20
180.163801
 30
0.0
  0
SPLINE
  5
13a
100
AcDbEntity
  8
0
 62
2
100
AcDbSpline
 70
8
 71
3
 72
8
 73
4
 74
0
 40
0
 40
0
 40
0
 40
0
 40
1
 40
1
 40
1
 40
1
 10
141.391475
 20
219.233825
 30
0.0
 10
141.389812
 20
218.968102
 30
0.0
 10
141.494635
 20
218.712780
 30
0.0
 10
141.682533
 20
218.524882
 30
0.0
  0
SPLINE
  5
13b
100
AcDbEntity
  8
0
 62
2
100
AcDbSpline
 70
8
 71
3
 72
8
 73
4
 74
0
 40
0
 40
0
 40
0
 40
0
 40
1
 40
1
 40
1
 40
1
 10
141.682533
 20
218.524882
 30
0.0
 10
141.870431
 20
218.336984
 30
0.0
 10
142.125753
 20
218.232161
 30
0.0
 10
142.391476
 20
218.233824
 30
0.0
  0
LWPOLYLINE
  5
13c
100
AcDbEntity
  8
0
 62
2
100
AcDbPolyline
 90
2
 70
0
 10
143.391477
 20
258.483851
 30
0.0
 10
143.391477
 20
227.233830
 30
0.0
  0
SPLINE
  5
13d
100
AcDbEntity
  8
0
 62
2
100
AcDbSpline
 70
8
 71
3
 72
8
 73
4
 74
0
 40
0
 40
0
 40
0
 40
0
 40
1
 40
1
 40
1
 40
1
 10
151.369582
 20
254.993549
 30
0.0
 10
151.776190
 20
255.026347
 30
0.0
 10
152.099687
 20
255.347942
 30
0.0
 10
152.134882
 20
255.754349
 30
0.0
  0
LWPOLYLINE
  5
13e
100
AcDbEntity
  8
0
 62
2
100
AcDbPolyline
 90
2
 70
0
 10
109.881454
 20
180.163801
 30
0.0
 10
125.851465
 20
171.173795
 30
0.0
  0
SPLINE
  5
13f
100
AcDbEntity
  8
0
 62
2
100
AcDbSpline
 70
8
 71
3
 72
8
 73
4
 74
0
 40
0
 40
0
 40
0
 40
0
 40
1
 40
1
 40
1
 40
1
 10
122.641463
 20
268.733858
 30
0.0
 10
87.467849
 20
288.109906
 30
0.0
 10
43.746578
 20
282.099922
 30
0.0
 10
15.105694
 20
253.951848
 30
0.0
  0
SPLINE
  5
140
100
AcDbEntity
  8
0
 62
2
100
AcDbSpline
 70
8
 71
3
 72
8
 73
4
 74
0
 40
0
 40
0
 40
0
 40
0
 40
1
 40
1
 40
1
 40
1
 10
143.391477
 20
265.962956
 30
0.0
 10
143.403065
 20
265.833524
 30
0.0
 10
143.511527
 20
265.734339
 30
0.0
 10
143.641477
 20
265.734339
 30
0.0
  0
SPLINE
  5
141
100
AcDbEntity
  8
0
 62
2
100
AcDbSpline
 70
8
 71
3
 72
8
 73
4
 74
0
 40
0
 40
0
 40
0
 40
0
 40
1
 40
1
 40
1
 40
1
 10
143.641477
 20
265.734339
 30
0.0
 10
143.771426
 20
265.734339
 30
0.0
 10
143.879889
 20
265.833524
 30
0.0
 10
143.891477
 20
265.962956
 30
0.0
  0
LWPOLYLINE
  5
142
100
AcDbEntity
  8
0
 62
2
100
AcDbPolyline
 90
2
 70
0
 10
144.641477
 20
254.983849
 30
0.0
 10
151.369582
 20
254.993849
 30
0.0
  0
LWPOLYLINE
  5
143
100
AcDbEntity
  8
0
 62
2
100
AcDbPolyline
 90
2
 70
0
 10
19.856997
 20
200.086112
 30
0.0
 10
92.521444
 20
186.493806
 30
0.0
  0
LWPOLYLINE
  5
144
100
AcDbEntity
  8
0
 62
2
100
AcDbPolyline
 90
2
 70
0
 10
143.891477
 20
265.962956
 30
0.0
 10
143.891477
 20
267.983857
 30
0.0
  0
LWPOLYLINE
  5
145
100
AcDbEntity
  8
0
 62
2
100
AcDbPolyline
 90
2
 70
0
 10
141.391475
 20
225.233829
 30
0.0
 10
141.391475
 20
219.233825
 30
0.0
  0
SPLINE
  5
146
100
AcDbEntity
  8
0
 62
2
100
AcDbSpline
 70
8
 71
3
 72
8
 73
4
 74
0
 40
0
 40
0
 40
0
 40
0
 40
1
 40
1
 40
1
 40
1
 10
144.641477
 20
268.733858
 30
0.0
 10
144.241401
 20
268.701568
 30
0.0
 10
143.923767
 20
268.383934
 30
0.0
 10
143.891477
 20
267.983857
 30
0.0
  0
LWPOLYLINE
  5
147
100
AcDbEntity
  8
0
 62
2
100
AcDbPolyline
 90
2
 70
0
 10
125.851465
 20
171.173795
 30
0.0
 10
143.391477
 20
201.733813
 30
0.0
  0
SPLINE
  5
148
100
AcDbEntity
  8
0
 62
2
100
AcDbSpline
 70
8
 71
3
 72
8
 73
4
 74
0
 40
0
 40
0
 40
0
 40
0
 40
1
 40
1
 40
1
 40
1
 10
142.391476
 20
226.233829
 30
0.0
 10
142.943077
 20
226.235477
 30
0.0
 10
143.389829
 20
226.682229
 30
0.0
 10
143.391477
 20
227.233830
 30
0.0
  0
SPLINE
  5
149
100
AcDbEntity
  8
0
 62
2
100
AcDbSpline
 70
8
 71
3
 72
8
 73
4
 74
0
 40
0
 40
0
 40
0
 40
0
 40
1
 40
1
 40
1
 40
1
 10
143.391477
 20
217.226823
 30
0.0
 10
143.393990
 20
217.493445
 30
0.0
 10
143.289666
 20
217.749977
 30
0.0
 10
143.101786
 20
217.939172
 30
0.0
  0
SPLINE
  5
14a
100
AcDbEntity
  8
0
 62
2
100
AcDbSpline
 70
8
 71
3
 72
8
 73
4
 74
0
 40
0
 40
0
 40
0
 40
0
 40
1
 40
1
 40
1
 40
1
 10
143.101786
 20
217.939172
 30
0.0
 10
142.913907
 20
218.128367
 30
0.0
 10
142.658109
 20
218.234477
 30
0.0
 10
142.391476
 20
218.233824
 30
0.0
  0
SPLINE
  5
14b
100
AcDbEntity
  8
0
 62
2
100
AcDbSpline
 70
8
 71
3
 72
8
 73
4
 74
0
 40
0
 40
0
 40
0
 40
0
 40
1
 40
1
 40
1
 40
1
 10
152.141482
 20
267.983857
 30
0.0
 10
152.108684
 20
268.390466
 30
0.0
 10
151.787090
 20
268.713962
 30
0.0
 10
151.380682
 20
268.749158
 30
0.0
  0
LWPOLYLINE
  5
14c
100
AcDbEntity
  8
0
 62
2
100
AcDbPolyline
 90
2
 70
0
 10
143.891477
 20
255.733849
 30
0.0
 10
143.891477
 20
258.483851
 30
0.0
  0
ENDSEC
  0
SECTION
  2
OBJECTS
  0
DICTIONARY
  5
C
330
0
100
AcDbDictionary
  3
ACAD_GROUP
350
D
  3
ACAD_MLINESTYLE
350
17
  0
DICTIONARY
  5
D
330
C
100
AcDbDictionary
  0
DICTIONARY
  5
1A
330
C
100
AcDbDictionary
  0
DICTIONARY
  5
17
330
C
100
AcDbDictionary
  3
STANDARD
350
18
  0
DICTIONARY
  5
19
330
C
100
AcDbDictionary
  0
ENDSEC
  0
EOF
