  0
SECTION
  2
HEADER
  9
$ACADVER
  1
AC1014
  9
$HANDSEED
  5
FFFF
  9
$MEASUREMENT
 70
     1
  0
ENDSEC
  0
SECTION
  2
TABLES
  0
TABLE
  2
VPORT
  5
8
330
0
100
AcDbSymbolTable
 70
     4
  0
VPORT
  5
2E
330
8
100
AcDbSymbolTableRecord
100
AcDbViewportTableRecord
  2
*ACTIVE
 70
     0
 10
0.0
 20
0.0
 11
1.0
 21
1.0
 12
210.0
 22
148.5
 13
0.0
 23
0.0
 14
10.0
 24
10.0
 15
10.0
 25
10.0
 16
0.0
 26
0.0
 36
1.0
 17
0.0
 27
0.0
 37
0.0
 40
341.0
 41
1.24
 42
50.0
 43
0.0
 44
0.0
 50
0.0
 51
0.0
 71
     0
 72
   100
 73
     1
 74
     3
 75
     0
 76
     0
 77
     0
 78
     0
  0
ENDTAB
  0
TABLE
  2
LTYPE
  5
5
330
0
100
AcDbSymbolTable
 70
     1
  0
LTYPE
  5
14
330
5
100
AcDbSymbolTableRecord
100
AcDbLinetypeTableRecord
  2
BYBLOCK
 70
     0
  3

 72
    65
 73
     0
 40
0.0
  0
LTYPE
  5
15
330
5
100
AcDbSymbolTableRecord
100
AcDbLinetypeTableRecord
  2
BYLAYER
 70
     0
  3

 72
    65
 73
     0
 40
0.0
  0
LTYPE
  5
16
330
5
100
AcDbSymbolTableRecord
100
AcDbLinetypeTableRecord
  2
CONTINUOUS
 70
     0
  3
Solid line
 72
    65
 73
     0
 40
0.0
  0
ENDTAB
  0
TABLE
  2
LAYER
  5
2
100
AcDbSymbolTable
 70
1
  0
LAYER
  5
50
100
AcDbSymbolTableRecord
100
AcDbLayerTableRecord
  2
0
 70
0
  6
CONTINUOUS
  0
ENDTAB
  0
TABLE
  2
STYLE
  5
3
330
0
100
AcDbSymbolTable
 70
     1
  0
STYLE
  5
11
330
3
100
AcDbSymbolTableRecord
100
AcDbTextStyleTableRecord
  2
STANDARD
 70
     0
 40
0.0
 41
1.0
 50
0.0
 71
     0
 42
2.5
  3
txt
  4

  0
ENDTAB
  0
TABLE
  2
VIEW
  5
6
330
0
100
AcDbSymbolTable
 70
     0
  0
ENDTAB
  0
TABLE
  2
UCS
  5
7
330
0
100
AcDbSymbolTable
 70
     0
  0
ENDTAB
  0
TABLE
  2
APPID
  5
9
330
0
100
AcDbSymbolTable
 70
     2
  0
APPID
  5
12
330
9
100
AcDbSymbolTableRecord
100
AcDbRegAppTableRecord
  2
ACAD
 70
     0
  0
ENDTAB
  0
TABLE
  2
DIMSTYLE
  5
A
330
0
100
AcDbSymbolTable
 70
     1
  0
DIMSTYLE
105
27
330
A
100
AcDbSymbolTableRecord
100
AcDbDimStyleTableRecord
  2
ISO-25
 70
     0
  3

  4

  5

  6

  7

 40
1.0
 41
2.5
 42
0.625
 43
3.75
 44
1.25
 45
0.0
 46
0.0
 47
0.0
 48
0.0
140
2.5
141
2.5
142
0.0
143
0.03937007874016
144
1.0
145
0.0
146
1.0
147
0.625
 71
     0
 72
     0
 73
     0
 74
     0
 75
     0
 76
     0
 77
     1
 78
     8
170
     0
171
     3
172
     1
173
     0
174
     0
175
     0
176
     0
177
     0
178
     0
270
     2
271
     2
272
     2
273
     2
274
     3
340
11
275
     0
280
     0
281
     0
282
     0
283
     0
284
     8
285
     0
286
     0
287
     3
288
     0
  0
ENDTAB
  0
TABLE
  2
BLOCK_RECORD
  5
1
330
0
100
AcDbSymbolTable
 70
     1
  0
BLOCK_RECORD
  5
1F
330
1
100
AcDbSymbolTableRecord
100
AcDbBlockTableRecord
  2
*MODEL_SPACE
  0
BLOCK_RECORD
  5
1B
330
1
100
AcDbSymbolTableRecord
100
AcDbBlockTableRecord
  2
*PAPER_SPACE
  0
ENDTAB
  0
ENDSEC
  0
SECTION
  2
BLOCKS
  0
BLOCK
  5
20
330
1F
100
AcDbEntity
  8
0
100
AcDbBlockBegin
  2
*MODEL_SPACE
 70
     0
 10
0.0
 20
0.0
 30
0.0
  3
*MODEL_SPACE
  1

  0
ENDBLK
  5
21
330
1F
100
AcDbEntity
  8
0
100
AcDbBlockEnd
  0
BLOCK
  5
1C
330
1B
100
AcDbEntity
 67
     1
  8
0
100
AcDbBlockBegin
  2
*PAPER_SPACE
  1

  0
ENDBLK
  5
1D
330
1B
100
AcDbEntity
 67
     1
  8
0
100
AcDbBlockEnd
  0
ENDSEC
  0
SECTION
  2
ENTITIES
  0
LWPOLYLINE
  5
100
100
AcDbEntity
  8
0
 62
7
100
AcDbPolyline
 90
2
 70
0
 10
118.332040
 20
-63.555216
 30
0.0
 10
118.832040
 20
-63.555216
 30
0.0
  0
SPLINE
  5
101
100
AcDbEntity
  8
0
 62
7
100
AcDbSpline
 70
8
 71
3
 72
8
 73
4
 74
0
 40
0
 40
0
 40
0
 40
0
 40
1
 40
1
 40
1
 40
1
 10
134.642043
 20
-52.810209
 30
0.0
 10
133.732002
 20
-52.810209
 30
0.0
 10
132.911570
 20
-53.358404
 30
0.0
 10
132.563312
 20
-54.199172
 30
0.0
  0
SPLINE
  5
102
100
AcDbEntity
  8
0
 62
7
100
AcDbSpline
 70
8
 71
3
 72
8
 73
4
 74
0
 40
0
 40
0
 40
0
 40
0
 40
1
 40
1
 40
1
 40
1
 10
132.563312
 20
-54.199172
 30
0.0
 10
132.215055
 20
-55.039940
 30
0.0
 10
132.407555
 20
-56.007706
 30
0.0
 10
133.051051
 20
-56.651202
 30
0.0
  0
SPLINE
  5
103
100
AcDbEntity
  8
0
 62
7
100
AcDbSpline
 70
8
 71
3
 72
8
 73
4
 74
0
 40
0
 40
0
 40
0
 40
0
 40
1
 40
1
 40
1
 40
1
 10
133.051051
 20
-56.651202
 30
0.0
 10
133.694547
 20
-57.294698
 30
0.0
 10
134.662313
 20
-57.487198
 30
0.0
 10
135.503081
 20
-57.138941
 30
0.0
  0
SPLINE
  5
104
100
AcDbEntity
  8
0
 62
7
100
AcDbSpline
 70
8
 71
3
 72
8
 73
4
 74
0
 40
0
 40
0
 40
0
 40
0
 40
1
 40
1
 40
1
 40
1
 10
135.503081
 20
-57.138941
 30
0.0
 10
136.343849
 20
-56.790683
 30
0.0
 10
136.892044
 20
-55.970251
 30
0.0
 10
136.892044
 20
-55.060211
 30
0.0
  0
SPLINE
  5
105
100
AcDbEntity
  8
0
 62
7
100
AcDbSpline
 70
8
 71
3
 72
8
 73
4
 74
0
 40
0
 40
0
 40
0
 40
0
 40
1
 40
1
 40
1
 40
1
 10
136.892044
 20
-55.060211
 30
0.0
 10
136.892044
 20
-54.463473
 30
0.0
 10
136.654991
 20
-53.891176
 30
0.0
 10
136.233034
 20
-53.469219
 30
0.0
  0
SPLINE
  5
106
100
AcDbEntity
  8
0
 62
7
100
AcDbSpline
 70
8
 71
3
 72
8
 73
4
 74
0
 40
0
 40
0
 40
0
 40
0
 40
1
 40
1
 40
1
 40
1
 10
136.233034
 20
-53.469219
 30
0.0
 10
135.811077
 20
-53.047262
 30
0.0
 10
135.238780
 20
-52.810209
 30
0.0
 10
134.642043
 20
-52.810209
 30
0.0
  0
LWPOLYLINE
  5
107
100
AcDbEntity
  8
0
 62
7
100
AcDbPolyline
 90
2
 70
0
 10
118.332040
 20
-59.555214
 30
0.0
 10
118.832040
 20
-59.555214
 30
0.0
  0
SPLINE
  5
108
100
AcDbEntity
  8
0
 62
7
100
AcDbSpline
 70
8
 71
3
 72
8
 73
4
 74
0
 40
0
 40
0
 40
0
 40
0
 40
1
 40
1
 40
1
 40
1
 10
121.392042
 20
-52.810209
 30
0.0
 10
120.482001
 20
-52.810209
 30
0.0
 10
119.661569
 20
-53.358404
 30
0.0
 10
119.313311
 20
-54.199172
 30
0.0
  0
SPLINE
  5
109
100
AcDbEntity
  8
0
 62
7
100
AcDbSpline
 70
8
 71
3
 72
8
 73
4
 74
0
 40
0
 40
0
 40
0
 40
0
 40
1
 40
1
 40
1
 40
1
 10
119.313311
 20
-54.199172
 30
0.0
 10
118.965054
 20
-55.039940
 30
0.0
 10
119.157554
 20
-56.007706
 30
0.0
 10
119.801050
 20
-56.651202
 30
0.0
  0
SPLINE
  5
10a
100
AcDbEntity
  8
0
 62
7
100
AcDbSpline
 70
8
 71
3
 72
8
 73
4
 74
0
 40
0
 40
0
 40
0
 40
0
 40
1
 40
1
 40
1
 40
1
 10
119.801050
 20
-56.651202
 30
0.0
 10
120.444546
 20
-57.294698
 30
0.0
 10
121.412312
 20
-57.487198
 30
0.0
 10
122.253080
 20
-57.138941
 30
0.0
  0
SPLINE
  5
10b
100
AcDbEntity
  8
0
 62
7
100
AcDbSpline
 70
8
 71
3
 72
8
 73
4
 74
0
 40
0
 40
0
 40
0
 40
0
 40
1
 40
1
 40
1
 40
1
 10
122.253080
 20
-57.138941
 30
0.0
 10
123.093848
 20
-56.790683
 30
0.0
 10
123.642043
 20
-55.970251
 30
0.0
 10
123.642043
 20
-55.060211
 30
0.0
  0
SPLINE
  5
10c
100
AcDbEntity
  8
0
 62
7
100
AcDbSpline
 70
8
 71
3
 72
8
 73
4
 74
0
 40
0
 40
0
 40
0
 40
0
 40
1
 40
1
 40
1
 40
1
 10
123.642043
 20
-55.060211
 30
0.0
 10
123.642043
 20
-54.463473
 30
0.0
 10
123.404990
 20
-53.891176
 30
0.0
 10
122.983033
 20
-53.469219
 30
0.0
  0
SPLINE
  5
10d
100
AcDbEntity
  8
0
 62
7
100
AcDbSpline
 70
8
 71
3
 72
8
 73
4
 74
0
 40
0
 40
0
 40
0
 40
0
 40
1
 40
1
 40
1
 40
1
 10
122.983033
 20
-53.469219
 30
0.0
 10
122.561076
 20
-53.047262
 30
0.0
 10
121.988779
 20
-52.810209
 30
0.0
 10
121.392042
 20
-52.810209
 30
0.0
  0
LWPOLYLINE
  5
10e
100
AcDbEntity
  8
0
 62
7
100
AcDbPolyline
 90
1
 70
1
 10
134.642043
 20
-52.810209
 30
0.0
  0
SPLINE
  5
10f
100
AcDbEntity
  8
0
 62
7
100
AcDbSpline
 70
8
 71
3
 72
8
 73
4
 74
0
 40
0
 40
0
 40
0
 40
0
 40
1
 40
1
 40
1
 40
1
 10
120.532041
 20
-22.400189
 30
0.0
 10
120.188248
 20
-22.400189
 30
0.0
 10
119.878307
 20
-22.607285
 30
0.0
 10
119.746743
 20
-22.924908
 30
0.0
  0
SPLINE
  5
110
100
AcDbEntity
  8
0
 62
7
100
AcDbSpline
 70
8
 71
3
 72
8
 73
4
 74
0
 40
0
 40
0
 40
0
 40
0
 40
1
 40
1
 40
1
 40
1
 10
119.746743
 20
-22.924908
 30
0.0
 10
119.615179
 20
-23.242531
 30
0.0
 10
119.687902
 20
-23.608132
 30
0.0
 10
119.931000
 20
-23.851230
 30
0.0
  0
SPLINE
  5
111
100
AcDbEntity
  8
0
 62
7
100
AcDbSpline
 70
8
 71
3
 72
8
 73
4
 74
0
 40
0
 40
0
 40
0
 40
0
 40
1
 40
1
 40
1
 40
1
 10
119.931000
 20
-23.851230
 30
0.0
 10
120.174098
 20
-24.094329
 30
0.0
 10
120.539699
 20
-24.167051
 30
0.0
 10
120.857322
 20
-24.035487
 30
0.0
  0
SPLINE
  5
112
100
AcDbEntity
  8
0
 62
7
100
AcDbSpline
 70
8
 71
3
 72
8
 73
4
 74
0
 40
0
 40
0
 40
0
 40
0
 40
1
 40
1
 40
1
 40
1
 10
120.857322
 20
-24.035487
 30
0.0
 10
121.174946
 20
-23.903923
 30
0.0
 10
121.382042
 20
-23.593982
 30
0.0
 10
121.382042
 20
-23.250189
 30
0.0
  0
SPLINE
  5
113
100
AcDbEntity
  8
0
 62
7
100
AcDbSpline
 70
8
 71
3
 72
8
 73
4
 74
0
 40
0
 40
0
 40
0
 40
0
 40
1
 40
1
 40
1
 40
1
 10
121.382042
 20
-23.250189
 30
0.0
 10
121.382042
 20
-23.024755
 30
0.0
 10
121.292488
 20
-22.808554
 30
0.0
 10
121.133082
 20
-22.649148
 30
0.0
  0
SPLINE
  5
114
100
AcDbEntity
  8
0
 62
7
100
AcDbSpline
 70
8
 71
3
 72
8
 73
4
 74
0
 40
0
 40
0
 40
0
 40
0
 40
1
 40
1
 40
1
 40
1
 10
121.133082
 20
-22.649148
 30
0.0
 10
120.973676
 20
-22.489742
 30
0.0
 10
120.757475
 20
-22.400189
 30
0.0
 10
120.532041
 20
-22.400189
 30
0.0
  0
LWPOLYLINE
  5
115
100
AcDbEntity
  8
0
 62
7
100
AcDbPolyline
 90
1
 70
1
 10
121.392042
 20
-52.810209
 30
0.0
  0
SPLINE
  5
116
100
AcDbEntity
  8
0
 62
7
100
AcDbSpline
 70
8
 71
3
 72
8
 73
4
 74
0
 40
0
 40
0
 40
0
 40
0
 40
1
 40
1
 40
1
 40
1
 10
135.772059
 20
-22.400189
 30
0.0
 10
135.428266
 20
-22.400189
 30
0.0
 10
135.118325
 20
-22.607285
 30
0.0
 10
134.986761
 20
-22.924908
 30
0.0
  0
SPLINE
  5
117
100
AcDbEntity
  8
0
 62
7
100
AcDbSpline
 70
8
 71
3
 72
8
 73
4
 74
0
 40
0
 40
0
 40
0
 40
0
 40
1
 40
1
 40
1
 40
1
 10
134.986761
 20
-22.924908
 30
0.0
 10
134.855197
 20
-23.242531
 30
0.0
 10
134.927920
 20
-23.608132
 30
0.0
 10
135.171018
 20
-23.851230
 30
0.0
  0
SPLINE
  5
118
100
AcDbEntity
  8
0
 62
7
100
AcDbSpline
 70
8
 71
3
 72
8
 73
4
 74
0
 40
0
 40
0
 40
0
 40
0
 40
1
 40
1
 40
1
 40
1
 10
135.171018
 20
-23.851230
 30
0.0
 10
135.414117
 20
-24.094329
 30
0.0
 10
135.779717
 20
-24.167051
 30
0.0
 10
136.097341
 20
-24.035487
 30
0.0
  0
SPLINE
  5
119
100
AcDbEntity
  8
0
 62
7
100
AcDbSpline
 70
8
 71
3
 72
8
 73
4
 74
0
 40
0
 40
0
 40
0
 40
0
 40
1
 40
1
 40
1
 40
1
 10
136.097341
 20
-24.035487
 30
0.0
 10
136.414964
 20
-23.903923
 30
0.0
 10
136.622060
 20
-23.593982
 30
0.0
 10
136.622060
 20
-23.250189
 30
0.0
  0
SPLINE
  5
11a
100
AcDbEntity
  8
0
 62
7
100
AcDbSpline
 70
8
 71
3
 72
8
 73
4
 74
0
 40
0
 40
0
 40
0
 40
0
 40
1
 40
1
 40
1
 40
1
 10
136.622060
 20
-23.250189
 30
0.0
 10
136.622060
 20
-22.780747
 30
0.0
 10
136.241502
 20
-22.400189
 30
0.0
 10
135.772059
 20
-22.400189
 30
0.0
  0
LWPOLYLINE
  5
11b
100
AcDbEntity
  8
0
 62
7
100
AcDbPolyline
 90
1
 70
1
 10
120.532041
 20
-22.400189
 30
0.0
  0
LWPOLYLINE
  5
11c
100
AcDbEntity
  8
0
 62
7
100
AcDbPolyline
 90
1
 70
1
 10
135.772059
 20
-22.400189
 30
0.0
  0
SPLINE
  5
11d
100
AcDbEntity
  8
0
 62
7
100
AcDbSpline
 70
8
 71
3
 72
8
 73
4
 74
0
 40
0
 40
0
 40
0
 40
0
 40
1
 40
1
 40
1
 40
1
 10
135.772059
 20
-50.340207
 30
0.0
 10
135.428266
 20
-50.340207
 30
0.0
 10
135.118325
 20
-50.547303
 30
0.0
 10
134.986761
 20
-50.864927
 30
0.0
  0
SPLINE
  5
11e
100
AcDbEntity
  8
0
 62
7
100
AcDbSpline
 70
8
 71
3
 72
8
 73
4
 74
0
 40
0
 40
0
 40
0
 40
0
 40
1
 40
1
 40
1
 40
1
 10
134.986761
 20
-50.864927
 30
0.0
 10
134.855197
 20
-51.182550
 30
0.0
 10
134.927920
 20
-51.548151
 30
0.0
 10
135.171018
 20
-51.791249
 30
0.0
  0
SPLINE
  5
11f
100
AcDbEntity
  8
0
 62
7
100
AcDbSpline
 70
8
 71
3
 72
8
 73
4
 74
0
 40
0
 40
0
 40
0
 40
0
 40
1
 40
1
 40
1
 40
1
 10
135.171018
 20
-51.791249
 30
0.0
 10
135.414117
 20
-52.034348
 30
0.0
 10
135.779717
 20
-52.107070
 30
0.0
 10
136.097341
 20
-51.975506
 30
0.0
  0
SPLINE
  5
120
100
AcDbEntity
  8
0
 62
7
100
AcDbSpline
 70
8
 71
3
 72
8
 73
4
 74
0
 40
0
 40
0
 40
0
 40
0
 40
1
 40
1
 40
1
 40
1
 10
136.097341
 20
-51.975506
 30
0.0
 10
136.414964
 20
-51.843942
 30
0.0
 10
136.622060
 20
-51.534001
 30
0.0
 10
136.622060
 20
-51.190208
 30
0.0
  0
SPLINE
  5
121
100
AcDbEntity
  8
0
 62
7
100
AcDbSpline
 70
8
 71
3
 72
8
 73
4
 74
0
 40
0
 40
0
 40
0
 40
0
 40
1
 40
1
 40
1
 40
1
 10
136.622060
 20
-51.190208
 30
0.0
 10
136.622060
 20
-50.720766
 30
0.0
 10
136.241502
 20
-50.340207
 30
0.0
 10
135.772059
 20
-50.340207
 30
0.0
  0
LWPOLYLINE
  5
122
100
AcDbEntity
  8
0
 62
7
100
AcDbPolyline
 90
20
 70
1
 10
121.332042
 20
-22.400189
 30
0.0
 10
121.351172
 20
-22.403999
 30
0.0
 10
121.367402
 20
-22.414839
 30
0.0
 10
121.378232
 20
-22.431059
 30
0.0
 10
121.382042
 20
-22.450189
 30
0.0
 10
121.382042
 20
-24.050190
 30
0.0
 10
121.378232
 20
-24.069320
 30
0.0
 10
121.367402
 20
-24.085550
 30
0.0
 10
121.351172
 20
-24.096380
 30
0.0
 10
121.332042
 20
-24.100190
 30
0.0
 10
119.732041
 20
-24.100190
 30
0.0
 10
119.712911
 20
-24.096380
 30
0.0
 10
119.696691
 20
-24.085550
 30
0.0
 10
119.685851
 20
-24.069320
 30
0.0
 10
119.682041
 20
-24.050190
 30
0.0
 10
119.682041
 20
-22.450189
 30
0.0
 10
119.685851
 20
-22.431059
 30
0.0
 10
119.696691
 20
-22.414839
 30
0.0
 10
119.712911
 20
-22.403999
 30
0.0
 10
119.732041
 20
-22.400189
 30
0.0
  0
SPLINE
  5
123
100
AcDbEntity
  8
0
 62
7
100
AcDbSpline
 70
8
 71
3
 72
8
 73
4
 74
0
 40
0
 40
0
 40
0
 40
0
 40
1
 40
1
 40
1
 40
1
 10
120.532041
 20
-50.340207
 30
0.0
 10
120.188248
 20
-50.340207
 30
0.0
 10
119.878307
 20
-50.547303
 30
0.0
 10
119.746743
 20
-50.864927
 30
0.0
  0
SPLINE
  5
124
100
AcDbEntity
  8
0
 62
7
100
AcDbSpline
 70
8
 71
3
 72
8
 73
4
 74
0
 40
0
 40
0
 40
0
 40
0
 40
1
 40
1
 40
1
 40
1
 10
119.746743
 20
-50.864927
 30
0.0
 10
119.615179
 20
-51.182550
 30
0.0
 10
119.687902
 20
-51.548151
 30
0.0
 10
119.931000
 20
-51.791249
 30
0.0
  0
SPLINE
  5
125
100
AcDbEntity
  8
0
 62
7
100
AcDbSpline
 70
8
 71
3
 72
8
 73
4
 74
0
 40
0
 40
0
 40
0
 40
0
 40
1
 40
1
 40
1
 40
1
 10
119.931000
 20
-51.791249
 30
0.0
 10
120.174098
 20
-52.034348
 30
0.0
 10
120.539699
 20
-52.107070
 30
0.0
 10
120.857322
 20
-51.975506
 30
0.0
  0
SPLINE
  5
126
100
AcDbEntity
  8
0
 62
7
100
AcDbSpline
 70
8
 71
3
 72
8
 73
4
 74
0
 40
0
 40
0
 40
0
 40
0
 40
1
 40
1
 40
1
 40
1
 10
120.857322
 20
-51.975506
 30
0.0
 10
121.174946
 20
-51.843942
 30
0.0
 10
121.382042
 20
-51.534001
 30
0.0
 10
121.382042
 20
-51.190208
 30
0.0
  0
SPLINE
  5
127
100
AcDbEntity
  8
0
 62
7
100
AcDbSpline
 70
8
 71
3
 72
8
 73
4
 74
0
 40
0
 40
0
 40
0
 40
0
 40
1
 40
1
 40
1
 40
1
 10
121.382042
 20
-51.190208
 30
0.0
 10
121.382042
 20
-50.964774
 30
0.0
 10
121.292488
 20
-50.748573
 30
0.0
 10
121.133082
 20
-50.589167
 30
0.0
  0
SPLINE
  5
128
100
AcDbEntity
  8
0
 62
7
100
AcDbSpline
 70
8
 71
3
 72
8
 73
4
 74
0
 40
0
 40
0
 40
0
 40
0
 40
1
 40
1
 40
1
 40
1
 10
121.133082
 20
-50.589167
 30
0.0
 10
120.973676
 20
-50.429761
 30
0.0
 10
120.757475
 20
-50.340207
 30
0.0
 10
120.532041
 20
-50.340207
 30
0.0
  0
LWPOLYLINE
  5
129
100
AcDbEntity
  8
0
 62
7
100
AcDbPolyline
 90
1
 70
1
 10
135.772059
 20
-50.340207
 30
0.0
  0
SPLINE
  5
12a
100
AcDbEntity
  8
0
 62
7
100
AcDbSpline
 70
8
 71
3
 72
8
 73
4
 74
0
 40
0
 40
0
 40
0
 40
0
 40
1
 40
1
 40
1
 40
1
 10
97.142025
 20
-12.810182
 30
0.0
 10
96.231985
 20
-12.810182
 30
0.0
 10
95.411553
 20
-13.358377
 30
0.0
 10
95.063295
 20
-14.199145
 30
0.0
  0
SPLINE
  5
12b
100
AcDbEntity
  8
0
 62
7
100
AcDbSpline
 70
8
 71
3
 72
8
 73
4
 74
0
 40
0
 40
0
 40
0
 40
0
 40
1
 40
1
 40
1
 40
1
 10
95.063295
 20
-14.199145
 30
0.0
 10
94.715038
 20
-15.039913
 30
0.0
 10
94.907538
 20
-16.007679
 30
0.0
 10
95.551034
 20
-16.651175
 30
0.0
  0
SPLINE
  5
12c
100
AcDbEntity
  8
0
 62
7
100
AcDbSpline
 70
8
 71
3
 72
8
 73
4
 74
0
 40
0
 40
0
 40
0
 40
0
 40
1
 40
1
 40
1
 40
1
 10
95.551034
 20
-16.651175
 30
0.0
 10
96.194530
 20
-17.294671
 30
0.0
 10
97.162296
 20
-17.487171
 30
0.0
 10
98.003064
 20
-17.138914
 30
0.0
  0
SPLINE
  5
12d
100
AcDbEntity
  8
0
 62
7
100
AcDbSpline
 70
8
 71
3
 72
8
 73
4
 74
0
 40
0
 40
0
 40
0
 40
0
 40
1
 40
1
 40
1
 40
1
 10
98.003064
 20
-17.138914
 30
0.0
 10
98.843832
 20
-16.790656
 30
0.0
 10
99.392027
 20
-15.970224
 30
0.0
 10
99.392027
 20
-15.060184
 30
0.0
  0
SPLINE
  5
12e
100
AcDbEntity
  8
0
 62
7
100
AcDbSpline
 70
8
 71
3
 72
8
 73
4
 74
0
 40
0
 40
0
 40
0
 40
0
 40
1
 40
1
 40
1
 40
1
 10
99.392027
 20
-15.060184
 30
0.0
 10
99.392027
 20
-14.463446
 30
0.0
 10
99.154974
 20
-13.891149
 30
0.0
 10
98.733017
 20
-13.469192
 30
0.0
  0
SPLINE
  5
12f
100
AcDbEntity
  8
0
 62
7
100
AcDbSpline
 70
8
 71
3
 72
8
 73
4
 74
0
 40
0
 40
0
 40
0
 40
0
 40
1
 40
1
 40
1
 40
1
 10
98.733017
 20
-13.469192
 30
0.0
 10
98.311060
 20
-13.047235
 30
0.0
 10
97.738763
 20
-12.810182
 30
0.0
 10
97.142025
 20
-12.810182
 30
0.0
  0
LWPOLYLINE
  5
130
100
AcDbEntity
  8
0
 62
7
100
AcDbPolyline
 90
1
 70
1
 10
120.532041
 20
-50.340207
 30
0.0
  0
SPLINE
  5
131
100
AcDbEntity
  8
0
 62
7
100
AcDbSpline
 70
8
 71
3
 72
8
 73
4
 74
0
 40
0
 40
0
 40
0
 40
0
 40
1
 40
1
 40
1
 40
1
 10
37.891986
 20
-80.560228
 30
0.0
 10
36.981945
 20
-80.560228
 30
0.0
 10
36.161513
 20
-81.108423
 30
0.0
 10
35.813255
 20
-81.949191
 30
0.0
  0
SPLINE
  5
132
100
AcDbEntity
  8
0
 62
7
100
AcDbSpline
 70
8
 71
3
 72
8
 73
4
 74
0
 40
0
 40
0
 40
0
 40
0
 40
1
 40
1
 40
1
 40
1
 10
35.813255
 20
-81.949191
 30
0.0
 10
35.464998
 20
-82.789959
 30
0.0
 10
35.657498
 20
-83.757725
 30
0.0
 10
36.300994
 20
-84.401221
 30
0.0
  0
SPLINE
  5
133
100
AcDbEntity
  8
0
 62
7
100
AcDbSpline
 70
8
 71
3
 72
8
 73
4
 74
0
 40
0
 40
0
 40
0
 40
0
 40
1
 40
1
 40
1
 40
1
 10
36.300994
 20
-84.401221
 30
0.0
 10
36.944490
 20
-85.044716
 30
0.0
 10
37.912256
 20
-85.237217
 30
0.0
 10
38.753024
 20
-84.888960
 30
0.0
  0
SPLINE
  5
134
100
AcDbEntity
  8
0
 62
7
100
AcDbSpline
 70
8
 71
3
 72
8
 73
4
 74
0
 40
0
 40
0
 40
0
 40
0
 40
1
 40
1
 40
1
 40
1
 10
38.753024
 20
-84.888960
 30
0.0
 10
39.593792
 20
-84.540702
 30
0.0
 10
40.141987
 20
-83.720270
 30
0.0
 10
40.141987
 20
-82.810229
 30
0.0
  0
SPLINE
  5
135
100
AcDbEntity
  8
0
 62
7
100
AcDbSpline
 70
8
 71
3
 72
8
 73
4
 74
0
 40
0
 40
0
 40
0
 40
0
 40
1
 40
1
 40
1
 40
1
 10
40.141987
 20
-82.810229
 30
0.0
 10
40.141987
 20
-82.213492
 30
0.0
 10
39.904934
 20
-81.641195
 30
0.0
 10
39.482977
 20
-81.219238
 30
0.0
  0
SPLINE
  5
136
100
AcDbEntity
  8
0
 62
7
100
AcDbSpline
 70
8
 71
3
 72
8
 73
4
 74
0
 40
0
 40
0
 40
0
 40
0
 40
1
 40
1
 40
1
 40
1
 10
39.482977
 20
-81.219238
 30
0.0
 10
39.061020
 20
-80.797281
 30
0.0
 10
38.488723
 20
-80.560228
 30
0.0
 10
37.891986
 20
-80.560228
 30
0.0
  0
LWPOLYLINE
  5
137
100
AcDbEntity
  8
0
 62
7
100
AcDbPolyline
 90
1
 70
1
 10
97.142025
 20
-12.810182
 30
0.0
  0
SPLINE
  5
138
100
AcDbEntity
  8
0
 62
7
100
AcDbSpline
 70
8
 71
3
 72
8
 73
4
 74
0
 40
0
 40
0
 40
0
 40
0
 40
1
 40
1
 40
1
 40
1
 10
24.641977
 20
-28.060192
 30
0.0
 10
23.731936
 20
-28.060192
 30
0.0
 10
22.911504
 20
-28.608388
 30
0.0
 10
22.563246
 20
-29.449156
 30
0.0
  0
SPLINE
  5
139
100
AcDbEntity
  8
0
 62
7
100
AcDbSpline
 70
8
 71
3
 72
8
 73
4
 74
0
 40
0
 40
0
 40
0
 40
0
 40
1
 40
1
 40
1
 40
1
 10
22.563246
 20
-29.449156
 30
0.0
 10
22.214989
 20
-30.289924
 30
0.0
 10
22.407489
 20
-31.257689
 30
0.0
 10
23.050985
 20
-31.901185
 30
0.0
  0
SPLINE
  5
13a
100
AcDbEntity
  8
0
 62
7
100
AcDbSpline
 70
8
 71
3
 72
8
 73
4
 74
0
 40
0
 40
0
 40
0
 40
0
 40
1
 40
1
 40
1
 40
1
 10
23.050985
 20
-31.901185
 30
0.0
 10
23.694481
 20
-32.544681
 30
0.0
 10
24.662247
 20
-32.737182
 30
0.0
 10
25.503015
 20
-32.388924
 30
0.0
  0
SPLINE
  5
13b
100
AcDbEntity
  8
0
 62
7
100
AcDbSpline
 70
8
 71
3
 72
8
 73
4
 74
0
 40
0
 40
0
 40
0
 40
0
 40
1
 40
1
 40
1
 40
1
 10
25.503015
 20
-32.388924
 30
0.0
 10
26.343783
 20
-32.040667
 30
0.0
 10
26.891978
 20
-31.220235
 30
0.0
 10
26.891978
 20
-30.310194
 30
0.0
  0
SPLINE
  5
13c
100
AcDbEntity
  8
0
 62
7
100
AcDbSpline
 70
8
 71
3
 72
8
 73
4
 74
0
 40
0
 40
0
 40
0
 40
0
 40
1
 40
1
 40
1
 40
1
 10
26.891978
 20
-30.310194
 30
0.0
 10
26.891978
 20
-29.713456
 30
0.0
 10
26.654925
 20
-29.141160
 30
0.0
 10
26.232968
 20
-28.719203
 30
0.0
  0
SPLINE
  5
13d
100
AcDbEntity
  8
0
 62
7
100
AcDbSpline
 70
8
 71
3
 72
8
 73
4
 74
0
 40
0
 40
0
 40
0
 40
0
 40
1
 40
1
 40
1
 40
1
 10
26.232968
 20
-28.719203
 30
0.0
 10
25.811011
 20
-28.297245
 30
0.0
 10
25.238714
 20
-28.060192
 30
0.0
 10
24.641977
 20
-28.060192
 30
0.0
  0
LWPOLYLINE
  5
13e
100
AcDbEntity
  8
0
 62
7
100
AcDbPolyline
 90
1
 70
1
 10
37.891986
 20
-80.560228
 30
0.0
  0
LWPOLYLINE
  5
13f
100
AcDbEntity
  8
0
 62
7
100
AcDbPolyline
 90
1
 70
1
 10
24.641977
 20
-28.060192
 30
0.0
  0
LWPOLYLINE
  5
140
100
AcDbEntity
  8
0
 62
7
100
AcDbPolyline
 90
20
 70
1
 10
88.274139
 20
-14.488683
 30
0.0
 10
88.277949
 20
-14.469553
 30
0.0
 10
88.288789
 20
-14.453333
 30
0.0
 10
88.305009
 20
-14.442493
 30
0.0
 10
88.324139
 20
-14.438683
 30
0.0
 10
88.959140
 20
-14.438683
 30
0.0
 10
88.978270
 20
-14.442493
 30
0.0
 10
88.994500
 20
-14.453333
 30
0.0
 10
89.005330
 20
-14.469553
 30
0.0
 10
89.009140
 20
-14.488683
 30
0.0
 10
89.009140
 20
-15.631684
 30
0.0
 10
89.005330
 20
-15.650814
 30
0.0
 10
88.994500
 20
-15.667044
 30
0.0
 10
88.978270
 20
-15.677874
 30
0.0
 10
88.959140
 20
-15.681684
 30
0.0
 10
88.324139
 20
-15.681684
 30
0.0
 10
88.305009
 20
-15.677874
 30
0.0
 10
88.288789
 20
-15.667044
 30
0.0
 10
88.277949
 20
-15.650814
 30
0.0
 10
88.274139
 20
-15.631684
 30
0.0
  0
LWPOLYLINE
  5
141
100
AcDbEntity
  8
0
 62
7
100
AcDbPolyline
 90
20
 70
1
 10
89.274900
 20
-14.488683
 30
0.0
 10
89.278710
 20
-14.469553
 30
0.0
 10
89.289550
 20
-14.453333
 30
0.0
 10
89.305770
 20
-14.442493
 30
0.0
 10
89.324900
 20
-14.438683
 30
0.0
 10
89.959901
 20
-14.438683
 30
0.0
 10
89.979031
 20
-14.442493
 30
0.0
 10
89.995261
 20
-14.453333
 30
0.0
 10
90.006091
 20
-14.469553
 30
0.0
 10
90.009901
 20
-14.488683
 30
0.0
 10
90.009901
 20
-15.631684
 30
0.0
 10
90.006091
 20
-15.650814
 30
0.0
 10
89.995261
 20
-15.667044
 30
0.0
 10
89.979031
 20
-15.677874
 30
0.0
 10
89.959901
 20
-15.681684
 30
0.0
 10
89.324900
 20
-15.681684
 30
0.0
 10
89.305770
 20
-15.677874
 30
0.0
 10
89.289550
 20
-15.667044
 30
0.0
 10
89.278710
 20
-15.650814
 30
0.0
 10
89.274900
 20
-15.631684
 30
0.0
  0
LWPOLYLINE
  5
142
100
AcDbEntity
  8
0
 62
1
100
AcDbPolyline
 90
2
 70
0
 10
138.142053
 20
-64.645497
 30
0.0
 10
138.142053
 20
-68.474261
 30
0.0
  0
LWPOLYLINE
  5
143
100
AcDbEntity
  8
0
 62
1
100
AcDbPolyline
 90
2
 70
0
 10
138.143613
 20
-68.510220
 30
0.0
 10
136.425332
 20
-68.510220
 30
0.0
  0
LWPOLYLINE
  5
144
100
AcDbEntity
  8
0
 62
1
100
AcDbPolyline
 90
2
 70
0
 10
116.152038
 20
-21.720188
 30
0.0
 10
116.152038
 20
-38.720200
 30
0.0
  0
LWPOLYLINE
  5
145
100
AcDbEntity
  8
0
 62
1
100
AcDbPolyline
 90
2
 70
0
 10
98.152026
 20
-21.720188
 30
0.0
 10
116.152038
 20
-21.720188
 30
0.0
  0
LWPOLYLINE
  5
146
100
AcDbEntity
  8
0
 62
1
100
AcDbPolyline
 90
3
 70
0
 10
116.152038
 20
-38.720200
 30
0.0
 10
98.152026
 20
-38.720200
 30
0.0
 10
98.152026
 20
-21.720188
 30
0.0
  0
LWPOLYLINE
  5
147
100
AcDbEntity
  8
0
 62
1
100
AcDbPolyline
 90
2
 70
0
 10
11.579108
 20
-36.620448
 30
0.0
 10
29.510630
 20
-35.051647
 30
0.0
  0
LWPOLYLINE
  5
148
100
AcDbEntity
  8
0
 62
1
100
AcDbPolyline
 90
2
 70
0
 10
13.060759
 20
-53.555770
 30
0.0
 10
11.579108
 20
-36.620448
 30
0.0
  0
LWPOLYLINE
  5
149
100
AcDbEntity
  8
0
 62
1
100
AcDbPolyline
 90
2
 70
0
 10
30.992281
 20
-51.986968
 30
0.0
 10
13.060759
 20
-53.555770
 30
0.0
  0
LWPOLYLINE
  5
14a
100
AcDbEntity
  8
0
 62
1
100
AcDbPolyline
 90
2
 70
0
 10
29.510630
 20
-35.051647
 30
0.0
 10
30.992281
 20
-51.986968
 30
0.0
  0
LWPOLYLINE
  5
14b
100
AcDbEntity
  8
0
 62
1
100
AcDbPolyline
 90
2
 70
0
 10
98.152026
 20
-38.720200
 30
0.0
 10
116.152038
 20
-38.720200
 30
0.0
  0
LWPOLYLINE
  5
14c
100
AcDbEntity
  8
0
 62
1
100
AcDbPolyline
 90
3
 70
0
 10
116.152038
 20
-55.720211
 30
0.0
 10
98.152026
 20
-55.720211
 30
0.0
 10
98.152026
 20
-38.720200
 30
0.0
  0
LWPOLYLINE
  5
14d
100
AcDbEntity
  8
0
 62
1
100
AcDbPolyline
 90
2
 70
0
 10
116.152038
 20
-38.720200
 30
0.0
 10
116.152038
 20
-55.720211
 30
0.0
  0
LWPOLYLINE
  5
14e
100
AcDbEntity
  8
0
 62
1
100
AcDbPolyline
 90
2
 70
0
 10
104.851561
 20
-108.112180
 30
0.0
 10
87.937079
 20
-101.955816
 30
0.0
  0
LWPOLYLINE
  5
14f
100
AcDbEntity
  8
0
 62
1
100
AcDbPolyline
 90
2
 70
0
 10
110.665905
 20
-92.137396
 30
0.0
 10
104.851561
 20
-108.112180
 30
0.0
  0
LWPOLYLINE
  5
150
100
AcDbEntity
  8
0
 62
1
100
AcDbPolyline
 90
3
 70
0
 10
87.937079
 20
-101.955816
 30
0.0
 10
93.751433
 20
-85.981021
 30
0.0
 10
110.665905
 20
-92.137396
 30
0.0
  0
LWPOLYLINE
  5
151
100
AcDbEntity
  8
0
 62
1
100
AcDbPolyline
 90
2
 70
0
 10
14.542410
 20
-70.491091
 30
0.0
 10
32.473922
 20
-68.922290
 30
0.0
  0
LWPOLYLINE
  5
152
100
AcDbEntity
  8
0
 62
1
100
AcDbPolyline
 90
2
 70
0
 10
16.024061
 20
-87.426412
 30
0.0
 10
14.542410
 20
-70.491091
 30
0.0
  0
LWPOLYLINE
  5
153
100
AcDbEntity
  8
0
 62
1
100
AcDbPolyline
 90
2
 70
0
 10
33.955573
 20
-85.857611
 30
0.0
 10
16.024061
 20
-87.426412
 30
0.0
  0
LWPOLYLINE
  5
154
100
AcDbEntity
  8
0
 62
1
100
AcDbPolyline
 90
2
 70
0
 10
32.473922
 20
-68.922290
 30
0.0
 10
33.955573
 20
-85.857611
 30
0.0
  0
LWPOLYLINE
  5
155
100
AcDbEntity
  8
0
 62
1
100
AcDbPolyline
 90
3
 70
0
 10
56.241998
 20
-17.720185
 30
0.0
 10
56.241998
 20
-34.720197
 30
0.0
 10
38.241986
 20
-34.720197
 30
0.0
  0
LWPOLYLINE
  5
156
100
AcDbEntity
  8
0
 62
1
100
AcDbPolyline
 90
2
 70
0
 10
38.241986
 20
-17.720185
 30
0.0
 10
56.241998
 20
-17.720185
 30
0.0
  0
LWPOLYLINE
  5
157
100
AcDbEntity
  8
0
 62
1
100
AcDbPolyline
 90
2
 70
0
 10
38.241986
 20
-34.720197
 30
0.0
 10
38.241986
 20
-17.720185
 30
0.0
  0
LWPOLYLINE
  5
158
100
AcDbEntity
  8
0
 62
1
100
AcDbPolyline
 90
2
 70
0
 10
124.342044
 20
-17.916186
 30
0.0
 10
131.962049
 20
-17.916186
 30
0.0
  0
LWPOLYLINE
  5
159
100
AcDbEntity
  8
0
 62
1
100
AcDbPolyline
 90
2
 70
0
 10
124.342044
 20
-20.041964
 30
0.0
 10
124.342044
 20
-17.873205
 30
0.0
  0
LWPOLYLINE
  5
15a
100
AcDbEntity
  8
0
 62
1
100
AcDbPolyline
 90
2
 70
0
 10
131.962049
 20
-17.873310
 30
0.0
 10
131.962049
 20
-20.049188
 30
0.0
  0
LWPOLYLINE
  5
15b
100
AcDbEntity
  8
0
 62
1
100
AcDbPolyline
 90
2
 70
0
 10
38.241986
 20
-51.720208
 30
0.0
 10
38.241986
 20
-34.720197
 30
0.0
  0
LWPOLYLINE
  5
15c
100
AcDbEntity
  8
0
 62
1
100
AcDbPolyline
 90
2
 70
0
 10
56.241998
 20
-34.720197
 30
0.0
 10
56.241998
 20
-51.720208
 30
0.0
  0
LWPOLYLINE
  5
15d
100
AcDbEntity
  8
0
 62
1
100
AcDbPolyline
 90
2
 70
0
 10
38.241986
 20
-34.720197
 30
0.0
 10
56.241998
 20
-34.720197
 30
0.0
  0
LWPOLYLINE
  5
15e
100
AcDbEntity
  8
0
 62
1
100
AcDbPolyline
 90
2
 70
0
 10
56.241998
 20
-51.720208
 30
0.0
 10
38.241986
 20
-51.720208
 30
0.0
  0
LWPOLYLINE
  5
15f
100
AcDbEntity
  8
0
 62
1
100
AcDbPolyline
 90
4
 70
1
 10
116.152038
 20
-72.720222
 30
0.0
 10
98.152026
 20
-72.720222
 30
0.0
 10
98.152026
 20
-55.720211
 30
0.0
 10
116.152038
 20
-55.720211
 30
0.0
  0
LWPOLYLINE
  5
160
100
AcDbEntity
  8
0
 62
1
100
AcDbPolyline
 90
4
 70
1
 10
113.654767
 20
-93.449086
 30
0.0
 10
129.243237
 20
-102.449096
 30
0.0
 10
120.743231
 20
-117.171546
 30
0.0
 10
105.154761
 20
-108.171540
 30
0.0
  0
LWPOLYLINE
  5
161
100
AcDbEntity
  8
0
 62
1
100
AcDbPolyline
 90
2
 70
0
 10
98.152026
 20
-52.720209
 30
0.0
 10
80.152014
 20
-52.720209
 30
0.0
  0
LWPOLYLINE
  5
162
100
AcDbEntity
  8
0
 62
1
100
AcDbPolyline
 90
2
 70
0
 10
98.152026
 20
-35.720198
 30
0.0
 10
98.152026
 20
-52.720209
 30
0.0
  0
LWPOLYLINE
  5
163
100
AcDbEntity
  8
0
 62
1
100
AcDbPolyline
 90
3
 70
0
 10
80.152014
 20
-52.720209
 30
0.0
 10
80.152014
 20
-35.720198
 30
0.0
 10
98.152026
 20
-35.720198
 30
0.0
  0
LWPOLYLINE
  5
164
100
AcDbEntity
  8
0
 62
1
100
AcDbPolyline
 90
2
 70
0
 10
98.152026
 20
-18.720186
 30
0.0
 10
98.152026
 20
-35.720198
 30
0.0
  0
LWPOLYLINE
  5
165
100
AcDbEntity
  8
0
 62
1
100
AcDbPolyline
 90
2
 70
0
 10
80.152014
 20
-35.720198
 30
0.0
 10
80.152014
 20
-18.720186
 30
0.0
  0
LWPOLYLINE
  5
166
100
AcDbEntity
  8
0
 62
1
100
AcDbPolyline
 90
2
 70
0
 10
98.152026
 20
-35.720198
 30
0.0
 10
80.152014
 20
-35.720198
 30
0.0
  0
LWPOLYLINE
  5
167
100
AcDbEntity
  8
0
 62
1
100
AcDbPolyline
 90
2
 70
0
 10
80.152014
 20
-18.720186
 30
0.0
 10
98.152026
 20
-18.720186
 30
0.0
  0
LWPOLYLINE
  5
168
100
AcDbEntity
  8
0
 62
1
100
AcDbPolyline
 90
2
 70
0
 10
79.102013
 20
-44.720204
 30
0.0
 10
61.102001
 20
-44.720204
 30
0.0
  0
LWPOLYLINE
  5
169
100
AcDbEntity
  8
0
 62
1
100
AcDbPolyline
 90
2
 70
0
 10
79.102013
 20
-27.720192
 30
0.0
 10
79.102013
 20
-44.720204
 30
0.0
  0
LWPOLYLINE
  5
16a
100
AcDbEntity
  8
0
 62
1
100
AcDbPolyline
 90
4
 70
0
 10
61.102001
 20
-44.720204
 30
0.0
 10
61.102001
 20
-27.720192
 30
0.0
 10
79.102013
 20
-27.720192
 30
0.0
 10
61.102001
 20
-27.720192
 30
0.0
  0
LWPOLYLINE
  5
16b
100
AcDbEntity
  8
0
 62
1
100
AcDbPolyline
 90
3
 70
0
 10
61.102001
 20
-10.720181
 30
0.0
 10
79.102013
 20
-10.720181
 30
0.0
 10
79.102013
 20
-27.720192
 30
0.0
  0
LWPOLYLINE
  5
16c
100
AcDbEntity
  8
0
 62
1
100
AcDbPolyline
 90
2
 70
0
 10
61.102001
 20
-27.720192
 30
0.0
 10
61.102001
 20
-10.720181
 30
0.0
  0
LWPOLYLINE
  5
16d
100
AcDbEntity
  8
0
 62
1
100
AcDbPolyline
 90
2
 70
0
 10
98.152026
 20
-52.720209
 30
0.0
 10
98.152026
 20
-69.720220
 30
0.0
  0
LWPOLYLINE
  5
16e
100
AcDbEntity
  8
0
 62
1
100
AcDbPolyline
 90
2
 70
0
 10
80.152014
 20
-69.720220
 30
0.0
 10
80.152014
 20
-52.720209
 30
0.0
  0
LWPOLYLINE
  5
16f
100
AcDbEntity
  8
0
 62
1
100
AcDbPolyline
 90
2
 70
0
 10
98.152026
 20
-69.720220
 30
0.0
 10
80.152014
 20
-69.720220
 30
0.0
  0
LWPOLYLINE
  5
170
100
AcDbEntity
  8
0
 62
1
100
AcDbPolyline
 90
2
 70
0
 10
80.152014
 20
-52.720209
 30
0.0
 10
98.152026
 20
-52.720209
 30
0.0
  0
LWPOLYLINE
  5
171
100
AcDbEntity
  8
0
 62
1
100
AcDbPolyline
 90
2
 70
0
 10
13.060759
 20
-53.555770
 30
0.0
 10
30.992271
 20
-51.986968
 30
0.0
  0
LWPOLYLINE
  5
172
100
AcDbEntity
  8
0
 62
1
100
AcDbPolyline
 90
2
 70
0
 10
32.473922
 20
-68.922290
 30
0.0
 10
14.542410
 20
-70.491091
 30
0.0
  0
LWPOLYLINE
  5
173
100
AcDbEntity
  8
0
 62
1
100
AcDbPolyline
 90
2
 70
0
 10
30.992271
 20
-51.986968
 30
0.0
 10
32.473922
 20
-68.922290
 30
0.0
  0
LWPOLYLINE
  5
174
100
AcDbEntity
  8
0
 62
1
100
AcDbPolyline
 90
2
 70
0
 10
14.542410
 20
-70.491091
 30
0.0
 10
13.060759
 20
-53.555770
 30
0.0
  0
LWPOLYLINE
  5
175
100
AcDbEntity
  8
0
 62
1
100
AcDbPolyline
 90
2
 70
0
 10
56.241998
 20
-51.720208
 30
0.0
 10
56.241998
 20
-68.720220
 30
0.0
  0
LWPOLYLINE
  5
176
100
AcDbEntity
  8
0
 62
1
100
AcDbPolyline
 90
2
 70
0
 10
38.241986
 20
-68.720220
 30
0.0
 10
38.241986
 20
-51.720208
 30
0.0
  0
LWPOLYLINE
  5
177
100
AcDbEntity
  8
0
 62
1
100
AcDbPolyline
 90
2
 70
0
 10
56.241998
 20
-68.720220
 30
0.0
 10
38.241986
 20
-68.720220
 30
0.0
  0
LWPOLYLINE
  5
178
100
AcDbEntity
  8
0
 62
1
100
AcDbPolyline
 90
2
 70
0
 10
38.241986
 20
-51.720208
 30
0.0
 10
56.241998
 20
-51.720208
 30
0.0
  0
LWPOLYLINE
  5
179
100
AcDbEntity
  8
0
 62
1
100
AcDbPolyline
 90
3
 70
0
 10
79.102013
 20
-44.720204
 30
0.0
 10
79.102013
 20
-61.720215
 30
0.0
 10
61.102001
 20
-61.720215
 30
0.0
  0
LWPOLYLINE
  5
17a
100
AcDbEntity
  8
0
 62
1
100
AcDbPolyline
 90
2
 70
0
 10
61.102001
 20
-44.720204
 30
0.0
 10
79.102013
 20
-44.720204
 30
0.0
  0
LWPOLYLINE
  5
17b
100
AcDbEntity
  8
0
 62
1
100
AcDbPolyline
 90
2
 70
0
 10
61.102001
 20
-61.720215
 30
0.0
 10
61.102001
 20
-44.720204
 30
0.0
  0
LWPOLYLINE
  5
17c
100
AcDbEntity
  8
0
 62
1
100
AcDbPolyline
 90
2
 70
0
 10
138.153193
 20
-64.610217
 30
0.0
 10
136.441312
 20
-64.610217
 30
0.0
  0
LWPOLYLINE
  5
17d
100
AcDbEntity
  8
0
 62
2
100
AcDbPolyline
 90
2
 70
0
 10
10.106227
 20
-34.842147
 30
0.0
 10
14.857580
 20
-88.707923
 30
0.0
  0
SPLINE
  5
17e
100
AcDbEntity
  8
0
 62
2
100
AcDbSpline
 70
8
 71
3
 72
8
 73
4
 74
0
 40
0
 40
0
 40
0
 40
0
 40
1
 40
1
 40
1
 40
1
 10
137.392053
 20
-62.560216
 30
0.0
 10
136.840384
 20
-62.561701
 30
0.0
 10
136.393538
 20
-63.008548
 30
0.0
 10
136.392052
 20
-63.560216
 30
0.0
  0
SPLINE
  5
17f
100
AcDbEntity
  8
0
 62
2
100
AcDbSpline
 70
8
 71
3
 72
8
 73
4
 74
0
 40
0
 40
0
 40
0
 40
0
 40
1
 40
1
 40
1
 40
1
 10
138.392063
 20
-20.825497
 30
0.0
 10
138.359262
 20
-20.418878
 30
0.0
 10
138.037653
 20
-20.095375
 30
0.0
 10
137.631233
 20
-20.060187
 30
0.0
  0
LWPOLYLINE
  5
180
100
AcDbEntity
  8
0
 62
2
100
AcDbPolyline
 90
2
 70
0
 10
138.392053
 20
-87.060232
 30
0.0
 10
138.392053
 20
-71.567192
 30
0.0
  0
LWPOLYLINE
  5
181
100
AcDbEntity
  8
0
 62
2
100
AcDbPolyline
 90
2
 70
0
 10
137.631233
 20
-20.060187
 30
0.0
 10
117.642039
 20
-20.060187
 30
0.0
  0
LWPOLYLINE
  5
182
100
AcDbEntity
  8
0
 62
2
100
AcDbPolyline
 90
2
 70
0
 10
138.392053
 20
-22.831099
 30
0.0
 10
138.392053
 20
-20.825497
 30
0.0
  0
LWPOLYLINE
  5
183
100
AcDbEntity
  8
0
 62
2
100
AcDbPolyline
 90
2
 70
0
 10
87.522019
 20
-102.300246
 30
0.0
 10
104.882031
 20
-108.630251
 30
0.0
  0
SPLINE
  5
184
100
AcDbEntity
  8
0
 62
2
100
AcDbSpline
 70
8
 71
3
 72
8
 73
4
 74
0
 40
0
 40
0
 40
0
 40
0
 40
1
 40
1
 40
1
 40
1
 10
136.392052
 20
-69.560220
 30
0.0
 10
136.390394
 20
-69.825942
 30
0.0
 10
136.495218
 20
-70.081260
 30
0.0
 10
136.683116
 20
-70.269157
 30
0.0
  0
SPLINE
  5
185
100
AcDbEntity
  8
0
 62
2
100
AcDbSpline
 70
8
 71
3
 72
8
 73
4
 74
0
 40
0
 40
0
 40
0
 40
0
 40
1
 40
1
 40
1
 40
1
 10
136.683116
 20
-70.269157
 30
0.0
 10
136.871013
 20
-70.457054
 30
0.0
 10
137.126331
 20
-70.561879
 30
0.0
 10
137.392053
 20
-70.560221
 30
0.0
  0
LWPOLYLINE
  5
186
100
AcDbEntity
  8
0
 62
2
100
AcDbPolyline
 90
2
 70
0
 10
138.392053
 20
-22.831099
 30
0.0
 10
138.392053
 20
-61.560215
 30
0.0
  0
SPLINE
  5
187
100
AcDbEntity
  8
0
 62
2
100
AcDbSpline
 70
8
 71
3
 72
8
 73
4
 74
0
 40
0
 40
0
 40
0
 40
0
 40
1
 40
1
 40
1
 40
1
 10
117.642039
 20
-20.060187
 30
0.0
 10
82.468427
 20
-0.684101
 30
0.0
 10
38.747129
 20
-6.694066
 30
0.0
 10
10.106227
 20
-34.842147
 30
0.0
  0
LWPOLYLINE
  5
188
100
AcDbEntity
  8
0
 62
2
100
AcDbPolyline
 90
2
 70
0
 10
104.882031
 20
-108.630251
 30
0.0
 10
120.852041
 20
-117.620257
 30
0.0
  0
LWPOLYLINE
  5
189
100
AcDbEntity
  8
0
 62
2
100
AcDbPolyline
 90
2
 70
0
 10
14.857580
 20
-88.707923
 30
0.0
 10
87.522019
 20
-102.300246
 30
0.0
  0
LWPOLYLINE
  5
18a
100
AcDbEntity
  8
0
 62
2
100
AcDbPolyline
 90
2
 70
0
 10
136.392052
 20
-63.560216
 30
0.0
 10
136.392052
 20
-69.560220
 30
0.0
  0
SPLINE
  5
18b
100
AcDbEntity
  8
0
 62
2
100
AcDbSpline
 70
8
 71
3
 72
8
 73
4
 74
0
 40
0
 40
0
 40
0
 40
0
 40
1
 40
1
 40
1
 40
1
 10
137.392053
 20
-62.560216
 30
0.0
 10
137.943653
 20
-62.558566
 30
0.0
 10
138.390404
 20
-62.111815
 30
0.0
 10
138.392053
 20
-61.560215
 30
0.0
  0
SPLINE
  5
18c
100
AcDbEntity
  8
0
 62
2
100
AcDbSpline
 70
8
 71
3
 72
8
 73
4
 74
0
 40
0
 40
0
 40
0
 40
0
 40
1
 40
1
 40
1
 40
1
 10
138.392013
 20
-71.567192
 30
0.0
 10
138.394517
 20
-71.300582
 30
0.0
 10
138.290195
 20
-71.044065
 30
0.0
 10
138.102325
 20
-70.854878
 30
0.0
  0
SPLINE
  5
18d
100
AcDbEntity
  8
0
 62
2
100
AcDbSpline
 70
8
 71
3
 72
8
 73
4
 74
0
 40
0
 40
0
 40
0
 40
0
 40
1
 40
1
 40
1
 40
1
 10
138.102325
 20
-70.854878
 30
0.0
 10
137.914456
 20
-70.665691
 30
0.0
 10
137.658673
 20
-70.559579
 30
0.0
 10
137.392053
 20
-70.560221
 30
0.0
  0
LWPOLYLINE
  5
18e
100
AcDbEntity
  8
0
 62
2
100
AcDbPolyline
 90
2
 70
0
 10
120.852041
 20
-117.620257
 30
0.0
 10
138.392053
 20
-87.060232
 30
0.0
  0
ENDSEC
  0
SECTION
  2
OBJECTS
  0
DICTIONARY
  5
C
330
0
100
AcDbDictionary
  3
ACAD_GROUP
350
D
  3
ACAD_MLINESTYLE
350
17
  0
DICTIONARY
  5
D
330
C
100
AcDbDictionary
  0
DICTIONARY
  5
1A
330
C
100
AcDbDictionary
  0
DICTIONARY
  5
17
330
C
100
AcDbDictionary
  3
STANDARD
350
18
  0
DICTIONARY
  5
19
330
C
100
AcDbDictionary
  0
ENDSEC
  0
EOF
