G04 #@! TF.GenerationSoftware,KiCad,Pcbnew,(5.99.0-13010-g08938463f1)*
G04 #@! TF.CreationDate,2022-03-17T12:01:58-05:00*
G04 #@! TF.ProjectId,om,6f6d2e6b-6963-4616-945f-706362585858,v1.0.0*
G04 #@! TF.SameCoordinates,Original*
G04 #@! TF.FileFunction,Soldermask,Bot*
G04 #@! TF.FilePolarity,Negative*
%FSLAX46Y46*%
G04 Gerber Fmt 4.6, Leading zero omitted, Abs format (unit mm)*
G04 Created by KiCad (PCBNEW (5.99.0-13010-g08938463f1)) date 2022-03-17 12:01:58*
%MOMM*%
%LPD*%
G01*
G04 APERTURE LIST*
G04 Aperture macros list*
%AMRoundRect*
0 Rectangle with rounded corners*
0 $1 Rounding radius*
0 $2 $3 $4 $5 $6 $7 $8 $9 X,Y pos of 4 corners*
0 Add a 4 corners polygon primitive as box body*
4,1,4,$2,$3,$4,$5,$6,$7,$8,$9,$2,$3,0*
0 Add four circle primitives for the rounded corners*
1,1,$1+$1,$2,$3*
1,1,$1+$1,$4,$5*
1,1,$1+$1,$6,$7*
1,1,$1+$1,$8,$9*
0 Add four rect primitives between the rounded corners*
20,1,$1+$1,$2,$3,$4,$5,0*
20,1,$1+$1,$4,$5,$6,$7,0*
20,1,$1+$1,$6,$7,$8,$9,0*
20,1,$1+$1,$8,$9,$2,$3,0*%
G04 Aperture macros list end*
%ADD10C,3.529000*%
%ADD11C,1.801800*%
%ADD12C,2.132000*%
%ADD13C,1.600000*%
%ADD14O,2.300000X1.700000*%
%ADD15RoundRect,0.050000X-0.876300X0.876300X-0.876300X-0.876300X0.876300X-0.876300X0.876300X0.876300X0*%
%ADD16C,1.852600*%
G04 APERTURE END LIST*
D10*
X214650000Y-118150000D03*
D11*
X220150000Y-118150000D03*
X209150000Y-118150000D03*
D12*
X209650000Y-114350000D03*
X219650000Y-114350000D03*
X214650000Y-112250000D03*
X214650000Y-112250000D03*
D11*
X220150000Y-135150000D03*
X209150000Y-135150000D03*
D10*
X214650000Y-135150000D03*
D12*
X209650000Y-131350000D03*
X219650000Y-131350000D03*
X214650000Y-129250000D03*
X214650000Y-129250000D03*
D10*
X195600000Y-98150000D03*
D11*
X190100000Y-98150000D03*
X201100000Y-98150000D03*
D12*
X190600000Y-94350000D03*
X200600000Y-94350000D03*
X195600000Y-92250000D03*
X195600000Y-92250000D03*
D11*
X129013445Y-149251416D03*
X139971587Y-148292702D03*
D10*
X134492516Y-148772059D03*
D12*
X139142298Y-144550740D03*
X129180351Y-145422298D03*
X133978297Y-142894510D03*
X133978297Y-142894510D03*
D11*
X182050000Y-90150000D03*
X171050000Y-90150000D03*
D10*
X176550000Y-90150000D03*
D12*
X181550000Y-86350000D03*
X171550000Y-86350000D03*
X176550000Y-84250000D03*
X176550000Y-84250000D03*
D11*
X190100000Y-132150001D03*
D10*
X195600000Y-132150001D03*
D11*
X201100000Y-132150001D03*
D12*
X200600000Y-128350001D03*
X190600000Y-128350001D03*
X195600000Y-126250001D03*
X195600000Y-126250001D03*
D10*
X214650000Y-101150000D03*
D11*
X209150000Y-101150000D03*
X220150000Y-101150000D03*
D12*
X219650000Y-97350000D03*
X209650000Y-97350000D03*
X214650000Y-95250000D03*
X214650000Y-95250000D03*
D11*
X148190000Y-131150000D03*
D10*
X153690000Y-131150000D03*
D11*
X159190000Y-131150000D03*
D12*
X148690000Y-127350000D03*
X158690000Y-127350000D03*
X153690000Y-125250000D03*
X153690000Y-125250000D03*
D11*
X182050000Y-107150000D03*
D10*
X176550000Y-107150000D03*
D11*
X171050000Y-107150000D03*
D12*
X181550000Y-103350000D03*
X171550000Y-103350000D03*
X176550000Y-101250000D03*
X176550000Y-101250000D03*
D13*
X242050000Y-140850000D03*
X235050000Y-140850000D03*
D14*
X232350000Y-138550000D03*
X232350000Y-143150000D03*
X233450000Y-138550000D03*
X233450000Y-143150000D03*
X237450000Y-138550000D03*
X237450000Y-143150000D03*
X240450000Y-138550000D03*
X240450000Y-143150000D03*
D10*
X195600000Y-115150000D03*
D11*
X190100000Y-115150000D03*
X201100000Y-115150000D03*
D12*
X200600000Y-111350000D03*
X190600000Y-111350000D03*
X195600000Y-109250000D03*
X195600000Y-109250000D03*
D11*
X126050150Y-115380796D03*
D10*
X131529221Y-114901439D03*
D11*
X137008292Y-114422082D03*
D12*
X126217056Y-111551678D03*
X136179003Y-110680120D03*
X131015002Y-109023890D03*
X131015002Y-109023890D03*
D11*
X171050000Y-124150000D03*
X182050000Y-124150000D03*
D10*
X176550000Y-124150000D03*
D12*
X171550000Y-120350000D03*
X181550000Y-120350000D03*
X176550000Y-118250000D03*
X176550000Y-118250000D03*
D11*
X202820888Y-163693247D03*
X212347168Y-169193247D03*
D10*
X207584028Y-166443247D03*
D12*
X205153901Y-160652350D03*
X213814155Y-165652350D03*
X210534028Y-161333697D03*
X210534028Y-161333697D03*
D11*
X159190000Y-97150000D03*
X148190000Y-97150000D03*
D10*
X153690000Y-97150000D03*
D12*
X158690000Y-93350000D03*
X148690000Y-93350000D03*
X153690000Y-91250000D03*
X153690000Y-91250000D03*
D11*
X148190000Y-114150000D03*
X159190000Y-114150000D03*
D10*
X153690000Y-114150000D03*
D12*
X148690000Y-110350000D03*
X158690000Y-110350000D03*
X153690000Y-108250000D03*
X153690000Y-108250000D03*
D15*
X226030000Y-95180000D03*
D16*
X226030000Y-97720000D03*
X226030000Y-100260000D03*
X226030000Y-102800000D03*
X226030000Y-105340000D03*
X226030000Y-107880000D03*
X226030000Y-110420000D03*
X226030000Y-112960000D03*
X226030000Y-115500000D03*
X226030000Y-118040000D03*
X226030000Y-120580000D03*
X226030000Y-123120000D03*
X241270000Y-95180000D03*
X241270000Y-97720000D03*
X241270000Y-100260000D03*
X241270000Y-102800000D03*
X241270000Y-105340000D03*
X241270000Y-107880000D03*
X241270000Y-110420000D03*
X241270000Y-112960000D03*
X241270000Y-115500000D03*
X241270000Y-118040000D03*
X241270000Y-120580000D03*
X241270000Y-123120000D03*
D10*
X133010868Y-131836749D03*
D11*
X138489939Y-131357392D03*
X127531797Y-132316106D03*
D12*
X127698703Y-128486988D03*
X137660650Y-127615430D03*
X132496649Y-125959200D03*
X132496649Y-125959200D03*
D10*
X223172485Y-175443247D03*
D11*
X218409345Y-172693247D03*
X227935625Y-178193247D03*
D12*
X229402612Y-174652350D03*
X220742358Y-169652350D03*
X226122485Y-170333697D03*
X226122485Y-170333697D03*
M02*
