G04 #@! TF.GenerationSoftware,KiCad,Pcbnew,(5.99.0-13010-g08938463f1)*
G04 #@! TF.CreationDate,2022-03-17T12:01:58-05:00*
G04 #@! TF.ProjectId,om,6f6d2e6b-6963-4616-945f-706362585858,v1.0.0*
G04 #@! TF.SameCoordinates,Original*
G04 #@! TF.FileFunction,Paste,Top*
G04 #@! TF.FilePolarity,Positive*
%FSLAX46Y46*%
G04 Gerber Fmt 4.6, Leading zero omitted, Abs format (unit mm)*
G04 Created by KiCad (PCBNEW (5.99.0-13010-g08938463f1)) date 2022-03-17 12:01:58*
%MOMM*%
%LPD*%
G01*
G04 APERTURE LIST*
%ADD10C,0.300000*%
G04 APERTURE END LIST*
D10*
X220357142Y-150357142D02*
X220357142Y-147357142D01*
X221500000Y-147357142D01*
X221785714Y-147500000D01*
X221928571Y-147642857D01*
X222071428Y-147928571D01*
X222071428Y-148357142D01*
X221928571Y-148642857D01*
X221785714Y-148785714D01*
X221500000Y-148928571D01*
X220357142Y-148928571D01*
X225071428Y-150357142D02*
X224071428Y-148928571D01*
X223357142Y-150357142D02*
X223357142Y-147357142D01*
X224500000Y-147357142D01*
X224785714Y-147500000D01*
X224928571Y-147642857D01*
X225071428Y-147928571D01*
X225071428Y-148357142D01*
X224928571Y-148642857D01*
X224785714Y-148785714D01*
X224500000Y-148928571D01*
X223357142Y-148928571D01*
X226928571Y-147357142D02*
X227500000Y-147357142D01*
X227785714Y-147500000D01*
X228071428Y-147785714D01*
X228214285Y-148357142D01*
X228214285Y-149357142D01*
X228071428Y-149928571D01*
X227785714Y-150214285D01*
X227500000Y-150357142D01*
X226928571Y-150357142D01*
X226642857Y-150214285D01*
X226357142Y-149928571D01*
X226214285Y-149357142D01*
X226214285Y-148357142D01*
X226357142Y-147785714D01*
X226642857Y-147500000D01*
X226928571Y-147357142D01*
X230500000Y-148785714D02*
X230928571Y-148928571D01*
X231071428Y-149071428D01*
X231214285Y-149357142D01*
X231214285Y-149785714D01*
X231071428Y-150071428D01*
X230928571Y-150214285D01*
X230642857Y-150357142D01*
X229500000Y-150357142D01*
X229500000Y-147357142D01*
X230500000Y-147357142D01*
X230785714Y-147500000D01*
X230928571Y-147642857D01*
X231071428Y-147928571D01*
X231071428Y-148214285D01*
X230928571Y-148500000D01*
X230785714Y-148642857D01*
X230500000Y-148785714D01*
X229500000Y-148785714D01*
X233928571Y-150357142D02*
X232500000Y-150357142D01*
X232500000Y-147357142D01*
X234928571Y-148785714D02*
X235928571Y-148785714D01*
X236357142Y-150357142D02*
X234928571Y-150357142D01*
X234928571Y-147357142D01*
X236357142Y-147357142D01*
X237642857Y-150357142D02*
X237642857Y-147357142D01*
X238642857Y-149500000D01*
X239642857Y-147357142D01*
X239642857Y-150357142D01*
X218071428Y-151357142D02*
X219785714Y-151357142D01*
X218928571Y-154357142D02*
X218928571Y-151357142D01*
X221357142Y-151357142D02*
X221928571Y-151357142D01*
X222214285Y-151500000D01*
X222500000Y-151785714D01*
X222642857Y-152357142D01*
X222642857Y-153357142D01*
X222500000Y-153928571D01*
X222214285Y-154214285D01*
X221928571Y-154357142D01*
X221357142Y-154357142D01*
X221071428Y-154214285D01*
X220785714Y-153928571D01*
X220642857Y-153357142D01*
X220642857Y-152357142D01*
X220785714Y-151785714D01*
X221071428Y-151500000D01*
X221357142Y-151357142D01*
X224500000Y-151357142D02*
X225071428Y-151357142D01*
X225357142Y-151500000D01*
X225642857Y-151785714D01*
X225785714Y-152357142D01*
X225785714Y-153357142D01*
X225642857Y-153928571D01*
X225357142Y-154214285D01*
X225071428Y-154357142D01*
X224500000Y-154357142D01*
X224214285Y-154214285D01*
X223928571Y-153928571D01*
X223785714Y-153357142D01*
X223785714Y-152357142D01*
X223928571Y-151785714D01*
X224214285Y-151500000D01*
X224500000Y-151357142D01*
X230357142Y-152785714D02*
X230785714Y-152928571D01*
X230928571Y-153071428D01*
X231071428Y-153357142D01*
X231071428Y-153785714D01*
X230928571Y-154071428D01*
X230785714Y-154214285D01*
X230500000Y-154357142D01*
X229357142Y-154357142D01*
X229357142Y-151357142D01*
X230357142Y-151357142D01*
X230642857Y-151500000D01*
X230785714Y-151642857D01*
X230928571Y-151928571D01*
X230928571Y-152214285D01*
X230785714Y-152500000D01*
X230642857Y-152642857D01*
X230357142Y-152785714D01*
X229357142Y-152785714D01*
X232357142Y-151357142D02*
X232357142Y-153785714D01*
X232500000Y-154071428D01*
X232642857Y-154214285D01*
X232928571Y-154357142D01*
X233500000Y-154357142D01*
X233785714Y-154214285D01*
X233928571Y-154071428D01*
X234071428Y-153785714D01*
X234071428Y-151357142D01*
X235357142Y-154214285D02*
X235785714Y-154357142D01*
X236500000Y-154357142D01*
X236785714Y-154214285D01*
X236928571Y-154071428D01*
X237071428Y-153785714D01*
X237071428Y-153500000D01*
X236928571Y-153214285D01*
X236785714Y-153071428D01*
X236500000Y-152928571D01*
X235928571Y-152785714D01*
X235642857Y-152642857D01*
X235500000Y-152500000D01*
X235357142Y-152214285D01*
X235357142Y-151928571D01*
X235500000Y-151642857D01*
X235642857Y-151500000D01*
X235928571Y-151357142D01*
X236642857Y-151357142D01*
X237071428Y-151500000D01*
X238928571Y-152928571D02*
X238928571Y-154357142D01*
X237928571Y-151357142D02*
X238928571Y-152928571D01*
X239928571Y-151357142D01*
X221595238Y-155357142D02*
X221595238Y-157785714D01*
X221685714Y-158071428D01*
X221776190Y-158214285D01*
X221957142Y-158357142D01*
X222319047Y-158357142D01*
X222500000Y-158214285D01*
X222590476Y-158071428D01*
X222680952Y-157785714D01*
X222680952Y-155357142D01*
X223585714Y-158357142D02*
X223585714Y-155357142D01*
X224671428Y-158357142D01*
X224671428Y-155357142D01*
X225395238Y-155357142D02*
X225847619Y-158357142D01*
X226209523Y-156214285D01*
X226571428Y-158357142D01*
X227023809Y-155357142D01*
X228109523Y-155357142D02*
X228471428Y-155357142D01*
X228652380Y-155500000D01*
X228833333Y-155785714D01*
X228923809Y-156357142D01*
X228923809Y-157357142D01*
X228833333Y-157928571D01*
X228652380Y-158214285D01*
X228471428Y-158357142D01*
X228109523Y-158357142D01*
X227928571Y-158214285D01*
X227747619Y-157928571D01*
X227657142Y-157357142D01*
X227657142Y-156357142D01*
X227747619Y-155785714D01*
X227928571Y-155500000D01*
X228109523Y-155357142D01*
X230823809Y-158357142D02*
X230190476Y-156928571D01*
X229738095Y-158357142D02*
X229738095Y-155357142D01*
X230461904Y-155357142D01*
X230642857Y-155500000D01*
X230733333Y-155642857D01*
X230823809Y-155928571D01*
X230823809Y-156357142D01*
X230733333Y-156642857D01*
X230642857Y-156785714D01*
X230461904Y-156928571D01*
X229738095Y-156928571D01*
X231366666Y-155357142D02*
X232452380Y-155357142D01*
X231909523Y-158357142D02*
X231909523Y-155357142D01*
X233085714Y-158357142D02*
X233085714Y-155357142D01*
X233085714Y-156785714D02*
X234171428Y-156785714D01*
X234171428Y-158357142D02*
X234171428Y-155357142D01*
X235076190Y-158357142D02*
X235076190Y-155357142D01*
X235980952Y-158357142D02*
X235980952Y-155357142D01*
X237066666Y-158357142D01*
X237066666Y-155357142D01*
X237971428Y-156785714D02*
X238604761Y-156785714D01*
X238876190Y-158357142D02*
X237971428Y-158357142D01*
X237971428Y-155357142D01*
X238876190Y-155357142D01*
X239600000Y-158214285D02*
X239871428Y-158357142D01*
X240323809Y-158357142D01*
X240504761Y-158214285D01*
X240595238Y-158071428D01*
X240685714Y-157785714D01*
X240685714Y-157500000D01*
X240595238Y-157214285D01*
X240504761Y-157071428D01*
X240323809Y-156928571D01*
X239961904Y-156785714D01*
X239780952Y-156642857D01*
X239690476Y-156500000D01*
X239600000Y-156214285D01*
X239600000Y-155928571D01*
X239690476Y-155642857D01*
X239780952Y-155500000D01*
X239961904Y-155357142D01*
X240414285Y-155357142D01*
X240685714Y-155500000D01*
X241409523Y-158214285D02*
X241680952Y-158357142D01*
X242133333Y-158357142D01*
X242314285Y-158214285D01*
X242404761Y-158071428D01*
X242495238Y-157785714D01*
X242495238Y-157500000D01*
X242404761Y-157214285D01*
X242314285Y-157071428D01*
X242133333Y-156928571D01*
X241771428Y-156785714D01*
X241590476Y-156642857D01*
X241500000Y-156500000D01*
X241409523Y-156214285D01*
X241409523Y-155928571D01*
X241500000Y-155642857D01*
X241590476Y-155500000D01*
X241771428Y-155357142D01*
X242223809Y-155357142D01*
X242495238Y-155500000D01*
M02*
