M48
; DRILL file {KiCad (5.99.0-13010-g08938463f1)} date Thu Mar 17 12:02:19 2022
; FORMAT={-:-/ absolute / metric / decimal}
; #@! TF.CreationDate,2022-03-17T12:02:19-05:00
; #@! TF.GenerationSoftware,Kicad,Pcbnew,(5.99.0-13010-g08938463f1)
; #@! TF.FileFunction,NonPlated,1,2,NPTH
FMAT,2
METRIC
; #@! TA.AperFunction,NonPlated,NPTH,ComponentDrill
T1C1.500
; #@! TA.AperFunction,NonPlated,NPTH,ComponentDrill
T2C1.702
; #@! TA.AperFunction,NonPlated,NPTH,ComponentDrill
T3C3.429
%
G90
G05
T1
X235.05Y-140.85
X242.05Y-140.85
T2
X126.05Y-115.381
X127.532Y-132.316
X129.013Y-149.251
X137.008Y-114.422
X138.49Y-131.357
X139.972Y-148.293
X148.19Y-97.15
X148.19Y-114.15
X148.19Y-131.15
X159.19Y-97.15
X159.19Y-114.15
X159.19Y-131.15
X171.05Y-90.15
X171.05Y-107.15
X171.05Y-124.15
X182.05Y-90.15
X182.05Y-107.15
X182.05Y-124.15
X190.1Y-98.15
X190.1Y-115.15
X190.1Y-132.15
X201.1Y-98.15
X201.1Y-115.15
X201.1Y-132.15
X202.821Y-163.693
X209.15Y-101.15
X209.15Y-118.15
X209.15Y-135.15
X212.347Y-169.193
X218.409Y-172.693
X220.15Y-101.15
X220.15Y-118.15
X220.15Y-135.15
X227.936Y-178.193
T3
X131.529Y-114.901
X133.011Y-131.837
X134.493Y-148.772
X153.69Y-97.15
X153.69Y-114.15
X153.69Y-131.15
X176.55Y-90.15
X176.55Y-107.15
X176.55Y-124.15
X195.6Y-98.15
X195.6Y-115.15
X195.6Y-132.15
X207.584Y-166.443
X214.65Y-101.15
X214.65Y-118.15
X214.65Y-135.15
X223.172Y-175.443
T0
M30
