M48
; DRILL file {KiCad (5.99.0-13010-g08938463f1)} date Thu Mar 17 12:02:19 2022
; FORMAT={-:-/ absolute / metric / decimal}
; #@! TF.CreationDate,2022-03-17T12:02:19-05:00
; #@! TF.GenerationSoftware,Kicad,Pcbnew,(5.99.0-13010-g08938463f1)
; #@! TF.FileFunction,Plated,1,2,PTH
FMAT,2
METRIC
; #@! TA.AperFunction,Plated,PTH,ComponentDrill
T1C0.900
; #@! TA.AperFunction,Plated,PTH,ComponentDrill
T2C1.092
; #@! TA.AperFunction,Plated,PTH,ComponentDrill
T3C1.270
%
G90
G05
T2
X226.03Y-95.18
X226.03Y-97.72
X226.03Y-100.26
X226.03Y-102.8
X226.03Y-105.34
X226.03Y-107.88
X226.03Y-110.42
X226.03Y-112.96
X226.03Y-115.5
X226.03Y-118.04
X226.03Y-120.58
X226.03Y-123.12
X241.27Y-95.18
X241.27Y-97.72
X241.27Y-100.26
X241.27Y-102.8
X241.27Y-105.34
X241.27Y-107.88
X241.27Y-110.42
X241.27Y-112.96
X241.27Y-115.5
X241.27Y-118.04
X241.27Y-120.58
X241.27Y-123.12
T3
X126.217Y-111.552
X127.699Y-128.487
X129.18Y-145.422
X131.015Y-109.024
X131.015Y-109.024
X132.497Y-125.959
X132.497Y-125.959
X133.978Y-142.895
X133.978Y-142.895
X136.179Y-110.68
X137.661Y-127.615
X139.142Y-144.551
X148.69Y-93.35
X148.69Y-110.35
X148.69Y-127.35
X153.69Y-91.25
X153.69Y-91.25
X153.69Y-108.25
X153.69Y-108.25
X153.69Y-125.25
X153.69Y-125.25
X158.69Y-93.35
X158.69Y-110.35
X158.69Y-127.35
X171.55Y-86.35
X171.55Y-103.35
X171.55Y-120.35
X176.55Y-84.25
X176.55Y-84.25
X176.55Y-101.25
X176.55Y-101.25
X176.55Y-118.25
X176.55Y-118.25
X181.55Y-86.35
X181.55Y-103.35
X181.55Y-120.35
X190.6Y-94.35
X190.6Y-111.35
X190.6Y-128.35
X195.6Y-92.25
X195.6Y-92.25
X195.6Y-109.25
X195.6Y-109.25
X195.6Y-126.25
X195.6Y-126.25
X200.6Y-94.35
X200.6Y-111.35
X200.6Y-128.35
X205.154Y-160.652
X209.65Y-97.35
X209.65Y-114.35
X209.65Y-131.35
X210.534Y-161.334
X210.534Y-161.334
X213.814Y-165.652
X214.65Y-95.25
X214.65Y-95.25
X214.65Y-112.25
X214.65Y-112.25
X214.65Y-129.25
X214.65Y-129.25
X219.65Y-97.35
X219.65Y-114.35
X219.65Y-131.35
X220.742Y-169.652
X226.122Y-170.334
X226.122Y-170.334
X229.403Y-174.652
T1
G00X232.65Y-138.55
M15
G01X232.05Y-138.55
M16
G05
G00X232.65Y-143.15
M15
G01X232.05Y-143.15
M16
G05
G00X233.75Y-138.55
M15
G01X233.15Y-138.55
M16
G05
G00X233.75Y-143.15
M15
G01X233.15Y-143.15
M16
G05
G00X237.75Y-138.55
M15
G01X237.15Y-138.55
M16
G05
G00X237.75Y-143.15
M15
G01X237.15Y-143.15
M16
G05
G00X240.75Y-138.55
M15
G01X240.15Y-138.55
M16
G05
G00X240.75Y-143.15
M15
G01X240.15Y-143.15
M16
G05
T0
M30
