%FSLAX45Y45*%
G04 Gerber Fmt 4.5, Leading zero omitted, Abs format (unit mm)*
G04 Created by KiCad (PCBNEW (6.0.4)) date 2022-07-01 16:07:05*
%MOMM*%
%LPD*%
G01*
G04 APERTURE LIST*
%TA.AperFunction,Profile*%
%ADD10C,0.050000*%
%TD*%
%ADD11C,0.200000*%
%ADD12C,0.030000*%
%ADD13C,0.090000*%
%ADD14C,0.100000*%
%ADD15C,0.150000*%
%ADD16C,0.170180*%
%ADD17C,0.342900*%
%ADD18C,0.590000*%
G04 APERTURE END LIST*
D10*
X13812426Y-12524195D02*
X14287561Y-17910769D01*
X27515337Y-12343949D02*
X27516000Y-11121000D01*
X26641000Y-17746000D02*
X26641000Y-16196697D01*
X26691000Y-12071000D02*
G75*
G03*
X26641000Y-12071000I-25000J-2241D01*
G01*
X26541000Y-15296000D02*
G75*
G03*
X26441000Y-15396000I270J-100270D01*
G01*
X26766000Y-11046000D02*
X27439918Y-11044469D01*
X26641001Y-11122531D02*
G75*
G03*
X26564918Y-11046000I-83291J-6719D01*
G01*
X26691000Y-12346000D02*
G75*
G03*
X26766000Y-12421000I81580J6580D01*
G01*
X26564918Y-11046000D02*
X24566000Y-11046000D01*
X26641000Y-11323091D02*
X26641000Y-11122531D01*
X21554000Y-19270000D02*
X23290000Y-19903000D01*
X26641000Y-12071000D02*
X26641000Y-15196000D01*
X26441000Y-15996000D02*
G75*
G03*
X26541000Y-16096000I99380J-620D01*
G01*
X23290000Y-19903000D02*
X24887000Y-20802000D01*
X27438806Y-12420028D02*
G75*
G03*
X27515337Y-12343949I-6717J83289D01*
G01*
X26766000Y-12421000D02*
X27438807Y-12420031D01*
X24566000Y-11046000D02*
G75*
G03*
X13812426Y-12524195I-4384341J-7958941D01*
G01*
X26641000Y-11323091D02*
G75*
G03*
X26691000Y-11323091I25000J2241D01*
G01*
X14287561Y-17910769D02*
X21554000Y-19270000D01*
X26691000Y-11323091D02*
X26691000Y-11121000D01*
X26441000Y-15396000D02*
X26441000Y-15996000D01*
X24887000Y-20802000D02*
X26641000Y-17746000D01*
X26766000Y-11046000D02*
G75*
G03*
X26691000Y-11121000I6580J-81580D01*
G01*
X26691000Y-12346000D02*
X26691000Y-12071000D01*
X26541000Y-15296000D02*
G75*
G03*
X26641000Y-15196000I-300J100300D01*
G01*
X26640996Y-16196697D02*
G75*
G03*
X26541000Y-16096000I-99756J937D01*
G01*
X27516001Y-11121000D02*
G75*
G03*
X27439918Y-11044469I-83291J-6720D01*
G01*
D11*
D12*
X14475782Y-15200303D02*
X14505782Y-15230303D01*
X14505782Y-15200303D02*
X14475782Y-15230303D01*
D11*
X14460526Y-14926842D02*
X14511076Y-15504635D01*
X14470487Y-14925971D02*
X14521038Y-15503764D01*
X14511076Y-15504635D02*
G75*
G03*
X14521038Y-15503764I4981J436D01*
G01*
X14470487Y-14925971D02*
G75*
G03*
X14460525Y-14926842I-4981J-436D01*
G01*
D12*
X14813869Y-14819387D02*
X14843869Y-14849387D01*
X14843869Y-14819387D02*
X14813869Y-14849387D01*
D11*
X14819966Y-14789994D02*
X14827810Y-14879652D01*
X14829928Y-14789123D02*
X14837772Y-14878780D01*
X14827810Y-14879652D02*
G75*
G03*
X14837772Y-14878780I4981J436D01*
G01*
X14829928Y-14789123D02*
G75*
G03*
X14819966Y-14789994I-4981J-436D01*
G01*
D12*
X15029110Y-14755384D02*
X15059110Y-14785384D01*
X15059110Y-14755384D02*
X15029110Y-14785384D01*
D11*
X15262837Y-14746229D02*
X14824511Y-14784578D01*
X15263709Y-14756191D02*
X14825383Y-14794539D01*
X14824511Y-14784578D02*
G75*
G03*
X14825383Y-14794540I436J-4981D01*
G01*
X15263709Y-14756191D02*
G75*
G03*
X15262837Y-14746229I-436J4981D01*
G01*
D12*
X15038261Y-14859985D02*
X15068261Y-14889985D01*
X15068261Y-14859985D02*
X15038261Y-14889985D01*
D11*
X15640580Y-14818582D02*
X14465071Y-14921426D01*
X15641452Y-14828544D02*
X14465942Y-14931388D01*
X14465071Y-14921426D02*
G75*
G03*
X14465942Y-14931388I436J-4981D01*
G01*
X15641452Y-14828544D02*
G75*
G03*
X15640580Y-14818582I-436J4981D01*
G01*
D12*
X15088812Y-15437778D02*
X15118812Y-15467778D01*
X15118812Y-15437778D02*
X15088812Y-15467778D01*
D11*
X15691131Y-15396375D02*
X14515621Y-15499219D01*
X15692002Y-15406337D02*
X14516493Y-15509181D01*
X14515621Y-15499219D02*
G75*
G03*
X14516493Y-15509181I436J-4981D01*
G01*
X15692002Y-15406337D02*
G75*
G03*
X15691131Y-15396375I-436J4981D01*
G01*
D12*
X15252195Y-14781039D02*
X15282195Y-14811039D01*
X15282195Y-14781039D02*
X15252195Y-14811039D01*
D11*
X15258292Y-14751646D02*
X15266136Y-14841303D01*
X15268254Y-14750774D02*
X15276098Y-14840432D01*
X15266136Y-14841303D02*
G75*
G03*
X15276098Y-14840432I4981J436D01*
G01*
X15268254Y-14750774D02*
G75*
G03*
X15258292Y-14751646I-4981J-436D01*
G01*
D12*
X15651291Y-15097459D02*
X15681291Y-15127459D01*
X15681291Y-15097459D02*
X15651291Y-15127459D01*
D11*
X15636035Y-14823999D02*
X15686586Y-15401791D01*
X15645997Y-14823127D02*
X15696548Y-15400920D01*
X15686586Y-15401792D02*
G75*
G03*
X15696548Y-15400920I4981J436D01*
G01*
X15645997Y-14823127D02*
G75*
G03*
X15636035Y-14823999I-4981J-436D01*
G01*
D12*
X16921000Y-13347000D02*
X16951000Y-13377000D01*
X16951000Y-13347000D02*
X16921000Y-13377000D01*
D11*
X16931000Y-13072000D02*
X16931000Y-13652000D01*
X16941000Y-13072000D02*
X16941000Y-13652000D01*
X16931000Y-13652000D02*
G75*
G03*
X16941000Y-13652000I5000J0D01*
G01*
X16941000Y-13072000D02*
G75*
G03*
X16931000Y-13072000I-5000J0D01*
G01*
D12*
X17291000Y-12997000D02*
X17321000Y-13027000D01*
X17321000Y-12997000D02*
X17291000Y-13027000D01*
D11*
X17301000Y-12967000D02*
X17301000Y-13057000D01*
X17311000Y-12967000D02*
X17311000Y-13057000D01*
X17301000Y-13057000D02*
G75*
G03*
X17311000Y-13057000I5000J0D01*
G01*
X17311000Y-12967000D02*
G75*
G03*
X17301000Y-12967000I-5000J0D01*
G01*
D12*
X17511000Y-12952000D02*
X17541000Y-12982000D01*
X17541000Y-12952000D02*
X17511000Y-12982000D01*
D11*
X17746000Y-12962000D02*
X17306000Y-12962000D01*
X17746000Y-12972000D02*
X17306000Y-12972000D01*
X17306000Y-12962000D02*
G75*
G03*
X17306000Y-12972000I0J-5000D01*
G01*
X17746000Y-12972000D02*
G75*
G03*
X17746000Y-12962000I0J5000D01*
G01*
D12*
X17511000Y-13057000D02*
X17541000Y-13087000D01*
X17541000Y-13057000D02*
X17511000Y-13087000D01*
D11*
X18116000Y-13067000D02*
X16936000Y-13067000D01*
X18116000Y-13077000D02*
X16936000Y-13077000D01*
X16936000Y-13067000D02*
G75*
G03*
X16936000Y-13077000I0J-5000D01*
G01*
X18116000Y-13077000D02*
G75*
G03*
X18116000Y-13067000I0J5000D01*
G01*
D12*
X17511000Y-13637000D02*
X17541000Y-13667000D01*
X17541000Y-13637000D02*
X17511000Y-13667000D01*
D11*
X18116000Y-13647000D02*
X16936000Y-13647000D01*
X18116000Y-13657000D02*
X16936000Y-13657000D01*
X16936000Y-13647000D02*
G75*
G03*
X16936000Y-13657000I0J-5000D01*
G01*
X18116000Y-13657000D02*
G75*
G03*
X18116000Y-13647000I0J5000D01*
G01*
D12*
X17731000Y-12997000D02*
X17761000Y-13027000D01*
X17761000Y-12997000D02*
X17731000Y-13027000D01*
D11*
X17741000Y-12967000D02*
X17741000Y-13057000D01*
X17751000Y-12967000D02*
X17751000Y-13057000D01*
X17741000Y-13057000D02*
G75*
G03*
X17751000Y-13057000I5000J0D01*
G01*
X17751000Y-12967000D02*
G75*
G03*
X17741000Y-12967000I-5000J0D01*
G01*
D12*
X18101000Y-13347000D02*
X18131000Y-13377000D01*
X18131000Y-13347000D02*
X18101000Y-13377000D01*
D11*
X18111000Y-13072000D02*
X18111000Y-13652000D01*
X18121000Y-13072000D02*
X18121000Y-13652000D01*
X18111000Y-13652000D02*
G75*
G03*
X18121000Y-13652000I5000J0D01*
G01*
X18121000Y-13072000D02*
G75*
G03*
X18111000Y-13072000I-5000J0D01*
G01*
D12*
X19207000Y-12647000D02*
X19237000Y-12677000D01*
X19237000Y-12647000D02*
X19207000Y-12677000D01*
D11*
X19217000Y-12372000D02*
X19217000Y-12952000D01*
X19227000Y-12372000D02*
X19227000Y-12952000D01*
X19217000Y-12952000D02*
G75*
G03*
X19227000Y-12952000I5000J0D01*
G01*
X19227000Y-12372000D02*
G75*
G03*
X19217000Y-12372000I-5000J0D01*
G01*
D12*
X19577000Y-12297000D02*
X19607000Y-12327000D01*
X19607000Y-12297000D02*
X19577000Y-12327000D01*
D11*
X19587000Y-12267000D02*
X19587000Y-12357000D01*
X19597000Y-12267000D02*
X19597000Y-12357000D01*
X19587000Y-12357000D02*
G75*
G03*
X19597000Y-12357000I5000J0D01*
G01*
X19597000Y-12267000D02*
G75*
G03*
X19587000Y-12267000I-5000J0D01*
G01*
D12*
X19797000Y-12252000D02*
X19827000Y-12282000D01*
X19827000Y-12252000D02*
X19797000Y-12282000D01*
D11*
X20032000Y-12262000D02*
X19592000Y-12262000D01*
X20032000Y-12272000D02*
X19592000Y-12272000D01*
X19592000Y-12262000D02*
G75*
G03*
X19592000Y-12272000I0J-5000D01*
G01*
X20032000Y-12272000D02*
G75*
G03*
X20032000Y-12262000I0J5000D01*
G01*
D12*
X19797000Y-12357000D02*
X19827000Y-12387000D01*
X19827000Y-12357000D02*
X19797000Y-12387000D01*
D11*
X20402000Y-12367000D02*
X19222000Y-12367000D01*
X20402000Y-12377000D02*
X19222000Y-12377000D01*
X19222000Y-12367000D02*
G75*
G03*
X19222000Y-12377000I0J-5000D01*
G01*
X20402000Y-12377000D02*
G75*
G03*
X20402000Y-12367000I0J5000D01*
G01*
D12*
X19797000Y-12937000D02*
X19827000Y-12967000D01*
X19827000Y-12937000D02*
X19797000Y-12967000D01*
D11*
X20402000Y-12947000D02*
X19222000Y-12947000D01*
X20402000Y-12957000D02*
X19222000Y-12957000D01*
X19222000Y-12947000D02*
G75*
G03*
X19222000Y-12957000I0J-5000D01*
G01*
X20402000Y-12957000D02*
G75*
G03*
X20402000Y-12947000I0J5000D01*
G01*
D12*
X20017000Y-12297000D02*
X20047000Y-12327000D01*
X20047000Y-12297000D02*
X20017000Y-12327000D01*
D11*
X20027000Y-12267000D02*
X20027000Y-12357000D01*
X20037000Y-12267000D02*
X20037000Y-12357000D01*
X20027000Y-12357000D02*
G75*
G03*
X20037000Y-12357000I5000J0D01*
G01*
X20037000Y-12267000D02*
G75*
G03*
X20027000Y-12267000I-5000J0D01*
G01*
D12*
X20387000Y-12647000D02*
X20417000Y-12677000D01*
X20417000Y-12647000D02*
X20387000Y-12677000D01*
D11*
X20397000Y-12372000D02*
X20397000Y-12952000D01*
X20407000Y-12372000D02*
X20407000Y-12952000D01*
X20397000Y-12952000D02*
G75*
G03*
X20407000Y-12952000I5000J0D01*
G01*
X20407000Y-12372000D02*
G75*
G03*
X20397000Y-12372000I-5000J0D01*
G01*
D12*
X21112000Y-13447000D02*
X21142000Y-13477000D01*
X21142000Y-13447000D02*
X21112000Y-13477000D01*
D11*
X21122000Y-13172000D02*
X21122000Y-13752000D01*
X21132000Y-13172000D02*
X21132000Y-13752000D01*
X21122000Y-13752000D02*
G75*
G03*
X21132000Y-13752000I5000J0D01*
G01*
X21132000Y-13172000D02*
G75*
G03*
X21122000Y-13172000I-5000J0D01*
G01*
D12*
X21482000Y-13097000D02*
X21512000Y-13127000D01*
X21512000Y-13097000D02*
X21482000Y-13127000D01*
D11*
X21492000Y-13067000D02*
X21492000Y-13157000D01*
X21502000Y-13067000D02*
X21502000Y-13157000D01*
X21492000Y-13157000D02*
G75*
G03*
X21502000Y-13157000I5000J0D01*
G01*
X21502000Y-13067000D02*
G75*
G03*
X21492000Y-13067000I-5000J0D01*
G01*
D12*
X21702000Y-13052000D02*
X21732000Y-13082000D01*
X21732000Y-13052000D02*
X21702000Y-13082000D01*
D11*
X21937000Y-13062000D02*
X21497000Y-13062000D01*
X21937000Y-13072000D02*
X21497000Y-13072000D01*
X21497000Y-13062000D02*
G75*
G03*
X21497000Y-13072000I0J-5000D01*
G01*
X21937000Y-13072000D02*
G75*
G03*
X21937000Y-13062000I0J5000D01*
G01*
D12*
X21702000Y-13157000D02*
X21732000Y-13187000D01*
X21732000Y-13157000D02*
X21702000Y-13187000D01*
D11*
X22307000Y-13167000D02*
X21127000Y-13167000D01*
X22307000Y-13177000D02*
X21127000Y-13177000D01*
X21127000Y-13167000D02*
G75*
G03*
X21127000Y-13177000I0J-5000D01*
G01*
X22307000Y-13177000D02*
G75*
G03*
X22307000Y-13167000I0J5000D01*
G01*
D12*
X21702000Y-13737000D02*
X21732000Y-13767000D01*
X21732000Y-13737000D02*
X21702000Y-13767000D01*
D11*
X22307000Y-13747000D02*
X21127000Y-13747000D01*
X22307000Y-13757000D02*
X21127000Y-13757000D01*
X21127000Y-13747000D02*
G75*
G03*
X21127000Y-13757000I0J-5000D01*
G01*
X22307000Y-13757000D02*
G75*
G03*
X22307000Y-13747000I0J5000D01*
G01*
D12*
X21922000Y-13097000D02*
X21952000Y-13127000D01*
X21952000Y-13097000D02*
X21922000Y-13127000D01*
D11*
X21932000Y-13067000D02*
X21932000Y-13157000D01*
X21942000Y-13067000D02*
X21942000Y-13157000D01*
X21932000Y-13157000D02*
G75*
G03*
X21942000Y-13157000I5000J0D01*
G01*
X21942000Y-13067000D02*
G75*
G03*
X21932000Y-13067000I-5000J0D01*
G01*
D12*
X22292000Y-13447000D02*
X22322000Y-13477000D01*
X22322000Y-13447000D02*
X22292000Y-13477000D01*
D11*
X22302000Y-13172000D02*
X22302000Y-13752000D01*
X22312000Y-13172000D02*
X22312000Y-13752000D01*
X22302000Y-13752000D02*
G75*
G03*
X22312000Y-13752000I5000J0D01*
G01*
X22312000Y-13172000D02*
G75*
G03*
X22302000Y-13172000I-5000J0D01*
G01*
D13*
X26274750Y-15546000D02*
G75*
G03*
X26274750Y-15546000I-45000J0D01*
G01*
X26274750Y-15846000D02*
G75*
G03*
X26274750Y-15846000I-45000J0D01*
G01*
X26276000Y-15546000D02*
G75*
G03*
X26276000Y-15546000I-45000J0D01*
G01*
X26276000Y-15846000D02*
G75*
G03*
X26276000Y-15846000I-45000J0D01*
G01*
D14*
X14544576Y-15160597D02*
X14544576Y-15260597D01*
X14494576Y-15210597D02*
X14594576Y-15210597D01*
D11*
X14605777Y-15451178D02*
X14563071Y-14963043D01*
X14526082Y-15458151D02*
X14483375Y-14970015D01*
X14563071Y-14963043D02*
G75*
G03*
X14483375Y-14970015I-39848J-3486D01*
G01*
X14526082Y-15458151D02*
G75*
G03*
X14605777Y-15451178I39848J3486D01*
G01*
D14*
X14621283Y-15153886D02*
X14621283Y-15253886D01*
X14571283Y-15203886D02*
X14671283Y-15203886D01*
D11*
X14682484Y-15444467D02*
X14639778Y-14956332D01*
X14602789Y-15451440D02*
X14560082Y-14963304D01*
X14639778Y-14956332D02*
G75*
G03*
X14560082Y-14963304I-39848J-3486D01*
G01*
X14602789Y-15451440D02*
G75*
G03*
X14682484Y-15444467I39848J3486D01*
G01*
D14*
X14660135Y-15150487D02*
X14660135Y-15250487D01*
X14610135Y-15200487D02*
X14710135Y-15200487D01*
D11*
X14721336Y-15441068D02*
X14678629Y-14952933D01*
X14641640Y-15448040D02*
X14598934Y-14959905D01*
X14678629Y-14952933D02*
G75*
G03*
X14598934Y-14959905I-39848J-3486D01*
G01*
X14641640Y-15448040D02*
G75*
G03*
X14721336Y-15441068I39848J3486D01*
G01*
D14*
X15048032Y-14765213D02*
X15048032Y-14865213D01*
X14998032Y-14815213D02*
X15098032Y-14815213D01*
D11*
X15228842Y-14759241D02*
X14860250Y-14791489D01*
X15235814Y-14838937D02*
X14867222Y-14871185D01*
X14860250Y-14791489D02*
G75*
G03*
X14867222Y-14871185I3486J-39848D01*
G01*
X15235814Y-14838937D02*
G75*
G03*
X15228842Y-14759241I-3486J39848D01*
G01*
D14*
X15496938Y-15077276D02*
X15496938Y-15177276D01*
X15446938Y-15127276D02*
X15546938Y-15127276D01*
D11*
X15558139Y-15367857D02*
X15515433Y-14879722D01*
X15478444Y-15374830D02*
X15435737Y-14886694D01*
X15515433Y-14879722D02*
G75*
G03*
X15435737Y-14886694I-39848J-3486D01*
G01*
X15478444Y-15374830D02*
G75*
G03*
X15558139Y-15367857I39848J3486D01*
G01*
D14*
X15535790Y-15073877D02*
X15535790Y-15173877D01*
X15485790Y-15123877D02*
X15585790Y-15123877D01*
D11*
X15596991Y-15364458D02*
X15554285Y-14876323D01*
X15517295Y-15371431D02*
X15474589Y-14883295D01*
X15554285Y-14876323D02*
G75*
G03*
X15474589Y-14883295I-39848J-3486D01*
G01*
X15517295Y-15371431D02*
G75*
G03*
X15596991Y-15364458I39848J3486D01*
G01*
D14*
X15612497Y-15067166D02*
X15612497Y-15167166D01*
X15562497Y-15117166D02*
X15662497Y-15117166D01*
D11*
X15673698Y-15357747D02*
X15630992Y-14869612D01*
X15594002Y-15364720D02*
X15551296Y-14876584D01*
X15630992Y-14869612D02*
G75*
G03*
X15551296Y-14876584I-39848J-3486D01*
G01*
X15594002Y-15364720D02*
G75*
G03*
X15673698Y-15357747I39848J3486D01*
G01*
D14*
X16990000Y-13312000D02*
X16990000Y-13412000D01*
X16940000Y-13362000D02*
X17040000Y-13362000D01*
D11*
X17030000Y-13607000D02*
X17030000Y-13117000D01*
X16950000Y-13607000D02*
X16950000Y-13117000D01*
X17030000Y-13117000D02*
G75*
G03*
X16950000Y-13117000I-40000J0D01*
G01*
X16950000Y-13607000D02*
G75*
G03*
X17030000Y-13607000I40000J0D01*
G01*
D14*
X17067000Y-13312000D02*
X17067000Y-13412000D01*
X17017000Y-13362000D02*
X17117000Y-13362000D01*
D11*
X17107000Y-13607000D02*
X17107000Y-13117000D01*
X17027000Y-13607000D02*
X17027000Y-13117000D01*
X17107000Y-13117000D02*
G75*
G03*
X17027000Y-13117000I-40000J0D01*
G01*
X17027000Y-13607000D02*
G75*
G03*
X17107000Y-13607000I40000J0D01*
G01*
D14*
X17106000Y-13312000D02*
X17106000Y-13412000D01*
X17056000Y-13362000D02*
X17156000Y-13362000D01*
D11*
X17146000Y-13607000D02*
X17146000Y-13117000D01*
X17066000Y-13607000D02*
X17066000Y-13117000D01*
X17146000Y-13117000D02*
G75*
G03*
X17066000Y-13117000I-40000J0D01*
G01*
X17066000Y-13607000D02*
G75*
G03*
X17146000Y-13607000I40000J0D01*
G01*
D14*
X17526000Y-12962000D02*
X17526000Y-13062000D01*
X17476000Y-13012000D02*
X17576000Y-13012000D01*
D11*
X17711000Y-12972000D02*
X17341000Y-12972000D01*
X17711000Y-13052000D02*
X17341000Y-13052000D01*
X17341000Y-12972000D02*
G75*
G03*
X17341000Y-13052000I0J-40000D01*
G01*
X17711000Y-13052000D02*
G75*
G03*
X17711000Y-12972000I0J40000D01*
G01*
D14*
X17946000Y-13312000D02*
X17946000Y-13412000D01*
X17896000Y-13362000D02*
X17996000Y-13362000D01*
D11*
X17986000Y-13607000D02*
X17986000Y-13117000D01*
X17906000Y-13607000D02*
X17906000Y-13117000D01*
X17986000Y-13117000D02*
G75*
G03*
X17906000Y-13117000I-40000J0D01*
G01*
X17906000Y-13607000D02*
G75*
G03*
X17986000Y-13607000I40000J0D01*
G01*
D14*
X17985000Y-13312000D02*
X17985000Y-13412000D01*
X17935000Y-13362000D02*
X18035000Y-13362000D01*
D11*
X18025000Y-13607000D02*
X18025000Y-13117000D01*
X17945000Y-13607000D02*
X17945000Y-13117000D01*
X18025000Y-13117000D02*
G75*
G03*
X17945000Y-13117000I-40000J0D01*
G01*
X17945000Y-13607000D02*
G75*
G03*
X18025000Y-13607000I40000J0D01*
G01*
D14*
X18062000Y-13312000D02*
X18062000Y-13412000D01*
X18012000Y-13362000D02*
X18112000Y-13362000D01*
D11*
X18102000Y-13607000D02*
X18102000Y-13117000D01*
X18022000Y-13607000D02*
X18022000Y-13117000D01*
X18102000Y-13117000D02*
G75*
G03*
X18022000Y-13117000I-40000J0D01*
G01*
X18022000Y-13607000D02*
G75*
G03*
X18102000Y-13607000I40000J0D01*
G01*
D14*
X19276000Y-12612000D02*
X19276000Y-12712000D01*
X19226000Y-12662000D02*
X19326000Y-12662000D01*
D11*
X19316000Y-12907000D02*
X19316000Y-12417000D01*
X19236000Y-12907000D02*
X19236000Y-12417000D01*
X19316000Y-12417000D02*
G75*
G03*
X19236000Y-12417000I-40000J0D01*
G01*
X19236000Y-12907000D02*
G75*
G03*
X19316000Y-12907000I40000J0D01*
G01*
D14*
X19353000Y-12612000D02*
X19353000Y-12712000D01*
X19303000Y-12662000D02*
X19403000Y-12662000D01*
D11*
X19393000Y-12907000D02*
X19393000Y-12417000D01*
X19313000Y-12907000D02*
X19313000Y-12417000D01*
X19393000Y-12417000D02*
G75*
G03*
X19313000Y-12417000I-40000J0D01*
G01*
X19313000Y-12907000D02*
G75*
G03*
X19393000Y-12907000I40000J0D01*
G01*
D14*
X19392000Y-12612000D02*
X19392000Y-12712000D01*
X19342000Y-12662000D02*
X19442000Y-12662000D01*
D11*
X19432000Y-12907000D02*
X19432000Y-12417000D01*
X19352000Y-12907000D02*
X19352000Y-12417000D01*
X19432000Y-12417000D02*
G75*
G03*
X19352000Y-12417000I-40000J0D01*
G01*
X19352000Y-12907000D02*
G75*
G03*
X19432000Y-12907000I40000J0D01*
G01*
D14*
X19812000Y-12262000D02*
X19812000Y-12362000D01*
X19762000Y-12312000D02*
X19862000Y-12312000D01*
D11*
X19997000Y-12272000D02*
X19627000Y-12272000D01*
X19997000Y-12352000D02*
X19627000Y-12352000D01*
X19627000Y-12272000D02*
G75*
G03*
X19627000Y-12352000I0J-40000D01*
G01*
X19997000Y-12352000D02*
G75*
G03*
X19997000Y-12272000I0J40000D01*
G01*
D14*
X20232000Y-12612000D02*
X20232000Y-12712000D01*
X20182000Y-12662000D02*
X20282000Y-12662000D01*
D11*
X20272000Y-12907000D02*
X20272000Y-12417000D01*
X20192000Y-12907000D02*
X20192000Y-12417000D01*
X20272000Y-12417000D02*
G75*
G03*
X20192000Y-12417000I-40000J0D01*
G01*
X20192000Y-12907000D02*
G75*
G03*
X20272000Y-12907000I40000J0D01*
G01*
D14*
X20271000Y-12612000D02*
X20271000Y-12712000D01*
X20221000Y-12662000D02*
X20321000Y-12662000D01*
D11*
X20311000Y-12907000D02*
X20311000Y-12417000D01*
X20231000Y-12907000D02*
X20231000Y-12417000D01*
X20311000Y-12417000D02*
G75*
G03*
X20231000Y-12417000I-40000J0D01*
G01*
X20231000Y-12907000D02*
G75*
G03*
X20311000Y-12907000I40000J0D01*
G01*
D14*
X20348000Y-12612000D02*
X20348000Y-12712000D01*
X20298000Y-12662000D02*
X20398000Y-12662000D01*
D11*
X20388000Y-12907000D02*
X20388000Y-12417000D01*
X20308000Y-12907000D02*
X20308000Y-12417000D01*
X20388000Y-12417000D02*
G75*
G03*
X20308000Y-12417000I-40000J0D01*
G01*
X20308000Y-12907000D02*
G75*
G03*
X20388000Y-12907000I40000J0D01*
G01*
D14*
X21181000Y-13412000D02*
X21181000Y-13512000D01*
X21131000Y-13462000D02*
X21231000Y-13462000D01*
D11*
X21221000Y-13707000D02*
X21221000Y-13217000D01*
X21141000Y-13707000D02*
X21141000Y-13217000D01*
X21221000Y-13217000D02*
G75*
G03*
X21141000Y-13217000I-40000J0D01*
G01*
X21141000Y-13707000D02*
G75*
G03*
X21221000Y-13707000I40000J0D01*
G01*
D14*
X21258000Y-13412000D02*
X21258000Y-13512000D01*
X21208000Y-13462000D02*
X21308000Y-13462000D01*
D11*
X21298000Y-13707000D02*
X21298000Y-13217000D01*
X21218000Y-13707000D02*
X21218000Y-13217000D01*
X21298000Y-13217000D02*
G75*
G03*
X21218000Y-13217000I-40000J0D01*
G01*
X21218000Y-13707000D02*
G75*
G03*
X21298000Y-13707000I40000J0D01*
G01*
D14*
X21297000Y-13412000D02*
X21297000Y-13512000D01*
X21247000Y-13462000D02*
X21347000Y-13462000D01*
D11*
X21337000Y-13707000D02*
X21337000Y-13217000D01*
X21257000Y-13707000D02*
X21257000Y-13217000D01*
X21337000Y-13217000D02*
G75*
G03*
X21257000Y-13217000I-40000J0D01*
G01*
X21257000Y-13707000D02*
G75*
G03*
X21337000Y-13707000I40000J0D01*
G01*
D14*
X21717000Y-13062000D02*
X21717000Y-13162000D01*
X21667000Y-13112000D02*
X21767000Y-13112000D01*
D11*
X21902000Y-13072000D02*
X21532000Y-13072000D01*
X21902000Y-13152000D02*
X21532000Y-13152000D01*
X21532000Y-13072000D02*
G75*
G03*
X21532000Y-13152000I0J-40000D01*
G01*
X21902000Y-13152000D02*
G75*
G03*
X21902000Y-13072000I0J40000D01*
G01*
D14*
X22137000Y-13412000D02*
X22137000Y-13512000D01*
X22087000Y-13462000D02*
X22187000Y-13462000D01*
D11*
X22177000Y-13707000D02*
X22177000Y-13217000D01*
X22097000Y-13707000D02*
X22097000Y-13217000D01*
X22177000Y-13217000D02*
G75*
G03*
X22097000Y-13217000I-40000J0D01*
G01*
X22097000Y-13707000D02*
G75*
G03*
X22177000Y-13707000I40000J0D01*
G01*
D14*
X22176000Y-13412000D02*
X22176000Y-13512000D01*
X22126000Y-13462000D02*
X22226000Y-13462000D01*
D11*
X22216000Y-13707000D02*
X22216000Y-13217000D01*
X22136000Y-13707000D02*
X22136000Y-13217000D01*
X22216000Y-13217000D02*
G75*
G03*
X22136000Y-13217000I-40000J0D01*
G01*
X22136000Y-13707000D02*
G75*
G03*
X22216000Y-13707000I40000J0D01*
G01*
D14*
X22253000Y-13412000D02*
X22253000Y-13512000D01*
X22203000Y-13462000D02*
X22303000Y-13462000D01*
D11*
X22293000Y-13707000D02*
X22293000Y-13217000D01*
X22213000Y-13707000D02*
X22213000Y-13217000D01*
X22293000Y-13217000D02*
G75*
G03*
X22213000Y-13217000I-40000J0D01*
G01*
X22213000Y-13707000D02*
G75*
G03*
X22293000Y-13707000I40000J0D01*
G01*
D15*
X27169033Y-11275033D02*
X27169033Y-11168967D01*
X27062966Y-11168967D01*
X27062966Y-11275033D01*
X27169033Y-11275033D01*
X27169033Y-11975033D02*
X27169033Y-11868966D01*
X27062966Y-11868966D01*
X27062966Y-11975033D01*
X27169033Y-11975033D01*
D16*
X14382465Y-13603376D02*
X14467555Y-13518286D01*
X14382465Y-13433196D01*
X14297375Y-13518286D01*
X14382465Y-13603376D01*
X14678794Y-16990438D02*
X14763884Y-16905348D01*
X14678794Y-16820258D01*
X14593704Y-16905348D01*
X14678794Y-16990438D01*
X15478279Y-13507504D02*
X15563369Y-13422414D01*
X15478279Y-13337324D01*
X15393189Y-13422414D01*
X15478279Y-13507504D01*
X15774608Y-16894567D02*
X15859698Y-16809477D01*
X15774608Y-16724386D01*
X15689518Y-16809477D01*
X15774608Y-16894567D01*
X16976000Y-11747090D02*
X17061090Y-11662000D01*
X16976000Y-11576910D01*
X16890910Y-11662000D01*
X16976000Y-11747090D01*
X16976000Y-15147090D02*
X17061090Y-15062000D01*
X16976000Y-14976910D01*
X16890910Y-15062000D01*
X16976000Y-15147090D01*
X18076000Y-11747090D02*
X18161090Y-11662000D01*
X18076000Y-11576910D01*
X17990910Y-11662000D01*
X18076000Y-11747090D01*
X18076000Y-15147090D02*
X18161090Y-15062000D01*
X18076000Y-14976910D01*
X17990910Y-15062000D01*
X18076000Y-15147090D01*
X19262000Y-11047090D02*
X19347090Y-10962000D01*
X19262000Y-10876910D01*
X19176910Y-10962000D01*
X19262000Y-11047090D01*
X19262000Y-14447090D02*
X19347090Y-14362000D01*
X19262000Y-14276910D01*
X19176910Y-14362000D01*
X19262000Y-14447090D01*
X20362000Y-11047090D02*
X20447090Y-10962000D01*
X20362000Y-10876910D01*
X20276910Y-10962000D01*
X20362000Y-11047090D01*
X20362000Y-14447090D02*
X20447090Y-14362000D01*
X20362000Y-14276910D01*
X20276910Y-14362000D01*
X20362000Y-14447090D01*
X21167000Y-11847090D02*
X21252090Y-11762000D01*
X21167000Y-11676910D01*
X21081910Y-11762000D01*
X21167000Y-11847090D01*
X21167000Y-15247090D02*
X21252090Y-15162000D01*
X21167000Y-15076910D01*
X21081910Y-15162000D01*
X21167000Y-15247090D01*
X22215116Y-18641615D02*
X22300206Y-18556525D01*
X22215116Y-18471435D01*
X22130026Y-18556525D01*
X22215116Y-18641615D01*
X22267000Y-11847090D02*
X22352090Y-11762000D01*
X22267000Y-11676910D01*
X22181910Y-11762000D01*
X22267000Y-11847090D01*
X22267000Y-15247090D02*
X22352090Y-15162000D01*
X22267000Y-15076910D01*
X22181910Y-15162000D01*
X22267000Y-15247090D01*
X22967000Y-12147090D02*
X23052090Y-12062000D01*
X22967000Y-11976910D01*
X22881910Y-12062000D01*
X22967000Y-12147090D01*
X22967000Y-13847090D02*
X23052090Y-13762000D01*
X22967000Y-13676910D01*
X22881910Y-13762000D01*
X22967000Y-13847090D01*
X22967000Y-15547090D02*
X23052090Y-15462000D01*
X22967000Y-15376910D01*
X22881910Y-15462000D01*
X22967000Y-15547090D01*
X23248778Y-19017837D02*
X23333868Y-18932747D01*
X23248778Y-18847657D01*
X23163688Y-18932747D01*
X23248778Y-19017837D01*
X24045382Y-19381097D02*
X24130472Y-19296007D01*
X24045382Y-19210917D01*
X23960292Y-19296007D01*
X24045382Y-19381097D01*
X24067000Y-12147090D02*
X24152090Y-12062000D01*
X24067000Y-11976910D01*
X23981910Y-12062000D01*
X24067000Y-12147090D01*
X24067000Y-13847090D02*
X24152090Y-13762000D01*
X24067000Y-13676910D01*
X23981910Y-13762000D01*
X24067000Y-13847090D01*
X24067000Y-15547090D02*
X24152090Y-15462000D01*
X24067000Y-15376910D01*
X23981910Y-15462000D01*
X24067000Y-15547090D01*
X24998010Y-19931097D02*
X25083100Y-19846007D01*
X24998010Y-19760917D01*
X24912920Y-19846007D01*
X24998010Y-19931097D01*
D17*
X14758922Y-13298900D02*
X15101822Y-13641800D01*
X15101822Y-13298900D02*
X14758922Y-13641800D01*
X15101822Y-13470350D02*
G75*
G03*
X15101822Y-13470350I-171450J0D01*
G01*
X15055251Y-16685962D02*
X15398151Y-17028862D01*
X15398151Y-16685962D02*
X15055251Y-17028862D01*
X15398151Y-16857412D02*
G75*
G03*
X15398151Y-16857412I-171450J0D01*
G01*
X17354550Y-11490550D02*
X17697450Y-11833450D01*
X17697450Y-11490550D02*
X17354550Y-11833450D01*
X17697450Y-11662000D02*
G75*
G03*
X17697450Y-11662000I-171450J0D01*
G01*
X17354550Y-14890550D02*
X17697450Y-15233450D01*
X17697450Y-14890550D02*
X17354550Y-15233450D01*
X17697450Y-15062000D02*
G75*
G03*
X17697450Y-15062000I-171450J0D01*
G01*
X19640550Y-10790550D02*
X19983450Y-11133450D01*
X19983450Y-10790550D02*
X19640550Y-11133450D01*
X19983450Y-10962000D02*
G75*
G03*
X19983450Y-10962000I-171450J0D01*
G01*
X19640550Y-14190550D02*
X19983450Y-14533450D01*
X19983450Y-14190550D02*
X19640550Y-14533450D01*
X19983450Y-14362000D02*
G75*
G03*
X19983450Y-14362000I-171450J0D01*
G01*
X21545550Y-11590550D02*
X21888450Y-11933450D01*
X21888450Y-11590550D02*
X21545550Y-11933450D01*
X21888450Y-11762000D02*
G75*
G03*
X21888450Y-11762000I-171450J0D01*
G01*
X21545550Y-14990550D02*
X21888450Y-15333450D01*
X21888450Y-14990550D02*
X21545550Y-15333450D01*
X21888450Y-15162000D02*
G75*
G03*
X21888450Y-15162000I-171450J0D01*
G01*
X22560497Y-18573186D02*
X22903397Y-18916086D01*
X22903397Y-18573186D02*
X22560497Y-18916086D01*
X22903397Y-18744636D02*
G75*
G03*
X22903397Y-18744636I-171450J0D01*
G01*
X23345550Y-11890550D02*
X23688450Y-12233450D01*
X23688450Y-11890550D02*
X23345550Y-12233450D01*
X23688450Y-12062000D02*
G75*
G03*
X23688450Y-12062000I-171450J0D01*
G01*
X23345550Y-13590550D02*
X23688450Y-13933450D01*
X23688450Y-13590550D02*
X23345550Y-13933450D01*
X23688450Y-13762000D02*
G75*
G03*
X23688450Y-13762000I-171450J0D01*
G01*
X23345550Y-15290550D02*
X23688450Y-15633450D01*
X23688450Y-15290550D02*
X23345550Y-15633450D01*
X23688450Y-15462000D02*
G75*
G03*
X23688450Y-15462000I-171450J0D01*
G01*
X24350246Y-19399557D02*
X24693146Y-19742457D01*
X24693146Y-19399557D02*
X24350246Y-19742457D01*
X24693146Y-19571007D02*
G75*
G03*
X24693146Y-19571007I-171450J0D01*
G01*
D18*
X14783537Y-14868881D02*
X15373537Y-15458881D01*
X15373537Y-14868881D02*
X14783537Y-15458881D01*
X15078537Y-14868881D02*
X15078537Y-15458881D01*
X14783537Y-15163881D02*
X15373537Y-15163881D01*
D11*
X15350065Y-14854037D02*
X14757329Y-14905894D01*
X15399744Y-15421868D02*
X14807008Y-15473725D01*
X14757329Y-14905894D02*
G75*
G03*
X14807008Y-15473725I24839J-283916D01*
G01*
X15399744Y-15421868D02*
G75*
G03*
X15350065Y-14854037I-24839J283916D01*
G01*
D18*
X17231000Y-13067000D02*
X17821000Y-13657000D01*
X17821000Y-13067000D02*
X17231000Y-13657000D01*
X17526000Y-13067000D02*
X17526000Y-13657000D01*
X17231000Y-13362000D02*
X17821000Y-13362000D01*
D11*
X17823500Y-13077000D02*
X17228500Y-13077000D01*
X17823500Y-13647000D02*
X17228500Y-13647000D01*
X17228500Y-13077000D02*
G75*
G03*
X17228500Y-13647000I0J-285000D01*
G01*
X17823500Y-13647000D02*
G75*
G03*
X17823500Y-13077000I0J285000D01*
G01*
D18*
X19517000Y-12367000D02*
X20107000Y-12957000D01*
X20107000Y-12367000D02*
X19517000Y-12957000D01*
X19812000Y-12367000D02*
X19812000Y-12957000D01*
X19517000Y-12662000D02*
X20107000Y-12662000D01*
D11*
X20109500Y-12377000D02*
X19514500Y-12377000D01*
X20109500Y-12947000D02*
X19514500Y-12947000D01*
X19514500Y-12377000D02*
G75*
G03*
X19514500Y-12947000I0J-285000D01*
G01*
X20109500Y-12947000D02*
G75*
G03*
X20109500Y-12377000I0J285000D01*
G01*
D18*
X21422000Y-13167000D02*
X22012000Y-13757000D01*
X22012000Y-13167000D02*
X21422000Y-13757000D01*
X21717000Y-13167000D02*
X21717000Y-13757000D01*
X21422000Y-13462000D02*
X22012000Y-13462000D01*
D11*
X22014500Y-13177000D02*
X21419500Y-13177000D01*
X22014500Y-13747000D02*
X21419500Y-13747000D01*
X21419500Y-13177000D02*
G75*
G03*
X21419500Y-13747000I0J-285000D01*
G01*
X22014500Y-13747000D02*
G75*
G03*
X22014500Y-13177000I0J285000D01*
G01*
X14067545Y-21114976D02*
X14067545Y-20914976D01*
X14115164Y-20914976D01*
X14143736Y-20924500D01*
X14162783Y-20943548D01*
X14172307Y-20962595D01*
X14181831Y-21000690D01*
X14181831Y-21029262D01*
X14172307Y-21067357D01*
X14162783Y-21086405D01*
X14143736Y-21105452D01*
X14115164Y-21114976D01*
X14067545Y-21114976D01*
X14267545Y-21114976D02*
X14267545Y-20981643D01*
X14267545Y-21019738D02*
X14277069Y-21000690D01*
X14286593Y-20991167D01*
X14305640Y-20981643D01*
X14324688Y-20981643D01*
X14391355Y-21114976D02*
X14391355Y-20981643D01*
X14391355Y-20914976D02*
X14381831Y-20924500D01*
X14391355Y-20934024D01*
X14400878Y-20924500D01*
X14391355Y-20914976D01*
X14391355Y-20934024D01*
X14515164Y-21114976D02*
X14496117Y-21105452D01*
X14486593Y-21086405D01*
X14486593Y-20914976D01*
X14619926Y-21114976D02*
X14600878Y-21105452D01*
X14591355Y-21086405D01*
X14591355Y-20914976D01*
X14848498Y-21114976D02*
X14848498Y-20914976D01*
X14915164Y-21057833D01*
X14981831Y-20914976D01*
X14981831Y-21114976D01*
X15162783Y-21114976D02*
X15162783Y-21010214D01*
X15153259Y-20991167D01*
X15134212Y-20981643D01*
X15096117Y-20981643D01*
X15077069Y-20991167D01*
X15162783Y-21105452D02*
X15143736Y-21114976D01*
X15096117Y-21114976D01*
X15077069Y-21105452D01*
X15067545Y-21086405D01*
X15067545Y-21067357D01*
X15077069Y-21048310D01*
X15096117Y-21038786D01*
X15143736Y-21038786D01*
X15162783Y-21029262D01*
X15258021Y-20981643D02*
X15258021Y-21181643D01*
X15258021Y-20991167D02*
X15277069Y-20981643D01*
X15315164Y-20981643D01*
X15334212Y-20991167D01*
X15343736Y-21000690D01*
X15353259Y-21019738D01*
X15353259Y-21076881D01*
X15343736Y-21095929D01*
X15334212Y-21105452D01*
X15315164Y-21114976D01*
X15277069Y-21114976D01*
X15258021Y-21105452D01*
X15438974Y-21095929D02*
X15448498Y-21105452D01*
X15438974Y-21114976D01*
X15429450Y-21105452D01*
X15438974Y-21095929D01*
X15438974Y-21114976D01*
X15438974Y-20991167D02*
X15448498Y-21000690D01*
X15438974Y-21010214D01*
X15429450Y-21000690D01*
X15438974Y-20991167D01*
X15438974Y-21010214D01*
D12*
X13779926Y-21429500D02*
X13809926Y-21459500D01*
X13809926Y-21429500D02*
X13779926Y-21459500D01*
D11*
X14105640Y-21334976D02*
X14124688Y-21334976D01*
X14143736Y-21344500D01*
X14153259Y-21354024D01*
X14162783Y-21373071D01*
X14172307Y-21411167D01*
X14172307Y-21458786D01*
X14162783Y-21496881D01*
X14153259Y-21515929D01*
X14143736Y-21525452D01*
X14124688Y-21534976D01*
X14105640Y-21534976D01*
X14086593Y-21525452D01*
X14077069Y-21515929D01*
X14067545Y-21496881D01*
X14058021Y-21458786D01*
X14058021Y-21411167D01*
X14067545Y-21373071D01*
X14077069Y-21354024D01*
X14086593Y-21344500D01*
X14105640Y-21334976D01*
X14258021Y-21515929D02*
X14267545Y-21525452D01*
X14258021Y-21534976D01*
X14248498Y-21525452D01*
X14258021Y-21515929D01*
X14258021Y-21534976D01*
X14334212Y-21334976D02*
X14458021Y-21334976D01*
X14391355Y-21411167D01*
X14419926Y-21411167D01*
X14438974Y-21420690D01*
X14448498Y-21430214D01*
X14458021Y-21449262D01*
X14458021Y-21496881D01*
X14448498Y-21515929D01*
X14438974Y-21525452D01*
X14419926Y-21534976D01*
X14362783Y-21534976D01*
X14343736Y-21525452D01*
X14334212Y-21515929D01*
X14581831Y-21334976D02*
X14600878Y-21334976D01*
X14619926Y-21344500D01*
X14629450Y-21354024D01*
X14638974Y-21373071D01*
X14648498Y-21411167D01*
X14648498Y-21458786D01*
X14638974Y-21496881D01*
X14629450Y-21515929D01*
X14619926Y-21525452D01*
X14600878Y-21534976D01*
X14581831Y-21534976D01*
X14562783Y-21525452D01*
X14553259Y-21515929D01*
X14543736Y-21496881D01*
X14534212Y-21458786D01*
X14534212Y-21411167D01*
X14543736Y-21373071D01*
X14553259Y-21354024D01*
X14562783Y-21344500D01*
X14581831Y-21334976D01*
X14772307Y-21334976D02*
X14791355Y-21334976D01*
X14810402Y-21344500D01*
X14819926Y-21354024D01*
X14829450Y-21373071D01*
X14838974Y-21411167D01*
X14838974Y-21458786D01*
X14829450Y-21496881D01*
X14819926Y-21515929D01*
X14810402Y-21525452D01*
X14791355Y-21534976D01*
X14772307Y-21534976D01*
X14753259Y-21525452D01*
X14743736Y-21515929D01*
X14734212Y-21496881D01*
X14724688Y-21458786D01*
X14724688Y-21411167D01*
X14734212Y-21373071D01*
X14743736Y-21354024D01*
X14753259Y-21344500D01*
X14772307Y-21334976D01*
X14924688Y-21534976D02*
X14924688Y-21401643D01*
X14924688Y-21420690D02*
X14934212Y-21411167D01*
X14953259Y-21401643D01*
X14981831Y-21401643D01*
X15000878Y-21411167D01*
X15010402Y-21430214D01*
X15010402Y-21534976D01*
X15010402Y-21430214D02*
X15019926Y-21411167D01*
X15038974Y-21401643D01*
X15067545Y-21401643D01*
X15086593Y-21411167D01*
X15096117Y-21430214D01*
X15096117Y-21534976D01*
X15191355Y-21534976D02*
X15191355Y-21401643D01*
X15191355Y-21420690D02*
X15200878Y-21411167D01*
X15219926Y-21401643D01*
X15248498Y-21401643D01*
X15267545Y-21411167D01*
X15277069Y-21430214D01*
X15277069Y-21534976D01*
X15277069Y-21430214D02*
X15286593Y-21411167D01*
X15305640Y-21401643D01*
X15334212Y-21401643D01*
X15353259Y-21411167D01*
X15362783Y-21430214D01*
X15362783Y-21534976D01*
X15753259Y-21325452D02*
X15581831Y-21582595D01*
X16010402Y-21334976D02*
X16029450Y-21334976D01*
X16048498Y-21344500D01*
X16058021Y-21354024D01*
X16067545Y-21373071D01*
X16077069Y-21411167D01*
X16077069Y-21458786D01*
X16067545Y-21496881D01*
X16058021Y-21515929D01*
X16048498Y-21525452D01*
X16029450Y-21534976D01*
X16010402Y-21534976D01*
X15991355Y-21525452D01*
X15981831Y-21515929D01*
X15972307Y-21496881D01*
X15962783Y-21458786D01*
X15962783Y-21411167D01*
X15972307Y-21373071D01*
X15981831Y-21354024D01*
X15991355Y-21344500D01*
X16010402Y-21334976D01*
X16162783Y-21515929D02*
X16172307Y-21525452D01*
X16162783Y-21534976D01*
X16153259Y-21525452D01*
X16162783Y-21515929D01*
X16162783Y-21534976D01*
X16296117Y-21334976D02*
X16315164Y-21334976D01*
X16334212Y-21344500D01*
X16343736Y-21354024D01*
X16353259Y-21373071D01*
X16362783Y-21411167D01*
X16362783Y-21458786D01*
X16353259Y-21496881D01*
X16343736Y-21515929D01*
X16334212Y-21525452D01*
X16315164Y-21534976D01*
X16296117Y-21534976D01*
X16277069Y-21525452D01*
X16267545Y-21515929D01*
X16258021Y-21496881D01*
X16248498Y-21458786D01*
X16248498Y-21411167D01*
X16258021Y-21373071D01*
X16267545Y-21354024D01*
X16277069Y-21344500D01*
X16296117Y-21334976D01*
X16553259Y-21534976D02*
X16438974Y-21534976D01*
X16496117Y-21534976D02*
X16496117Y-21334976D01*
X16477069Y-21363548D01*
X16458021Y-21382595D01*
X16438974Y-21392119D01*
X16743736Y-21534976D02*
X16629450Y-21534976D01*
X16686593Y-21534976D02*
X16686593Y-21334976D01*
X16667545Y-21363548D01*
X16648498Y-21382595D01*
X16629450Y-21392119D01*
X16858021Y-21420690D02*
X16838974Y-21411167D01*
X16829450Y-21401643D01*
X16819926Y-21382595D01*
X16819926Y-21373071D01*
X16829450Y-21354024D01*
X16838974Y-21344500D01*
X16858021Y-21334976D01*
X16896117Y-21334976D01*
X16915164Y-21344500D01*
X16924688Y-21354024D01*
X16934212Y-21373071D01*
X16934212Y-21382595D01*
X16924688Y-21401643D01*
X16915164Y-21411167D01*
X16896117Y-21420690D01*
X16858021Y-21420690D01*
X16838974Y-21430214D01*
X16829450Y-21439738D01*
X16819926Y-21458786D01*
X16819926Y-21496881D01*
X16829450Y-21515929D01*
X16838974Y-21525452D01*
X16858021Y-21534976D01*
X16896117Y-21534976D01*
X16915164Y-21525452D01*
X16924688Y-21515929D01*
X16934212Y-21496881D01*
X16934212Y-21458786D01*
X16924688Y-21439738D01*
X16915164Y-21430214D01*
X16896117Y-21420690D01*
X17010402Y-21334976D02*
X17010402Y-21373071D01*
X17086593Y-21334976D02*
X17086593Y-21373071D01*
X17381831Y-21611167D02*
X17372307Y-21601643D01*
X17353260Y-21573071D01*
X17343736Y-21554024D01*
X17334212Y-21525452D01*
X17324688Y-21477833D01*
X17324688Y-21439738D01*
X17334212Y-21392119D01*
X17343736Y-21363548D01*
X17353260Y-21344500D01*
X17372307Y-21315929D01*
X17381831Y-21306405D01*
X17496117Y-21334976D02*
X17515164Y-21334976D01*
X17534212Y-21344500D01*
X17543736Y-21354024D01*
X17553260Y-21373071D01*
X17562783Y-21411167D01*
X17562783Y-21458786D01*
X17553260Y-21496881D01*
X17543736Y-21515929D01*
X17534212Y-21525452D01*
X17515164Y-21534976D01*
X17496117Y-21534976D01*
X17477069Y-21525452D01*
X17467545Y-21515929D01*
X17458021Y-21496881D01*
X17448498Y-21458786D01*
X17448498Y-21411167D01*
X17458021Y-21373071D01*
X17467545Y-21354024D01*
X17477069Y-21344500D01*
X17496117Y-21334976D01*
X17800879Y-21534976D02*
X17800879Y-21334976D01*
X17886593Y-21534976D02*
X17886593Y-21430214D01*
X17877069Y-21411167D01*
X17858021Y-21401643D01*
X17829450Y-21401643D01*
X17810402Y-21411167D01*
X17800879Y-21420690D01*
X18010402Y-21534976D02*
X17991355Y-21525452D01*
X17981831Y-21515929D01*
X17972307Y-21496881D01*
X17972307Y-21439738D01*
X17981831Y-21420690D01*
X17991355Y-21411167D01*
X18010402Y-21401643D01*
X18038974Y-21401643D01*
X18058021Y-21411167D01*
X18067545Y-21420690D01*
X18077069Y-21439738D01*
X18077069Y-21496881D01*
X18067545Y-21515929D01*
X18058021Y-21525452D01*
X18038974Y-21534976D01*
X18010402Y-21534976D01*
X18191355Y-21534976D02*
X18172307Y-21525452D01*
X18162783Y-21506405D01*
X18162783Y-21334976D01*
X18343736Y-21525452D02*
X18324688Y-21534976D01*
X18286593Y-21534976D01*
X18267545Y-21525452D01*
X18258021Y-21506405D01*
X18258021Y-21430214D01*
X18267545Y-21411167D01*
X18286593Y-21401643D01*
X18324688Y-21401643D01*
X18343736Y-21411167D01*
X18353260Y-21430214D01*
X18353260Y-21449262D01*
X18258021Y-21468310D01*
X18429450Y-21525452D02*
X18448498Y-21534976D01*
X18486593Y-21534976D01*
X18505640Y-21525452D01*
X18515164Y-21506405D01*
X18515164Y-21496881D01*
X18505640Y-21477833D01*
X18486593Y-21468310D01*
X18458021Y-21468310D01*
X18438974Y-21458786D01*
X18429450Y-21439738D01*
X18429450Y-21430214D01*
X18438974Y-21411167D01*
X18458021Y-21401643D01*
X18486593Y-21401643D01*
X18505640Y-21411167D01*
X18753260Y-21458786D02*
X18905640Y-21458786D01*
X18829450Y-21534976D02*
X18829450Y-21382595D01*
X19143736Y-21354024D02*
X19153260Y-21344500D01*
X19172307Y-21334976D01*
X19219926Y-21334976D01*
X19238974Y-21344500D01*
X19248498Y-21354024D01*
X19258021Y-21373071D01*
X19258021Y-21392119D01*
X19248498Y-21420690D01*
X19134212Y-21534976D01*
X19258021Y-21534976D01*
X19372307Y-21420690D02*
X19353260Y-21411167D01*
X19343736Y-21401643D01*
X19334212Y-21382595D01*
X19334212Y-21373071D01*
X19343736Y-21354024D01*
X19353260Y-21344500D01*
X19372307Y-21334976D01*
X19410402Y-21334976D01*
X19429450Y-21344500D01*
X19438974Y-21354024D01*
X19448498Y-21373071D01*
X19448498Y-21382595D01*
X19438974Y-21401643D01*
X19429450Y-21411167D01*
X19410402Y-21420690D01*
X19372307Y-21420690D01*
X19353260Y-21430214D01*
X19343736Y-21439738D01*
X19334212Y-21458786D01*
X19334212Y-21496881D01*
X19343736Y-21515929D01*
X19353260Y-21525452D01*
X19372307Y-21534976D01*
X19410402Y-21534976D01*
X19429450Y-21525452D01*
X19438974Y-21515929D01*
X19448498Y-21496881D01*
X19448498Y-21458786D01*
X19438974Y-21439738D01*
X19429450Y-21430214D01*
X19410402Y-21420690D01*
X19677069Y-21525452D02*
X19696117Y-21534976D01*
X19734212Y-21534976D01*
X19753260Y-21525452D01*
X19762783Y-21506405D01*
X19762783Y-21496881D01*
X19753260Y-21477833D01*
X19734212Y-21468310D01*
X19705640Y-21468310D01*
X19686593Y-21458786D01*
X19677069Y-21439738D01*
X19677069Y-21430214D01*
X19686593Y-21411167D01*
X19705640Y-21401643D01*
X19734212Y-21401643D01*
X19753260Y-21411167D01*
X19877069Y-21534976D02*
X19858021Y-21525452D01*
X19848498Y-21506405D01*
X19848498Y-21334976D01*
X19981831Y-21534976D02*
X19962783Y-21525452D01*
X19953260Y-21515929D01*
X19943736Y-21496881D01*
X19943736Y-21439738D01*
X19953260Y-21420690D01*
X19962783Y-21411167D01*
X19981831Y-21401643D01*
X20010402Y-21401643D01*
X20029450Y-21411167D01*
X20038974Y-21420690D01*
X20048498Y-21439738D01*
X20048498Y-21496881D01*
X20038974Y-21515929D01*
X20029450Y-21525452D01*
X20010402Y-21534976D01*
X19981831Y-21534976D01*
X20105640Y-21401643D02*
X20181831Y-21401643D01*
X20134212Y-21334976D02*
X20134212Y-21506405D01*
X20143736Y-21525452D01*
X20162783Y-21534976D01*
X20181831Y-21534976D01*
X20238974Y-21525452D02*
X20258021Y-21534976D01*
X20296117Y-21534976D01*
X20315164Y-21525452D01*
X20324688Y-21506405D01*
X20324688Y-21496881D01*
X20315164Y-21477833D01*
X20296117Y-21468310D01*
X20267545Y-21468310D01*
X20248498Y-21458786D01*
X20238974Y-21439738D01*
X20238974Y-21430214D01*
X20248498Y-21411167D01*
X20267545Y-21401643D01*
X20296117Y-21401643D01*
X20315164Y-21411167D01*
X20391355Y-21611167D02*
X20400879Y-21601643D01*
X20419926Y-21573071D01*
X20429450Y-21554024D01*
X20438974Y-21525452D01*
X20448498Y-21477833D01*
X20448498Y-21439738D01*
X20438974Y-21392119D01*
X20429450Y-21363548D01*
X20419926Y-21344500D01*
X20400879Y-21315929D01*
X20391355Y-21306405D01*
X20753260Y-21611167D02*
X20743736Y-21601643D01*
X20724688Y-21573071D01*
X20715164Y-21554024D01*
X20705640Y-21525452D01*
X20696117Y-21477833D01*
X20696117Y-21439738D01*
X20705640Y-21392119D01*
X20715164Y-21363548D01*
X20724688Y-21344500D01*
X20743736Y-21315929D01*
X20753260Y-21306405D01*
X20829450Y-21401643D02*
X20829450Y-21534976D01*
X20829450Y-21420690D02*
X20838974Y-21411167D01*
X20858021Y-21401643D01*
X20886593Y-21401643D01*
X20905640Y-21411167D01*
X20915164Y-21430214D01*
X20915164Y-21534976D01*
X21038974Y-21534976D02*
X21019926Y-21525452D01*
X21010402Y-21515929D01*
X21000879Y-21496881D01*
X21000879Y-21439738D01*
X21010402Y-21420690D01*
X21019926Y-21411167D01*
X21038974Y-21401643D01*
X21067545Y-21401643D01*
X21086593Y-21411167D01*
X21096117Y-21420690D01*
X21105640Y-21439738D01*
X21105640Y-21496881D01*
X21096117Y-21515929D01*
X21086593Y-21525452D01*
X21067545Y-21534976D01*
X21038974Y-21534976D01*
X21162783Y-21401643D02*
X21238974Y-21401643D01*
X21191355Y-21334976D02*
X21191355Y-21506405D01*
X21200879Y-21525452D01*
X21219926Y-21534976D01*
X21238974Y-21534976D01*
X21458021Y-21401643D02*
X21458021Y-21601643D01*
X21458021Y-21411167D02*
X21477069Y-21401643D01*
X21515164Y-21401643D01*
X21534212Y-21411167D01*
X21543736Y-21420690D01*
X21553260Y-21439738D01*
X21553260Y-21496881D01*
X21543736Y-21515929D01*
X21534212Y-21525452D01*
X21515164Y-21534976D01*
X21477069Y-21534976D01*
X21458021Y-21525452D01*
X21667545Y-21534976D02*
X21648498Y-21525452D01*
X21638974Y-21506405D01*
X21638974Y-21334976D01*
X21829450Y-21534976D02*
X21829450Y-21430214D01*
X21819926Y-21411167D01*
X21800879Y-21401643D01*
X21762783Y-21401643D01*
X21743736Y-21411167D01*
X21829450Y-21525452D02*
X21810402Y-21534976D01*
X21762783Y-21534976D01*
X21743736Y-21525452D01*
X21734212Y-21506405D01*
X21734212Y-21487357D01*
X21743736Y-21468310D01*
X21762783Y-21458786D01*
X21810402Y-21458786D01*
X21829450Y-21449262D01*
X21896117Y-21401643D02*
X21972307Y-21401643D01*
X21924688Y-21334976D02*
X21924688Y-21506405D01*
X21934212Y-21525452D01*
X21953260Y-21534976D01*
X21972307Y-21534976D01*
X22115164Y-21525452D02*
X22096117Y-21534976D01*
X22058021Y-21534976D01*
X22038974Y-21525452D01*
X22029450Y-21506405D01*
X22029450Y-21430214D01*
X22038974Y-21411167D01*
X22058021Y-21401643D01*
X22096117Y-21401643D01*
X22115164Y-21411167D01*
X22124688Y-21430214D01*
X22124688Y-21449262D01*
X22029450Y-21468310D01*
X22296117Y-21534976D02*
X22296117Y-21334976D01*
X22296117Y-21525452D02*
X22277069Y-21534976D01*
X22238974Y-21534976D01*
X22219926Y-21525452D01*
X22210402Y-21515929D01*
X22200879Y-21496881D01*
X22200879Y-21439738D01*
X22210402Y-21420690D01*
X22219926Y-21411167D01*
X22238974Y-21401643D01*
X22277069Y-21401643D01*
X22296117Y-21411167D01*
X22372307Y-21611167D02*
X22381831Y-21601643D01*
X22400878Y-21573071D01*
X22410402Y-21554024D01*
X22419926Y-21525452D01*
X22429450Y-21477833D01*
X22429450Y-21439738D01*
X22419926Y-21392119D01*
X22410402Y-21363548D01*
X22400878Y-21344500D01*
X22381831Y-21315929D01*
X22372307Y-21306405D01*
D13*
X13809926Y-21708500D02*
G75*
G03*
X13809926Y-21708500I-45000J0D01*
G01*
D11*
X14105640Y-21598976D02*
X14124688Y-21598976D01*
X14143736Y-21608500D01*
X14153259Y-21618024D01*
X14162783Y-21637071D01*
X14172307Y-21675167D01*
X14172307Y-21722786D01*
X14162783Y-21760881D01*
X14153259Y-21779929D01*
X14143736Y-21789452D01*
X14124688Y-21798976D01*
X14105640Y-21798976D01*
X14086593Y-21789452D01*
X14077069Y-21779929D01*
X14067545Y-21760881D01*
X14058021Y-21722786D01*
X14058021Y-21675167D01*
X14067545Y-21637071D01*
X14077069Y-21618024D01*
X14086593Y-21608500D01*
X14105640Y-21598976D01*
X14258021Y-21779929D02*
X14267545Y-21789452D01*
X14258021Y-21798976D01*
X14248498Y-21789452D01*
X14258021Y-21779929D01*
X14258021Y-21798976D01*
X14362783Y-21798976D02*
X14400878Y-21798976D01*
X14419926Y-21789452D01*
X14429450Y-21779929D01*
X14448498Y-21751357D01*
X14458021Y-21713262D01*
X14458021Y-21637071D01*
X14448498Y-21618024D01*
X14438974Y-21608500D01*
X14419926Y-21598976D01*
X14381831Y-21598976D01*
X14362783Y-21608500D01*
X14353259Y-21618024D01*
X14343736Y-21637071D01*
X14343736Y-21684690D01*
X14353259Y-21703738D01*
X14362783Y-21713262D01*
X14381831Y-21722786D01*
X14419926Y-21722786D01*
X14438974Y-21713262D01*
X14448498Y-21703738D01*
X14458021Y-21684690D01*
X14581831Y-21598976D02*
X14600878Y-21598976D01*
X14619926Y-21608500D01*
X14629450Y-21618024D01*
X14638974Y-21637071D01*
X14648498Y-21675167D01*
X14648498Y-21722786D01*
X14638974Y-21760881D01*
X14629450Y-21779929D01*
X14619926Y-21789452D01*
X14600878Y-21798976D01*
X14581831Y-21798976D01*
X14562783Y-21789452D01*
X14553259Y-21779929D01*
X14543736Y-21760881D01*
X14534212Y-21722786D01*
X14534212Y-21675167D01*
X14543736Y-21637071D01*
X14553259Y-21618024D01*
X14562783Y-21608500D01*
X14581831Y-21598976D01*
X14772307Y-21598976D02*
X14791355Y-21598976D01*
X14810402Y-21608500D01*
X14819926Y-21618024D01*
X14829450Y-21637071D01*
X14838974Y-21675167D01*
X14838974Y-21722786D01*
X14829450Y-21760881D01*
X14819926Y-21779929D01*
X14810402Y-21789452D01*
X14791355Y-21798976D01*
X14772307Y-21798976D01*
X14753259Y-21789452D01*
X14743736Y-21779929D01*
X14734212Y-21760881D01*
X14724688Y-21722786D01*
X14724688Y-21675167D01*
X14734212Y-21637071D01*
X14743736Y-21618024D01*
X14753259Y-21608500D01*
X14772307Y-21598976D01*
X14924688Y-21798976D02*
X14924688Y-21665643D01*
X14924688Y-21684690D02*
X14934212Y-21675167D01*
X14953259Y-21665643D01*
X14981831Y-21665643D01*
X15000878Y-21675167D01*
X15010402Y-21694214D01*
X15010402Y-21798976D01*
X15010402Y-21694214D02*
X15019926Y-21675167D01*
X15038974Y-21665643D01*
X15067545Y-21665643D01*
X15086593Y-21675167D01*
X15096117Y-21694214D01*
X15096117Y-21798976D01*
X15191355Y-21798976D02*
X15191355Y-21665643D01*
X15191355Y-21684690D02*
X15200878Y-21675167D01*
X15219926Y-21665643D01*
X15248498Y-21665643D01*
X15267545Y-21675167D01*
X15277069Y-21694214D01*
X15277069Y-21798976D01*
X15277069Y-21694214D02*
X15286593Y-21675167D01*
X15305640Y-21665643D01*
X15334212Y-21665643D01*
X15353259Y-21675167D01*
X15362783Y-21694214D01*
X15362783Y-21798976D01*
X15753259Y-21589452D02*
X15581831Y-21846595D01*
X16010402Y-21598976D02*
X16029450Y-21598976D01*
X16048498Y-21608500D01*
X16058021Y-21618024D01*
X16067545Y-21637071D01*
X16077069Y-21675167D01*
X16077069Y-21722786D01*
X16067545Y-21760881D01*
X16058021Y-21779929D01*
X16048498Y-21789452D01*
X16029450Y-21798976D01*
X16010402Y-21798976D01*
X15991355Y-21789452D01*
X15981831Y-21779929D01*
X15972307Y-21760881D01*
X15962783Y-21722786D01*
X15962783Y-21675167D01*
X15972307Y-21637071D01*
X15981831Y-21618024D01*
X15991355Y-21608500D01*
X16010402Y-21598976D01*
X16162783Y-21779929D02*
X16172307Y-21789452D01*
X16162783Y-21798976D01*
X16153259Y-21789452D01*
X16162783Y-21779929D01*
X16162783Y-21798976D01*
X16296117Y-21598976D02*
X16315164Y-21598976D01*
X16334212Y-21608500D01*
X16343736Y-21618024D01*
X16353259Y-21637071D01*
X16362783Y-21675167D01*
X16362783Y-21722786D01*
X16353259Y-21760881D01*
X16343736Y-21779929D01*
X16334212Y-21789452D01*
X16315164Y-21798976D01*
X16296117Y-21798976D01*
X16277069Y-21789452D01*
X16267545Y-21779929D01*
X16258021Y-21760881D01*
X16248498Y-21722786D01*
X16248498Y-21675167D01*
X16258021Y-21637071D01*
X16267545Y-21618024D01*
X16277069Y-21608500D01*
X16296117Y-21598976D01*
X16429450Y-21598976D02*
X16553259Y-21598976D01*
X16486593Y-21675167D01*
X16515164Y-21675167D01*
X16534212Y-21684690D01*
X16543736Y-21694214D01*
X16553259Y-21713262D01*
X16553259Y-21760881D01*
X16543736Y-21779929D01*
X16534212Y-21789452D01*
X16515164Y-21798976D01*
X16458021Y-21798976D01*
X16438974Y-21789452D01*
X16429450Y-21779929D01*
X16734212Y-21598976D02*
X16638974Y-21598976D01*
X16629450Y-21694214D01*
X16638974Y-21684690D01*
X16658021Y-21675167D01*
X16705640Y-21675167D01*
X16724688Y-21684690D01*
X16734212Y-21694214D01*
X16743736Y-21713262D01*
X16743736Y-21760881D01*
X16734212Y-21779929D01*
X16724688Y-21789452D01*
X16705640Y-21798976D01*
X16658021Y-21798976D01*
X16638974Y-21789452D01*
X16629450Y-21779929D01*
X16915164Y-21665643D02*
X16915164Y-21798976D01*
X16867545Y-21589452D02*
X16819926Y-21732310D01*
X16943736Y-21732310D01*
X17010402Y-21598976D02*
X17010402Y-21637071D01*
X17086593Y-21598976D02*
X17086593Y-21637071D01*
X17381831Y-21875167D02*
X17372307Y-21865643D01*
X17353260Y-21837071D01*
X17343736Y-21818024D01*
X17334212Y-21789452D01*
X17324688Y-21741833D01*
X17324688Y-21703738D01*
X17334212Y-21656119D01*
X17343736Y-21627548D01*
X17353260Y-21608500D01*
X17372307Y-21579929D01*
X17381831Y-21570405D01*
X17543736Y-21665643D02*
X17543736Y-21798976D01*
X17496117Y-21589452D02*
X17448498Y-21732310D01*
X17572307Y-21732310D01*
X17800879Y-21798976D02*
X17800879Y-21598976D01*
X17886593Y-21798976D02*
X17886593Y-21694214D01*
X17877069Y-21675167D01*
X17858021Y-21665643D01*
X17829450Y-21665643D01*
X17810402Y-21675167D01*
X17800879Y-21684690D01*
X18010402Y-21798976D02*
X17991355Y-21789452D01*
X17981831Y-21779929D01*
X17972307Y-21760881D01*
X17972307Y-21703738D01*
X17981831Y-21684690D01*
X17991355Y-21675167D01*
X18010402Y-21665643D01*
X18038974Y-21665643D01*
X18058021Y-21675167D01*
X18067545Y-21684690D01*
X18077069Y-21703738D01*
X18077069Y-21760881D01*
X18067545Y-21779929D01*
X18058021Y-21789452D01*
X18038974Y-21798976D01*
X18010402Y-21798976D01*
X18191355Y-21798976D02*
X18172307Y-21789452D01*
X18162783Y-21770405D01*
X18162783Y-21598976D01*
X18343736Y-21789452D02*
X18324688Y-21798976D01*
X18286593Y-21798976D01*
X18267545Y-21789452D01*
X18258021Y-21770405D01*
X18258021Y-21694214D01*
X18267545Y-21675167D01*
X18286593Y-21665643D01*
X18324688Y-21665643D01*
X18343736Y-21675167D01*
X18353260Y-21694214D01*
X18353260Y-21713262D01*
X18258021Y-21732310D01*
X18429450Y-21789452D02*
X18448498Y-21798976D01*
X18486593Y-21798976D01*
X18505640Y-21789452D01*
X18515164Y-21770405D01*
X18515164Y-21760881D01*
X18505640Y-21741833D01*
X18486593Y-21732310D01*
X18458021Y-21732310D01*
X18438974Y-21722786D01*
X18429450Y-21703738D01*
X18429450Y-21694214D01*
X18438974Y-21675167D01*
X18458021Y-21665643D01*
X18486593Y-21665643D01*
X18505640Y-21675167D01*
X18581831Y-21875167D02*
X18591355Y-21865643D01*
X18610402Y-21837071D01*
X18619926Y-21818024D01*
X18629450Y-21789452D01*
X18638974Y-21741833D01*
X18638974Y-21703738D01*
X18629450Y-21656119D01*
X18619926Y-21627548D01*
X18610402Y-21608500D01*
X18591355Y-21579929D01*
X18581831Y-21570405D01*
X18943736Y-21875167D02*
X18934212Y-21865643D01*
X18915164Y-21837071D01*
X18905640Y-21818024D01*
X18896117Y-21789452D01*
X18886593Y-21741833D01*
X18886593Y-21703738D01*
X18896117Y-21656119D01*
X18905640Y-21627548D01*
X18915164Y-21608500D01*
X18934212Y-21579929D01*
X18943736Y-21570405D01*
X19019926Y-21665643D02*
X19019926Y-21798976D01*
X19019926Y-21684690D02*
X19029450Y-21675167D01*
X19048498Y-21665643D01*
X19077069Y-21665643D01*
X19096117Y-21675167D01*
X19105640Y-21694214D01*
X19105640Y-21798976D01*
X19229450Y-21798976D02*
X19210402Y-21789452D01*
X19200879Y-21779929D01*
X19191355Y-21760881D01*
X19191355Y-21703738D01*
X19200879Y-21684690D01*
X19210402Y-21675167D01*
X19229450Y-21665643D01*
X19258021Y-21665643D01*
X19277069Y-21675167D01*
X19286593Y-21684690D01*
X19296117Y-21703738D01*
X19296117Y-21760881D01*
X19286593Y-21779929D01*
X19277069Y-21789452D01*
X19258021Y-21798976D01*
X19229450Y-21798976D01*
X19353260Y-21665643D02*
X19429450Y-21665643D01*
X19381831Y-21598976D02*
X19381831Y-21770405D01*
X19391355Y-21789452D01*
X19410402Y-21798976D01*
X19429450Y-21798976D01*
X19648498Y-21665643D02*
X19648498Y-21865643D01*
X19648498Y-21675167D02*
X19667545Y-21665643D01*
X19705640Y-21665643D01*
X19724688Y-21675167D01*
X19734212Y-21684690D01*
X19743736Y-21703738D01*
X19743736Y-21760881D01*
X19734212Y-21779929D01*
X19724688Y-21789452D01*
X19705640Y-21798976D01*
X19667545Y-21798976D01*
X19648498Y-21789452D01*
X19858021Y-21798976D02*
X19838974Y-21789452D01*
X19829450Y-21770405D01*
X19829450Y-21598976D01*
X20019926Y-21798976D02*
X20019926Y-21694214D01*
X20010402Y-21675167D01*
X19991355Y-21665643D01*
X19953260Y-21665643D01*
X19934212Y-21675167D01*
X20019926Y-21789452D02*
X20000879Y-21798976D01*
X19953260Y-21798976D01*
X19934212Y-21789452D01*
X19924688Y-21770405D01*
X19924688Y-21751357D01*
X19934212Y-21732310D01*
X19953260Y-21722786D01*
X20000879Y-21722786D01*
X20019926Y-21713262D01*
X20086593Y-21665643D02*
X20162783Y-21665643D01*
X20115164Y-21598976D02*
X20115164Y-21770405D01*
X20124688Y-21789452D01*
X20143736Y-21798976D01*
X20162783Y-21798976D01*
X20305640Y-21789452D02*
X20286593Y-21798976D01*
X20248498Y-21798976D01*
X20229450Y-21789452D01*
X20219926Y-21770405D01*
X20219926Y-21694214D01*
X20229450Y-21675167D01*
X20248498Y-21665643D01*
X20286593Y-21665643D01*
X20305640Y-21675167D01*
X20315164Y-21694214D01*
X20315164Y-21713262D01*
X20219926Y-21732310D01*
X20486593Y-21798976D02*
X20486593Y-21598976D01*
X20486593Y-21789452D02*
X20467545Y-21798976D01*
X20429450Y-21798976D01*
X20410402Y-21789452D01*
X20400879Y-21779929D01*
X20391355Y-21760881D01*
X20391355Y-21703738D01*
X20400879Y-21684690D01*
X20410402Y-21675167D01*
X20429450Y-21665643D01*
X20467545Y-21665643D01*
X20486593Y-21675167D01*
X20562783Y-21875167D02*
X20572307Y-21865643D01*
X20591355Y-21837071D01*
X20600879Y-21818024D01*
X20610402Y-21789452D01*
X20619926Y-21741833D01*
X20619926Y-21703738D01*
X20610402Y-21656119D01*
X20600879Y-21627548D01*
X20591355Y-21608500D01*
X20572307Y-21579929D01*
X20562783Y-21570405D01*
D14*
X13759926Y-21922500D02*
X13759926Y-22022500D01*
X13709926Y-21972500D02*
X13809926Y-21972500D01*
D11*
X14172307Y-22062976D02*
X14058021Y-22062976D01*
X14115164Y-22062976D02*
X14115164Y-21862976D01*
X14096117Y-21891548D01*
X14077069Y-21910595D01*
X14058021Y-21920119D01*
X14258021Y-22043929D02*
X14267545Y-22053452D01*
X14258021Y-22062976D01*
X14248498Y-22053452D01*
X14258021Y-22043929D01*
X14258021Y-22062976D01*
X14391355Y-21862976D02*
X14410402Y-21862976D01*
X14429450Y-21872500D01*
X14438974Y-21882024D01*
X14448498Y-21901071D01*
X14458021Y-21939167D01*
X14458021Y-21986786D01*
X14448498Y-22024881D01*
X14438974Y-22043929D01*
X14429450Y-22053452D01*
X14410402Y-22062976D01*
X14391355Y-22062976D01*
X14372307Y-22053452D01*
X14362783Y-22043929D01*
X14353259Y-22024881D01*
X14343736Y-21986786D01*
X14343736Y-21939167D01*
X14353259Y-21901071D01*
X14362783Y-21882024D01*
X14372307Y-21872500D01*
X14391355Y-21862976D01*
X14581831Y-21862976D02*
X14600878Y-21862976D01*
X14619926Y-21872500D01*
X14629450Y-21882024D01*
X14638974Y-21901071D01*
X14648498Y-21939167D01*
X14648498Y-21986786D01*
X14638974Y-22024881D01*
X14629450Y-22043929D01*
X14619926Y-22053452D01*
X14600878Y-22062976D01*
X14581831Y-22062976D01*
X14562783Y-22053452D01*
X14553259Y-22043929D01*
X14543736Y-22024881D01*
X14534212Y-21986786D01*
X14534212Y-21939167D01*
X14543736Y-21901071D01*
X14553259Y-21882024D01*
X14562783Y-21872500D01*
X14581831Y-21862976D01*
X14772307Y-21862976D02*
X14791355Y-21862976D01*
X14810402Y-21872500D01*
X14819926Y-21882024D01*
X14829450Y-21901071D01*
X14838974Y-21939167D01*
X14838974Y-21986786D01*
X14829450Y-22024881D01*
X14819926Y-22043929D01*
X14810402Y-22053452D01*
X14791355Y-22062976D01*
X14772307Y-22062976D01*
X14753259Y-22053452D01*
X14743736Y-22043929D01*
X14734212Y-22024881D01*
X14724688Y-21986786D01*
X14724688Y-21939167D01*
X14734212Y-21901071D01*
X14743736Y-21882024D01*
X14753259Y-21872500D01*
X14772307Y-21862976D01*
X14924688Y-22062976D02*
X14924688Y-21929643D01*
X14924688Y-21948690D02*
X14934212Y-21939167D01*
X14953259Y-21929643D01*
X14981831Y-21929643D01*
X15000878Y-21939167D01*
X15010402Y-21958214D01*
X15010402Y-22062976D01*
X15010402Y-21958214D02*
X15019926Y-21939167D01*
X15038974Y-21929643D01*
X15067545Y-21929643D01*
X15086593Y-21939167D01*
X15096117Y-21958214D01*
X15096117Y-22062976D01*
X15191355Y-22062976D02*
X15191355Y-21929643D01*
X15191355Y-21948690D02*
X15200878Y-21939167D01*
X15219926Y-21929643D01*
X15248498Y-21929643D01*
X15267545Y-21939167D01*
X15277069Y-21958214D01*
X15277069Y-22062976D01*
X15277069Y-21958214D02*
X15286593Y-21939167D01*
X15305640Y-21929643D01*
X15334212Y-21929643D01*
X15353259Y-21939167D01*
X15362783Y-21958214D01*
X15362783Y-22062976D01*
X15753259Y-21853452D02*
X15581831Y-22110595D01*
X16010402Y-21862976D02*
X16029450Y-21862976D01*
X16048498Y-21872500D01*
X16058021Y-21882024D01*
X16067545Y-21901071D01*
X16077069Y-21939167D01*
X16077069Y-21986786D01*
X16067545Y-22024881D01*
X16058021Y-22043929D01*
X16048498Y-22053452D01*
X16029450Y-22062976D01*
X16010402Y-22062976D01*
X15991355Y-22053452D01*
X15981831Y-22043929D01*
X15972307Y-22024881D01*
X15962783Y-21986786D01*
X15962783Y-21939167D01*
X15972307Y-21901071D01*
X15981831Y-21882024D01*
X15991355Y-21872500D01*
X16010402Y-21862976D01*
X16162783Y-22043929D02*
X16172307Y-22053452D01*
X16162783Y-22062976D01*
X16153259Y-22053452D01*
X16162783Y-22043929D01*
X16162783Y-22062976D01*
X16296117Y-21862976D02*
X16315164Y-21862976D01*
X16334212Y-21872500D01*
X16343736Y-21882024D01*
X16353259Y-21901071D01*
X16362783Y-21939167D01*
X16362783Y-21986786D01*
X16353259Y-22024881D01*
X16343736Y-22043929D01*
X16334212Y-22053452D01*
X16315164Y-22062976D01*
X16296117Y-22062976D01*
X16277069Y-22053452D01*
X16267545Y-22043929D01*
X16258021Y-22024881D01*
X16248498Y-21986786D01*
X16248498Y-21939167D01*
X16258021Y-21901071D01*
X16267545Y-21882024D01*
X16277069Y-21872500D01*
X16296117Y-21862976D01*
X16429450Y-21862976D02*
X16553259Y-21862976D01*
X16486593Y-21939167D01*
X16515164Y-21939167D01*
X16534212Y-21948690D01*
X16543736Y-21958214D01*
X16553259Y-21977262D01*
X16553259Y-22024881D01*
X16543736Y-22043929D01*
X16534212Y-22053452D01*
X16515164Y-22062976D01*
X16458021Y-22062976D01*
X16438974Y-22053452D01*
X16429450Y-22043929D01*
X16648498Y-22062976D02*
X16686593Y-22062976D01*
X16705640Y-22053452D01*
X16715164Y-22043929D01*
X16734212Y-22015357D01*
X16743736Y-21977262D01*
X16743736Y-21901071D01*
X16734212Y-21882024D01*
X16724688Y-21872500D01*
X16705640Y-21862976D01*
X16667545Y-21862976D01*
X16648498Y-21872500D01*
X16638974Y-21882024D01*
X16629450Y-21901071D01*
X16629450Y-21948690D01*
X16638974Y-21967738D01*
X16648498Y-21977262D01*
X16667545Y-21986786D01*
X16705640Y-21986786D01*
X16724688Y-21977262D01*
X16734212Y-21967738D01*
X16743736Y-21948690D01*
X16915164Y-21929643D02*
X16915164Y-22062976D01*
X16867545Y-21853452D02*
X16819926Y-21996310D01*
X16943736Y-21996310D01*
X17010402Y-21862976D02*
X17010402Y-21901071D01*
X17086593Y-21862976D02*
X17086593Y-21901071D01*
X17381831Y-22139167D02*
X17372307Y-22129643D01*
X17353260Y-22101071D01*
X17343736Y-22082024D01*
X17334212Y-22053452D01*
X17324688Y-22005833D01*
X17324688Y-21967738D01*
X17334212Y-21920119D01*
X17343736Y-21891548D01*
X17353260Y-21872500D01*
X17372307Y-21843929D01*
X17381831Y-21834405D01*
X17496117Y-21862976D02*
X17515164Y-21862976D01*
X17534212Y-21872500D01*
X17543736Y-21882024D01*
X17553260Y-21901071D01*
X17562783Y-21939167D01*
X17562783Y-21986786D01*
X17553260Y-22024881D01*
X17543736Y-22043929D01*
X17534212Y-22053452D01*
X17515164Y-22062976D01*
X17496117Y-22062976D01*
X17477069Y-22053452D01*
X17467545Y-22043929D01*
X17458021Y-22024881D01*
X17448498Y-21986786D01*
X17448498Y-21939167D01*
X17458021Y-21901071D01*
X17467545Y-21882024D01*
X17477069Y-21872500D01*
X17496117Y-21862976D01*
X17800879Y-22062976D02*
X17800879Y-21862976D01*
X17886593Y-22062976D02*
X17886593Y-21958214D01*
X17877069Y-21939167D01*
X17858021Y-21929643D01*
X17829450Y-21929643D01*
X17810402Y-21939167D01*
X17800879Y-21948690D01*
X18010402Y-22062976D02*
X17991355Y-22053452D01*
X17981831Y-22043929D01*
X17972307Y-22024881D01*
X17972307Y-21967738D01*
X17981831Y-21948690D01*
X17991355Y-21939167D01*
X18010402Y-21929643D01*
X18038974Y-21929643D01*
X18058021Y-21939167D01*
X18067545Y-21948690D01*
X18077069Y-21967738D01*
X18077069Y-22024881D01*
X18067545Y-22043929D01*
X18058021Y-22053452D01*
X18038974Y-22062976D01*
X18010402Y-22062976D01*
X18191355Y-22062976D02*
X18172307Y-22053452D01*
X18162783Y-22034405D01*
X18162783Y-21862976D01*
X18343736Y-22053452D02*
X18324688Y-22062976D01*
X18286593Y-22062976D01*
X18267545Y-22053452D01*
X18258021Y-22034405D01*
X18258021Y-21958214D01*
X18267545Y-21939167D01*
X18286593Y-21929643D01*
X18324688Y-21929643D01*
X18343736Y-21939167D01*
X18353260Y-21958214D01*
X18353260Y-21977262D01*
X18258021Y-21996310D01*
X18429450Y-22053452D02*
X18448498Y-22062976D01*
X18486593Y-22062976D01*
X18505640Y-22053452D01*
X18515164Y-22034405D01*
X18515164Y-22024881D01*
X18505640Y-22005833D01*
X18486593Y-21996310D01*
X18458021Y-21996310D01*
X18438974Y-21986786D01*
X18429450Y-21967738D01*
X18429450Y-21958214D01*
X18438974Y-21939167D01*
X18458021Y-21929643D01*
X18486593Y-21929643D01*
X18505640Y-21939167D01*
X18753260Y-21986786D02*
X18905640Y-21986786D01*
X18829450Y-22062976D02*
X18829450Y-21910595D01*
X19143736Y-21882024D02*
X19153260Y-21872500D01*
X19172307Y-21862976D01*
X19219926Y-21862976D01*
X19238974Y-21872500D01*
X19248498Y-21882024D01*
X19258021Y-21901071D01*
X19258021Y-21920119D01*
X19248498Y-21948690D01*
X19134212Y-22062976D01*
X19258021Y-22062976D01*
X19372307Y-21948690D02*
X19353260Y-21939167D01*
X19343736Y-21929643D01*
X19334212Y-21910595D01*
X19334212Y-21901071D01*
X19343736Y-21882024D01*
X19353260Y-21872500D01*
X19372307Y-21862976D01*
X19410402Y-21862976D01*
X19429450Y-21872500D01*
X19438974Y-21882024D01*
X19448498Y-21901071D01*
X19448498Y-21910595D01*
X19438974Y-21929643D01*
X19429450Y-21939167D01*
X19410402Y-21948690D01*
X19372307Y-21948690D01*
X19353260Y-21958214D01*
X19343736Y-21967738D01*
X19334212Y-21986786D01*
X19334212Y-22024881D01*
X19343736Y-22043929D01*
X19353260Y-22053452D01*
X19372307Y-22062976D01*
X19410402Y-22062976D01*
X19429450Y-22053452D01*
X19438974Y-22043929D01*
X19448498Y-22024881D01*
X19448498Y-21986786D01*
X19438974Y-21967738D01*
X19429450Y-21958214D01*
X19410402Y-21948690D01*
X19677069Y-22053452D02*
X19696117Y-22062976D01*
X19734212Y-22062976D01*
X19753260Y-22053452D01*
X19762783Y-22034405D01*
X19762783Y-22024881D01*
X19753260Y-22005833D01*
X19734212Y-21996310D01*
X19705640Y-21996310D01*
X19686593Y-21986786D01*
X19677069Y-21967738D01*
X19677069Y-21958214D01*
X19686593Y-21939167D01*
X19705640Y-21929643D01*
X19734212Y-21929643D01*
X19753260Y-21939167D01*
X19877069Y-22062976D02*
X19858021Y-22053452D01*
X19848498Y-22034405D01*
X19848498Y-21862976D01*
X19981831Y-22062976D02*
X19962783Y-22053452D01*
X19953260Y-22043929D01*
X19943736Y-22024881D01*
X19943736Y-21967738D01*
X19953260Y-21948690D01*
X19962783Y-21939167D01*
X19981831Y-21929643D01*
X20010402Y-21929643D01*
X20029450Y-21939167D01*
X20038974Y-21948690D01*
X20048498Y-21967738D01*
X20048498Y-22024881D01*
X20038974Y-22043929D01*
X20029450Y-22053452D01*
X20010402Y-22062976D01*
X19981831Y-22062976D01*
X20105640Y-21929643D02*
X20181831Y-21929643D01*
X20134212Y-21862976D02*
X20134212Y-22034405D01*
X20143736Y-22053452D01*
X20162783Y-22062976D01*
X20181831Y-22062976D01*
X20238974Y-22053452D02*
X20258021Y-22062976D01*
X20296117Y-22062976D01*
X20315164Y-22053452D01*
X20324688Y-22034405D01*
X20324688Y-22024881D01*
X20315164Y-22005833D01*
X20296117Y-21996310D01*
X20267545Y-21996310D01*
X20248498Y-21986786D01*
X20238974Y-21967738D01*
X20238974Y-21958214D01*
X20248498Y-21939167D01*
X20267545Y-21929643D01*
X20296117Y-21929643D01*
X20315164Y-21939167D01*
X20391355Y-22139167D02*
X20400879Y-22129643D01*
X20419926Y-22101071D01*
X20429450Y-22082024D01*
X20438974Y-22053452D01*
X20448498Y-22005833D01*
X20448498Y-21967738D01*
X20438974Y-21920119D01*
X20429450Y-21891548D01*
X20419926Y-21872500D01*
X20400879Y-21843929D01*
X20391355Y-21834405D01*
X20753260Y-22139167D02*
X20743736Y-22129643D01*
X20724688Y-22101071D01*
X20715164Y-22082024D01*
X20705640Y-22053452D01*
X20696117Y-22005833D01*
X20696117Y-21967738D01*
X20705640Y-21920119D01*
X20715164Y-21891548D01*
X20724688Y-21872500D01*
X20743736Y-21843929D01*
X20753260Y-21834405D01*
X20829450Y-21929643D02*
X20829450Y-22062976D01*
X20829450Y-21948690D02*
X20838974Y-21939167D01*
X20858021Y-21929643D01*
X20886593Y-21929643D01*
X20905640Y-21939167D01*
X20915164Y-21958214D01*
X20915164Y-22062976D01*
X21038974Y-22062976D02*
X21019926Y-22053452D01*
X21010402Y-22043929D01*
X21000879Y-22024881D01*
X21000879Y-21967738D01*
X21010402Y-21948690D01*
X21019926Y-21939167D01*
X21038974Y-21929643D01*
X21067545Y-21929643D01*
X21086593Y-21939167D01*
X21096117Y-21948690D01*
X21105640Y-21967738D01*
X21105640Y-22024881D01*
X21096117Y-22043929D01*
X21086593Y-22053452D01*
X21067545Y-22062976D01*
X21038974Y-22062976D01*
X21162783Y-21929643D02*
X21238974Y-21929643D01*
X21191355Y-21862976D02*
X21191355Y-22034405D01*
X21200879Y-22053452D01*
X21219926Y-22062976D01*
X21238974Y-22062976D01*
X21458021Y-21929643D02*
X21458021Y-22129643D01*
X21458021Y-21939167D02*
X21477069Y-21929643D01*
X21515164Y-21929643D01*
X21534212Y-21939167D01*
X21543736Y-21948690D01*
X21553260Y-21967738D01*
X21553260Y-22024881D01*
X21543736Y-22043929D01*
X21534212Y-22053452D01*
X21515164Y-22062976D01*
X21477069Y-22062976D01*
X21458021Y-22053452D01*
X21667545Y-22062976D02*
X21648498Y-22053452D01*
X21638974Y-22034405D01*
X21638974Y-21862976D01*
X21829450Y-22062976D02*
X21829450Y-21958214D01*
X21819926Y-21939167D01*
X21800879Y-21929643D01*
X21762783Y-21929643D01*
X21743736Y-21939167D01*
X21829450Y-22053452D02*
X21810402Y-22062976D01*
X21762783Y-22062976D01*
X21743736Y-22053452D01*
X21734212Y-22034405D01*
X21734212Y-22015357D01*
X21743736Y-21996310D01*
X21762783Y-21986786D01*
X21810402Y-21986786D01*
X21829450Y-21977262D01*
X21896117Y-21929643D02*
X21972307Y-21929643D01*
X21924688Y-21862976D02*
X21924688Y-22034405D01*
X21934212Y-22053452D01*
X21953260Y-22062976D01*
X21972307Y-22062976D01*
X22115164Y-22053452D02*
X22096117Y-22062976D01*
X22058021Y-22062976D01*
X22038974Y-22053452D01*
X22029450Y-22034405D01*
X22029450Y-21958214D01*
X22038974Y-21939167D01*
X22058021Y-21929643D01*
X22096117Y-21929643D01*
X22115164Y-21939167D01*
X22124688Y-21958214D01*
X22124688Y-21977262D01*
X22029450Y-21996310D01*
X22296117Y-22062976D02*
X22296117Y-21862976D01*
X22296117Y-22053452D02*
X22277069Y-22062976D01*
X22238974Y-22062976D01*
X22219926Y-22053452D01*
X22210402Y-22043929D01*
X22200879Y-22024881D01*
X22200879Y-21967738D01*
X22210402Y-21948690D01*
X22219926Y-21939167D01*
X22238974Y-21929643D01*
X22277069Y-21929643D01*
X22296117Y-21939167D01*
X22372307Y-22139167D02*
X22381831Y-22129643D01*
X22400878Y-22101071D01*
X22410402Y-22082024D01*
X22419926Y-22053452D01*
X22429450Y-22005833D01*
X22429450Y-21967738D01*
X22419926Y-21920119D01*
X22410402Y-21891548D01*
X22400878Y-21872500D01*
X22381831Y-21843929D01*
X22372307Y-21834405D01*
D15*
X13787960Y-22289534D02*
X13787960Y-22183467D01*
X13681893Y-22183467D01*
X13681893Y-22289534D01*
X13787960Y-22289534D01*
D11*
X14172307Y-22326976D02*
X14058021Y-22326976D01*
X14115164Y-22326976D02*
X14115164Y-22126976D01*
X14096117Y-22155548D01*
X14077069Y-22174595D01*
X14058021Y-22184119D01*
X14258021Y-22307929D02*
X14267545Y-22317452D01*
X14258021Y-22326976D01*
X14248498Y-22317452D01*
X14258021Y-22307929D01*
X14258021Y-22326976D01*
X14448498Y-22126976D02*
X14353259Y-22126976D01*
X14343736Y-22222214D01*
X14353259Y-22212690D01*
X14372307Y-22203167D01*
X14419926Y-22203167D01*
X14438974Y-22212690D01*
X14448498Y-22222214D01*
X14458021Y-22241262D01*
X14458021Y-22288881D01*
X14448498Y-22307929D01*
X14438974Y-22317452D01*
X14419926Y-22326976D01*
X14372307Y-22326976D01*
X14353259Y-22317452D01*
X14343736Y-22307929D01*
X14581831Y-22126976D02*
X14600878Y-22126976D01*
X14619926Y-22136500D01*
X14629450Y-22146024D01*
X14638974Y-22165071D01*
X14648498Y-22203167D01*
X14648498Y-22250786D01*
X14638974Y-22288881D01*
X14629450Y-22307929D01*
X14619926Y-22317452D01*
X14600878Y-22326976D01*
X14581831Y-22326976D01*
X14562783Y-22317452D01*
X14553259Y-22307929D01*
X14543736Y-22288881D01*
X14534212Y-22250786D01*
X14534212Y-22203167D01*
X14543736Y-22165071D01*
X14553259Y-22146024D01*
X14562783Y-22136500D01*
X14581831Y-22126976D01*
X14772307Y-22126976D02*
X14791355Y-22126976D01*
X14810402Y-22136500D01*
X14819926Y-22146024D01*
X14829450Y-22165071D01*
X14838974Y-22203167D01*
X14838974Y-22250786D01*
X14829450Y-22288881D01*
X14819926Y-22307929D01*
X14810402Y-22317452D01*
X14791355Y-22326976D01*
X14772307Y-22326976D01*
X14753259Y-22317452D01*
X14743736Y-22307929D01*
X14734212Y-22288881D01*
X14724688Y-22250786D01*
X14724688Y-22203167D01*
X14734212Y-22165071D01*
X14743736Y-22146024D01*
X14753259Y-22136500D01*
X14772307Y-22126976D01*
X14924688Y-22326976D02*
X14924688Y-22193643D01*
X14924688Y-22212690D02*
X14934212Y-22203167D01*
X14953259Y-22193643D01*
X14981831Y-22193643D01*
X15000878Y-22203167D01*
X15010402Y-22222214D01*
X15010402Y-22326976D01*
X15010402Y-22222214D02*
X15019926Y-22203167D01*
X15038974Y-22193643D01*
X15067545Y-22193643D01*
X15086593Y-22203167D01*
X15096117Y-22222214D01*
X15096117Y-22326976D01*
X15191355Y-22326976D02*
X15191355Y-22193643D01*
X15191355Y-22212690D02*
X15200878Y-22203167D01*
X15219926Y-22193643D01*
X15248498Y-22193643D01*
X15267545Y-22203167D01*
X15277069Y-22222214D01*
X15277069Y-22326976D01*
X15277069Y-22222214D02*
X15286593Y-22203167D01*
X15305640Y-22193643D01*
X15334212Y-22193643D01*
X15353259Y-22203167D01*
X15362783Y-22222214D01*
X15362783Y-22326976D01*
X15753259Y-22117452D02*
X15581831Y-22374595D01*
X16010402Y-22126976D02*
X16029450Y-22126976D01*
X16048498Y-22136500D01*
X16058021Y-22146024D01*
X16067545Y-22165071D01*
X16077069Y-22203167D01*
X16077069Y-22250786D01*
X16067545Y-22288881D01*
X16058021Y-22307929D01*
X16048498Y-22317452D01*
X16029450Y-22326976D01*
X16010402Y-22326976D01*
X15991355Y-22317452D01*
X15981831Y-22307929D01*
X15972307Y-22288881D01*
X15962783Y-22250786D01*
X15962783Y-22203167D01*
X15972307Y-22165071D01*
X15981831Y-22146024D01*
X15991355Y-22136500D01*
X16010402Y-22126976D01*
X16162783Y-22307929D02*
X16172307Y-22317452D01*
X16162783Y-22326976D01*
X16153259Y-22317452D01*
X16162783Y-22307929D01*
X16162783Y-22326976D01*
X16296117Y-22126976D02*
X16315164Y-22126976D01*
X16334212Y-22136500D01*
X16343736Y-22146024D01*
X16353259Y-22165071D01*
X16362783Y-22203167D01*
X16362783Y-22250786D01*
X16353259Y-22288881D01*
X16343736Y-22307929D01*
X16334212Y-22317452D01*
X16315164Y-22326976D01*
X16296117Y-22326976D01*
X16277069Y-22317452D01*
X16267545Y-22307929D01*
X16258021Y-22288881D01*
X16248498Y-22250786D01*
X16248498Y-22203167D01*
X16258021Y-22165071D01*
X16267545Y-22146024D01*
X16277069Y-22136500D01*
X16296117Y-22126976D01*
X16543736Y-22126976D02*
X16448498Y-22126976D01*
X16438974Y-22222214D01*
X16448498Y-22212690D01*
X16467545Y-22203167D01*
X16515164Y-22203167D01*
X16534212Y-22212690D01*
X16543736Y-22222214D01*
X16553259Y-22241262D01*
X16553259Y-22288881D01*
X16543736Y-22307929D01*
X16534212Y-22317452D01*
X16515164Y-22326976D01*
X16467545Y-22326976D01*
X16448498Y-22317452D01*
X16438974Y-22307929D01*
X16648498Y-22326976D02*
X16686593Y-22326976D01*
X16705640Y-22317452D01*
X16715164Y-22307929D01*
X16734212Y-22279357D01*
X16743736Y-22241262D01*
X16743736Y-22165071D01*
X16734212Y-22146024D01*
X16724688Y-22136500D01*
X16705640Y-22126976D01*
X16667545Y-22126976D01*
X16648498Y-22136500D01*
X16638974Y-22146024D01*
X16629450Y-22165071D01*
X16629450Y-22212690D01*
X16638974Y-22231738D01*
X16648498Y-22241262D01*
X16667545Y-22250786D01*
X16705640Y-22250786D01*
X16724688Y-22241262D01*
X16734212Y-22231738D01*
X16743736Y-22212690D01*
X16934212Y-22326976D02*
X16819926Y-22326976D01*
X16877069Y-22326976D02*
X16877069Y-22126976D01*
X16858021Y-22155548D01*
X16838974Y-22174595D01*
X16819926Y-22184119D01*
X17010402Y-22126976D02*
X17010402Y-22165071D01*
X17086593Y-22126976D02*
X17086593Y-22165071D01*
X17381831Y-22403167D02*
X17372307Y-22393643D01*
X17353260Y-22365071D01*
X17343736Y-22346024D01*
X17334212Y-22317452D01*
X17324688Y-22269833D01*
X17324688Y-22231738D01*
X17334212Y-22184119D01*
X17343736Y-22155548D01*
X17353260Y-22136500D01*
X17372307Y-22107929D01*
X17381831Y-22098405D01*
X17448498Y-22146024D02*
X17458021Y-22136500D01*
X17477069Y-22126976D01*
X17524688Y-22126976D01*
X17543736Y-22136500D01*
X17553260Y-22146024D01*
X17562783Y-22165071D01*
X17562783Y-22184119D01*
X17553260Y-22212690D01*
X17438974Y-22326976D01*
X17562783Y-22326976D01*
X17800879Y-22326976D02*
X17800879Y-22126976D01*
X17886593Y-22326976D02*
X17886593Y-22222214D01*
X17877069Y-22203167D01*
X17858021Y-22193643D01*
X17829450Y-22193643D01*
X17810402Y-22203167D01*
X17800879Y-22212690D01*
X18010402Y-22326976D02*
X17991355Y-22317452D01*
X17981831Y-22307929D01*
X17972307Y-22288881D01*
X17972307Y-22231738D01*
X17981831Y-22212690D01*
X17991355Y-22203167D01*
X18010402Y-22193643D01*
X18038974Y-22193643D01*
X18058021Y-22203167D01*
X18067545Y-22212690D01*
X18077069Y-22231738D01*
X18077069Y-22288881D01*
X18067545Y-22307929D01*
X18058021Y-22317452D01*
X18038974Y-22326976D01*
X18010402Y-22326976D01*
X18191355Y-22326976D02*
X18172307Y-22317452D01*
X18162783Y-22298405D01*
X18162783Y-22126976D01*
X18343736Y-22317452D02*
X18324688Y-22326976D01*
X18286593Y-22326976D01*
X18267545Y-22317452D01*
X18258021Y-22298405D01*
X18258021Y-22222214D01*
X18267545Y-22203167D01*
X18286593Y-22193643D01*
X18324688Y-22193643D01*
X18343736Y-22203167D01*
X18353260Y-22222214D01*
X18353260Y-22241262D01*
X18258021Y-22260310D01*
X18429450Y-22317452D02*
X18448498Y-22326976D01*
X18486593Y-22326976D01*
X18505640Y-22317452D01*
X18515164Y-22298405D01*
X18515164Y-22288881D01*
X18505640Y-22269833D01*
X18486593Y-22260310D01*
X18458021Y-22260310D01*
X18438974Y-22250786D01*
X18429450Y-22231738D01*
X18429450Y-22222214D01*
X18438974Y-22203167D01*
X18458021Y-22193643D01*
X18486593Y-22193643D01*
X18505640Y-22203167D01*
X18581831Y-22403167D02*
X18591355Y-22393643D01*
X18610402Y-22365071D01*
X18619926Y-22346024D01*
X18629450Y-22317452D01*
X18638974Y-22269833D01*
X18638974Y-22231738D01*
X18629450Y-22184119D01*
X18619926Y-22155548D01*
X18610402Y-22136500D01*
X18591355Y-22107929D01*
X18581831Y-22098405D01*
X18943736Y-22403167D02*
X18934212Y-22393643D01*
X18915164Y-22365071D01*
X18905640Y-22346024D01*
X18896117Y-22317452D01*
X18886593Y-22269833D01*
X18886593Y-22231738D01*
X18896117Y-22184119D01*
X18905640Y-22155548D01*
X18915164Y-22136500D01*
X18934212Y-22107929D01*
X18943736Y-22098405D01*
X19019926Y-22193643D02*
X19019926Y-22326976D01*
X19019926Y-22212690D02*
X19029450Y-22203167D01*
X19048498Y-22193643D01*
X19077069Y-22193643D01*
X19096117Y-22203167D01*
X19105640Y-22222214D01*
X19105640Y-22326976D01*
X19229450Y-22326976D02*
X19210402Y-22317452D01*
X19200879Y-22307929D01*
X19191355Y-22288881D01*
X19191355Y-22231738D01*
X19200879Y-22212690D01*
X19210402Y-22203167D01*
X19229450Y-22193643D01*
X19258021Y-22193643D01*
X19277069Y-22203167D01*
X19286593Y-22212690D01*
X19296117Y-22231738D01*
X19296117Y-22288881D01*
X19286593Y-22307929D01*
X19277069Y-22317452D01*
X19258021Y-22326976D01*
X19229450Y-22326976D01*
X19353260Y-22193643D02*
X19429450Y-22193643D01*
X19381831Y-22126976D02*
X19381831Y-22298405D01*
X19391355Y-22317452D01*
X19410402Y-22326976D01*
X19429450Y-22326976D01*
X19648498Y-22193643D02*
X19648498Y-22393643D01*
X19648498Y-22203167D02*
X19667545Y-22193643D01*
X19705640Y-22193643D01*
X19724688Y-22203167D01*
X19734212Y-22212690D01*
X19743736Y-22231738D01*
X19743736Y-22288881D01*
X19734212Y-22307929D01*
X19724688Y-22317452D01*
X19705640Y-22326976D01*
X19667545Y-22326976D01*
X19648498Y-22317452D01*
X19858021Y-22326976D02*
X19838974Y-22317452D01*
X19829450Y-22298405D01*
X19829450Y-22126976D01*
X20019926Y-22326976D02*
X20019926Y-22222214D01*
X20010402Y-22203167D01*
X19991355Y-22193643D01*
X19953260Y-22193643D01*
X19934212Y-22203167D01*
X20019926Y-22317452D02*
X20000879Y-22326976D01*
X19953260Y-22326976D01*
X19934212Y-22317452D01*
X19924688Y-22298405D01*
X19924688Y-22279357D01*
X19934212Y-22260310D01*
X19953260Y-22250786D01*
X20000879Y-22250786D01*
X20019926Y-22241262D01*
X20086593Y-22193643D02*
X20162783Y-22193643D01*
X20115164Y-22126976D02*
X20115164Y-22298405D01*
X20124688Y-22317452D01*
X20143736Y-22326976D01*
X20162783Y-22326976D01*
X20305640Y-22317452D02*
X20286593Y-22326976D01*
X20248498Y-22326976D01*
X20229450Y-22317452D01*
X20219926Y-22298405D01*
X20219926Y-22222214D01*
X20229450Y-22203167D01*
X20248498Y-22193643D01*
X20286593Y-22193643D01*
X20305640Y-22203167D01*
X20315164Y-22222214D01*
X20315164Y-22241262D01*
X20219926Y-22260310D01*
X20486593Y-22326976D02*
X20486593Y-22126976D01*
X20486593Y-22317452D02*
X20467545Y-22326976D01*
X20429450Y-22326976D01*
X20410402Y-22317452D01*
X20400879Y-22307929D01*
X20391355Y-22288881D01*
X20391355Y-22231738D01*
X20400879Y-22212690D01*
X20410402Y-22203167D01*
X20429450Y-22193643D01*
X20467545Y-22193643D01*
X20486593Y-22203167D01*
X20562783Y-22403167D02*
X20572307Y-22393643D01*
X20591355Y-22365071D01*
X20600879Y-22346024D01*
X20610402Y-22317452D01*
X20619926Y-22269833D01*
X20619926Y-22231738D01*
X20610402Y-22184119D01*
X20600879Y-22155548D01*
X20591355Y-22136500D01*
X20572307Y-22107929D01*
X20562783Y-22098405D01*
D16*
X13724836Y-22591590D02*
X13809926Y-22506500D01*
X13724836Y-22421410D01*
X13639746Y-22506500D01*
X13724836Y-22591590D01*
D11*
X14172307Y-22596976D02*
X14058021Y-22596976D01*
X14115164Y-22596976D02*
X14115164Y-22396976D01*
X14096117Y-22425548D01*
X14077069Y-22444595D01*
X14058021Y-22454119D01*
X14258021Y-22577928D02*
X14267545Y-22587452D01*
X14258021Y-22596976D01*
X14248498Y-22587452D01*
X14258021Y-22577928D01*
X14258021Y-22596976D01*
X14334212Y-22396976D02*
X14467545Y-22396976D01*
X14381831Y-22596976D01*
X14581831Y-22396976D02*
X14600878Y-22396976D01*
X14619926Y-22406500D01*
X14629450Y-22416024D01*
X14638974Y-22435071D01*
X14648498Y-22473167D01*
X14648498Y-22520786D01*
X14638974Y-22558881D01*
X14629450Y-22577928D01*
X14619926Y-22587452D01*
X14600878Y-22596976D01*
X14581831Y-22596976D01*
X14562783Y-22587452D01*
X14553259Y-22577928D01*
X14543736Y-22558881D01*
X14534212Y-22520786D01*
X14534212Y-22473167D01*
X14543736Y-22435071D01*
X14553259Y-22416024D01*
X14562783Y-22406500D01*
X14581831Y-22396976D01*
X14724688Y-22416024D02*
X14734212Y-22406500D01*
X14753259Y-22396976D01*
X14800878Y-22396976D01*
X14819926Y-22406500D01*
X14829450Y-22416024D01*
X14838974Y-22435071D01*
X14838974Y-22454119D01*
X14829450Y-22482690D01*
X14715164Y-22596976D01*
X14838974Y-22596976D01*
X14924688Y-22596976D02*
X14924688Y-22463643D01*
X14924688Y-22482690D02*
X14934212Y-22473167D01*
X14953259Y-22463643D01*
X14981831Y-22463643D01*
X15000878Y-22473167D01*
X15010402Y-22492214D01*
X15010402Y-22596976D01*
X15010402Y-22492214D02*
X15019926Y-22473167D01*
X15038974Y-22463643D01*
X15067545Y-22463643D01*
X15086593Y-22473167D01*
X15096117Y-22492214D01*
X15096117Y-22596976D01*
X15191355Y-22596976D02*
X15191355Y-22463643D01*
X15191355Y-22482690D02*
X15200878Y-22473167D01*
X15219926Y-22463643D01*
X15248498Y-22463643D01*
X15267545Y-22473167D01*
X15277069Y-22492214D01*
X15277069Y-22596976D01*
X15277069Y-22492214D02*
X15286593Y-22473167D01*
X15305640Y-22463643D01*
X15334212Y-22463643D01*
X15353259Y-22473167D01*
X15362783Y-22492214D01*
X15362783Y-22596976D01*
X15753259Y-22387452D02*
X15581831Y-22644595D01*
X16010402Y-22396976D02*
X16029450Y-22396976D01*
X16048498Y-22406500D01*
X16058021Y-22416024D01*
X16067545Y-22435071D01*
X16077069Y-22473167D01*
X16077069Y-22520786D01*
X16067545Y-22558881D01*
X16058021Y-22577928D01*
X16048498Y-22587452D01*
X16029450Y-22596976D01*
X16010402Y-22596976D01*
X15991355Y-22587452D01*
X15981831Y-22577928D01*
X15972307Y-22558881D01*
X15962783Y-22520786D01*
X15962783Y-22473167D01*
X15972307Y-22435071D01*
X15981831Y-22416024D01*
X15991355Y-22406500D01*
X16010402Y-22396976D01*
X16162783Y-22577928D02*
X16172307Y-22587452D01*
X16162783Y-22596976D01*
X16153259Y-22587452D01*
X16162783Y-22577928D01*
X16162783Y-22596976D01*
X16296117Y-22396976D02*
X16315164Y-22396976D01*
X16334212Y-22406500D01*
X16343736Y-22416024D01*
X16353259Y-22435071D01*
X16362783Y-22473167D01*
X16362783Y-22520786D01*
X16353259Y-22558881D01*
X16343736Y-22577928D01*
X16334212Y-22587452D01*
X16315164Y-22596976D01*
X16296117Y-22596976D01*
X16277069Y-22587452D01*
X16267545Y-22577928D01*
X16258021Y-22558881D01*
X16248498Y-22520786D01*
X16248498Y-22473167D01*
X16258021Y-22435071D01*
X16267545Y-22416024D01*
X16277069Y-22406500D01*
X16296117Y-22396976D01*
X16534212Y-22396976D02*
X16496117Y-22396976D01*
X16477069Y-22406500D01*
X16467545Y-22416024D01*
X16448498Y-22444595D01*
X16438974Y-22482690D01*
X16438974Y-22558881D01*
X16448498Y-22577928D01*
X16458021Y-22587452D01*
X16477069Y-22596976D01*
X16515164Y-22596976D01*
X16534212Y-22587452D01*
X16543736Y-22577928D01*
X16553259Y-22558881D01*
X16553259Y-22511262D01*
X16543736Y-22492214D01*
X16534212Y-22482690D01*
X16515164Y-22473167D01*
X16477069Y-22473167D01*
X16458021Y-22482690D01*
X16448498Y-22492214D01*
X16438974Y-22511262D01*
X16619926Y-22396976D02*
X16753259Y-22396976D01*
X16667545Y-22596976D01*
X16867545Y-22396976D02*
X16886593Y-22396976D01*
X16905640Y-22406500D01*
X16915164Y-22416024D01*
X16924688Y-22435071D01*
X16934212Y-22473167D01*
X16934212Y-22520786D01*
X16924688Y-22558881D01*
X16915164Y-22577928D01*
X16905640Y-22587452D01*
X16886593Y-22596976D01*
X16867545Y-22596976D01*
X16848498Y-22587452D01*
X16838974Y-22577928D01*
X16829450Y-22558881D01*
X16819926Y-22520786D01*
X16819926Y-22473167D01*
X16829450Y-22435071D01*
X16838974Y-22416024D01*
X16848498Y-22406500D01*
X16867545Y-22396976D01*
X17010402Y-22396976D02*
X17010402Y-22435071D01*
X17086593Y-22396976D02*
X17086593Y-22435071D01*
X17381831Y-22673167D02*
X17372307Y-22663643D01*
X17353260Y-22635071D01*
X17343736Y-22616024D01*
X17334212Y-22587452D01*
X17324688Y-22539833D01*
X17324688Y-22501738D01*
X17334212Y-22454119D01*
X17343736Y-22425548D01*
X17353260Y-22406500D01*
X17372307Y-22377928D01*
X17381831Y-22368405D01*
X17448498Y-22416024D02*
X17458021Y-22406500D01*
X17477069Y-22396976D01*
X17524688Y-22396976D01*
X17543736Y-22406500D01*
X17553260Y-22416024D01*
X17562783Y-22435071D01*
X17562783Y-22454119D01*
X17553260Y-22482690D01*
X17438974Y-22596976D01*
X17562783Y-22596976D01*
X17734212Y-22396976D02*
X17696117Y-22396976D01*
X17677069Y-22406500D01*
X17667545Y-22416024D01*
X17648498Y-22444595D01*
X17638974Y-22482690D01*
X17638974Y-22558881D01*
X17648498Y-22577928D01*
X17658021Y-22587452D01*
X17677069Y-22596976D01*
X17715164Y-22596976D01*
X17734212Y-22587452D01*
X17743736Y-22577928D01*
X17753260Y-22558881D01*
X17753260Y-22511262D01*
X17743736Y-22492214D01*
X17734212Y-22482690D01*
X17715164Y-22473167D01*
X17677069Y-22473167D01*
X17658021Y-22482690D01*
X17648498Y-22492214D01*
X17638974Y-22511262D01*
X17991355Y-22596976D02*
X17991355Y-22396976D01*
X18077069Y-22596976D02*
X18077069Y-22492214D01*
X18067545Y-22473167D01*
X18048498Y-22463643D01*
X18019926Y-22463643D01*
X18000879Y-22473167D01*
X17991355Y-22482690D01*
X18200879Y-22596976D02*
X18181831Y-22587452D01*
X18172307Y-22577928D01*
X18162783Y-22558881D01*
X18162783Y-22501738D01*
X18172307Y-22482690D01*
X18181831Y-22473167D01*
X18200879Y-22463643D01*
X18229450Y-22463643D01*
X18248498Y-22473167D01*
X18258021Y-22482690D01*
X18267545Y-22501738D01*
X18267545Y-22558881D01*
X18258021Y-22577928D01*
X18248498Y-22587452D01*
X18229450Y-22596976D01*
X18200879Y-22596976D01*
X18381831Y-22596976D02*
X18362783Y-22587452D01*
X18353260Y-22568405D01*
X18353260Y-22396976D01*
X18534212Y-22587452D02*
X18515164Y-22596976D01*
X18477069Y-22596976D01*
X18458021Y-22587452D01*
X18448498Y-22568405D01*
X18448498Y-22492214D01*
X18458021Y-22473167D01*
X18477069Y-22463643D01*
X18515164Y-22463643D01*
X18534212Y-22473167D01*
X18543736Y-22492214D01*
X18543736Y-22511262D01*
X18448498Y-22530309D01*
X18619926Y-22587452D02*
X18638974Y-22596976D01*
X18677069Y-22596976D01*
X18696117Y-22587452D01*
X18705640Y-22568405D01*
X18705640Y-22558881D01*
X18696117Y-22539833D01*
X18677069Y-22530309D01*
X18648498Y-22530309D01*
X18629450Y-22520786D01*
X18619926Y-22501738D01*
X18619926Y-22492214D01*
X18629450Y-22473167D01*
X18648498Y-22463643D01*
X18677069Y-22463643D01*
X18696117Y-22473167D01*
X18772307Y-22673167D02*
X18781831Y-22663643D01*
X18800879Y-22635071D01*
X18810402Y-22616024D01*
X18819926Y-22587452D01*
X18829450Y-22539833D01*
X18829450Y-22501738D01*
X18819926Y-22454119D01*
X18810402Y-22425548D01*
X18800879Y-22406500D01*
X18781831Y-22377928D01*
X18772307Y-22368405D01*
X19134212Y-22673167D02*
X19124688Y-22663643D01*
X19105640Y-22635071D01*
X19096117Y-22616024D01*
X19086593Y-22587452D01*
X19077069Y-22539833D01*
X19077069Y-22501738D01*
X19086593Y-22454119D01*
X19096117Y-22425548D01*
X19105640Y-22406500D01*
X19124688Y-22377928D01*
X19134212Y-22368405D01*
X19210402Y-22463643D02*
X19210402Y-22596976D01*
X19210402Y-22482690D02*
X19219926Y-22473167D01*
X19238974Y-22463643D01*
X19267545Y-22463643D01*
X19286593Y-22473167D01*
X19296117Y-22492214D01*
X19296117Y-22596976D01*
X19419926Y-22596976D02*
X19400879Y-22587452D01*
X19391355Y-22577928D01*
X19381831Y-22558881D01*
X19381831Y-22501738D01*
X19391355Y-22482690D01*
X19400879Y-22473167D01*
X19419926Y-22463643D01*
X19448498Y-22463643D01*
X19467545Y-22473167D01*
X19477069Y-22482690D01*
X19486593Y-22501738D01*
X19486593Y-22558881D01*
X19477069Y-22577928D01*
X19467545Y-22587452D01*
X19448498Y-22596976D01*
X19419926Y-22596976D01*
X19543736Y-22463643D02*
X19619926Y-22463643D01*
X19572307Y-22396976D02*
X19572307Y-22568405D01*
X19581831Y-22587452D01*
X19600879Y-22596976D01*
X19619926Y-22596976D01*
X19838974Y-22463643D02*
X19838974Y-22663643D01*
X19838974Y-22473167D02*
X19858021Y-22463643D01*
X19896117Y-22463643D01*
X19915164Y-22473167D01*
X19924688Y-22482690D01*
X19934212Y-22501738D01*
X19934212Y-22558881D01*
X19924688Y-22577928D01*
X19915164Y-22587452D01*
X19896117Y-22596976D01*
X19858021Y-22596976D01*
X19838974Y-22587452D01*
X20048498Y-22596976D02*
X20029450Y-22587452D01*
X20019926Y-22568405D01*
X20019926Y-22396976D01*
X20210402Y-22596976D02*
X20210402Y-22492214D01*
X20200879Y-22473167D01*
X20181831Y-22463643D01*
X20143736Y-22463643D01*
X20124688Y-22473167D01*
X20210402Y-22587452D02*
X20191355Y-22596976D01*
X20143736Y-22596976D01*
X20124688Y-22587452D01*
X20115164Y-22568405D01*
X20115164Y-22549357D01*
X20124688Y-22530309D01*
X20143736Y-22520786D01*
X20191355Y-22520786D01*
X20210402Y-22511262D01*
X20277069Y-22463643D02*
X20353260Y-22463643D01*
X20305640Y-22396976D02*
X20305640Y-22568405D01*
X20315164Y-22587452D01*
X20334212Y-22596976D01*
X20353260Y-22596976D01*
X20496117Y-22587452D02*
X20477069Y-22596976D01*
X20438974Y-22596976D01*
X20419926Y-22587452D01*
X20410402Y-22568405D01*
X20410402Y-22492214D01*
X20419926Y-22473167D01*
X20438974Y-22463643D01*
X20477069Y-22463643D01*
X20496117Y-22473167D01*
X20505640Y-22492214D01*
X20505640Y-22511262D01*
X20410402Y-22530309D01*
X20677069Y-22596976D02*
X20677069Y-22396976D01*
X20677069Y-22587452D02*
X20658021Y-22596976D01*
X20619926Y-22596976D01*
X20600879Y-22587452D01*
X20591355Y-22577928D01*
X20581831Y-22558881D01*
X20581831Y-22501738D01*
X20591355Y-22482690D01*
X20600879Y-22473167D01*
X20619926Y-22463643D01*
X20658021Y-22463643D01*
X20677069Y-22473167D01*
X20753260Y-22673167D02*
X20762783Y-22663643D01*
X20781831Y-22635071D01*
X20791355Y-22616024D01*
X20800879Y-22587452D01*
X20810402Y-22539833D01*
X20810402Y-22501738D01*
X20800879Y-22454119D01*
X20791355Y-22425548D01*
X20781831Y-22406500D01*
X20762783Y-22377928D01*
X20753260Y-22368405D01*
X13609926Y-22696680D02*
X13809926Y-22896680D01*
X13809926Y-22696680D02*
X13609926Y-22896680D01*
X13809926Y-22796680D02*
G75*
G03*
X13809926Y-22796680I-100000J0D01*
G01*
X14048498Y-22687156D02*
X14172307Y-22687156D01*
X14105640Y-22763347D01*
X14134212Y-22763347D01*
X14153259Y-22772870D01*
X14162783Y-22782394D01*
X14172307Y-22801442D01*
X14172307Y-22849061D01*
X14162783Y-22868108D01*
X14153259Y-22877632D01*
X14134212Y-22887156D01*
X14077069Y-22887156D01*
X14058021Y-22877632D01*
X14048498Y-22868108D01*
X14258021Y-22868108D02*
X14267545Y-22877632D01*
X14258021Y-22887156D01*
X14248498Y-22877632D01*
X14258021Y-22868108D01*
X14258021Y-22887156D01*
X14438974Y-22753823D02*
X14438974Y-22887156D01*
X14391355Y-22677632D02*
X14343736Y-22820489D01*
X14467545Y-22820489D01*
X14534212Y-22706204D02*
X14543736Y-22696680D01*
X14562783Y-22687156D01*
X14610402Y-22687156D01*
X14629450Y-22696680D01*
X14638974Y-22706204D01*
X14648498Y-22725251D01*
X14648498Y-22744299D01*
X14638974Y-22772870D01*
X14524688Y-22887156D01*
X14648498Y-22887156D01*
X14743736Y-22887156D02*
X14781831Y-22887156D01*
X14800878Y-22877632D01*
X14810402Y-22868108D01*
X14829450Y-22839537D01*
X14838974Y-22801442D01*
X14838974Y-22725251D01*
X14829450Y-22706204D01*
X14819926Y-22696680D01*
X14800878Y-22687156D01*
X14762783Y-22687156D01*
X14743736Y-22696680D01*
X14734212Y-22706204D01*
X14724688Y-22725251D01*
X14724688Y-22772870D01*
X14734212Y-22791918D01*
X14743736Y-22801442D01*
X14762783Y-22810966D01*
X14800878Y-22810966D01*
X14819926Y-22801442D01*
X14829450Y-22791918D01*
X14838974Y-22772870D01*
X14924688Y-22887156D02*
X14924688Y-22753823D01*
X14924688Y-22772870D02*
X14934212Y-22763347D01*
X14953259Y-22753823D01*
X14981831Y-22753823D01*
X15000878Y-22763347D01*
X15010402Y-22782394D01*
X15010402Y-22887156D01*
X15010402Y-22782394D02*
X15019926Y-22763347D01*
X15038974Y-22753823D01*
X15067545Y-22753823D01*
X15086593Y-22763347D01*
X15096117Y-22782394D01*
X15096117Y-22887156D01*
X15191355Y-22887156D02*
X15191355Y-22753823D01*
X15191355Y-22772870D02*
X15200878Y-22763347D01*
X15219926Y-22753823D01*
X15248498Y-22753823D01*
X15267545Y-22763347D01*
X15277069Y-22782394D01*
X15277069Y-22887156D01*
X15277069Y-22782394D02*
X15286593Y-22763347D01*
X15305640Y-22753823D01*
X15334212Y-22753823D01*
X15353259Y-22763347D01*
X15362783Y-22782394D01*
X15362783Y-22887156D01*
X15753259Y-22677632D02*
X15581831Y-22934775D01*
X16010402Y-22687156D02*
X16029450Y-22687156D01*
X16048498Y-22696680D01*
X16058021Y-22706204D01*
X16067545Y-22725251D01*
X16077069Y-22763347D01*
X16077069Y-22810966D01*
X16067545Y-22849061D01*
X16058021Y-22868108D01*
X16048498Y-22877632D01*
X16029450Y-22887156D01*
X16010402Y-22887156D01*
X15991355Y-22877632D01*
X15981831Y-22868108D01*
X15972307Y-22849061D01*
X15962783Y-22810966D01*
X15962783Y-22763347D01*
X15972307Y-22725251D01*
X15981831Y-22706204D01*
X15991355Y-22696680D01*
X16010402Y-22687156D01*
X16162783Y-22868108D02*
X16172307Y-22877632D01*
X16162783Y-22887156D01*
X16153259Y-22877632D01*
X16162783Y-22868108D01*
X16162783Y-22887156D01*
X16362783Y-22887156D02*
X16248498Y-22887156D01*
X16305640Y-22887156D02*
X16305640Y-22687156D01*
X16286593Y-22715728D01*
X16267545Y-22734775D01*
X16248498Y-22744299D01*
X16429450Y-22687156D02*
X16553259Y-22687156D01*
X16486593Y-22763347D01*
X16515164Y-22763347D01*
X16534212Y-22772870D01*
X16543736Y-22782394D01*
X16553259Y-22801442D01*
X16553259Y-22849061D01*
X16543736Y-22868108D01*
X16534212Y-22877632D01*
X16515164Y-22887156D01*
X16458021Y-22887156D01*
X16438974Y-22877632D01*
X16429450Y-22868108D01*
X16734212Y-22687156D02*
X16638974Y-22687156D01*
X16629450Y-22782394D01*
X16638974Y-22772870D01*
X16658021Y-22763347D01*
X16705640Y-22763347D01*
X16724688Y-22772870D01*
X16734212Y-22782394D01*
X16743736Y-22801442D01*
X16743736Y-22849061D01*
X16734212Y-22868108D01*
X16724688Y-22877632D01*
X16705640Y-22887156D01*
X16658021Y-22887156D01*
X16638974Y-22877632D01*
X16629450Y-22868108D01*
X16867545Y-22687156D02*
X16886593Y-22687156D01*
X16905640Y-22696680D01*
X16915164Y-22706204D01*
X16924688Y-22725251D01*
X16934212Y-22763347D01*
X16934212Y-22810966D01*
X16924688Y-22849061D01*
X16915164Y-22868108D01*
X16905640Y-22877632D01*
X16886593Y-22887156D01*
X16867545Y-22887156D01*
X16848498Y-22877632D01*
X16838974Y-22868108D01*
X16829450Y-22849061D01*
X16819926Y-22810966D01*
X16819926Y-22763347D01*
X16829450Y-22725251D01*
X16838974Y-22706204D01*
X16848498Y-22696680D01*
X16867545Y-22687156D01*
X17010402Y-22687156D02*
X17010402Y-22725251D01*
X17086593Y-22687156D02*
X17086593Y-22725251D01*
X17381831Y-22963347D02*
X17372307Y-22953823D01*
X17353260Y-22925251D01*
X17343736Y-22906204D01*
X17334212Y-22877632D01*
X17324688Y-22830013D01*
X17324688Y-22791918D01*
X17334212Y-22744299D01*
X17343736Y-22715728D01*
X17353260Y-22696680D01*
X17372307Y-22668108D01*
X17381831Y-22658585D01*
X17562783Y-22887156D02*
X17448498Y-22887156D01*
X17505640Y-22887156D02*
X17505640Y-22687156D01*
X17486593Y-22715728D01*
X17467545Y-22734775D01*
X17448498Y-22744299D01*
X17629450Y-22687156D02*
X17753260Y-22687156D01*
X17686593Y-22763347D01*
X17715164Y-22763347D01*
X17734212Y-22772870D01*
X17743736Y-22782394D01*
X17753260Y-22801442D01*
X17753260Y-22849061D01*
X17743736Y-22868108D01*
X17734212Y-22877632D01*
X17715164Y-22887156D01*
X17658021Y-22887156D01*
X17638974Y-22877632D01*
X17629450Y-22868108D01*
X17991355Y-22887156D02*
X17991355Y-22687156D01*
X18077069Y-22887156D02*
X18077069Y-22782394D01*
X18067545Y-22763347D01*
X18048498Y-22753823D01*
X18019926Y-22753823D01*
X18000879Y-22763347D01*
X17991355Y-22772870D01*
X18200879Y-22887156D02*
X18181831Y-22877632D01*
X18172307Y-22868108D01*
X18162783Y-22849061D01*
X18162783Y-22791918D01*
X18172307Y-22772870D01*
X18181831Y-22763347D01*
X18200879Y-22753823D01*
X18229450Y-22753823D01*
X18248498Y-22763347D01*
X18258021Y-22772870D01*
X18267545Y-22791918D01*
X18267545Y-22849061D01*
X18258021Y-22868108D01*
X18248498Y-22877632D01*
X18229450Y-22887156D01*
X18200879Y-22887156D01*
X18381831Y-22887156D02*
X18362783Y-22877632D01*
X18353260Y-22858585D01*
X18353260Y-22687156D01*
X18534212Y-22877632D02*
X18515164Y-22887156D01*
X18477069Y-22887156D01*
X18458021Y-22877632D01*
X18448498Y-22858585D01*
X18448498Y-22782394D01*
X18458021Y-22763347D01*
X18477069Y-22753823D01*
X18515164Y-22753823D01*
X18534212Y-22763347D01*
X18543736Y-22782394D01*
X18543736Y-22801442D01*
X18448498Y-22820489D01*
X18619926Y-22877632D02*
X18638974Y-22887156D01*
X18677069Y-22887156D01*
X18696117Y-22877632D01*
X18705640Y-22858585D01*
X18705640Y-22849061D01*
X18696117Y-22830013D01*
X18677069Y-22820489D01*
X18648498Y-22820489D01*
X18629450Y-22810966D01*
X18619926Y-22791918D01*
X18619926Y-22782394D01*
X18629450Y-22763347D01*
X18648498Y-22753823D01*
X18677069Y-22753823D01*
X18696117Y-22763347D01*
X18772307Y-22963347D02*
X18781831Y-22953823D01*
X18800879Y-22925251D01*
X18810402Y-22906204D01*
X18819926Y-22877632D01*
X18829450Y-22830013D01*
X18829450Y-22791918D01*
X18819926Y-22744299D01*
X18810402Y-22715728D01*
X18800879Y-22696680D01*
X18781831Y-22668108D01*
X18772307Y-22658585D01*
X19134212Y-22963347D02*
X19124688Y-22953823D01*
X19105640Y-22925251D01*
X19096117Y-22906204D01*
X19086593Y-22877632D01*
X19077069Y-22830013D01*
X19077069Y-22791918D01*
X19086593Y-22744299D01*
X19096117Y-22715728D01*
X19105640Y-22696680D01*
X19124688Y-22668108D01*
X19134212Y-22658585D01*
X19210402Y-22753823D02*
X19210402Y-22887156D01*
X19210402Y-22772870D02*
X19219926Y-22763347D01*
X19238974Y-22753823D01*
X19267545Y-22753823D01*
X19286593Y-22763347D01*
X19296117Y-22782394D01*
X19296117Y-22887156D01*
X19419926Y-22887156D02*
X19400879Y-22877632D01*
X19391355Y-22868108D01*
X19381831Y-22849061D01*
X19381831Y-22791918D01*
X19391355Y-22772870D01*
X19400879Y-22763347D01*
X19419926Y-22753823D01*
X19448498Y-22753823D01*
X19467545Y-22763347D01*
X19477069Y-22772870D01*
X19486593Y-22791918D01*
X19486593Y-22849061D01*
X19477069Y-22868108D01*
X19467545Y-22877632D01*
X19448498Y-22887156D01*
X19419926Y-22887156D01*
X19543736Y-22753823D02*
X19619926Y-22753823D01*
X19572307Y-22687156D02*
X19572307Y-22858585D01*
X19581831Y-22877632D01*
X19600879Y-22887156D01*
X19619926Y-22887156D01*
X19838974Y-22753823D02*
X19838974Y-22953823D01*
X19838974Y-22763347D02*
X19858021Y-22753823D01*
X19896117Y-22753823D01*
X19915164Y-22763347D01*
X19924688Y-22772870D01*
X19934212Y-22791918D01*
X19934212Y-22849061D01*
X19924688Y-22868108D01*
X19915164Y-22877632D01*
X19896117Y-22887156D01*
X19858021Y-22887156D01*
X19838974Y-22877632D01*
X20048498Y-22887156D02*
X20029450Y-22877632D01*
X20019926Y-22858585D01*
X20019926Y-22687156D01*
X20210402Y-22887156D02*
X20210402Y-22782394D01*
X20200879Y-22763347D01*
X20181831Y-22753823D01*
X20143736Y-22753823D01*
X20124688Y-22763347D01*
X20210402Y-22877632D02*
X20191355Y-22887156D01*
X20143736Y-22887156D01*
X20124688Y-22877632D01*
X20115164Y-22858585D01*
X20115164Y-22839537D01*
X20124688Y-22820489D01*
X20143736Y-22810966D01*
X20191355Y-22810966D01*
X20210402Y-22801442D01*
X20277069Y-22753823D02*
X20353260Y-22753823D01*
X20305640Y-22687156D02*
X20305640Y-22858585D01*
X20315164Y-22877632D01*
X20334212Y-22887156D01*
X20353260Y-22887156D01*
X20496117Y-22877632D02*
X20477069Y-22887156D01*
X20438974Y-22887156D01*
X20419926Y-22877632D01*
X20410402Y-22858585D01*
X20410402Y-22782394D01*
X20419926Y-22763347D01*
X20438974Y-22753823D01*
X20477069Y-22753823D01*
X20496117Y-22763347D01*
X20505640Y-22782394D01*
X20505640Y-22801442D01*
X20410402Y-22820489D01*
X20677069Y-22887156D02*
X20677069Y-22687156D01*
X20677069Y-22877632D02*
X20658021Y-22887156D01*
X20619926Y-22887156D01*
X20600879Y-22877632D01*
X20591355Y-22868108D01*
X20581831Y-22849061D01*
X20581831Y-22791918D01*
X20591355Y-22772870D01*
X20600879Y-22763347D01*
X20619926Y-22753823D01*
X20658021Y-22753823D01*
X20677069Y-22763347D01*
X20753260Y-22963347D02*
X20762783Y-22953823D01*
X20781831Y-22925251D01*
X20791355Y-22906204D01*
X20800879Y-22877632D01*
X20810402Y-22830013D01*
X20810402Y-22791918D01*
X20800879Y-22744299D01*
X20791355Y-22715728D01*
X20781831Y-22696680D01*
X20762783Y-22668108D01*
X20753260Y-22658585D01*
X13609926Y-23016680D02*
X13809926Y-23216680D01*
X13809926Y-23016680D02*
X13609926Y-23216680D01*
X13709926Y-23016680D02*
X13709926Y-23216680D01*
X13609926Y-23116680D02*
X13809926Y-23116680D01*
X14162783Y-23007156D02*
X14067545Y-23007156D01*
X14058021Y-23102394D01*
X14067545Y-23092870D01*
X14086593Y-23083347D01*
X14134212Y-23083347D01*
X14153259Y-23092870D01*
X14162783Y-23102394D01*
X14172307Y-23121442D01*
X14172307Y-23169061D01*
X14162783Y-23188108D01*
X14153259Y-23197632D01*
X14134212Y-23207156D01*
X14086593Y-23207156D01*
X14067545Y-23197632D01*
X14058021Y-23188108D01*
X14258021Y-23188108D02*
X14267545Y-23197632D01*
X14258021Y-23207156D01*
X14248498Y-23197632D01*
X14258021Y-23188108D01*
X14258021Y-23207156D01*
X14362783Y-23207156D02*
X14400878Y-23207156D01*
X14419926Y-23197632D01*
X14429450Y-23188108D01*
X14448498Y-23159537D01*
X14458021Y-23121442D01*
X14458021Y-23045251D01*
X14448498Y-23026204D01*
X14438974Y-23016680D01*
X14419926Y-23007156D01*
X14381831Y-23007156D01*
X14362783Y-23016680D01*
X14353259Y-23026204D01*
X14343736Y-23045251D01*
X14343736Y-23092870D01*
X14353259Y-23111918D01*
X14362783Y-23121442D01*
X14381831Y-23130966D01*
X14419926Y-23130966D01*
X14438974Y-23121442D01*
X14448498Y-23111918D01*
X14458021Y-23092870D01*
X14581831Y-23007156D02*
X14600878Y-23007156D01*
X14619926Y-23016680D01*
X14629450Y-23026204D01*
X14638974Y-23045251D01*
X14648498Y-23083347D01*
X14648498Y-23130966D01*
X14638974Y-23169061D01*
X14629450Y-23188108D01*
X14619926Y-23197632D01*
X14600878Y-23207156D01*
X14581831Y-23207156D01*
X14562783Y-23197632D01*
X14553259Y-23188108D01*
X14543736Y-23169061D01*
X14534212Y-23130966D01*
X14534212Y-23083347D01*
X14543736Y-23045251D01*
X14553259Y-23026204D01*
X14562783Y-23016680D01*
X14581831Y-23007156D01*
X14772307Y-23007156D02*
X14791355Y-23007156D01*
X14810402Y-23016680D01*
X14819926Y-23026204D01*
X14829450Y-23045251D01*
X14838974Y-23083347D01*
X14838974Y-23130966D01*
X14829450Y-23169061D01*
X14819926Y-23188108D01*
X14810402Y-23197632D01*
X14791355Y-23207156D01*
X14772307Y-23207156D01*
X14753259Y-23197632D01*
X14743736Y-23188108D01*
X14734212Y-23169061D01*
X14724688Y-23130966D01*
X14724688Y-23083347D01*
X14734212Y-23045251D01*
X14743736Y-23026204D01*
X14753259Y-23016680D01*
X14772307Y-23007156D01*
X14924688Y-23207156D02*
X14924688Y-23073823D01*
X14924688Y-23092870D02*
X14934212Y-23083347D01*
X14953259Y-23073823D01*
X14981831Y-23073823D01*
X15000878Y-23083347D01*
X15010402Y-23102394D01*
X15010402Y-23207156D01*
X15010402Y-23102394D02*
X15019926Y-23083347D01*
X15038974Y-23073823D01*
X15067545Y-23073823D01*
X15086593Y-23083347D01*
X15096117Y-23102394D01*
X15096117Y-23207156D01*
X15191355Y-23207156D02*
X15191355Y-23073823D01*
X15191355Y-23092870D02*
X15200878Y-23083347D01*
X15219926Y-23073823D01*
X15248498Y-23073823D01*
X15267545Y-23083347D01*
X15277069Y-23102394D01*
X15277069Y-23207156D01*
X15277069Y-23102394D02*
X15286593Y-23083347D01*
X15305640Y-23073823D01*
X15334212Y-23073823D01*
X15353259Y-23083347D01*
X15362783Y-23102394D01*
X15362783Y-23207156D01*
X15753259Y-22997632D02*
X15581831Y-23254775D01*
X16010402Y-23007156D02*
X16029450Y-23007156D01*
X16048498Y-23016680D01*
X16058021Y-23026204D01*
X16067545Y-23045251D01*
X16077069Y-23083347D01*
X16077069Y-23130966D01*
X16067545Y-23169061D01*
X16058021Y-23188108D01*
X16048498Y-23197632D01*
X16029450Y-23207156D01*
X16010402Y-23207156D01*
X15991355Y-23197632D01*
X15981831Y-23188108D01*
X15972307Y-23169061D01*
X15962783Y-23130966D01*
X15962783Y-23083347D01*
X15972307Y-23045251D01*
X15981831Y-23026204D01*
X15991355Y-23016680D01*
X16010402Y-23007156D01*
X16162783Y-23188108D02*
X16172307Y-23197632D01*
X16162783Y-23207156D01*
X16153259Y-23197632D01*
X16162783Y-23188108D01*
X16162783Y-23207156D01*
X16248498Y-23026204D02*
X16258021Y-23016680D01*
X16277069Y-23007156D01*
X16324688Y-23007156D01*
X16343736Y-23016680D01*
X16353259Y-23026204D01*
X16362783Y-23045251D01*
X16362783Y-23064299D01*
X16353259Y-23092870D01*
X16238974Y-23207156D01*
X16362783Y-23207156D01*
X16429450Y-23007156D02*
X16553259Y-23007156D01*
X16486593Y-23083347D01*
X16515164Y-23083347D01*
X16534212Y-23092870D01*
X16543736Y-23102394D01*
X16553259Y-23121442D01*
X16553259Y-23169061D01*
X16543736Y-23188108D01*
X16534212Y-23197632D01*
X16515164Y-23207156D01*
X16458021Y-23207156D01*
X16438974Y-23197632D01*
X16429450Y-23188108D01*
X16629450Y-23026204D02*
X16638974Y-23016680D01*
X16658021Y-23007156D01*
X16705640Y-23007156D01*
X16724688Y-23016680D01*
X16734212Y-23026204D01*
X16743736Y-23045251D01*
X16743736Y-23064299D01*
X16734212Y-23092870D01*
X16619926Y-23207156D01*
X16743736Y-23207156D01*
X16810402Y-23007156D02*
X16934212Y-23007156D01*
X16867545Y-23083347D01*
X16896117Y-23083347D01*
X16915164Y-23092870D01*
X16924688Y-23102394D01*
X16934212Y-23121442D01*
X16934212Y-23169061D01*
X16924688Y-23188108D01*
X16915164Y-23197632D01*
X16896117Y-23207156D01*
X16838974Y-23207156D01*
X16819926Y-23197632D01*
X16810402Y-23188108D01*
X17010402Y-23007156D02*
X17010402Y-23045251D01*
X17086593Y-23007156D02*
X17086593Y-23045251D01*
X17381831Y-23283347D02*
X17372307Y-23273823D01*
X17353260Y-23245251D01*
X17343736Y-23226204D01*
X17334212Y-23197632D01*
X17324688Y-23150013D01*
X17324688Y-23111918D01*
X17334212Y-23064299D01*
X17343736Y-23035728D01*
X17353260Y-23016680D01*
X17372307Y-22988108D01*
X17381831Y-22978585D01*
X17496117Y-23007156D02*
X17515164Y-23007156D01*
X17534212Y-23016680D01*
X17543736Y-23026204D01*
X17553260Y-23045251D01*
X17562783Y-23083347D01*
X17562783Y-23130966D01*
X17553260Y-23169061D01*
X17543736Y-23188108D01*
X17534212Y-23197632D01*
X17515164Y-23207156D01*
X17496117Y-23207156D01*
X17477069Y-23197632D01*
X17467545Y-23188108D01*
X17458021Y-23169061D01*
X17448498Y-23130966D01*
X17448498Y-23083347D01*
X17458021Y-23045251D01*
X17467545Y-23026204D01*
X17477069Y-23016680D01*
X17496117Y-23007156D01*
X17800879Y-23207156D02*
X17800879Y-23007156D01*
X17886593Y-23207156D02*
X17886593Y-23102394D01*
X17877069Y-23083347D01*
X17858021Y-23073823D01*
X17829450Y-23073823D01*
X17810402Y-23083347D01*
X17800879Y-23092870D01*
X18010402Y-23207156D02*
X17991355Y-23197632D01*
X17981831Y-23188108D01*
X17972307Y-23169061D01*
X17972307Y-23111918D01*
X17981831Y-23092870D01*
X17991355Y-23083347D01*
X18010402Y-23073823D01*
X18038974Y-23073823D01*
X18058021Y-23083347D01*
X18067545Y-23092870D01*
X18077069Y-23111918D01*
X18077069Y-23169061D01*
X18067545Y-23188108D01*
X18058021Y-23197632D01*
X18038974Y-23207156D01*
X18010402Y-23207156D01*
X18191355Y-23207156D02*
X18172307Y-23197632D01*
X18162783Y-23178585D01*
X18162783Y-23007156D01*
X18343736Y-23197632D02*
X18324688Y-23207156D01*
X18286593Y-23207156D01*
X18267545Y-23197632D01*
X18258021Y-23178585D01*
X18258021Y-23102394D01*
X18267545Y-23083347D01*
X18286593Y-23073823D01*
X18324688Y-23073823D01*
X18343736Y-23083347D01*
X18353260Y-23102394D01*
X18353260Y-23121442D01*
X18258021Y-23140489D01*
X18429450Y-23197632D02*
X18448498Y-23207156D01*
X18486593Y-23207156D01*
X18505640Y-23197632D01*
X18515164Y-23178585D01*
X18515164Y-23169061D01*
X18505640Y-23150013D01*
X18486593Y-23140489D01*
X18458021Y-23140489D01*
X18438974Y-23130966D01*
X18429450Y-23111918D01*
X18429450Y-23102394D01*
X18438974Y-23083347D01*
X18458021Y-23073823D01*
X18486593Y-23073823D01*
X18505640Y-23083347D01*
X18753260Y-23130966D02*
X18905640Y-23130966D01*
X18829450Y-23207156D02*
X18829450Y-23054775D01*
X19238974Y-23073823D02*
X19238974Y-23207156D01*
X19191355Y-22997632D02*
X19143736Y-23140489D01*
X19267545Y-23140489D01*
X19486593Y-23197632D02*
X19505640Y-23207156D01*
X19543736Y-23207156D01*
X19562783Y-23197632D01*
X19572307Y-23178585D01*
X19572307Y-23169061D01*
X19562783Y-23150013D01*
X19543736Y-23140489D01*
X19515164Y-23140489D01*
X19496117Y-23130966D01*
X19486593Y-23111918D01*
X19486593Y-23102394D01*
X19496117Y-23083347D01*
X19515164Y-23073823D01*
X19543736Y-23073823D01*
X19562783Y-23083347D01*
X19686593Y-23207156D02*
X19667545Y-23197632D01*
X19658021Y-23178585D01*
X19658021Y-23007156D01*
X19791355Y-23207156D02*
X19772307Y-23197632D01*
X19762783Y-23188108D01*
X19753260Y-23169061D01*
X19753260Y-23111918D01*
X19762783Y-23092870D01*
X19772307Y-23083347D01*
X19791355Y-23073823D01*
X19819926Y-23073823D01*
X19838974Y-23083347D01*
X19848498Y-23092870D01*
X19858021Y-23111918D01*
X19858021Y-23169061D01*
X19848498Y-23188108D01*
X19838974Y-23197632D01*
X19819926Y-23207156D01*
X19791355Y-23207156D01*
X19915164Y-23073823D02*
X19991355Y-23073823D01*
X19943736Y-23007156D02*
X19943736Y-23178585D01*
X19953260Y-23197632D01*
X19972307Y-23207156D01*
X19991355Y-23207156D01*
X20048498Y-23197632D02*
X20067545Y-23207156D01*
X20105640Y-23207156D01*
X20124688Y-23197632D01*
X20134212Y-23178585D01*
X20134212Y-23169061D01*
X20124688Y-23150013D01*
X20105640Y-23140489D01*
X20077069Y-23140489D01*
X20058021Y-23130966D01*
X20048498Y-23111918D01*
X20048498Y-23102394D01*
X20058021Y-23083347D01*
X20077069Y-23073823D01*
X20105640Y-23073823D01*
X20124688Y-23083347D01*
X20200879Y-23283347D02*
X20210402Y-23273823D01*
X20229450Y-23245251D01*
X20238974Y-23226204D01*
X20248498Y-23197632D01*
X20258021Y-23150013D01*
X20258021Y-23111918D01*
X20248498Y-23064299D01*
X20238974Y-23035728D01*
X20229450Y-23016680D01*
X20210402Y-22988108D01*
X20200879Y-22978585D01*
X20562783Y-23283347D02*
X20553260Y-23273823D01*
X20534212Y-23245251D01*
X20524688Y-23226204D01*
X20515164Y-23197632D01*
X20505640Y-23150013D01*
X20505640Y-23111918D01*
X20515164Y-23064299D01*
X20524688Y-23035728D01*
X20534212Y-23016680D01*
X20553260Y-22988108D01*
X20562783Y-22978585D01*
X20638974Y-23073823D02*
X20638974Y-23207156D01*
X20638974Y-23092870D02*
X20648498Y-23083347D01*
X20667545Y-23073823D01*
X20696117Y-23073823D01*
X20715164Y-23083347D01*
X20724688Y-23102394D01*
X20724688Y-23207156D01*
X20848498Y-23207156D02*
X20829450Y-23197632D01*
X20819926Y-23188108D01*
X20810402Y-23169061D01*
X20810402Y-23111918D01*
X20819926Y-23092870D01*
X20829450Y-23083347D01*
X20848498Y-23073823D01*
X20877069Y-23073823D01*
X20896117Y-23083347D01*
X20905640Y-23092870D01*
X20915164Y-23111918D01*
X20915164Y-23169061D01*
X20905640Y-23188108D01*
X20896117Y-23197632D01*
X20877069Y-23207156D01*
X20848498Y-23207156D01*
X20972307Y-23073823D02*
X21048498Y-23073823D01*
X21000879Y-23007156D02*
X21000879Y-23178585D01*
X21010402Y-23197632D01*
X21029450Y-23207156D01*
X21048498Y-23207156D01*
X21267545Y-23073823D02*
X21267545Y-23273823D01*
X21267545Y-23083347D02*
X21286593Y-23073823D01*
X21324688Y-23073823D01*
X21343736Y-23083347D01*
X21353260Y-23092870D01*
X21362783Y-23111918D01*
X21362783Y-23169061D01*
X21353260Y-23188108D01*
X21343736Y-23197632D01*
X21324688Y-23207156D01*
X21286593Y-23207156D01*
X21267545Y-23197632D01*
X21477069Y-23207156D02*
X21458021Y-23197632D01*
X21448498Y-23178585D01*
X21448498Y-23007156D01*
X21638974Y-23207156D02*
X21638974Y-23102394D01*
X21629450Y-23083347D01*
X21610402Y-23073823D01*
X21572307Y-23073823D01*
X21553260Y-23083347D01*
X21638974Y-23197632D02*
X21619926Y-23207156D01*
X21572307Y-23207156D01*
X21553260Y-23197632D01*
X21543736Y-23178585D01*
X21543736Y-23159537D01*
X21553260Y-23140489D01*
X21572307Y-23130966D01*
X21619926Y-23130966D01*
X21638974Y-23121442D01*
X21705640Y-23073823D02*
X21781831Y-23073823D01*
X21734212Y-23007156D02*
X21734212Y-23178585D01*
X21743736Y-23197632D01*
X21762783Y-23207156D01*
X21781831Y-23207156D01*
X21924688Y-23197632D02*
X21905640Y-23207156D01*
X21867545Y-23207156D01*
X21848498Y-23197632D01*
X21838974Y-23178585D01*
X21838974Y-23102394D01*
X21848498Y-23083347D01*
X21867545Y-23073823D01*
X21905640Y-23073823D01*
X21924688Y-23083347D01*
X21934212Y-23102394D01*
X21934212Y-23121442D01*
X21838974Y-23140489D01*
X22105640Y-23207156D02*
X22105640Y-23007156D01*
X22105640Y-23197632D02*
X22086593Y-23207156D01*
X22048498Y-23207156D01*
X22029450Y-23197632D01*
X22019926Y-23188108D01*
X22010402Y-23169061D01*
X22010402Y-23111918D01*
X22019926Y-23092870D01*
X22029450Y-23083347D01*
X22048498Y-23073823D01*
X22086593Y-23073823D01*
X22105640Y-23083347D01*
X22181831Y-23283347D02*
X22191355Y-23273823D01*
X22210402Y-23245251D01*
X22219926Y-23226204D01*
X22229450Y-23197632D01*
X22238974Y-23150013D01*
X22238974Y-23111918D01*
X22229450Y-23064299D01*
X22219926Y-23035728D01*
X22210402Y-23016680D01*
X22191355Y-22988108D01*
X22181831Y-22978585D01*
M02*
