M48
; DRILL file {KiCad (6.0.4)} date Fri Jul  1 16:07:03 2022
; FORMAT={-:-/ absolute / metric / decimal}
; #@! TF.CreationDate,2022-07-01T16:07:03-05:00
; #@! TF.GenerationSoftware,Kicad,Pcbnew,(6.0.4)
; #@! TF.FileFunction,NonPlated,1,2,NPTH
FMAT,2
METRIC
; #@! TA.AperFunction,NonPlated,NPTH,ComponentDrill
T1C0.300
; #@! TA.AperFunction,NonPlated,NPTH,ComponentDrill
T2C0.900
; #@! TA.AperFunction,NonPlated,NPTH,ComponentDrill
T3C1.000
; #@! TA.AperFunction,NonPlated,NPTH,ComponentDrill
T4C1.500
; #@! TA.AperFunction,NonPlated,NPTH,ComponentDrill
T5C1.702
; #@! TA.AperFunction,NonPlated,NPTH,ComponentDrill
T6C3.429
; #@! TA.AperFunction,NonPlated,NPTH,ComponentDrill
T7C5.900
%
G90
G05
T2
X262.298Y-155.46
X262.298Y-158.46
X262.31Y-155.46
X262.31Y-158.46
T4
X271.16Y-112.22
X271.16Y-119.22
T5
X143.825Y-135.183
X146.788Y-169.053
X154.783Y-134.224
X157.746Y-168.095
X169.76Y-116.62
X169.76Y-150.62
X180.76Y-116.62
X180.76Y-150.62
X192.62Y-109.62
X192.62Y-143.62
X203.62Y-109.62
X203.62Y-143.62
X211.67Y-117.62
X211.67Y-151.62
X222.151Y-185.565
X222.67Y-117.62
X222.67Y-151.62
X229.67Y-120.62
X229.67Y-137.62
X229.67Y-154.62
X232.488Y-189.327
X240.454Y-192.96
X240.67Y-120.62
X240.67Y-137.62
X240.67Y-154.62
X249.98Y-198.46
T6
X149.304Y-134.704
X152.267Y-168.574
X175.26Y-116.62
X175.26Y-150.62
X198.12Y-109.62
X198.12Y-143.62
X217.17Y-117.62
X217.17Y-151.62
X227.319Y-187.446
X235.17Y-120.62
X235.17Y-137.62
X235.17Y-154.62
X245.217Y-195.71
T1
X144.655Y-149.264G85X145.161Y-155.042
G05
X148.249Y-147.896G85X148.328Y-148.792
G05
X152.633Y-147.512G85X148.249Y-147.896
G05
X156.41Y-148.236G85X144.655Y-149.264
G05
X156.916Y-154.014G85X145.161Y-155.042
G05
X152.633Y-147.512G85X152.711Y-148.409
G05
X156.41Y-148.236G85X156.916Y-154.014
G05
X169.36Y-130.72G85X169.36Y-136.52
G05
X173.06Y-129.67G85X173.06Y-130.57
G05
X177.46Y-129.67G85X173.06Y-129.67
G05
X181.16Y-130.72G85X169.36Y-130.72
G05
X181.16Y-136.52G85X169.36Y-136.52
G05
X177.46Y-129.67G85X177.46Y-130.57
G05
X181.16Y-130.72G85X181.16Y-136.52
G05
X192.22Y-123.72G85X192.22Y-129.52
G05
X195.92Y-122.67G85X195.92Y-123.57
G05
X200.32Y-122.67G85X195.92Y-122.67
G05
X204.02Y-123.72G85X192.22Y-123.72
G05
X204.02Y-129.52G85X192.22Y-129.52
G05
X200.32Y-122.67G85X200.32Y-123.57
G05
X204.02Y-123.72G85X204.02Y-129.52
G05
X211.27Y-131.72G85X211.27Y-137.52
G05
X214.97Y-130.67G85X214.97Y-131.57
G05
X219.37Y-130.67G85X214.97Y-130.67
G05
X223.07Y-131.72G85X211.27Y-131.72
G05
X223.07Y-137.52G85X211.27Y-137.52
G05
X219.37Y-130.67G85X219.37Y-131.57
G05
X223.07Y-131.72G85X223.07Y-137.52
G05
T3
X145.659Y-154.547G85X145.232Y-149.665
G05
X146.426Y-154.48G85X145.999Y-149.598
G05
X146.815Y-154.446G85X146.388Y-149.564
G05
X152.323Y-147.991G85X148.637Y-148.313
G05
X155.183Y-153.713G85X154.756Y-148.832
G05
X155.571Y-153.679G85X155.144Y-148.798
G05
X156.339Y-153.612G85X155.911Y-148.731
G05
X169.9Y-136.07G85X169.9Y-131.17
G05
X170.67Y-136.07G85X170.67Y-131.17
G05
X171.06Y-136.07G85X171.06Y-131.17
G05
X177.11Y-130.12G85X173.41Y-130.12
G05
X179.46Y-136.07G85X179.46Y-131.17
G05
X179.85Y-136.07G85X179.85Y-131.17
G05
X180.62Y-136.07G85X180.62Y-131.17
G05
X192.76Y-129.07G85X192.76Y-124.17
G05
X193.53Y-129.07G85X193.53Y-124.17
G05
X193.92Y-129.07G85X193.92Y-124.17
G05
X199.97Y-123.12G85X196.27Y-123.12
G05
X202.32Y-129.07G85X202.32Y-124.17
G05
X202.71Y-129.07G85X202.71Y-124.17
G05
X203.48Y-129.07G85X203.48Y-124.17
G05
X211.81Y-137.07G85X211.81Y-132.17
G05
X212.58Y-137.07G85X212.58Y-132.17
G05
X212.97Y-137.07G85X212.97Y-132.17
G05
X219.02Y-131.12G85X215.32Y-131.12
G05
X221.37Y-137.07G85X221.37Y-132.17
G05
X221.76Y-137.07G85X221.76Y-132.17
G05
X222.53Y-137.07G85X222.53Y-132.17
G05
T7
X153.749Y-151.38G85X147.822Y-151.898
G05
X178.235Y-133.62G85X172.285Y-133.62
G05
X201.095Y-126.62G85X195.145Y-126.62
G05
X220.145Y-134.62G85X214.195Y-134.62
G05
T0
M30
