M48
; DRILL file {KiCad (6.0.4)} date Fri Jul  1 16:07:03 2022
; FORMAT={-:-/ absolute / metric / decimal}
; #@! TF.CreationDate,2022-07-01T16:07:03-05:00
; #@! TF.GenerationSoftware,Kicad,Pcbnew,(6.0.4)
; #@! TF.FileFunction,Plated,1,2,PTH
FMAT,2
METRIC
; #@! TA.AperFunction,Plated,PTH,ViaDrill
T1C0.400
; #@! TA.AperFunction,Plated,PTH,ComponentDrill
T2C0.400
; #@! TA.AperFunction,Plated,PTH,ComponentDrill
T3C0.750
; #@! TA.AperFunction,Plated,PTH,ComponentDrill
T4C0.900
; #@! TA.AperFunction,Plated,PTH,ComponentDrill
T5C1.100
; #@! TA.AperFunction,Plated,PTH,ComponentDrill
T6C1.270
; #@! TA.AperFunction,Plated,PTH,ComponentDrill
T7C2.200
%
G90
G05
T1
X216.66Y-105.46
X218.16Y-108.96
X221.96Y-109.86
X224.16Y-122.46
X227.41Y-127.71
X238.707Y-129.207
X239.448Y-142.548
X243.36Y-120.01
X244.56Y-130.06
X246.26Y-135.735
X258.16Y-156.96
X260.235Y-156.21
T2
X255.408Y-113.65
X255.408Y-116.19
X255.408Y-118.73
X255.408Y-121.27
X255.408Y-123.81
X255.408Y-126.35
X255.408Y-128.89
X255.408Y-131.43
X255.408Y-133.97
X255.408Y-136.51
X255.408Y-139.05
X255.408Y-141.59
X256.932Y-113.65
X256.932Y-116.19
X256.932Y-118.73
X256.932Y-121.27
X256.932Y-123.81
X256.932Y-126.35
X256.932Y-128.89
X256.932Y-131.43
X256.932Y-133.97
X256.932Y-136.51
X256.932Y-139.05
X256.932Y-141.59
T3
X246.6Y-149.955
X246.6Y-151.955
X246.6Y-153.955
T5
X145.778Y-146.957
X145.92Y-156.833
X148.322Y-146.434
X152.307Y-146.085
X154.903Y-146.159
X156.479Y-155.909
X169.96Y-138.37
X170.68Y-128.52
X173.26Y-128.22
X177.26Y-128.22
X179.84Y-128.52
X180.56Y-138.37
X192.82Y-131.37
X193.54Y-121.52
X196.12Y-121.22
X200.12Y-121.22
X202.7Y-121.52
X203.42Y-131.37
X211.87Y-139.37
X212.59Y-129.52
X215.17Y-129.22
X219.17Y-129.22
X221.75Y-129.52
X222.47Y-139.37
X248.55Y-113.65
X248.55Y-113.65
X248.55Y-116.19
X248.55Y-118.73
X248.55Y-121.27
X248.55Y-123.81
X248.55Y-126.35
X248.55Y-128.89
X248.55Y-131.43
X248.55Y-133.97
X248.55Y-136.51
X248.55Y-139.05
X248.55Y-141.59
X263.79Y-113.65
X263.79Y-113.65
X263.79Y-116.19
X263.79Y-118.73
X263.79Y-121.27
X263.79Y-123.81
X263.79Y-126.35
X263.79Y-128.89
X263.79Y-131.43
X263.79Y-133.97
X263.79Y-136.51
X263.79Y-139.05
X263.79Y-141.59
X266.66Y-114.71
X266.66Y-116.96
X266.66Y-119.21
T6
X143.992Y-131.354
X146.955Y-165.224
X148.79Y-128.826
X148.79Y-128.826
X151.753Y-162.697
X151.753Y-162.697
X153.954Y-130.482
X156.917Y-164.353
X170.26Y-112.82
X170.26Y-146.82
X175.26Y-110.72
X175.26Y-110.72
X175.26Y-144.72
X175.26Y-144.72
X180.26Y-112.82
X180.26Y-146.82
X193.12Y-105.82
X193.12Y-139.82
X198.12Y-103.72
X198.12Y-103.72
X198.12Y-137.72
X198.12Y-137.72
X203.12Y-105.82
X203.12Y-139.82
X212.17Y-113.82
X212.17Y-147.82
X217.17Y-111.72
X217.17Y-111.72
X217.17Y-145.72
X217.17Y-145.72
X222.17Y-113.82
X222.17Y-147.82
X223.921Y-182.165
X229.337Y-181.902
X229.337Y-181.902
X230.17Y-116.82
X230.17Y-133.82
X230.17Y-150.82
X233.318Y-185.586
X235.17Y-114.72
X235.17Y-114.72
X235.17Y-131.72
X235.17Y-131.72
X235.17Y-148.72
X235.17Y-148.72
X240.17Y-116.82
X240.17Y-133.82
X240.17Y-150.82
X242.787Y-189.919
X248.167Y-190.601
X248.167Y-190.601
X251.447Y-194.919
T7
X152.66Y-120.71
X165.91Y-173.21
X181.622Y-125.095
X188.595Y-151.118
X207.645Y-118.122
X225.16Y-105.46
X238.66Y-186.71
X249.41Y-145.46
X262.66Y-145.46
T4
X268.86Y-113.52G85X268.86Y-114.12
G05
X268.86Y-116.52G85X268.86Y-117.12
G05
X268.86Y-120.52G85X268.86Y-121.12
G05
X268.86Y-121.62G85X268.86Y-122.22
G05
X273.46Y-113.52G85X273.46Y-114.12
G05
X273.46Y-116.52G85X273.46Y-117.12
G05
X273.46Y-120.52G85X273.46Y-121.12
G05
X273.46Y-121.62G85X273.46Y-122.22
G05
T0
M30
