G04 #@! TF.GenerationSoftware,KiCad,Pcbnew,(6.0.0-0)*
G04 #@! TF.CreationDate,2022-02-13T11:36:39-06:00*
G04 #@! TF.ProjectId,cockamamie,636f636b-616d-4616-9d69-652e6b696361,v1.0.0*
G04 #@! TF.SameCoordinates,Original*
G04 #@! TF.FileFunction,Legend,Top*
G04 #@! TF.FilePolarity,Positive*
%FSLAX46Y46*%
G04 Gerber Fmt 4.6, Leading zero omitted, Abs format (unit mm)*
G04 Created by KiCad (PCBNEW (6.0.0-0)) date 2022-02-13 11:36:39*
%MOMM*%
%LPD*%
G01*
G04 APERTURE LIST*
G04 Aperture macros list*
%AMRoundRect*
0 Rectangle with rounded corners*
0 $1 Rounding radius*
0 $2 $3 $4 $5 $6 $7 $8 $9 X,Y pos of 4 corners*
0 Add a 4 corners polygon primitive as box body*
4,1,4,$2,$3,$4,$5,$6,$7,$8,$9,$2,$3,0*
0 Add four circle primitives for the rounded corners*
1,1,$1+$1,$2,$3*
1,1,$1+$1,$4,$5*
1,1,$1+$1,$6,$7*
1,1,$1+$1,$8,$9*
0 Add four rect primitives between the rounded corners*
20,1,$1+$1,$2,$3,$4,$5,0*
20,1,$1+$1,$4,$5,$6,$7,0*
20,1,$1+$1,$6,$7,$8,$9,0*
20,1,$1+$1,$8,$9,$2,$3,0*%
G04 Aperture macros list end*
%ADD10C,0.300000*%
%ADD11C,0.079374*%
%ADD12C,0.150000*%
%ADD13R,1.752600X1.752600*%
%ADD14C,1.752600*%
%ADD15C,1.801800*%
%ADD16C,3.529000*%
%ADD17C,2.132000*%
%ADD18C,1.600000*%
%ADD19O,2.300000X1.700000*%
%ADD20RoundRect,0.050000X-0.876300X0.876300X-0.876300X-0.876300X0.876300X-0.876300X0.876300X0.876300X0*%
%ADD21C,1.852600*%
G04 APERTURE END LIST*
D10*
X213480714Y-161556071D02*
X213480714Y-161841785D01*
X214052142Y-161556071D02*
X214052142Y-161841785D01*
X214980714Y-162341785D02*
X214980714Y-163056071D01*
X214480714Y-161556071D02*
X214980714Y-162341785D01*
X215480714Y-161556071D01*
X216195000Y-163056071D02*
X216052142Y-162984642D01*
X215980714Y-162913214D01*
X215909285Y-162770357D01*
X215909285Y-162341785D01*
X215980714Y-162198928D01*
X216052142Y-162127500D01*
X216195000Y-162056071D01*
X216409285Y-162056071D01*
X216552142Y-162127500D01*
X216623571Y-162198928D01*
X216695000Y-162341785D01*
X216695000Y-162770357D01*
X216623571Y-162913214D01*
X216552142Y-162984642D01*
X216409285Y-163056071D01*
X216195000Y-163056071D01*
X217980714Y-162056071D02*
X217980714Y-163056071D01*
X217337857Y-162056071D02*
X217337857Y-162841785D01*
X217409285Y-162984642D01*
X217552142Y-163056071D01*
X217766428Y-163056071D01*
X217909285Y-162984642D01*
X217980714Y-162913214D01*
X218695000Y-163056071D02*
X218695000Y-162056071D01*
X218695000Y-162341785D02*
X218766428Y-162198928D01*
X218837857Y-162127500D01*
X218980714Y-162056071D01*
X219123571Y-162056071D01*
X220766428Y-162056071D02*
X220766428Y-163556071D01*
X220766428Y-162127500D02*
X220909285Y-162056071D01*
X221195000Y-162056071D01*
X221337857Y-162127500D01*
X221409285Y-162198928D01*
X221480714Y-162341785D01*
X221480714Y-162770357D01*
X221409285Y-162913214D01*
X221337857Y-162984642D01*
X221195000Y-163056071D01*
X220909285Y-163056071D01*
X220766428Y-162984642D01*
X222123571Y-163056071D02*
X222123571Y-162056071D01*
X222123571Y-162341785D02*
X222195000Y-162198928D01*
X222266428Y-162127500D01*
X222409285Y-162056071D01*
X222552142Y-162056071D01*
X223266428Y-163056071D02*
X223123571Y-162984642D01*
X223052142Y-162913214D01*
X222980714Y-162770357D01*
X222980714Y-162341785D01*
X223052142Y-162198928D01*
X223123571Y-162127500D01*
X223266428Y-162056071D01*
X223480714Y-162056071D01*
X223623571Y-162127500D01*
X223695000Y-162198928D01*
X223766428Y-162341785D01*
X223766428Y-162770357D01*
X223695000Y-162913214D01*
X223623571Y-162984642D01*
X223480714Y-163056071D01*
X223266428Y-163056071D01*
X224409285Y-163056071D02*
X224409285Y-161556071D01*
X224409285Y-162127500D02*
X224552142Y-162056071D01*
X224837857Y-162056071D01*
X224980714Y-162127500D01*
X225052142Y-162198928D01*
X225123571Y-162341785D01*
X225123571Y-162770357D01*
X225052142Y-162913214D01*
X224980714Y-162984642D01*
X224837857Y-163056071D01*
X224552142Y-163056071D01*
X224409285Y-162984642D01*
X225980714Y-163056071D02*
X225837857Y-162984642D01*
X225766428Y-162841785D01*
X225766428Y-161556071D01*
X227123571Y-162984642D02*
X226980714Y-163056071D01*
X226695000Y-163056071D01*
X226552142Y-162984642D01*
X226480714Y-162841785D01*
X226480714Y-162270357D01*
X226552142Y-162127500D01*
X226695000Y-162056071D01*
X226980714Y-162056071D01*
X227123571Y-162127500D01*
X227195000Y-162270357D01*
X227195000Y-162413214D01*
X226480714Y-162556071D01*
X227837857Y-163056071D02*
X227837857Y-162056071D01*
X227837857Y-162198928D02*
X227909285Y-162127500D01*
X228052142Y-162056071D01*
X228266428Y-162056071D01*
X228409285Y-162127500D01*
X228480714Y-162270357D01*
X228480714Y-163056071D01*
X228480714Y-162270357D02*
X228552142Y-162127500D01*
X228695000Y-162056071D01*
X228909285Y-162056071D01*
X229052142Y-162127500D01*
X229123571Y-162270357D01*
X229123571Y-163056071D01*
X230980714Y-163056071D02*
X230980714Y-162056071D01*
X230980714Y-161556071D02*
X230909285Y-161627500D01*
X230980714Y-161698928D01*
X231052142Y-161627500D01*
X230980714Y-161556071D01*
X230980714Y-161698928D01*
X231623571Y-162984642D02*
X231766428Y-163056071D01*
X232052142Y-163056071D01*
X232195000Y-162984642D01*
X232266428Y-162841785D01*
X232266428Y-162770357D01*
X232195000Y-162627500D01*
X232052142Y-162556071D01*
X231837857Y-162556071D01*
X231695000Y-162484642D01*
X231623571Y-162341785D01*
X231623571Y-162270357D01*
X231695000Y-162127500D01*
X231837857Y-162056071D01*
X232052142Y-162056071D01*
X232195000Y-162127500D01*
X233909285Y-162056071D02*
X234266428Y-163056071D01*
X234623571Y-162056071D02*
X234266428Y-163056071D01*
X234123571Y-163413214D01*
X234052142Y-163484642D01*
X233909285Y-163556071D01*
X235409285Y-163056071D02*
X235266428Y-162984642D01*
X235195000Y-162913214D01*
X235123571Y-162770357D01*
X235123571Y-162341785D01*
X235195000Y-162198928D01*
X235266428Y-162127500D01*
X235409285Y-162056071D01*
X235623571Y-162056071D01*
X235766428Y-162127500D01*
X235837857Y-162198928D01*
X235909285Y-162341785D01*
X235909285Y-162770357D01*
X235837857Y-162913214D01*
X235766428Y-162984642D01*
X235623571Y-163056071D01*
X235409285Y-163056071D01*
X237195000Y-162056071D02*
X237195000Y-163056071D01*
X236552142Y-162056071D02*
X236552142Y-162841785D01*
X236623571Y-162984642D01*
X236766428Y-163056071D01*
X236980714Y-163056071D01*
X237123571Y-162984642D01*
X237195000Y-162913214D01*
X239695000Y-163056071D02*
X239695000Y-162270357D01*
X239623571Y-162127500D01*
X239480714Y-162056071D01*
X239195000Y-162056071D01*
X239052142Y-162127500D01*
X239695000Y-162984642D02*
X239552142Y-163056071D01*
X239195000Y-163056071D01*
X239052142Y-162984642D01*
X238980714Y-162841785D01*
X238980714Y-162698928D01*
X239052142Y-162556071D01*
X239195000Y-162484642D01*
X239552142Y-162484642D01*
X239695000Y-162413214D01*
X240409285Y-163056071D02*
X240409285Y-162056071D01*
X240409285Y-162341785D02*
X240480714Y-162198928D01*
X240552142Y-162127500D01*
X240695000Y-162056071D01*
X240837857Y-162056071D01*
X241909285Y-162984642D02*
X241766428Y-163056071D01*
X241480714Y-163056071D01*
X241337857Y-162984642D01*
X241266428Y-162841785D01*
X241266428Y-162270357D01*
X241337857Y-162127500D01*
X241480714Y-162056071D01*
X241766428Y-162056071D01*
X241909285Y-162127500D01*
X241980714Y-162270357D01*
X241980714Y-162413214D01*
X241266428Y-162556071D01*
X243552142Y-162056071D02*
X244123571Y-162056071D01*
X243766428Y-161556071D02*
X243766428Y-162841785D01*
X243837857Y-162984642D01*
X243980714Y-163056071D01*
X244123571Y-163056071D01*
X244837857Y-163056071D02*
X244695000Y-162984642D01*
X244623571Y-162913214D01*
X244552142Y-162770357D01*
X244552142Y-162341785D01*
X244623571Y-162198928D01*
X244695000Y-162127500D01*
X244837857Y-162056071D01*
X245052142Y-162056071D01*
X245195000Y-162127500D01*
X245266428Y-162198928D01*
X245337857Y-162341785D01*
X245337857Y-162770357D01*
X245266428Y-162913214D01*
X245195000Y-162984642D01*
X245052142Y-163056071D01*
X244837857Y-163056071D01*
X246195000Y-163056071D02*
X246052142Y-162984642D01*
X245980714Y-162913214D01*
X245909285Y-162770357D01*
X245909285Y-162341785D01*
X245980714Y-162198928D01*
X246052142Y-162127500D01*
X246195000Y-162056071D01*
X246409285Y-162056071D01*
X246552142Y-162127500D01*
X246623571Y-162198928D01*
X246695000Y-162341785D01*
X246695000Y-162770357D01*
X246623571Y-162913214D01*
X246552142Y-162984642D01*
X246409285Y-163056071D01*
X246195000Y-163056071D01*
X248480714Y-163056071D02*
X248480714Y-161556071D01*
X248480714Y-162127500D02*
X248623571Y-162056071D01*
X248909285Y-162056071D01*
X249052142Y-162127500D01*
X249123571Y-162198928D01*
X249195000Y-162341785D01*
X249195000Y-162770357D01*
X249123571Y-162913214D01*
X249052142Y-162984642D01*
X248909285Y-163056071D01*
X248623571Y-163056071D01*
X248480714Y-162984642D01*
X250480714Y-162056071D02*
X250480714Y-163056071D01*
X249837857Y-162056071D02*
X249837857Y-162841785D01*
X249909285Y-162984642D01*
X250052142Y-163056071D01*
X250266428Y-163056071D01*
X250409285Y-162984642D01*
X250480714Y-162913214D01*
X251123571Y-162984642D02*
X251266428Y-163056071D01*
X251552142Y-163056071D01*
X251695000Y-162984642D01*
X251766428Y-162841785D01*
X251766428Y-162770357D01*
X251695000Y-162627500D01*
X251552142Y-162556071D01*
X251337857Y-162556071D01*
X251195000Y-162484642D01*
X251123571Y-162341785D01*
X251123571Y-162270357D01*
X251195000Y-162127500D01*
X251337857Y-162056071D01*
X251552142Y-162056071D01*
X251695000Y-162127500D01*
X252266428Y-162056071D02*
X252623571Y-163056071D01*
X252980714Y-162056071D02*
X252623571Y-163056071D01*
X252480714Y-163413214D01*
X252409285Y-163484642D01*
X252266428Y-163556071D01*
X213552142Y-165471071D02*
X213552142Y-163971071D01*
X214195000Y-165471071D02*
X214195000Y-164685357D01*
X214123571Y-164542500D01*
X213980714Y-164471071D01*
X213766428Y-164471071D01*
X213623571Y-164542500D01*
X213552142Y-164613928D01*
X215123571Y-165471071D02*
X214980714Y-165399642D01*
X214909285Y-165328214D01*
X214837857Y-165185357D01*
X214837857Y-164756785D01*
X214909285Y-164613928D01*
X214980714Y-164542500D01*
X215123571Y-164471071D01*
X215337857Y-164471071D01*
X215480714Y-164542500D01*
X215552142Y-164613928D01*
X215623571Y-164756785D01*
X215623571Y-165185357D01*
X215552142Y-165328214D01*
X215480714Y-165399642D01*
X215337857Y-165471071D01*
X215123571Y-165471071D01*
X216480714Y-165471071D02*
X216337857Y-165399642D01*
X216266428Y-165256785D01*
X216266428Y-163971071D01*
X217695000Y-165471071D02*
X217695000Y-163971071D01*
X217695000Y-165399642D02*
X217552142Y-165471071D01*
X217266428Y-165471071D01*
X217123571Y-165399642D01*
X217052142Y-165328214D01*
X216980714Y-165185357D01*
X216980714Y-164756785D01*
X217052142Y-164613928D01*
X217123571Y-164542500D01*
X217266428Y-164471071D01*
X217552142Y-164471071D01*
X217695000Y-164542500D01*
X218409285Y-165471071D02*
X218409285Y-164471071D01*
X218409285Y-163971071D02*
X218337857Y-164042500D01*
X218409285Y-164113928D01*
X218480714Y-164042500D01*
X218409285Y-163971071D01*
X218409285Y-164113928D01*
X219123571Y-164471071D02*
X219123571Y-165471071D01*
X219123571Y-164613928D02*
X219195000Y-164542500D01*
X219337857Y-164471071D01*
X219552142Y-164471071D01*
X219695000Y-164542500D01*
X219766428Y-164685357D01*
X219766428Y-165471071D01*
X221123571Y-164471071D02*
X221123571Y-165685357D01*
X221052142Y-165828214D01*
X220980714Y-165899642D01*
X220837857Y-165971071D01*
X220623571Y-165971071D01*
X220480714Y-165899642D01*
X221123571Y-165399642D02*
X220980714Y-165471071D01*
X220695000Y-165471071D01*
X220552142Y-165399642D01*
X220480714Y-165328214D01*
X220409285Y-165185357D01*
X220409285Y-164756785D01*
X220480714Y-164613928D01*
X220552142Y-164542500D01*
X220695000Y-164471071D01*
X220980714Y-164471071D01*
X221123571Y-164542500D01*
X223195000Y-165471071D02*
X223052142Y-165399642D01*
X222980714Y-165328214D01*
X222909285Y-165185357D01*
X222909285Y-164756785D01*
X222980714Y-164613928D01*
X223052142Y-164542500D01*
X223195000Y-164471071D01*
X223409285Y-164471071D01*
X223552142Y-164542500D01*
X223623571Y-164613928D01*
X223695000Y-164756785D01*
X223695000Y-165185357D01*
X223623571Y-165328214D01*
X223552142Y-165399642D01*
X223409285Y-165471071D01*
X223195000Y-165471071D01*
X224337857Y-164471071D02*
X224337857Y-165471071D01*
X224337857Y-164613928D02*
X224409285Y-164542500D01*
X224552142Y-164471071D01*
X224766428Y-164471071D01*
X224909285Y-164542500D01*
X224980714Y-164685357D01*
X224980714Y-165471071D01*
X226623571Y-164471071D02*
X227195000Y-164471071D01*
X226837857Y-163971071D02*
X226837857Y-165256785D01*
X226909285Y-165399642D01*
X227052142Y-165471071D01*
X227195000Y-165471071D01*
X227909285Y-165471071D02*
X227766428Y-165399642D01*
X227695000Y-165328214D01*
X227623571Y-165185357D01*
X227623571Y-164756785D01*
X227695000Y-164613928D01*
X227766428Y-164542500D01*
X227909285Y-164471071D01*
X228123571Y-164471071D01*
X228266428Y-164542500D01*
X228337857Y-164613928D01*
X228409285Y-164756785D01*
X228409285Y-165185357D01*
X228337857Y-165328214D01*
X228266428Y-165399642D01*
X228123571Y-165471071D01*
X227909285Y-165471071D01*
X230052142Y-164471071D02*
X230409285Y-165471071D01*
X230766428Y-164471071D02*
X230409285Y-165471071D01*
X230266428Y-165828214D01*
X230195000Y-165899642D01*
X230052142Y-165971071D01*
X231552142Y-165471071D02*
X231409285Y-165399642D01*
X231337857Y-165328214D01*
X231266428Y-165185357D01*
X231266428Y-164756785D01*
X231337857Y-164613928D01*
X231409285Y-164542500D01*
X231552142Y-164471071D01*
X231766428Y-164471071D01*
X231909285Y-164542500D01*
X231980714Y-164613928D01*
X232052142Y-164756785D01*
X232052142Y-165185357D01*
X231980714Y-165328214D01*
X231909285Y-165399642D01*
X231766428Y-165471071D01*
X231552142Y-165471071D01*
X233337857Y-164471071D02*
X233337857Y-165471071D01*
X232695000Y-164471071D02*
X232695000Y-165256785D01*
X232766428Y-165399642D01*
X232909285Y-165471071D01*
X233123571Y-165471071D01*
X233266428Y-165399642D01*
X233337857Y-165328214D01*
X234052142Y-165471071D02*
X234052142Y-164471071D01*
X234052142Y-164756785D02*
X234123571Y-164613928D01*
X234195000Y-164542500D01*
X234337857Y-164471071D01*
X234480714Y-164471071D01*
X236766428Y-164471071D02*
X236766428Y-165471071D01*
X236123571Y-164471071D02*
X236123571Y-165256785D01*
X236195000Y-165399642D01*
X236337857Y-165471071D01*
X236552142Y-165471071D01*
X236695000Y-165399642D01*
X236766428Y-165328214D01*
X237480714Y-164471071D02*
X237480714Y-165471071D01*
X237480714Y-164613928D02*
X237552142Y-164542500D01*
X237695000Y-164471071D01*
X237909285Y-164471071D01*
X238052142Y-164542500D01*
X238123571Y-164685357D01*
X238123571Y-165471071D01*
X238695000Y-164471071D02*
X238980714Y-165471071D01*
X239266428Y-164756785D01*
X239552142Y-165471071D01*
X239837857Y-164471071D01*
X240623571Y-165471071D02*
X240480714Y-165399642D01*
X240409285Y-165328214D01*
X240337857Y-165185357D01*
X240337857Y-164756785D01*
X240409285Y-164613928D01*
X240480714Y-164542500D01*
X240623571Y-164471071D01*
X240837857Y-164471071D01*
X240980714Y-164542500D01*
X241052142Y-164613928D01*
X241123571Y-164756785D01*
X241123571Y-165185357D01*
X241052142Y-165328214D01*
X240980714Y-165399642D01*
X240837857Y-165471071D01*
X240623571Y-165471071D01*
X241766428Y-165471071D02*
X241766428Y-164471071D01*
X241766428Y-164756785D02*
X241837857Y-164613928D01*
X241909285Y-164542500D01*
X242052142Y-164471071D01*
X242195000Y-164471071D01*
X242480714Y-164471071D02*
X243052142Y-164471071D01*
X242695000Y-163971071D02*
X242695000Y-165256785D01*
X242766428Y-165399642D01*
X242909285Y-165471071D01*
X243052142Y-165471071D01*
X243552142Y-165471071D02*
X243552142Y-163971071D01*
X244195000Y-165471071D02*
X244195000Y-164685357D01*
X244123571Y-164542500D01*
X243980714Y-164471071D01*
X243766428Y-164471071D01*
X243623571Y-164542500D01*
X243552142Y-164613928D01*
X244909285Y-165471071D02*
X244909285Y-164471071D01*
X244909285Y-163971071D02*
X244837857Y-164042500D01*
X244909285Y-164113928D01*
X244980714Y-164042500D01*
X244909285Y-163971071D01*
X244909285Y-164113928D01*
X245623571Y-164471071D02*
X245623571Y-165471071D01*
X245623571Y-164613928D02*
X245695000Y-164542500D01*
X245837857Y-164471071D01*
X246052142Y-164471071D01*
X246195000Y-164542500D01*
X246266428Y-164685357D01*
X246266428Y-165471071D01*
X247552142Y-165399642D02*
X247409285Y-165471071D01*
X247123571Y-165471071D01*
X246980714Y-165399642D01*
X246909285Y-165256785D01*
X246909285Y-164685357D01*
X246980714Y-164542500D01*
X247123571Y-164471071D01*
X247409285Y-164471071D01*
X247552142Y-164542500D01*
X247623571Y-164685357D01*
X247623571Y-164828214D01*
X246909285Y-164971071D01*
X248195000Y-165399642D02*
X248337857Y-165471071D01*
X248623571Y-165471071D01*
X248766428Y-165399642D01*
X248837857Y-165256785D01*
X248837857Y-165185357D01*
X248766428Y-165042500D01*
X248623571Y-164971071D01*
X248409285Y-164971071D01*
X248266428Y-164899642D01*
X248195000Y-164756785D01*
X248195000Y-164685357D01*
X248266428Y-164542500D01*
X248409285Y-164471071D01*
X248623571Y-164471071D01*
X248766428Y-164542500D01*
X249409285Y-165399642D02*
X249552142Y-165471071D01*
X249837857Y-165471071D01*
X249980714Y-165399642D01*
X250052142Y-165256785D01*
X250052142Y-165185357D01*
X249980714Y-165042500D01*
X249837857Y-164971071D01*
X249623571Y-164971071D01*
X249480714Y-164899642D01*
X249409285Y-164756785D01*
X249409285Y-164685357D01*
X249480714Y-164542500D01*
X249623571Y-164471071D01*
X249837857Y-164471071D01*
X249980714Y-164542500D01*
X250695000Y-165328214D02*
X250766428Y-165399642D01*
X250695000Y-165471071D01*
X250623571Y-165399642D01*
X250695000Y-165328214D01*
X250695000Y-165471071D01*
X251337857Y-163971071D02*
X251337857Y-164256785D01*
X251909285Y-163971071D02*
X251909285Y-164256785D01*
X213552142Y-169729642D02*
X214695000Y-169729642D01*
X216266428Y-170301071D02*
X215766428Y-169586785D01*
X215409285Y-170301071D02*
X215409285Y-168801071D01*
X215980714Y-168801071D01*
X216123571Y-168872500D01*
X216195000Y-168943928D01*
X216266428Y-169086785D01*
X216266428Y-169301071D01*
X216195000Y-169443928D01*
X216123571Y-169515357D01*
X215980714Y-169586785D01*
X215409285Y-169586785D01*
X217552142Y-170301071D02*
X217552142Y-169515357D01*
X217480714Y-169372500D01*
X217337857Y-169301071D01*
X217052142Y-169301071D01*
X216909285Y-169372500D01*
X217552142Y-170229642D02*
X217409285Y-170301071D01*
X217052142Y-170301071D01*
X216909285Y-170229642D01*
X216837857Y-170086785D01*
X216837857Y-169943928D01*
X216909285Y-169801071D01*
X217052142Y-169729642D01*
X217409285Y-169729642D01*
X217552142Y-169658214D01*
X218266428Y-170301071D02*
X218266428Y-169301071D01*
X218266428Y-169443928D02*
X218337857Y-169372500D01*
X218480714Y-169301071D01*
X218695000Y-169301071D01*
X218837857Y-169372500D01*
X218909285Y-169515357D01*
X218909285Y-170301071D01*
X218909285Y-169515357D02*
X218980714Y-169372500D01*
X219123571Y-169301071D01*
X219337857Y-169301071D01*
X219480714Y-169372500D01*
X219552142Y-169515357D01*
X219552142Y-170301071D01*
X221409285Y-170301071D02*
X221409285Y-168801071D01*
X221766428Y-168801071D01*
X221980714Y-168872500D01*
X222123571Y-169015357D01*
X222195000Y-169158214D01*
X222266428Y-169443928D01*
X222266428Y-169658214D01*
X222195000Y-169943928D01*
X222123571Y-170086785D01*
X221980714Y-170229642D01*
X221766428Y-170301071D01*
X221409285Y-170301071D01*
X223552142Y-170301071D02*
X223552142Y-169515357D01*
X223480714Y-169372500D01*
X223337857Y-169301071D01*
X223052142Y-169301071D01*
X222909285Y-169372500D01*
X223552142Y-170229642D02*
X223409285Y-170301071D01*
X223052142Y-170301071D01*
X222909285Y-170229642D01*
X222837857Y-170086785D01*
X222837857Y-169943928D01*
X222909285Y-169801071D01*
X223052142Y-169729642D01*
X223409285Y-169729642D01*
X223552142Y-169658214D01*
X224195000Y-170229642D02*
X224337857Y-170301071D01*
X224623571Y-170301071D01*
X224766428Y-170229642D01*
X224837857Y-170086785D01*
X224837857Y-170015357D01*
X224766428Y-169872500D01*
X224623571Y-169801071D01*
X224409285Y-169801071D01*
X224266428Y-169729642D01*
X224195000Y-169586785D01*
X224195000Y-169515357D01*
X224266428Y-169372500D01*
X224409285Y-169301071D01*
X224623571Y-169301071D01*
X224766428Y-169372500D01*
X225409285Y-170229642D02*
X225552142Y-170301071D01*
X225837857Y-170301071D01*
X225980714Y-170229642D01*
X226052142Y-170086785D01*
X226052142Y-170015357D01*
X225980714Y-169872500D01*
X225837857Y-169801071D01*
X225623571Y-169801071D01*
X225480714Y-169729642D01*
X225409285Y-169586785D01*
X225409285Y-169515357D01*
X225480714Y-169372500D01*
X225623571Y-169301071D01*
X225837857Y-169301071D01*
X225980714Y-169372500D01*
D11*
X188014832Y-184621263D02*
X187729629Y-184513698D01*
X187729629Y-184513698D02*
X187449443Y-184396683D01*
X187449443Y-184396683D02*
X186904493Y-184134758D01*
X186904493Y-184134758D02*
X186380723Y-183836394D01*
X186380723Y-183836394D02*
X185878873Y-183502500D01*
X185878873Y-183502500D02*
X185399684Y-183133980D01*
X185399684Y-183133980D02*
X184943895Y-182731742D01*
X184943895Y-182731742D02*
X184512248Y-182296692D01*
X184512248Y-182296692D02*
X184105482Y-181829738D01*
X184105482Y-181829738D02*
X183724338Y-181331786D01*
X183724338Y-181331786D02*
X183369557Y-180803742D01*
X183369557Y-180803742D02*
X183041878Y-180246513D01*
X183041878Y-180246513D02*
X182742042Y-179661006D01*
X182742042Y-179661006D02*
X182470789Y-179048128D01*
X182470789Y-179048128D02*
X182228861Y-178408786D01*
X182228861Y-178408786D02*
X182016996Y-177743885D01*
X182016996Y-177743885D02*
X181835936Y-177054333D01*
X181835936Y-177054333D02*
X181764270Y-176723884D01*
X181764270Y-176723884D02*
X181699566Y-176373202D01*
X181699566Y-176373202D02*
X181591968Y-175634071D01*
X181591968Y-175634071D02*
X181514993Y-174882809D01*
X181514993Y-174882809D02*
X181470492Y-174165283D01*
X181470492Y-174165283D02*
X181460318Y-173527362D01*
X181460318Y-173527362D02*
X181468681Y-173252588D01*
X181468681Y-173252588D02*
X181486319Y-173014915D01*
X181486319Y-173014915D02*
X181513464Y-172820078D01*
X181513464Y-172820078D02*
X181550348Y-172673810D01*
X181550348Y-172673810D02*
X181597201Y-172581845D01*
X181597201Y-172581845D02*
X181624439Y-172558017D01*
X181624439Y-172558017D02*
X181654255Y-172549916D01*
X181654255Y-172549916D02*
X181665126Y-172552153D01*
X181665126Y-172552153D02*
X181677034Y-172558793D01*
X181677034Y-172558793D02*
X181689938Y-172569725D01*
X181689938Y-172569725D02*
X181703796Y-172584839D01*
X181703796Y-172584839D02*
X181718565Y-172604027D01*
X181718565Y-172604027D02*
X181734204Y-172627178D01*
X181734204Y-172627178D02*
X181767925Y-172684932D01*
X181767925Y-172684932D02*
X181804621Y-172757223D01*
X181804621Y-172757223D02*
X181843957Y-172843175D01*
X181843957Y-172843175D02*
X181885599Y-172941910D01*
X181885599Y-172941910D02*
X181929210Y-173052551D01*
X181929210Y-173052551D02*
X181974455Y-173174220D01*
X181974455Y-173174220D02*
X182020998Y-173306041D01*
X182020998Y-173306041D02*
X182068504Y-173447136D01*
X182068504Y-173447136D02*
X182116637Y-173596627D01*
X182116637Y-173596627D02*
X182165062Y-173753638D01*
X182165062Y-173753638D02*
X182213443Y-173917291D01*
X182213443Y-173917291D02*
X182261445Y-174086710D01*
X182261445Y-174086710D02*
X182308732Y-174261016D01*
X182308732Y-174261016D02*
X182415601Y-174645492D01*
X182415601Y-174645492D02*
X182530895Y-175025819D01*
X182530895Y-175025819D02*
X182654003Y-175400727D01*
X182654003Y-175400727D02*
X182784314Y-175768946D01*
X182784314Y-175768946D02*
X182921217Y-176129205D01*
X182921217Y-176129205D02*
X183064100Y-176480235D01*
X183064100Y-176480235D02*
X183212352Y-176820764D01*
X183212352Y-176820764D02*
X183365362Y-177149524D01*
X183365362Y-177149524D02*
X183522518Y-177465243D01*
X183522518Y-177465243D02*
X183683209Y-177766653D01*
X183683209Y-177766653D02*
X183846824Y-178052481D01*
X183846824Y-178052481D02*
X184012752Y-178321460D01*
X184012752Y-178321460D02*
X184180381Y-178572317D01*
X184180381Y-178572317D02*
X184349101Y-178803783D01*
X184349101Y-178803783D02*
X184518299Y-179014589D01*
X184518299Y-179014589D02*
X184687364Y-179203463D01*
X184687364Y-179203463D02*
X184833905Y-179348043D01*
X184833905Y-179348043D02*
X184992694Y-179486904D01*
X184992694Y-179486904D02*
X185163040Y-179619931D01*
X185163040Y-179619931D02*
X185344249Y-179747007D01*
X185344249Y-179747007D02*
X185736495Y-179982852D01*
X185736495Y-179982852D02*
X186163897Y-180193519D01*
X186163897Y-180193519D02*
X186620920Y-180378086D01*
X186620920Y-180378086D02*
X187102032Y-180535635D01*
X187102032Y-180535635D02*
X187601696Y-180665245D01*
X187601696Y-180665245D02*
X188114380Y-180765995D01*
X188114380Y-180765995D02*
X188634549Y-180836967D01*
X188634549Y-180836967D02*
X189156668Y-180877239D01*
X189156668Y-180877239D02*
X189675204Y-180885891D01*
X189675204Y-180885891D02*
X190184622Y-180862004D01*
X190184622Y-180862004D02*
X190679387Y-180804657D01*
X190679387Y-180804657D02*
X191153967Y-180712929D01*
X191153967Y-180712929D02*
X191381957Y-180653886D01*
X191381957Y-180653886D02*
X191602825Y-180585902D01*
X191602825Y-180585902D02*
X191815880Y-180508863D01*
X191815880Y-180508863D02*
X192020429Y-180422654D01*
X192020429Y-180422654D02*
X192173367Y-180348887D01*
X192173367Y-180348887D02*
X192320439Y-180269230D01*
X192320439Y-180269230D02*
X192461572Y-180183883D01*
X192461572Y-180183883D02*
X192596689Y-180093045D01*
X192596689Y-180093045D02*
X192725717Y-179996915D01*
X192725717Y-179996915D02*
X192848580Y-179895693D01*
X192848580Y-179895693D02*
X192965204Y-179789577D01*
X192965204Y-179789577D02*
X193075513Y-179678767D01*
X193075513Y-179678767D02*
X193179433Y-179563462D01*
X193179433Y-179563462D02*
X193276889Y-179443861D01*
X193276889Y-179443861D02*
X193367807Y-179320164D01*
X193367807Y-179320164D02*
X193452110Y-179192569D01*
X193452110Y-179192569D02*
X193529725Y-179061275D01*
X193529725Y-179061275D02*
X193600576Y-178926482D01*
X193600576Y-178926482D02*
X193664590Y-178788389D01*
X193664590Y-178788389D02*
X193721690Y-178647196D01*
X193721690Y-178647196D02*
X193771802Y-178503100D01*
X193771802Y-178503100D02*
X193814851Y-178356302D01*
X193814851Y-178356302D02*
X193850763Y-178207000D01*
X193850763Y-178207000D02*
X193879462Y-178055395D01*
X193879462Y-178055395D02*
X193900874Y-177901684D01*
X193900874Y-177901684D02*
X193914924Y-177746067D01*
X193914924Y-177746067D02*
X193921536Y-177588744D01*
X193921536Y-177588744D02*
X193920637Y-177429913D01*
X193920637Y-177429913D02*
X193912151Y-177269773D01*
X193912151Y-177269773D02*
X193896004Y-177108525D01*
X193896004Y-177108525D02*
X193872120Y-176946366D01*
X193872120Y-176946366D02*
X193840425Y-176783497D01*
X193840425Y-176783497D02*
X193800843Y-176620115D01*
X193800843Y-176620115D02*
X193753301Y-176456422D01*
X193753301Y-176456422D02*
X193697723Y-176292614D01*
X193697723Y-176292614D02*
X193634034Y-176128893D01*
X193634034Y-176128893D02*
X193579577Y-176005090D01*
X193579577Y-176005090D02*
X193520897Y-175886521D01*
X193520897Y-175886521D02*
X193457925Y-175773162D01*
X193457925Y-175773162D02*
X193390588Y-175664988D01*
X193390588Y-175664988D02*
X193318818Y-175561973D01*
X193318818Y-175561973D02*
X193242544Y-175464092D01*
X193242544Y-175464092D02*
X193161694Y-175371320D01*
X193161694Y-175371320D02*
X193076200Y-175283633D01*
X193076200Y-175283633D02*
X192985990Y-175201004D01*
X192985990Y-175201004D02*
X192890993Y-175123410D01*
X192890993Y-175123410D02*
X192791141Y-175050825D01*
X192791141Y-175050825D02*
X192686361Y-174983223D01*
X192686361Y-174983223D02*
X192576584Y-174920581D01*
X192576584Y-174920581D02*
X192461739Y-174862872D01*
X192461739Y-174862872D02*
X192341757Y-174810072D01*
X192341757Y-174810072D02*
X192216565Y-174762156D01*
X192216565Y-174762156D02*
X192086095Y-174719099D01*
X192086095Y-174719099D02*
X191950275Y-174680875D01*
X191950275Y-174680875D02*
X191809035Y-174647459D01*
X191809035Y-174647459D02*
X191662305Y-174618828D01*
X191662305Y-174618828D02*
X191510014Y-174594954D01*
X191510014Y-174594954D02*
X191352093Y-174575814D01*
X191352093Y-174575814D02*
X191188469Y-174561382D01*
X191188469Y-174561382D02*
X191019074Y-174551634D01*
X191019074Y-174551634D02*
X190843836Y-174546543D01*
X190843836Y-174546543D02*
X190662686Y-174546086D01*
X190662686Y-174546086D02*
X190475552Y-174550237D01*
X190475552Y-174550237D02*
X190282364Y-174558971D01*
X190282364Y-174558971D02*
X190083053Y-174572262D01*
X190083053Y-174572262D02*
X189877547Y-174590087D01*
X189877547Y-174590087D02*
X189665776Y-174612420D01*
X189665776Y-174612420D02*
X189447669Y-174639235D01*
X189447669Y-174639235D02*
X189384608Y-174566924D01*
X189384608Y-174566924D02*
X189311127Y-174477302D01*
X189311127Y-174477302D02*
X189214429Y-174352718D01*
X189214429Y-174352718D02*
X189098078Y-174193683D01*
X189098078Y-174193683D02*
X188965636Y-174000707D01*
X188965636Y-174000707D02*
X188820667Y-173774303D01*
X188820667Y-173774303D02*
X188666734Y-173514982D01*
X188666734Y-173514982D02*
X188507400Y-173223256D01*
X188507400Y-173223256D02*
X188426821Y-173065400D01*
X188426821Y-173065400D02*
X188346228Y-172899634D01*
X188346228Y-172899634D02*
X188266066Y-172726022D01*
X188266066Y-172726022D02*
X188186782Y-172544629D01*
X188186782Y-172544629D02*
X188108819Y-172355518D01*
X188108819Y-172355518D02*
X188032623Y-172158752D01*
X188032623Y-172158752D02*
X187958641Y-171954396D01*
X187958641Y-171954396D02*
X187887316Y-171742514D01*
X187887316Y-171742514D02*
X187819096Y-171523170D01*
X187819096Y-171523170D02*
X187754424Y-171296427D01*
X187754424Y-171296427D02*
X187693747Y-171062350D01*
X187693747Y-171062350D02*
X187637509Y-170821002D01*
X187637509Y-170821002D02*
X187586157Y-170572447D01*
X187586157Y-170572447D02*
X187540135Y-170316750D01*
X187540135Y-170316750D02*
X189022937Y-170451205D01*
X189022937Y-170451205D02*
X189352620Y-170475061D01*
X189352620Y-170475061D02*
X189671741Y-170485958D01*
X189671741Y-170485958D02*
X189979989Y-170483989D01*
X189979989Y-170483989D02*
X190277055Y-170469243D01*
X190277055Y-170469243D02*
X190562631Y-170441811D01*
X190562631Y-170441811D02*
X190836406Y-170401784D01*
X190836406Y-170401784D02*
X191098072Y-170349252D01*
X191098072Y-170349252D02*
X191347320Y-170284305D01*
X191347320Y-170284305D02*
X191583841Y-170207034D01*
X191583841Y-170207034D02*
X191807325Y-170117530D01*
X191807325Y-170117530D02*
X192017463Y-170015883D01*
X192017463Y-170015883D02*
X192213946Y-169902184D01*
X192213946Y-169902184D02*
X192396465Y-169776523D01*
X192396465Y-169776523D02*
X192564710Y-169638991D01*
X192564710Y-169638991D02*
X192718373Y-169489678D01*
X192718373Y-169489678D02*
X192857144Y-169328675D01*
X192857144Y-169328675D02*
X192972568Y-169177668D01*
X192972568Y-169177668D02*
X193072178Y-169037153D01*
X193072178Y-169037153D02*
X193155907Y-168905608D01*
X193155907Y-168905608D02*
X193191795Y-168842723D01*
X193191795Y-168842723D02*
X193223688Y-168781508D01*
X193223688Y-168781508D02*
X193251577Y-168721774D01*
X193251577Y-168721774D02*
X193275454Y-168663331D01*
X193275454Y-168663331D02*
X193295311Y-168605986D01*
X193295311Y-168605986D02*
X193311138Y-168549551D01*
X193311138Y-168549551D02*
X193322929Y-168493834D01*
X193322929Y-168493834D02*
X193330673Y-168438646D01*
X193330673Y-168438646D02*
X193334364Y-168383795D01*
X193334364Y-168383795D02*
X193333993Y-168329092D01*
X193333993Y-168329092D02*
X193329550Y-168274345D01*
X193329550Y-168274345D02*
X193321029Y-168219365D01*
X193321029Y-168219365D02*
X193308419Y-168163960D01*
X193308419Y-168163960D02*
X193291714Y-168107941D01*
X193291714Y-168107941D02*
X193270905Y-168051117D01*
X193270905Y-168051117D02*
X193245983Y-167993297D01*
X193245983Y-167993297D02*
X193216940Y-167934292D01*
X193216940Y-167934292D02*
X193183768Y-167873910D01*
X193183768Y-167873910D02*
X193146457Y-167811961D01*
X193146457Y-167811961D02*
X193105001Y-167748254D01*
X193105001Y-167748254D02*
X193009616Y-167614808D01*
X193009616Y-167614808D02*
X192897546Y-167472046D01*
X192897546Y-167472046D02*
X192768724Y-167318446D01*
X192768724Y-167318446D02*
X192667225Y-167207861D01*
X192667225Y-167207861D02*
X192560601Y-167106325D01*
X192560601Y-167106325D02*
X192448651Y-167013872D01*
X192448651Y-167013872D02*
X192331173Y-166930534D01*
X192331173Y-166930534D02*
X192207964Y-166856344D01*
X192207964Y-166856344D02*
X192078822Y-166791336D01*
X192078822Y-166791336D02*
X191943547Y-166735542D01*
X191943547Y-166735542D02*
X191801934Y-166688997D01*
X191801934Y-166688997D02*
X191653784Y-166651732D01*
X191653784Y-166651732D02*
X191498893Y-166623781D01*
X191498893Y-166623781D02*
X191337060Y-166605178D01*
X191337060Y-166605178D02*
X191168083Y-166595955D01*
X191168083Y-166595955D02*
X190991760Y-166596145D01*
X190991760Y-166596145D02*
X190807888Y-166605782D01*
X190807888Y-166605782D02*
X190616267Y-166624898D01*
X190616267Y-166624898D02*
X190416693Y-166653528D01*
X190416693Y-166653528D02*
X190208966Y-166691703D01*
X190208966Y-166691703D02*
X189992883Y-166739457D01*
X189992883Y-166739457D02*
X189768242Y-166796824D01*
X189768242Y-166796824D02*
X189534841Y-166863836D01*
X189534841Y-166863836D02*
X189292478Y-166940526D01*
X189292478Y-166940526D02*
X189040952Y-167026928D01*
X189040952Y-167026928D02*
X188509600Y-167228999D01*
X188509600Y-167228999D02*
X187939170Y-167470313D01*
X187939170Y-167470313D02*
X187328046Y-167751136D01*
X187328046Y-167751136D02*
X186674613Y-168071733D01*
X186674613Y-168071733D02*
X185977254Y-168432368D01*
X185977254Y-168432368D02*
X184040112Y-165185134D01*
X184040112Y-165185134D02*
X184852238Y-164565693D01*
X184852238Y-164565693D02*
X185250661Y-164283891D01*
X185250661Y-164283891D02*
X185679781Y-164021254D01*
X185679781Y-164021254D02*
X186135174Y-163778756D01*
X186135174Y-163778756D02*
X186612412Y-163557367D01*
X186612412Y-163557367D02*
X187107071Y-163358060D01*
X187107071Y-163358060D02*
X187614725Y-163181807D01*
X187614725Y-163181807D02*
X188130948Y-163029579D01*
X188130948Y-163029579D02*
X188651314Y-162902348D01*
X188651314Y-162902348D02*
X189171397Y-162801086D01*
X189171397Y-162801086D02*
X189686772Y-162726766D01*
X189686772Y-162726766D02*
X190193013Y-162680359D01*
X190193013Y-162680359D02*
X190685695Y-162662837D01*
X190685695Y-162662837D02*
X191160391Y-162675172D01*
X191160391Y-162675172D02*
X191612676Y-162718336D01*
X191612676Y-162718336D02*
X192038124Y-162793301D01*
X192038124Y-162793301D02*
X192432310Y-162901038D01*
X192432310Y-162901038D02*
X192602580Y-162962906D01*
X192602580Y-162962906D02*
X192769772Y-163034890D01*
X192769772Y-163034890D02*
X192933663Y-163116592D01*
X192933663Y-163116592D02*
X193094031Y-163207617D01*
X193094031Y-163207617D02*
X193250652Y-163307565D01*
X193250652Y-163307565D02*
X193403304Y-163416039D01*
X193403304Y-163416039D02*
X193551765Y-163532643D01*
X193551765Y-163532643D02*
X193695811Y-163656978D01*
X193695811Y-163656978D02*
X193835220Y-163788648D01*
X193835220Y-163788648D02*
X193969770Y-163927255D01*
X193969770Y-163927255D02*
X194099236Y-164072402D01*
X194099236Y-164072402D02*
X194223397Y-164223691D01*
X194223397Y-164223691D02*
X194342031Y-164380725D01*
X194342031Y-164380725D02*
X194454913Y-164543106D01*
X194454913Y-164543106D02*
X194561822Y-164710437D01*
X194561822Y-164710437D02*
X194662535Y-164882321D01*
X194662535Y-164882321D02*
X194756829Y-165058361D01*
X194756829Y-165058361D02*
X194844481Y-165238158D01*
X194844481Y-165238158D02*
X194925269Y-165421316D01*
X194925269Y-165421316D02*
X194998969Y-165607437D01*
X194998969Y-165607437D02*
X195065360Y-165796123D01*
X195065360Y-165796123D02*
X195124219Y-165986979D01*
X195124219Y-165986979D02*
X195175322Y-166179605D01*
X195175322Y-166179605D02*
X195218447Y-166373604D01*
X195218447Y-166373604D02*
X195253371Y-166568580D01*
X195253371Y-166568580D02*
X195279872Y-166764135D01*
X195279872Y-166764135D02*
X195297727Y-166959871D01*
X195297727Y-166959871D02*
X195306713Y-167155392D01*
X195306713Y-167155392D02*
X195306608Y-167350299D01*
X195306608Y-167350299D02*
X195297188Y-167544195D01*
X195297188Y-167544195D02*
X195278231Y-167736683D01*
X195278231Y-167736683D02*
X195249514Y-167927365D01*
X195249514Y-167927365D02*
X195194249Y-168189744D01*
X195194249Y-168189744D02*
X195120588Y-168462142D01*
X195120588Y-168462142D02*
X195030149Y-168741735D01*
X195030149Y-168741735D02*
X194924547Y-169025701D01*
X194924547Y-169025701D02*
X194805397Y-169311217D01*
X194805397Y-169311217D02*
X194674317Y-169595461D01*
X194674317Y-169595461D02*
X194532922Y-169875610D01*
X194532922Y-169875610D02*
X194382827Y-170148841D01*
X194382827Y-170148841D02*
X194225650Y-170412332D01*
X194225650Y-170412332D02*
X194063006Y-170663259D01*
X194063006Y-170663259D02*
X193896511Y-170898800D01*
X193896511Y-170898800D02*
X193727781Y-171116133D01*
X193727781Y-171116133D02*
X193558432Y-171312434D01*
X193558432Y-171312434D02*
X193390080Y-171484881D01*
X193390080Y-171484881D02*
X193224341Y-171630652D01*
X193224341Y-171630652D02*
X193062831Y-171746923D01*
X193062831Y-171746923D02*
X192332178Y-172209539D01*
X192332178Y-172209539D02*
X193341422Y-172664643D01*
X193341422Y-172664643D02*
X193500276Y-172733132D01*
X193500276Y-172733132D02*
X193655375Y-172793537D01*
X193655375Y-172793537D02*
X193806879Y-172845765D01*
X193806879Y-172845765D02*
X193954947Y-172889728D01*
X193954947Y-172889728D02*
X194099740Y-172925335D01*
X194099740Y-172925335D02*
X194241417Y-172952495D01*
X194241417Y-172952495D02*
X194380138Y-172971120D01*
X194380138Y-172971120D02*
X194516062Y-172981118D01*
X194516062Y-172981118D02*
X194649349Y-172982399D01*
X194649349Y-172982399D02*
X194780158Y-172974873D01*
X194780158Y-172974873D02*
X194908650Y-172958451D01*
X194908650Y-172958451D02*
X195034984Y-172933042D01*
X195034984Y-172933042D02*
X195159319Y-172898555D01*
X195159319Y-172898555D02*
X195281816Y-172854902D01*
X195281816Y-172854902D02*
X195402633Y-172801990D01*
X195402633Y-172801990D02*
X195521932Y-172739731D01*
X195521932Y-172739731D02*
X195639870Y-172668034D01*
X195639870Y-172668034D02*
X195756608Y-172586810D01*
X195756608Y-172586810D02*
X195872306Y-172495967D01*
X195872306Y-172495967D02*
X195987123Y-172395416D01*
X195987123Y-172395416D02*
X196101219Y-172285067D01*
X196101219Y-172285067D02*
X196214754Y-172164829D01*
X196214754Y-172164829D02*
X196327887Y-172034612D01*
X196327887Y-172034612D02*
X196440777Y-171894327D01*
X196440777Y-171894327D02*
X196553586Y-171743882D01*
X196553586Y-171743882D02*
X196666471Y-171583189D01*
X196666471Y-171583189D02*
X196893112Y-171230693D01*
X196893112Y-171230693D02*
X197121977Y-170836120D01*
X197121977Y-170836120D02*
X197354345Y-170398747D01*
X197354345Y-170398747D02*
X197672314Y-169792549D01*
X197672314Y-169792549D02*
X197979095Y-169242799D01*
X197979095Y-169242799D02*
X198277759Y-168747100D01*
X198277759Y-168747100D02*
X198571378Y-168303052D01*
X198571378Y-168303052D02*
X198863022Y-167908256D01*
X198863022Y-167908256D02*
X199155761Y-167560314D01*
X199155761Y-167560314D02*
X199303502Y-167403164D01*
X199303502Y-167403164D02*
X199452668Y-167256827D01*
X199452668Y-167256827D02*
X199603643Y-167121005D01*
X199603643Y-167121005D02*
X199756812Y-166995397D01*
X199756812Y-166995397D02*
X199912559Y-166879703D01*
X199912559Y-166879703D02*
X200071266Y-166773623D01*
X200071266Y-166773623D02*
X200233318Y-166676858D01*
X200233318Y-166676858D02*
X200399099Y-166589108D01*
X200399099Y-166589108D02*
X200568992Y-166510073D01*
X200568992Y-166510073D02*
X200743382Y-166439453D01*
X200743382Y-166439453D02*
X200922653Y-166376949D01*
X200922653Y-166376949D02*
X201107187Y-166322259D01*
X201107187Y-166322259D02*
X201493585Y-166235128D01*
X201493585Y-166235128D02*
X201905646Y-166175660D01*
X201905646Y-166175660D02*
X202346441Y-166141456D01*
X202346441Y-166141456D02*
X202819042Y-166130119D01*
X202819042Y-166130119D02*
X203038101Y-166131395D01*
X203038101Y-166131395D02*
X203240621Y-166136234D01*
X203240621Y-166136234D02*
X203428415Y-166145172D01*
X203428415Y-166145172D02*
X203603293Y-166158741D01*
X203603293Y-166158741D02*
X203767068Y-166177476D01*
X203767068Y-166177476D02*
X203921551Y-166201911D01*
X203921551Y-166201911D02*
X204068556Y-166232580D01*
X204068556Y-166232580D02*
X204209893Y-166270016D01*
X204209893Y-166270016D02*
X204347375Y-166314755D01*
X204347375Y-166314755D02*
X204482813Y-166367330D01*
X204482813Y-166367330D02*
X204618020Y-166428276D01*
X204618020Y-166428276D02*
X204754808Y-166498125D01*
X204754808Y-166498125D02*
X204894988Y-166577412D01*
X204894988Y-166577412D02*
X205040372Y-166666672D01*
X205040372Y-166666672D02*
X205192773Y-166766438D01*
X205192773Y-166766438D02*
X205354002Y-166877244D01*
X205354002Y-166877244D02*
X205558494Y-167027454D01*
X205558494Y-167027454D02*
X205756995Y-167187169D01*
X205756995Y-167187169D02*
X205949421Y-167356163D01*
X205949421Y-167356163D02*
X206135688Y-167534210D01*
X206135688Y-167534210D02*
X206315710Y-167721085D01*
X206315710Y-167721085D02*
X206489404Y-167916564D01*
X206489404Y-167916564D02*
X206656684Y-168120420D01*
X206656684Y-168120420D02*
X206817467Y-168332429D01*
X206817467Y-168332429D02*
X206971667Y-168552365D01*
X206971667Y-168552365D02*
X207119200Y-168780003D01*
X207119200Y-168780003D02*
X207259983Y-169015118D01*
X207259983Y-169015118D02*
X207393929Y-169257483D01*
X207393929Y-169257483D02*
X207640976Y-169763068D01*
X207640976Y-169763068D02*
X207859665Y-170294955D01*
X207859665Y-170294955D02*
X208049321Y-170851342D01*
X208049321Y-170851342D02*
X208209267Y-171430425D01*
X208209267Y-171430425D02*
X208338826Y-172030404D01*
X208338826Y-172030404D02*
X208437324Y-172649476D01*
X208437324Y-172649476D02*
X208504083Y-173285838D01*
X208504083Y-173285838D02*
X208538428Y-173937688D01*
X208538428Y-173937688D02*
X208539682Y-174603224D01*
X208539682Y-174603224D02*
X208507170Y-175280644D01*
X208507170Y-175280644D02*
X208422832Y-176123856D01*
X208422832Y-176123856D02*
X208296276Y-176923101D01*
X208296276Y-176923101D02*
X208128627Y-177676938D01*
X208128627Y-177676938D02*
X207921008Y-178383930D01*
X207921008Y-178383930D02*
X207674545Y-179042635D01*
X207674545Y-179042635D02*
X207390361Y-179651614D01*
X207390361Y-179651614D02*
X207069580Y-180209428D01*
X207069580Y-180209428D02*
X206713328Y-180714636D01*
X206713328Y-180714636D02*
X206522250Y-180947064D01*
X206522250Y-180947064D02*
X206322727Y-181165800D01*
X206322727Y-181165800D02*
X206114897Y-181370665D01*
X206114897Y-181370665D02*
X205898903Y-181561480D01*
X205898903Y-181561480D02*
X205674883Y-181738063D01*
X205674883Y-181738063D02*
X205442979Y-181900235D01*
X205442979Y-181900235D02*
X205203331Y-182047817D01*
X205203331Y-182047817D02*
X204956080Y-182180627D01*
X204956080Y-182180627D02*
X204701366Y-182298487D01*
X204701366Y-182298487D02*
X204439330Y-182401216D01*
X204439330Y-182401216D02*
X204170112Y-182488634D01*
X204170112Y-182488634D02*
X203893853Y-182560561D01*
X203893853Y-182560561D02*
X203610694Y-182616818D01*
X203610694Y-182616818D02*
X203320775Y-182657225D01*
X203320775Y-182657225D02*
X203024236Y-182681600D01*
X203024236Y-182681600D02*
X202721218Y-182689766D01*
X202721218Y-182689766D02*
X202392483Y-182682345D01*
X202392483Y-182682345D02*
X202078093Y-182659868D01*
X202078093Y-182659868D02*
X201777460Y-182622016D01*
X201777460Y-182622016D02*
X201489996Y-182568469D01*
X201489996Y-182568469D02*
X201215113Y-182498907D01*
X201215113Y-182498907D02*
X200952222Y-182413009D01*
X200952222Y-182413009D02*
X200700735Y-182310456D01*
X200700735Y-182310456D02*
X200460065Y-182190927D01*
X200460065Y-182190927D02*
X200229623Y-182054103D01*
X200229623Y-182054103D02*
X200008821Y-181899664D01*
X200008821Y-181899664D02*
X199797072Y-181727289D01*
X199797072Y-181727289D02*
X199593786Y-181536658D01*
X199593786Y-181536658D02*
X199398377Y-181327453D01*
X199398377Y-181327453D02*
X199210255Y-181099352D01*
X199210255Y-181099352D02*
X199028833Y-180852035D01*
X199028833Y-180852035D02*
X198853523Y-180585183D01*
X198853523Y-180585183D02*
X198707347Y-180327878D01*
X198707347Y-180327878D02*
X198572136Y-180044750D01*
X198572136Y-180044750D02*
X198448451Y-179739766D01*
X198448451Y-179739766D02*
X198336856Y-179416897D01*
X198336856Y-179416897D02*
X198237913Y-179080109D01*
X198237913Y-179080109D02*
X198152186Y-178733373D01*
X198152186Y-178733373D02*
X198080237Y-178380656D01*
X198080237Y-178380656D02*
X198022628Y-178025926D01*
X198022628Y-178025926D02*
X197979923Y-177673153D01*
X197979923Y-177673153D02*
X197952685Y-177326305D01*
X197952685Y-177326305D02*
X197941475Y-176989350D01*
X197941475Y-176989350D02*
X197946857Y-176666256D01*
X197946857Y-176666256D02*
X197969393Y-176360994D01*
X197969393Y-176360994D02*
X198009647Y-176077530D01*
X198009647Y-176077530D02*
X198068181Y-175819833D01*
X198068181Y-175819833D02*
X198145557Y-175591872D01*
X198145557Y-175591872D02*
X198220780Y-175413078D01*
X198220780Y-175413078D02*
X198252555Y-175341822D01*
X198252555Y-175341822D02*
X198280744Y-175282520D01*
X198280744Y-175282520D02*
X198305578Y-175235067D01*
X198305578Y-175235067D02*
X198327286Y-175199358D01*
X198327286Y-175199358D02*
X198337039Y-175185875D01*
X198337039Y-175185875D02*
X198346097Y-175175289D01*
X198346097Y-175175289D02*
X198354488Y-175167586D01*
X198354488Y-175167586D02*
X198362241Y-175162754D01*
X198362241Y-175162754D02*
X198369384Y-175160779D01*
X198369384Y-175160779D02*
X198375947Y-175161648D01*
X198375947Y-175161648D02*
X198381957Y-175165348D01*
X198381957Y-175165348D02*
X198387445Y-175171867D01*
X198387445Y-175171867D02*
X198392437Y-175181190D01*
X198392437Y-175181190D02*
X198396964Y-175193306D01*
X198396964Y-175193306D02*
X198404733Y-175225859D01*
X198404733Y-175225859D02*
X198410983Y-175269422D01*
X198410983Y-175269422D02*
X198415943Y-175323891D01*
X198415943Y-175323891D02*
X198419841Y-175389159D01*
X198419841Y-175389159D02*
X198422908Y-175465123D01*
X198422908Y-175465123D02*
X198427964Y-175541253D01*
X198427964Y-175541253D02*
X198438001Y-175620054D01*
X198438001Y-175620054D02*
X198472319Y-175784669D01*
X198472319Y-175784669D02*
X198524465Y-175956970D01*
X198524465Y-175956970D02*
X198593040Y-176134961D01*
X198593040Y-176134961D02*
X198676647Y-176316644D01*
X198676647Y-176316644D02*
X198773889Y-176500024D01*
X198773889Y-176500024D02*
X198883367Y-176683102D01*
X198883367Y-176683102D02*
X199003684Y-176863883D01*
X199003684Y-176863883D02*
X199133442Y-177040369D01*
X199133442Y-177040369D02*
X199271243Y-177210563D01*
X199271243Y-177210563D02*
X199415690Y-177372469D01*
X199415690Y-177372469D02*
X199565385Y-177524090D01*
X199565385Y-177524090D02*
X199718930Y-177663428D01*
X199718930Y-177663428D02*
X199874927Y-177788487D01*
X199874927Y-177788487D02*
X200031979Y-177897270D01*
X200031979Y-177897270D02*
X200188688Y-177987780D01*
X200188688Y-177987780D02*
X200382678Y-178079845D01*
X200382678Y-178079845D02*
X200581393Y-178158168D01*
X200581393Y-178158168D02*
X200784346Y-178222970D01*
X200784346Y-178222970D02*
X200991049Y-178274470D01*
X200991049Y-178274470D02*
X201201015Y-178312889D01*
X201201015Y-178312889D02*
X201413756Y-178338449D01*
X201413756Y-178338449D02*
X201628786Y-178351368D01*
X201628786Y-178351368D02*
X201845617Y-178351869D01*
X201845617Y-178351869D02*
X202063761Y-178340172D01*
X202063761Y-178340172D02*
X202282732Y-178316496D01*
X202282732Y-178316496D02*
X202502042Y-178281063D01*
X202502042Y-178281063D02*
X202721203Y-178234093D01*
X202721203Y-178234093D02*
X202939729Y-178175807D01*
X202939729Y-178175807D02*
X203157132Y-178106426D01*
X203157132Y-178106426D02*
X203372924Y-178026169D01*
X203372924Y-178026169D02*
X203586619Y-177935257D01*
X203586619Y-177935257D02*
X203797729Y-177833912D01*
X203797729Y-177833912D02*
X204005766Y-177722353D01*
X204005766Y-177722353D02*
X204210244Y-177600802D01*
X204210244Y-177600802D02*
X204410675Y-177469477D01*
X204410675Y-177469477D02*
X204606571Y-177328601D01*
X204606571Y-177328601D02*
X204797446Y-177178394D01*
X204797446Y-177178394D02*
X204982812Y-177019076D01*
X204982812Y-177019076D02*
X205162181Y-176850868D01*
X205162181Y-176850868D02*
X205335067Y-176673991D01*
X205335067Y-176673991D02*
X205500982Y-176488664D01*
X205500982Y-176488664D02*
X205659438Y-176295109D01*
X205659438Y-176295109D02*
X205809949Y-176093546D01*
X205809949Y-176093546D02*
X205952027Y-175884196D01*
X205952027Y-175884196D02*
X206085185Y-175667279D01*
X206085185Y-175667279D02*
X206208935Y-175443015D01*
X206208935Y-175443015D02*
X206322790Y-175211626D01*
X206322790Y-175211626D02*
X206472210Y-174835442D01*
X206472210Y-174835442D02*
X206590818Y-174424862D01*
X206590818Y-174424862D02*
X206679520Y-173986903D01*
X206679520Y-173986903D02*
X206739217Y-173528579D01*
X206739217Y-173528579D02*
X206770813Y-173056903D01*
X206770813Y-173056903D02*
X206775212Y-172578892D01*
X206775212Y-172578892D02*
X206753318Y-172101561D01*
X206753318Y-172101561D02*
X206706032Y-171631923D01*
X206706032Y-171631923D02*
X206634260Y-171176993D01*
X206634260Y-171176993D02*
X206538904Y-170743787D01*
X206538904Y-170743787D02*
X206420867Y-170339320D01*
X206420867Y-170339320D02*
X206281053Y-169970605D01*
X206281053Y-169970605D02*
X206120366Y-169644658D01*
X206120366Y-169644658D02*
X206032477Y-169499915D01*
X206032477Y-169499915D02*
X205939709Y-169368494D01*
X205939709Y-169368494D02*
X205842174Y-169251273D01*
X205842174Y-169251273D02*
X205739985Y-169149127D01*
X205739985Y-169149127D02*
X205633255Y-169062935D01*
X205633255Y-169062935D02*
X205522097Y-168993573D01*
X205522097Y-168993573D02*
X205470435Y-168968503D01*
X205470435Y-168968503D02*
X205410764Y-168944136D01*
X205410764Y-168944136D02*
X205343798Y-168920598D01*
X205343798Y-168920598D02*
X205270248Y-168898016D01*
X205270248Y-168898016D02*
X205190826Y-168876515D01*
X205190826Y-168876515D02*
X205106245Y-168856222D01*
X205106245Y-168856222D02*
X205017216Y-168837262D01*
X205017216Y-168837262D02*
X204924452Y-168819763D01*
X204924452Y-168819763D02*
X204828664Y-168803850D01*
X204828664Y-168803850D02*
X204730566Y-168789649D01*
X204730566Y-168789649D02*
X204630869Y-168777287D01*
X204630869Y-168777287D02*
X204530284Y-168766890D01*
X204530284Y-168766890D02*
X204429525Y-168758583D01*
X204429525Y-168758583D02*
X204329303Y-168752494D01*
X204329303Y-168752494D02*
X204230331Y-168748748D01*
X204230331Y-168748748D02*
X204133320Y-168747471D01*
X204133320Y-168747471D02*
X204032170Y-168749774D01*
X204032170Y-168749774D02*
X203932280Y-168756749D01*
X203932280Y-168756749D02*
X203833546Y-168768492D01*
X203833546Y-168768492D02*
X203735861Y-168785100D01*
X203735861Y-168785100D02*
X203639121Y-168806668D01*
X203639121Y-168806668D02*
X203543219Y-168833294D01*
X203543219Y-168833294D02*
X203448051Y-168865074D01*
X203448051Y-168865074D02*
X203353510Y-168902105D01*
X203353510Y-168902105D02*
X203259492Y-168944483D01*
X203259492Y-168944483D02*
X203165891Y-168992305D01*
X203165891Y-168992305D02*
X203072601Y-169045668D01*
X203072601Y-169045668D02*
X202979516Y-169104667D01*
X202979516Y-169104667D02*
X202886533Y-169169399D01*
X202886533Y-169169399D02*
X202793544Y-169239962D01*
X202793544Y-169239962D02*
X202700445Y-169316452D01*
X202700445Y-169316452D02*
X202607130Y-169398964D01*
X202607130Y-169398964D02*
X202513493Y-169487596D01*
X202513493Y-169487596D02*
X202419430Y-169582444D01*
X202419430Y-169582444D02*
X202229601Y-169791176D01*
X202229601Y-169791176D02*
X202036798Y-170025931D01*
X202036798Y-170025931D02*
X201840179Y-170287482D01*
X201840179Y-170287482D02*
X201638899Y-170576601D01*
X201638899Y-170576601D02*
X201432115Y-170894061D01*
X201432115Y-170894061D02*
X201218982Y-171240634D01*
X201218982Y-171240634D02*
X200998657Y-171617093D01*
X200998657Y-171617093D02*
X200831456Y-171896381D01*
X200831456Y-171896381D02*
X200644127Y-172186938D01*
X200644127Y-172186938D02*
X200443014Y-172480259D01*
X200443014Y-172480259D02*
X200234456Y-172767839D01*
X200234456Y-172767839D02*
X200024796Y-173041173D01*
X200024796Y-173041173D02*
X199820374Y-173291756D01*
X199820374Y-173291756D02*
X199627532Y-173511083D01*
X199627532Y-173511083D02*
X199537435Y-173606368D01*
X199537435Y-173606368D02*
X199452611Y-173690649D01*
X199452611Y-173690649D02*
X199324458Y-173811184D01*
X199324458Y-173811184D02*
X199204626Y-173918445D01*
X199204626Y-173918445D02*
X199090736Y-174013191D01*
X199090736Y-174013191D02*
X198980412Y-174096180D01*
X198980412Y-174096180D02*
X198925844Y-174133503D01*
X198925844Y-174133503D02*
X198871277Y-174168171D01*
X198871277Y-174168171D02*
X198816412Y-174200280D01*
X198816412Y-174200280D02*
X198760954Y-174229923D01*
X198760954Y-174229923D02*
X198704604Y-174257196D01*
X198704604Y-174257196D02*
X198647065Y-174282194D01*
X198647065Y-174282194D02*
X198588041Y-174305011D01*
X198588041Y-174305011D02*
X198527235Y-174325742D01*
X198527235Y-174325742D02*
X198464349Y-174344483D01*
X198464349Y-174344483D02*
X198399085Y-174361327D01*
X198399085Y-174361327D02*
X198331148Y-174376369D01*
X198331148Y-174376369D02*
X198260240Y-174389705D01*
X198260240Y-174389705D02*
X198186064Y-174401430D01*
X198186064Y-174401430D02*
X198108322Y-174411637D01*
X198108322Y-174411637D02*
X197940953Y-174427880D01*
X197940953Y-174427880D02*
X197755758Y-174439194D01*
X197755758Y-174439194D02*
X197550359Y-174446335D01*
X197550359Y-174446335D02*
X197322379Y-174450064D01*
X197322379Y-174450064D02*
X197069441Y-174451139D01*
X197069441Y-174451139D02*
X195480627Y-174451139D01*
X195480627Y-174451139D02*
X195994186Y-175591872D01*
X195994186Y-175591872D02*
X196123000Y-175909474D01*
X196123000Y-175909474D02*
X196233809Y-176247970D01*
X196233809Y-176247970D02*
X196326654Y-176604346D01*
X196326654Y-176604346D02*
X196401574Y-176975587D01*
X196401574Y-176975587D02*
X196458608Y-177358678D01*
X196458608Y-177358678D02*
X196497796Y-177750605D01*
X196497796Y-177750605D02*
X196519178Y-178148352D01*
X196519178Y-178148352D02*
X196522792Y-178548906D01*
X196522792Y-178548906D02*
X196508680Y-178949252D01*
X196508680Y-178949252D02*
X196476879Y-179346374D01*
X196476879Y-179346374D02*
X196427430Y-179737258D01*
X196427430Y-179737258D02*
X196360372Y-180118889D01*
X196360372Y-180118889D02*
X196275745Y-180488253D01*
X196275745Y-180488253D02*
X196173589Y-180842334D01*
X196173589Y-180842334D02*
X196053942Y-181178119D01*
X196053942Y-181178119D02*
X195916844Y-181492592D01*
X195916844Y-181492592D02*
X195777735Y-181760107D01*
X195777735Y-181760107D02*
X195619280Y-182026412D01*
X195619280Y-182026412D02*
X195443268Y-182289881D01*
X195443268Y-182289881D02*
X195251486Y-182548889D01*
X195251486Y-182548889D02*
X195045721Y-182801810D01*
X195045721Y-182801810D02*
X194827761Y-183047019D01*
X194827761Y-183047019D02*
X194599393Y-183282890D01*
X194599393Y-183282890D02*
X194362405Y-183507798D01*
X194362405Y-183507798D02*
X194118585Y-183720117D01*
X194118585Y-183720117D02*
X193869720Y-183918222D01*
X193869720Y-183918222D02*
X193617597Y-184100488D01*
X193617597Y-184100488D02*
X193364005Y-184265289D01*
X193364005Y-184265289D02*
X193110730Y-184410999D01*
X193110730Y-184410999D02*
X192859560Y-184535993D01*
X192859560Y-184535993D02*
X192612283Y-184638646D01*
X192612283Y-184638646D02*
X192370685Y-184717331D01*
X192370685Y-184717331D02*
X192130146Y-184777200D01*
X192130146Y-184777200D02*
X191873862Y-184828031D01*
X191873862Y-184828031D02*
X191604301Y-184869880D01*
X191604301Y-184869880D02*
X191323932Y-184902800D01*
X191323932Y-184902800D02*
X191035223Y-184926847D01*
X191035223Y-184926847D02*
X190740642Y-184942074D01*
X190740642Y-184942074D02*
X190442657Y-184948537D01*
X190442657Y-184948537D02*
X190143735Y-184946289D01*
X190143735Y-184946289D02*
X189846346Y-184935385D01*
X189846346Y-184935385D02*
X189552956Y-184915879D01*
X189552956Y-184915879D02*
X189266035Y-184887827D01*
X189266035Y-184887827D02*
X188988050Y-184851282D01*
X188988050Y-184851282D02*
X188721469Y-184806298D01*
X188721469Y-184806298D02*
X188468760Y-184752931D01*
X188468760Y-184752931D02*
X188232392Y-184691234D01*
X188232392Y-184691234D02*
X188014832Y-184621263D01*
X188014832Y-184621263D02*
X188014832Y-184621263D01*
G36*
X191160391Y-162675172D02*
G01*
X191612676Y-162718336D01*
X192038124Y-162793301D01*
X192432310Y-162901038D01*
X192602580Y-162962906D01*
X192769772Y-163034890D01*
X192933663Y-163116592D01*
X193094031Y-163207617D01*
X193250652Y-163307565D01*
X193403304Y-163416039D01*
X193551765Y-163532643D01*
X193695811Y-163656978D01*
X193835220Y-163788648D01*
X193969770Y-163927255D01*
X194099236Y-164072402D01*
X194223397Y-164223691D01*
X194342031Y-164380725D01*
X194454913Y-164543106D01*
X194561822Y-164710437D01*
X194662535Y-164882321D01*
X194756829Y-165058361D01*
X194844481Y-165238158D01*
X194925269Y-165421316D01*
X194998969Y-165607437D01*
X195065360Y-165796123D01*
X195124219Y-165986979D01*
X195175322Y-166179605D01*
X195218447Y-166373604D01*
X195253371Y-166568580D01*
X195279872Y-166764135D01*
X195297727Y-166959871D01*
X195306713Y-167155392D01*
X195306608Y-167350299D01*
X195297188Y-167544195D01*
X195278231Y-167736683D01*
X195249514Y-167927365D01*
X195194249Y-168189744D01*
X195120588Y-168462142D01*
X195030149Y-168741735D01*
X194924547Y-169025701D01*
X194805397Y-169311217D01*
X194674317Y-169595461D01*
X194532922Y-169875610D01*
X194382827Y-170148841D01*
X194225650Y-170412332D01*
X194063006Y-170663259D01*
X193896511Y-170898800D01*
X193727781Y-171116133D01*
X193558432Y-171312434D01*
X193390080Y-171484881D01*
X193224341Y-171630652D01*
X193062831Y-171746923D01*
X192332178Y-172209539D01*
X193341422Y-172664643D01*
X193500276Y-172733132D01*
X193655375Y-172793537D01*
X193806879Y-172845765D01*
X193954947Y-172889728D01*
X194099740Y-172925335D01*
X194241417Y-172952495D01*
X194380138Y-172971120D01*
X194516062Y-172981118D01*
X194649349Y-172982399D01*
X194780158Y-172974873D01*
X194908650Y-172958451D01*
X195034984Y-172933042D01*
X195159319Y-172898555D01*
X195281816Y-172854902D01*
X195402633Y-172801990D01*
X195521932Y-172739731D01*
X195639870Y-172668034D01*
X195756608Y-172586810D01*
X195872306Y-172495967D01*
X195987123Y-172395416D01*
X196101219Y-172285067D01*
X196214754Y-172164829D01*
X196327887Y-172034612D01*
X196440777Y-171894327D01*
X196553586Y-171743882D01*
X196666471Y-171583189D01*
X196893112Y-171230693D01*
X197121977Y-170836120D01*
X197354345Y-170398747D01*
X197672314Y-169792549D01*
X197979095Y-169242799D01*
X198277759Y-168747100D01*
X198571378Y-168303052D01*
X198863022Y-167908256D01*
X199155761Y-167560314D01*
X199303502Y-167403164D01*
X199452668Y-167256827D01*
X199603643Y-167121005D01*
X199756812Y-166995397D01*
X199912559Y-166879703D01*
X200071266Y-166773623D01*
X200233318Y-166676858D01*
X200399099Y-166589108D01*
X200568992Y-166510073D01*
X200743382Y-166439453D01*
X200922653Y-166376949D01*
X201107187Y-166322259D01*
X201493585Y-166235128D01*
X201905646Y-166175660D01*
X202346441Y-166141456D01*
X202819042Y-166130119D01*
X203038101Y-166131395D01*
X203240621Y-166136234D01*
X203428415Y-166145172D01*
X203603293Y-166158741D01*
X203767068Y-166177476D01*
X203921551Y-166201911D01*
X204068556Y-166232580D01*
X204209893Y-166270016D01*
X204347375Y-166314755D01*
X204482813Y-166367330D01*
X204618020Y-166428276D01*
X204754808Y-166498125D01*
X204894988Y-166577412D01*
X205040372Y-166666672D01*
X205192773Y-166766438D01*
X205354002Y-166877244D01*
X205558494Y-167027454D01*
X205756995Y-167187169D01*
X205949421Y-167356163D01*
X206135688Y-167534210D01*
X206315710Y-167721085D01*
X206489404Y-167916564D01*
X206656684Y-168120420D01*
X206817467Y-168332429D01*
X206971667Y-168552365D01*
X207119200Y-168780003D01*
X207259983Y-169015118D01*
X207393929Y-169257483D01*
X207640976Y-169763068D01*
X207859665Y-170294955D01*
X208049321Y-170851342D01*
X208209267Y-171430425D01*
X208338826Y-172030404D01*
X208437324Y-172649476D01*
X208504083Y-173285838D01*
X208538428Y-173937688D01*
X208539682Y-174603224D01*
X208507170Y-175280644D01*
X208422832Y-176123856D01*
X208296276Y-176923101D01*
X208128627Y-177676938D01*
X207921008Y-178383930D01*
X207674545Y-179042635D01*
X207390361Y-179651614D01*
X207069580Y-180209428D01*
X206713328Y-180714636D01*
X206522250Y-180947064D01*
X206322727Y-181165800D01*
X206114897Y-181370665D01*
X205898903Y-181561480D01*
X205674883Y-181738063D01*
X205442979Y-181900235D01*
X205203331Y-182047817D01*
X204956080Y-182180627D01*
X204701366Y-182298487D01*
X204439330Y-182401216D01*
X204170112Y-182488634D01*
X203893853Y-182560561D01*
X203610694Y-182616818D01*
X203320775Y-182657225D01*
X203024236Y-182681600D01*
X202721218Y-182689766D01*
X202392483Y-182682345D01*
X202078093Y-182659868D01*
X201777460Y-182622016D01*
X201489996Y-182568469D01*
X201215113Y-182498907D01*
X200952222Y-182413009D01*
X200700735Y-182310456D01*
X200460065Y-182190927D01*
X200229623Y-182054103D01*
X200008821Y-181899664D01*
X199797072Y-181727289D01*
X199593786Y-181536658D01*
X199398377Y-181327453D01*
X199210255Y-181099352D01*
X199028833Y-180852035D01*
X198853523Y-180585183D01*
X198707347Y-180327878D01*
X198572136Y-180044750D01*
X198448451Y-179739766D01*
X198336856Y-179416897D01*
X198237913Y-179080109D01*
X198152186Y-178733373D01*
X198080237Y-178380656D01*
X198022628Y-178025926D01*
X197979923Y-177673153D01*
X197952685Y-177326305D01*
X197941475Y-176989350D01*
X197946857Y-176666256D01*
X197969393Y-176360994D01*
X198009647Y-176077530D01*
X198068181Y-175819833D01*
X198145557Y-175591872D01*
X198220780Y-175413078D01*
X198252555Y-175341822D01*
X198280744Y-175282520D01*
X198305578Y-175235067D01*
X198327286Y-175199358D01*
X198337039Y-175185875D01*
X198346097Y-175175289D01*
X198354488Y-175167586D01*
X198362241Y-175162754D01*
X198369384Y-175160779D01*
X198375947Y-175161648D01*
X198381957Y-175165348D01*
X198387445Y-175171867D01*
X198392437Y-175181190D01*
X198396964Y-175193306D01*
X198404733Y-175225859D01*
X198410983Y-175269422D01*
X198415943Y-175323891D01*
X198419841Y-175389159D01*
X198422908Y-175465123D01*
X198427964Y-175541253D01*
X198438001Y-175620054D01*
X198472319Y-175784669D01*
X198524465Y-175956970D01*
X198593040Y-176134961D01*
X198676647Y-176316644D01*
X198773889Y-176500024D01*
X198883367Y-176683102D01*
X199003684Y-176863883D01*
X199133442Y-177040369D01*
X199271243Y-177210563D01*
X199415690Y-177372469D01*
X199565385Y-177524090D01*
X199718930Y-177663428D01*
X199874927Y-177788487D01*
X200031979Y-177897270D01*
X200188688Y-177987780D01*
X200382678Y-178079845D01*
X200581393Y-178158168D01*
X200784346Y-178222970D01*
X200991049Y-178274470D01*
X201201015Y-178312889D01*
X201413756Y-178338449D01*
X201628786Y-178351368D01*
X201845617Y-178351869D01*
X202063761Y-178340172D01*
X202282732Y-178316496D01*
X202502042Y-178281063D01*
X202721203Y-178234093D01*
X202939729Y-178175807D01*
X203157132Y-178106426D01*
X203372924Y-178026169D01*
X203586619Y-177935257D01*
X203797729Y-177833912D01*
X204005766Y-177722353D01*
X204210244Y-177600802D01*
X204410675Y-177469477D01*
X204606571Y-177328601D01*
X204797446Y-177178394D01*
X204982812Y-177019076D01*
X205162181Y-176850868D01*
X205335067Y-176673991D01*
X205500982Y-176488664D01*
X205659438Y-176295109D01*
X205809949Y-176093546D01*
X205952027Y-175884196D01*
X206085185Y-175667279D01*
X206208935Y-175443015D01*
X206322790Y-175211626D01*
X206472210Y-174835442D01*
X206590818Y-174424862D01*
X206679520Y-173986903D01*
X206739217Y-173528579D01*
X206770813Y-173056903D01*
X206775212Y-172578892D01*
X206753318Y-172101561D01*
X206706032Y-171631923D01*
X206634260Y-171176993D01*
X206538904Y-170743787D01*
X206420867Y-170339320D01*
X206281053Y-169970605D01*
X206120366Y-169644658D01*
X206032477Y-169499915D01*
X205939709Y-169368494D01*
X205842174Y-169251273D01*
X205739985Y-169149127D01*
X205633255Y-169062935D01*
X205522097Y-168993573D01*
X205470435Y-168968503D01*
X205410764Y-168944136D01*
X205343798Y-168920598D01*
X205270248Y-168898016D01*
X205190826Y-168876515D01*
X205106245Y-168856222D01*
X205017216Y-168837262D01*
X204924452Y-168819763D01*
X204828664Y-168803850D01*
X204730566Y-168789649D01*
X204630869Y-168777287D01*
X204530284Y-168766890D01*
X204429525Y-168758583D01*
X204329303Y-168752494D01*
X204230331Y-168748748D01*
X204133320Y-168747471D01*
X204032170Y-168749774D01*
X203932280Y-168756749D01*
X203833546Y-168768492D01*
X203735861Y-168785100D01*
X203639121Y-168806668D01*
X203543219Y-168833294D01*
X203448051Y-168865074D01*
X203353510Y-168902105D01*
X203259492Y-168944483D01*
X203165891Y-168992305D01*
X203072601Y-169045668D01*
X202979516Y-169104667D01*
X202886533Y-169169399D01*
X202793544Y-169239962D01*
X202700445Y-169316452D01*
X202607130Y-169398964D01*
X202513493Y-169487596D01*
X202419430Y-169582444D01*
X202229601Y-169791176D01*
X202036798Y-170025931D01*
X201840179Y-170287482D01*
X201638899Y-170576601D01*
X201432115Y-170894061D01*
X201218982Y-171240634D01*
X200998657Y-171617093D01*
X200831456Y-171896381D01*
X200644127Y-172186938D01*
X200443014Y-172480259D01*
X200234456Y-172767839D01*
X200024796Y-173041173D01*
X199820374Y-173291756D01*
X199627532Y-173511083D01*
X199537435Y-173606368D01*
X199452611Y-173690649D01*
X199324458Y-173811184D01*
X199204626Y-173918445D01*
X199090736Y-174013191D01*
X198980412Y-174096180D01*
X198925844Y-174133503D01*
X198871277Y-174168171D01*
X198816412Y-174200280D01*
X198760954Y-174229923D01*
X198704604Y-174257196D01*
X198647065Y-174282194D01*
X198588041Y-174305011D01*
X198527235Y-174325742D01*
X198464349Y-174344483D01*
X198399085Y-174361327D01*
X198331148Y-174376369D01*
X198260240Y-174389705D01*
X198186064Y-174401430D01*
X198108322Y-174411637D01*
X197940953Y-174427880D01*
X197755758Y-174439194D01*
X197550359Y-174446335D01*
X197322379Y-174450064D01*
X197069441Y-174451139D01*
X195480627Y-174451139D01*
X195994186Y-175591872D01*
X196123000Y-175909474D01*
X196233809Y-176247970D01*
X196326654Y-176604346D01*
X196401574Y-176975587D01*
X196458608Y-177358678D01*
X196497796Y-177750605D01*
X196519178Y-178148352D01*
X196522792Y-178548906D01*
X196508680Y-178949252D01*
X196476879Y-179346374D01*
X196427430Y-179737258D01*
X196360372Y-180118889D01*
X196275745Y-180488253D01*
X196173589Y-180842334D01*
X196053942Y-181178119D01*
X195916844Y-181492592D01*
X195777735Y-181760107D01*
X195619280Y-182026412D01*
X195443268Y-182289881D01*
X195251486Y-182548889D01*
X195045721Y-182801810D01*
X194827761Y-183047019D01*
X194599393Y-183282890D01*
X194362405Y-183507798D01*
X194118585Y-183720117D01*
X193869720Y-183918222D01*
X193617597Y-184100488D01*
X193364005Y-184265289D01*
X193110730Y-184410999D01*
X192859560Y-184535993D01*
X192612283Y-184638646D01*
X192370685Y-184717331D01*
X192130146Y-184777200D01*
X191873862Y-184828031D01*
X191604301Y-184869880D01*
X191323932Y-184902800D01*
X191035223Y-184926847D01*
X190740642Y-184942074D01*
X190442657Y-184948537D01*
X190143735Y-184946289D01*
X189846346Y-184935385D01*
X189552956Y-184915879D01*
X189266035Y-184887827D01*
X188988050Y-184851282D01*
X188721469Y-184806298D01*
X188468760Y-184752931D01*
X188232392Y-184691234D01*
X188014832Y-184621263D01*
X187729629Y-184513698D01*
X187449443Y-184396683D01*
X186904493Y-184134758D01*
X186380723Y-183836394D01*
X185878873Y-183502500D01*
X185399684Y-183133980D01*
X184943895Y-182731742D01*
X184512248Y-182296692D01*
X184105482Y-181829738D01*
X183724338Y-181331786D01*
X183369557Y-180803742D01*
X183041878Y-180246513D01*
X182742042Y-179661006D01*
X182470789Y-179048128D01*
X182228861Y-178408786D01*
X182016996Y-177743885D01*
X181835936Y-177054333D01*
X181764270Y-176723884D01*
X181699566Y-176373202D01*
X181591968Y-175634071D01*
X181514993Y-174882809D01*
X181470492Y-174165283D01*
X181460318Y-173527362D01*
X181468681Y-173252588D01*
X181486319Y-173014915D01*
X181513464Y-172820078D01*
X181550348Y-172673810D01*
X181597201Y-172581845D01*
X181624439Y-172558017D01*
X181654255Y-172549916D01*
X181665126Y-172552153D01*
X181677034Y-172558793D01*
X181689938Y-172569725D01*
X181703796Y-172584839D01*
X181718565Y-172604027D01*
X181734204Y-172627178D01*
X181767925Y-172684932D01*
X181804621Y-172757223D01*
X181843957Y-172843175D01*
X181885599Y-172941910D01*
X181929210Y-173052551D01*
X181974455Y-173174220D01*
X182020998Y-173306041D01*
X182068504Y-173447136D01*
X182116637Y-173596627D01*
X182165062Y-173753638D01*
X182213443Y-173917291D01*
X182261445Y-174086710D01*
X182308732Y-174261016D01*
X182415601Y-174645492D01*
X182530895Y-175025819D01*
X182654003Y-175400727D01*
X182784314Y-175768946D01*
X182921217Y-176129205D01*
X183064100Y-176480235D01*
X183212352Y-176820764D01*
X183365362Y-177149524D01*
X183522518Y-177465243D01*
X183683209Y-177766653D01*
X183846824Y-178052481D01*
X184012752Y-178321460D01*
X184180381Y-178572317D01*
X184349101Y-178803783D01*
X184518299Y-179014589D01*
X184687364Y-179203463D01*
X184833905Y-179348043D01*
X184992694Y-179486904D01*
X185163040Y-179619931D01*
X185344249Y-179747007D01*
X185736495Y-179982852D01*
X186163897Y-180193519D01*
X186620920Y-180378086D01*
X187102032Y-180535635D01*
X187601696Y-180665245D01*
X188114380Y-180765995D01*
X188634549Y-180836967D01*
X189156668Y-180877239D01*
X189675204Y-180885891D01*
X190184622Y-180862004D01*
X190679387Y-180804657D01*
X191153967Y-180712929D01*
X191381957Y-180653886D01*
X191602825Y-180585902D01*
X191815880Y-180508863D01*
X192020429Y-180422654D01*
X192173367Y-180348887D01*
X192320439Y-180269230D01*
X192461572Y-180183883D01*
X192596689Y-180093045D01*
X192725717Y-179996915D01*
X192848580Y-179895693D01*
X192965204Y-179789577D01*
X193075513Y-179678767D01*
X193179433Y-179563462D01*
X193276889Y-179443861D01*
X193367807Y-179320164D01*
X193452110Y-179192569D01*
X193529725Y-179061275D01*
X193600576Y-178926482D01*
X193664590Y-178788389D01*
X193721690Y-178647196D01*
X193771802Y-178503100D01*
X193814851Y-178356302D01*
X193850763Y-178207000D01*
X193879462Y-178055395D01*
X193900874Y-177901684D01*
X193914924Y-177746067D01*
X193921536Y-177588744D01*
X193920637Y-177429913D01*
X193912151Y-177269773D01*
X193896004Y-177108525D01*
X193872120Y-176946366D01*
X193840425Y-176783497D01*
X193800843Y-176620115D01*
X193753301Y-176456422D01*
X193697723Y-176292614D01*
X193634034Y-176128893D01*
X193579577Y-176005090D01*
X193520897Y-175886521D01*
X193457925Y-175773162D01*
X193390588Y-175664988D01*
X193318818Y-175561973D01*
X193242544Y-175464092D01*
X193161694Y-175371320D01*
X193076200Y-175283633D01*
X192985990Y-175201004D01*
X192890993Y-175123410D01*
X192791141Y-175050825D01*
X192686361Y-174983223D01*
X192576584Y-174920581D01*
X192461739Y-174862872D01*
X192341757Y-174810072D01*
X192216565Y-174762156D01*
X192086095Y-174719099D01*
X191950275Y-174680875D01*
X191809035Y-174647459D01*
X191662305Y-174618828D01*
X191510014Y-174594954D01*
X191352093Y-174575814D01*
X191188469Y-174561382D01*
X191019074Y-174551634D01*
X190843836Y-174546543D01*
X190662686Y-174546086D01*
X190475552Y-174550237D01*
X190282364Y-174558971D01*
X190083053Y-174572262D01*
X189877547Y-174590087D01*
X189665776Y-174612420D01*
X189447669Y-174639235D01*
X189384608Y-174566924D01*
X189311127Y-174477302D01*
X189214429Y-174352718D01*
X189098078Y-174193683D01*
X188965636Y-174000707D01*
X188820667Y-173774303D01*
X188666734Y-173514982D01*
X188507400Y-173223256D01*
X188426821Y-173065400D01*
X188346228Y-172899634D01*
X188266066Y-172726022D01*
X188186782Y-172544629D01*
X188108819Y-172355518D01*
X188032623Y-172158752D01*
X187958641Y-171954396D01*
X187887316Y-171742514D01*
X187819096Y-171523170D01*
X187754424Y-171296427D01*
X187693747Y-171062350D01*
X187637509Y-170821002D01*
X187586157Y-170572447D01*
X187540135Y-170316750D01*
X189022937Y-170451205D01*
X189352620Y-170475061D01*
X189671741Y-170485958D01*
X189979989Y-170483989D01*
X190277055Y-170469243D01*
X190562631Y-170441811D01*
X190836406Y-170401784D01*
X191098072Y-170349252D01*
X191347320Y-170284305D01*
X191583841Y-170207034D01*
X191807325Y-170117530D01*
X192017463Y-170015883D01*
X192213946Y-169902184D01*
X192396465Y-169776523D01*
X192564710Y-169638991D01*
X192718373Y-169489678D01*
X192857144Y-169328675D01*
X192972568Y-169177668D01*
X193072178Y-169037153D01*
X193155907Y-168905608D01*
X193191795Y-168842723D01*
X193223688Y-168781508D01*
X193251577Y-168721774D01*
X193275454Y-168663331D01*
X193295311Y-168605986D01*
X193311138Y-168549551D01*
X193322929Y-168493834D01*
X193330673Y-168438646D01*
X193334364Y-168383795D01*
X193333993Y-168329092D01*
X193329550Y-168274345D01*
X193321029Y-168219365D01*
X193308419Y-168163960D01*
X193291714Y-168107941D01*
X193270905Y-168051117D01*
X193245983Y-167993297D01*
X193216940Y-167934292D01*
X193183768Y-167873910D01*
X193146457Y-167811961D01*
X193105001Y-167748254D01*
X193009616Y-167614808D01*
X192897546Y-167472046D01*
X192768724Y-167318446D01*
X192667225Y-167207861D01*
X192560601Y-167106325D01*
X192448651Y-167013872D01*
X192331173Y-166930534D01*
X192207964Y-166856344D01*
X192078822Y-166791336D01*
X191943547Y-166735542D01*
X191801934Y-166688997D01*
X191653784Y-166651732D01*
X191498893Y-166623781D01*
X191337060Y-166605178D01*
X191168083Y-166595955D01*
X190991760Y-166596145D01*
X190807888Y-166605782D01*
X190616267Y-166624898D01*
X190416693Y-166653528D01*
X190208966Y-166691703D01*
X189992883Y-166739457D01*
X189768242Y-166796824D01*
X189534841Y-166863836D01*
X189292478Y-166940526D01*
X189040952Y-167026928D01*
X188509600Y-167228999D01*
X187939170Y-167470313D01*
X187328046Y-167751136D01*
X186674613Y-168071733D01*
X185977254Y-168432368D01*
X184040112Y-165185134D01*
X184852238Y-164565693D01*
X185250661Y-164283891D01*
X185679781Y-164021254D01*
X186135174Y-163778756D01*
X186612412Y-163557367D01*
X187107071Y-163358060D01*
X187614725Y-163181807D01*
X188130948Y-163029579D01*
X188651314Y-162902348D01*
X189171397Y-162801086D01*
X189686772Y-162726766D01*
X190193013Y-162680359D01*
X190685695Y-162662837D01*
X191160391Y-162675172D01*
G37*
X191160391Y-162675172D02*
X191612676Y-162718336D01*
X192038124Y-162793301D01*
X192432310Y-162901038D01*
X192602580Y-162962906D01*
X192769772Y-163034890D01*
X192933663Y-163116592D01*
X193094031Y-163207617D01*
X193250652Y-163307565D01*
X193403304Y-163416039D01*
X193551765Y-163532643D01*
X193695811Y-163656978D01*
X193835220Y-163788648D01*
X193969770Y-163927255D01*
X194099236Y-164072402D01*
X194223397Y-164223691D01*
X194342031Y-164380725D01*
X194454913Y-164543106D01*
X194561822Y-164710437D01*
X194662535Y-164882321D01*
X194756829Y-165058361D01*
X194844481Y-165238158D01*
X194925269Y-165421316D01*
X194998969Y-165607437D01*
X195065360Y-165796123D01*
X195124219Y-165986979D01*
X195175322Y-166179605D01*
X195218447Y-166373604D01*
X195253371Y-166568580D01*
X195279872Y-166764135D01*
X195297727Y-166959871D01*
X195306713Y-167155392D01*
X195306608Y-167350299D01*
X195297188Y-167544195D01*
X195278231Y-167736683D01*
X195249514Y-167927365D01*
X195194249Y-168189744D01*
X195120588Y-168462142D01*
X195030149Y-168741735D01*
X194924547Y-169025701D01*
X194805397Y-169311217D01*
X194674317Y-169595461D01*
X194532922Y-169875610D01*
X194382827Y-170148841D01*
X194225650Y-170412332D01*
X194063006Y-170663259D01*
X193896511Y-170898800D01*
X193727781Y-171116133D01*
X193558432Y-171312434D01*
X193390080Y-171484881D01*
X193224341Y-171630652D01*
X193062831Y-171746923D01*
X192332178Y-172209539D01*
X193341422Y-172664643D01*
X193500276Y-172733132D01*
X193655375Y-172793537D01*
X193806879Y-172845765D01*
X193954947Y-172889728D01*
X194099740Y-172925335D01*
X194241417Y-172952495D01*
X194380138Y-172971120D01*
X194516062Y-172981118D01*
X194649349Y-172982399D01*
X194780158Y-172974873D01*
X194908650Y-172958451D01*
X195034984Y-172933042D01*
X195159319Y-172898555D01*
X195281816Y-172854902D01*
X195402633Y-172801990D01*
X195521932Y-172739731D01*
X195639870Y-172668034D01*
X195756608Y-172586810D01*
X195872306Y-172495967D01*
X195987123Y-172395416D01*
X196101219Y-172285067D01*
X196214754Y-172164829D01*
X196327887Y-172034612D01*
X196440777Y-171894327D01*
X196553586Y-171743882D01*
X196666471Y-171583189D01*
X196893112Y-171230693D01*
X197121977Y-170836120D01*
X197354345Y-170398747D01*
X197672314Y-169792549D01*
X197979095Y-169242799D01*
X198277759Y-168747100D01*
X198571378Y-168303052D01*
X198863022Y-167908256D01*
X199155761Y-167560314D01*
X199303502Y-167403164D01*
X199452668Y-167256827D01*
X199603643Y-167121005D01*
X199756812Y-166995397D01*
X199912559Y-166879703D01*
X200071266Y-166773623D01*
X200233318Y-166676858D01*
X200399099Y-166589108D01*
X200568992Y-166510073D01*
X200743382Y-166439453D01*
X200922653Y-166376949D01*
X201107187Y-166322259D01*
X201493585Y-166235128D01*
X201905646Y-166175660D01*
X202346441Y-166141456D01*
X202819042Y-166130119D01*
X203038101Y-166131395D01*
X203240621Y-166136234D01*
X203428415Y-166145172D01*
X203603293Y-166158741D01*
X203767068Y-166177476D01*
X203921551Y-166201911D01*
X204068556Y-166232580D01*
X204209893Y-166270016D01*
X204347375Y-166314755D01*
X204482813Y-166367330D01*
X204618020Y-166428276D01*
X204754808Y-166498125D01*
X204894988Y-166577412D01*
X205040372Y-166666672D01*
X205192773Y-166766438D01*
X205354002Y-166877244D01*
X205558494Y-167027454D01*
X205756995Y-167187169D01*
X205949421Y-167356163D01*
X206135688Y-167534210D01*
X206315710Y-167721085D01*
X206489404Y-167916564D01*
X206656684Y-168120420D01*
X206817467Y-168332429D01*
X206971667Y-168552365D01*
X207119200Y-168780003D01*
X207259983Y-169015118D01*
X207393929Y-169257483D01*
X207640976Y-169763068D01*
X207859665Y-170294955D01*
X208049321Y-170851342D01*
X208209267Y-171430425D01*
X208338826Y-172030404D01*
X208437324Y-172649476D01*
X208504083Y-173285838D01*
X208538428Y-173937688D01*
X208539682Y-174603224D01*
X208507170Y-175280644D01*
X208422832Y-176123856D01*
X208296276Y-176923101D01*
X208128627Y-177676938D01*
X207921008Y-178383930D01*
X207674545Y-179042635D01*
X207390361Y-179651614D01*
X207069580Y-180209428D01*
X206713328Y-180714636D01*
X206522250Y-180947064D01*
X206322727Y-181165800D01*
X206114897Y-181370665D01*
X205898903Y-181561480D01*
X205674883Y-181738063D01*
X205442979Y-181900235D01*
X205203331Y-182047817D01*
X204956080Y-182180627D01*
X204701366Y-182298487D01*
X204439330Y-182401216D01*
X204170112Y-182488634D01*
X203893853Y-182560561D01*
X203610694Y-182616818D01*
X203320775Y-182657225D01*
X203024236Y-182681600D01*
X202721218Y-182689766D01*
X202392483Y-182682345D01*
X202078093Y-182659868D01*
X201777460Y-182622016D01*
X201489996Y-182568469D01*
X201215113Y-182498907D01*
X200952222Y-182413009D01*
X200700735Y-182310456D01*
X200460065Y-182190927D01*
X200229623Y-182054103D01*
X200008821Y-181899664D01*
X199797072Y-181727289D01*
X199593786Y-181536658D01*
X199398377Y-181327453D01*
X199210255Y-181099352D01*
X199028833Y-180852035D01*
X198853523Y-180585183D01*
X198707347Y-180327878D01*
X198572136Y-180044750D01*
X198448451Y-179739766D01*
X198336856Y-179416897D01*
X198237913Y-179080109D01*
X198152186Y-178733373D01*
X198080237Y-178380656D01*
X198022628Y-178025926D01*
X197979923Y-177673153D01*
X197952685Y-177326305D01*
X197941475Y-176989350D01*
X197946857Y-176666256D01*
X197969393Y-176360994D01*
X198009647Y-176077530D01*
X198068181Y-175819833D01*
X198145557Y-175591872D01*
X198220780Y-175413078D01*
X198252555Y-175341822D01*
X198280744Y-175282520D01*
X198305578Y-175235067D01*
X198327286Y-175199358D01*
X198337039Y-175185875D01*
X198346097Y-175175289D01*
X198354488Y-175167586D01*
X198362241Y-175162754D01*
X198369384Y-175160779D01*
X198375947Y-175161648D01*
X198381957Y-175165348D01*
X198387445Y-175171867D01*
X198392437Y-175181190D01*
X198396964Y-175193306D01*
X198404733Y-175225859D01*
X198410983Y-175269422D01*
X198415943Y-175323891D01*
X198419841Y-175389159D01*
X198422908Y-175465123D01*
X198427964Y-175541253D01*
X198438001Y-175620054D01*
X198472319Y-175784669D01*
X198524465Y-175956970D01*
X198593040Y-176134961D01*
X198676647Y-176316644D01*
X198773889Y-176500024D01*
X198883367Y-176683102D01*
X199003684Y-176863883D01*
X199133442Y-177040369D01*
X199271243Y-177210563D01*
X199415690Y-177372469D01*
X199565385Y-177524090D01*
X199718930Y-177663428D01*
X199874927Y-177788487D01*
X200031979Y-177897270D01*
X200188688Y-177987780D01*
X200382678Y-178079845D01*
X200581393Y-178158168D01*
X200784346Y-178222970D01*
X200991049Y-178274470D01*
X201201015Y-178312889D01*
X201413756Y-178338449D01*
X201628786Y-178351368D01*
X201845617Y-178351869D01*
X202063761Y-178340172D01*
X202282732Y-178316496D01*
X202502042Y-178281063D01*
X202721203Y-178234093D01*
X202939729Y-178175807D01*
X203157132Y-178106426D01*
X203372924Y-178026169D01*
X203586619Y-177935257D01*
X203797729Y-177833912D01*
X204005766Y-177722353D01*
X204210244Y-177600802D01*
X204410675Y-177469477D01*
X204606571Y-177328601D01*
X204797446Y-177178394D01*
X204982812Y-177019076D01*
X205162181Y-176850868D01*
X205335067Y-176673991D01*
X205500982Y-176488664D01*
X205659438Y-176295109D01*
X205809949Y-176093546D01*
X205952027Y-175884196D01*
X206085185Y-175667279D01*
X206208935Y-175443015D01*
X206322790Y-175211626D01*
X206472210Y-174835442D01*
X206590818Y-174424862D01*
X206679520Y-173986903D01*
X206739217Y-173528579D01*
X206770813Y-173056903D01*
X206775212Y-172578892D01*
X206753318Y-172101561D01*
X206706032Y-171631923D01*
X206634260Y-171176993D01*
X206538904Y-170743787D01*
X206420867Y-170339320D01*
X206281053Y-169970605D01*
X206120366Y-169644658D01*
X206032477Y-169499915D01*
X205939709Y-169368494D01*
X205842174Y-169251273D01*
X205739985Y-169149127D01*
X205633255Y-169062935D01*
X205522097Y-168993573D01*
X205470435Y-168968503D01*
X205410764Y-168944136D01*
X205343798Y-168920598D01*
X205270248Y-168898016D01*
X205190826Y-168876515D01*
X205106245Y-168856222D01*
X205017216Y-168837262D01*
X204924452Y-168819763D01*
X204828664Y-168803850D01*
X204730566Y-168789649D01*
X204630869Y-168777287D01*
X204530284Y-168766890D01*
X204429525Y-168758583D01*
X204329303Y-168752494D01*
X204230331Y-168748748D01*
X204133320Y-168747471D01*
X204032170Y-168749774D01*
X203932280Y-168756749D01*
X203833546Y-168768492D01*
X203735861Y-168785100D01*
X203639121Y-168806668D01*
X203543219Y-168833294D01*
X203448051Y-168865074D01*
X203353510Y-168902105D01*
X203259492Y-168944483D01*
X203165891Y-168992305D01*
X203072601Y-169045668D01*
X202979516Y-169104667D01*
X202886533Y-169169399D01*
X202793544Y-169239962D01*
X202700445Y-169316452D01*
X202607130Y-169398964D01*
X202513493Y-169487596D01*
X202419430Y-169582444D01*
X202229601Y-169791176D01*
X202036798Y-170025931D01*
X201840179Y-170287482D01*
X201638899Y-170576601D01*
X201432115Y-170894061D01*
X201218982Y-171240634D01*
X200998657Y-171617093D01*
X200831456Y-171896381D01*
X200644127Y-172186938D01*
X200443014Y-172480259D01*
X200234456Y-172767839D01*
X200024796Y-173041173D01*
X199820374Y-173291756D01*
X199627532Y-173511083D01*
X199537435Y-173606368D01*
X199452611Y-173690649D01*
X199324458Y-173811184D01*
X199204626Y-173918445D01*
X199090736Y-174013191D01*
X198980412Y-174096180D01*
X198925844Y-174133503D01*
X198871277Y-174168171D01*
X198816412Y-174200280D01*
X198760954Y-174229923D01*
X198704604Y-174257196D01*
X198647065Y-174282194D01*
X198588041Y-174305011D01*
X198527235Y-174325742D01*
X198464349Y-174344483D01*
X198399085Y-174361327D01*
X198331148Y-174376369D01*
X198260240Y-174389705D01*
X198186064Y-174401430D01*
X198108322Y-174411637D01*
X197940953Y-174427880D01*
X197755758Y-174439194D01*
X197550359Y-174446335D01*
X197322379Y-174450064D01*
X197069441Y-174451139D01*
X195480627Y-174451139D01*
X195994186Y-175591872D01*
X196123000Y-175909474D01*
X196233809Y-176247970D01*
X196326654Y-176604346D01*
X196401574Y-176975587D01*
X196458608Y-177358678D01*
X196497796Y-177750605D01*
X196519178Y-178148352D01*
X196522792Y-178548906D01*
X196508680Y-178949252D01*
X196476879Y-179346374D01*
X196427430Y-179737258D01*
X196360372Y-180118889D01*
X196275745Y-180488253D01*
X196173589Y-180842334D01*
X196053942Y-181178119D01*
X195916844Y-181492592D01*
X195777735Y-181760107D01*
X195619280Y-182026412D01*
X195443268Y-182289881D01*
X195251486Y-182548889D01*
X195045721Y-182801810D01*
X194827761Y-183047019D01*
X194599393Y-183282890D01*
X194362405Y-183507798D01*
X194118585Y-183720117D01*
X193869720Y-183918222D01*
X193617597Y-184100488D01*
X193364005Y-184265289D01*
X193110730Y-184410999D01*
X192859560Y-184535993D01*
X192612283Y-184638646D01*
X192370685Y-184717331D01*
X192130146Y-184777200D01*
X191873862Y-184828031D01*
X191604301Y-184869880D01*
X191323932Y-184902800D01*
X191035223Y-184926847D01*
X190740642Y-184942074D01*
X190442657Y-184948537D01*
X190143735Y-184946289D01*
X189846346Y-184935385D01*
X189552956Y-184915879D01*
X189266035Y-184887827D01*
X188988050Y-184851282D01*
X188721469Y-184806298D01*
X188468760Y-184752931D01*
X188232392Y-184691234D01*
X188014832Y-184621263D01*
X187729629Y-184513698D01*
X187449443Y-184396683D01*
X186904493Y-184134758D01*
X186380723Y-183836394D01*
X185878873Y-183502500D01*
X185399684Y-183133980D01*
X184943895Y-182731742D01*
X184512248Y-182296692D01*
X184105482Y-181829738D01*
X183724338Y-181331786D01*
X183369557Y-180803742D01*
X183041878Y-180246513D01*
X182742042Y-179661006D01*
X182470789Y-179048128D01*
X182228861Y-178408786D01*
X182016996Y-177743885D01*
X181835936Y-177054333D01*
X181764270Y-176723884D01*
X181699566Y-176373202D01*
X181591968Y-175634071D01*
X181514993Y-174882809D01*
X181470492Y-174165283D01*
X181460318Y-173527362D01*
X181468681Y-173252588D01*
X181486319Y-173014915D01*
X181513464Y-172820078D01*
X181550348Y-172673810D01*
X181597201Y-172581845D01*
X181624439Y-172558017D01*
X181654255Y-172549916D01*
X181665126Y-172552153D01*
X181677034Y-172558793D01*
X181689938Y-172569725D01*
X181703796Y-172584839D01*
X181718565Y-172604027D01*
X181734204Y-172627178D01*
X181767925Y-172684932D01*
X181804621Y-172757223D01*
X181843957Y-172843175D01*
X181885599Y-172941910D01*
X181929210Y-173052551D01*
X181974455Y-173174220D01*
X182020998Y-173306041D01*
X182068504Y-173447136D01*
X182116637Y-173596627D01*
X182165062Y-173753638D01*
X182213443Y-173917291D01*
X182261445Y-174086710D01*
X182308732Y-174261016D01*
X182415601Y-174645492D01*
X182530895Y-175025819D01*
X182654003Y-175400727D01*
X182784314Y-175768946D01*
X182921217Y-176129205D01*
X183064100Y-176480235D01*
X183212352Y-176820764D01*
X183365362Y-177149524D01*
X183522518Y-177465243D01*
X183683209Y-177766653D01*
X183846824Y-178052481D01*
X184012752Y-178321460D01*
X184180381Y-178572317D01*
X184349101Y-178803783D01*
X184518299Y-179014589D01*
X184687364Y-179203463D01*
X184833905Y-179348043D01*
X184992694Y-179486904D01*
X185163040Y-179619931D01*
X185344249Y-179747007D01*
X185736495Y-179982852D01*
X186163897Y-180193519D01*
X186620920Y-180378086D01*
X187102032Y-180535635D01*
X187601696Y-180665245D01*
X188114380Y-180765995D01*
X188634549Y-180836967D01*
X189156668Y-180877239D01*
X189675204Y-180885891D01*
X190184622Y-180862004D01*
X190679387Y-180804657D01*
X191153967Y-180712929D01*
X191381957Y-180653886D01*
X191602825Y-180585902D01*
X191815880Y-180508863D01*
X192020429Y-180422654D01*
X192173367Y-180348887D01*
X192320439Y-180269230D01*
X192461572Y-180183883D01*
X192596689Y-180093045D01*
X192725717Y-179996915D01*
X192848580Y-179895693D01*
X192965204Y-179789577D01*
X193075513Y-179678767D01*
X193179433Y-179563462D01*
X193276889Y-179443861D01*
X193367807Y-179320164D01*
X193452110Y-179192569D01*
X193529725Y-179061275D01*
X193600576Y-178926482D01*
X193664590Y-178788389D01*
X193721690Y-178647196D01*
X193771802Y-178503100D01*
X193814851Y-178356302D01*
X193850763Y-178207000D01*
X193879462Y-178055395D01*
X193900874Y-177901684D01*
X193914924Y-177746067D01*
X193921536Y-177588744D01*
X193920637Y-177429913D01*
X193912151Y-177269773D01*
X193896004Y-177108525D01*
X193872120Y-176946366D01*
X193840425Y-176783497D01*
X193800843Y-176620115D01*
X193753301Y-176456422D01*
X193697723Y-176292614D01*
X193634034Y-176128893D01*
X193579577Y-176005090D01*
X193520897Y-175886521D01*
X193457925Y-175773162D01*
X193390588Y-175664988D01*
X193318818Y-175561973D01*
X193242544Y-175464092D01*
X193161694Y-175371320D01*
X193076200Y-175283633D01*
X192985990Y-175201004D01*
X192890993Y-175123410D01*
X192791141Y-175050825D01*
X192686361Y-174983223D01*
X192576584Y-174920581D01*
X192461739Y-174862872D01*
X192341757Y-174810072D01*
X192216565Y-174762156D01*
X192086095Y-174719099D01*
X191950275Y-174680875D01*
X191809035Y-174647459D01*
X191662305Y-174618828D01*
X191510014Y-174594954D01*
X191352093Y-174575814D01*
X191188469Y-174561382D01*
X191019074Y-174551634D01*
X190843836Y-174546543D01*
X190662686Y-174546086D01*
X190475552Y-174550237D01*
X190282364Y-174558971D01*
X190083053Y-174572262D01*
X189877547Y-174590087D01*
X189665776Y-174612420D01*
X189447669Y-174639235D01*
X189384608Y-174566924D01*
X189311127Y-174477302D01*
X189214429Y-174352718D01*
X189098078Y-174193683D01*
X188965636Y-174000707D01*
X188820667Y-173774303D01*
X188666734Y-173514982D01*
X188507400Y-173223256D01*
X188426821Y-173065400D01*
X188346228Y-172899634D01*
X188266066Y-172726022D01*
X188186782Y-172544629D01*
X188108819Y-172355518D01*
X188032623Y-172158752D01*
X187958641Y-171954396D01*
X187887316Y-171742514D01*
X187819096Y-171523170D01*
X187754424Y-171296427D01*
X187693747Y-171062350D01*
X187637509Y-170821002D01*
X187586157Y-170572447D01*
X187540135Y-170316750D01*
X189022937Y-170451205D01*
X189352620Y-170475061D01*
X189671741Y-170485958D01*
X189979989Y-170483989D01*
X190277055Y-170469243D01*
X190562631Y-170441811D01*
X190836406Y-170401784D01*
X191098072Y-170349252D01*
X191347320Y-170284305D01*
X191583841Y-170207034D01*
X191807325Y-170117530D01*
X192017463Y-170015883D01*
X192213946Y-169902184D01*
X192396465Y-169776523D01*
X192564710Y-169638991D01*
X192718373Y-169489678D01*
X192857144Y-169328675D01*
X192972568Y-169177668D01*
X193072178Y-169037153D01*
X193155907Y-168905608D01*
X193191795Y-168842723D01*
X193223688Y-168781508D01*
X193251577Y-168721774D01*
X193275454Y-168663331D01*
X193295311Y-168605986D01*
X193311138Y-168549551D01*
X193322929Y-168493834D01*
X193330673Y-168438646D01*
X193334364Y-168383795D01*
X193333993Y-168329092D01*
X193329550Y-168274345D01*
X193321029Y-168219365D01*
X193308419Y-168163960D01*
X193291714Y-168107941D01*
X193270905Y-168051117D01*
X193245983Y-167993297D01*
X193216940Y-167934292D01*
X193183768Y-167873910D01*
X193146457Y-167811961D01*
X193105001Y-167748254D01*
X193009616Y-167614808D01*
X192897546Y-167472046D01*
X192768724Y-167318446D01*
X192667225Y-167207861D01*
X192560601Y-167106325D01*
X192448651Y-167013872D01*
X192331173Y-166930534D01*
X192207964Y-166856344D01*
X192078822Y-166791336D01*
X191943547Y-166735542D01*
X191801934Y-166688997D01*
X191653784Y-166651732D01*
X191498893Y-166623781D01*
X191337060Y-166605178D01*
X191168083Y-166595955D01*
X190991760Y-166596145D01*
X190807888Y-166605782D01*
X190616267Y-166624898D01*
X190416693Y-166653528D01*
X190208966Y-166691703D01*
X189992883Y-166739457D01*
X189768242Y-166796824D01*
X189534841Y-166863836D01*
X189292478Y-166940526D01*
X189040952Y-167026928D01*
X188509600Y-167228999D01*
X187939170Y-167470313D01*
X187328046Y-167751136D01*
X186674613Y-168071733D01*
X185977254Y-168432368D01*
X184040112Y-165185134D01*
X184852238Y-164565693D01*
X185250661Y-164283891D01*
X185679781Y-164021254D01*
X186135174Y-163778756D01*
X186612412Y-163557367D01*
X187107071Y-163358060D01*
X187614725Y-163181807D01*
X188130948Y-163029579D01*
X188651314Y-162902348D01*
X189171397Y-162801086D01*
X189686772Y-162726766D01*
X190193013Y-162680359D01*
X190685695Y-162662837D01*
X191160391Y-162675172D01*
X193997877Y-162552944D02*
X193869416Y-162316691D01*
X193869416Y-162316691D02*
X193748219Y-162060872D01*
X193748219Y-162060872D02*
X193635211Y-161790290D01*
X193635211Y-161790290D02*
X193531323Y-161509748D01*
X193531323Y-161509748D02*
X193437481Y-161224050D01*
X193437481Y-161224050D02*
X193354613Y-160937997D01*
X193354613Y-160937997D02*
X193283648Y-160656392D01*
X193283648Y-160656392D02*
X193225512Y-160384039D01*
X193225512Y-160384039D02*
X193181134Y-160125740D01*
X193181134Y-160125740D02*
X193151442Y-159886299D01*
X193151442Y-159886299D02*
X193137362Y-159670518D01*
X193137362Y-159670518D02*
X193139824Y-159483199D01*
X193139824Y-159483199D02*
X193159755Y-159329146D01*
X193159755Y-159329146D02*
X193176561Y-159266096D01*
X193176561Y-159266096D02*
X193198083Y-159213162D01*
X193198083Y-159213162D02*
X193224435Y-159170947D01*
X193224435Y-159170947D02*
X193255735Y-159140050D01*
X193255735Y-159140050D02*
X193292098Y-159121071D01*
X193292098Y-159121071D02*
X193333639Y-159114612D01*
X193333639Y-159114612D02*
X193444094Y-159338167D01*
X193444094Y-159338167D02*
X193567433Y-159558402D01*
X193567433Y-159558402D02*
X193702923Y-159775033D01*
X193702923Y-159775033D02*
X193849831Y-159987776D01*
X193849831Y-159987776D02*
X194007423Y-160196346D01*
X194007423Y-160196346D02*
X194174966Y-160400458D01*
X194174966Y-160400458D02*
X194351725Y-160599828D01*
X194351725Y-160599828D02*
X194536968Y-160794171D01*
X194536968Y-160794171D02*
X194729960Y-160983202D01*
X194729960Y-160983202D02*
X194929968Y-161166638D01*
X194929968Y-161166638D02*
X195136259Y-161344194D01*
X195136259Y-161344194D02*
X195348099Y-161515584D01*
X195348099Y-161515584D02*
X195564754Y-161680525D01*
X195564754Y-161680525D02*
X195785491Y-161838732D01*
X195785491Y-161838732D02*
X196009576Y-161989921D01*
X196009576Y-161989921D02*
X196236275Y-162133806D01*
X196236275Y-162133806D02*
X196645757Y-162314457D01*
X196645757Y-162314457D02*
X197056209Y-162460313D01*
X197056209Y-162460313D02*
X197467888Y-162571325D01*
X197467888Y-162571325D02*
X197881048Y-162647445D01*
X197881048Y-162647445D02*
X198295943Y-162688622D01*
X198295943Y-162688622D02*
X198712830Y-162694808D01*
X198712830Y-162694808D02*
X199131963Y-162665953D01*
X199131963Y-162665953D02*
X199553597Y-162602010D01*
X199553597Y-162602010D02*
X199977987Y-162502927D01*
X199977987Y-162502927D02*
X200405389Y-162368657D01*
X200405389Y-162368657D02*
X200836057Y-162199149D01*
X200836057Y-162199149D02*
X201270246Y-161994356D01*
X201270246Y-161994356D02*
X201708211Y-161754227D01*
X201708211Y-161754227D02*
X202150207Y-161478715D01*
X202150207Y-161478715D02*
X202596490Y-161167768D01*
X202596490Y-161167768D02*
X203047315Y-160821339D01*
X203047315Y-160821339D02*
X203243279Y-160667326D01*
X203243279Y-160667326D02*
X203429239Y-160527817D01*
X203429239Y-160527817D02*
X203600901Y-160405567D01*
X203600901Y-160405567D02*
X203753971Y-160303331D01*
X203753971Y-160303331D02*
X203884153Y-160223863D01*
X203884153Y-160223863D02*
X203939320Y-160193529D01*
X203939320Y-160193529D02*
X203987154Y-160169920D01*
X203987154Y-160169920D02*
X204027119Y-160153381D01*
X204027119Y-160153381D02*
X204058678Y-160144255D01*
X204058678Y-160144255D02*
X204081294Y-160142889D01*
X204081294Y-160142889D02*
X204089081Y-160145223D01*
X204089081Y-160145223D02*
X204094431Y-160149625D01*
X204094431Y-160149625D02*
X204209863Y-160319507D01*
X204209863Y-160319507D02*
X204333757Y-160486172D01*
X204333757Y-160486172D02*
X204464482Y-160650328D01*
X204464482Y-160650328D02*
X204600405Y-160812684D01*
X204600405Y-160812684D02*
X205163442Y-161458261D01*
X205163442Y-161458261D02*
X205300877Y-161622233D01*
X205300877Y-161622233D02*
X205433718Y-161788653D01*
X205433718Y-161788653D02*
X205560333Y-161958227D01*
X205560333Y-161958227D02*
X205679091Y-162131664D01*
X205679091Y-162131664D02*
X205788359Y-162309672D01*
X205788359Y-162309672D02*
X205886505Y-162492958D01*
X205886505Y-162492958D02*
X205930898Y-162586803D01*
X205930898Y-162586803D02*
X205971898Y-162682232D01*
X205971898Y-162682232D02*
X206009301Y-162779335D01*
X206009301Y-162779335D02*
X206042904Y-162878200D01*
X206042904Y-162878200D02*
X206037312Y-162922721D01*
X206037312Y-162922721D02*
X206020823Y-162971897D01*
X206020823Y-162971897D02*
X205993864Y-163025440D01*
X205993864Y-163025440D02*
X205956864Y-163083066D01*
X205956864Y-163083066D02*
X205910252Y-163144486D01*
X205910252Y-163144486D02*
X205854457Y-163209415D01*
X205854457Y-163209415D02*
X205717030Y-163348652D01*
X205717030Y-163348652D02*
X205548014Y-163498484D01*
X205548014Y-163498484D02*
X205350835Y-163656619D01*
X205350835Y-163656619D02*
X205128925Y-163820764D01*
X205128925Y-163820764D02*
X204885710Y-163988627D01*
X204885710Y-163988627D02*
X204624621Y-164157916D01*
X204624621Y-164157916D02*
X204349086Y-164326338D01*
X204349086Y-164326338D02*
X204062534Y-164491600D01*
X204062534Y-164491600D02*
X203768394Y-164651410D01*
X203768394Y-164651410D02*
X203470095Y-164803476D01*
X203470095Y-164803476D02*
X203171066Y-164945506D01*
X203171066Y-164945506D02*
X202874736Y-165075206D01*
X202874736Y-165075206D02*
X202584534Y-165190284D01*
X202584534Y-165190284D02*
X201889612Y-165376345D01*
X201889612Y-165376345D02*
X201221720Y-165524813D01*
X201221720Y-165524813D02*
X200579588Y-165633719D01*
X200579588Y-165633719D02*
X199961946Y-165701093D01*
X199961946Y-165701093D02*
X199367522Y-165724964D01*
X199367522Y-165724964D02*
X198795046Y-165703363D01*
X198795046Y-165703363D02*
X198243247Y-165634319D01*
X198243247Y-165634319D02*
X197974705Y-165581390D01*
X197974705Y-165581390D02*
X197710855Y-165515862D01*
X197710855Y-165515862D02*
X197451539Y-165437489D01*
X197451539Y-165437489D02*
X197196599Y-165346023D01*
X197196599Y-165346023D02*
X196945875Y-165241219D01*
X196945875Y-165241219D02*
X196699208Y-165122831D01*
X196699208Y-165122831D02*
X196456440Y-164990612D01*
X196456440Y-164990612D02*
X196217412Y-164844316D01*
X196217412Y-164844316D02*
X195981965Y-164683696D01*
X195981965Y-164683696D02*
X195749940Y-164508508D01*
X195749940Y-164508508D02*
X195521178Y-164318503D01*
X195521178Y-164318503D02*
X195295521Y-164113436D01*
X195295521Y-164113436D02*
X195072809Y-163893062D01*
X195072809Y-163893062D02*
X194852884Y-163657132D01*
X194852884Y-163657132D02*
X194420760Y-163137625D01*
X194420760Y-163137625D02*
X193997877Y-162552944D01*
X193997877Y-162552944D02*
X193997877Y-162552944D01*
G36*
X193444094Y-159338167D02*
G01*
X193567433Y-159558402D01*
X193702923Y-159775033D01*
X193849831Y-159987776D01*
X194007423Y-160196346D01*
X194174966Y-160400458D01*
X194351725Y-160599828D01*
X194536968Y-160794171D01*
X194729960Y-160983202D01*
X194929968Y-161166638D01*
X195136259Y-161344194D01*
X195348099Y-161515584D01*
X195564754Y-161680525D01*
X195785491Y-161838732D01*
X196009576Y-161989921D01*
X196236275Y-162133806D01*
X196645757Y-162314457D01*
X197056209Y-162460313D01*
X197467888Y-162571325D01*
X197881048Y-162647445D01*
X198295943Y-162688622D01*
X198712830Y-162694808D01*
X199131963Y-162665953D01*
X199553597Y-162602010D01*
X199977987Y-162502927D01*
X200405389Y-162368657D01*
X200836057Y-162199149D01*
X201270246Y-161994356D01*
X201708211Y-161754227D01*
X202150207Y-161478715D01*
X202596490Y-161167768D01*
X203047315Y-160821339D01*
X203243279Y-160667326D01*
X203429239Y-160527817D01*
X203600901Y-160405567D01*
X203753971Y-160303331D01*
X203884153Y-160223863D01*
X203939320Y-160193529D01*
X203987154Y-160169920D01*
X204027119Y-160153381D01*
X204058678Y-160144255D01*
X204081294Y-160142889D01*
X204089081Y-160145223D01*
X204094431Y-160149625D01*
X204209863Y-160319507D01*
X204333757Y-160486172D01*
X204464482Y-160650328D01*
X204600405Y-160812684D01*
X205163442Y-161458261D01*
X205300877Y-161622233D01*
X205433718Y-161788653D01*
X205560333Y-161958227D01*
X205679091Y-162131664D01*
X205788359Y-162309672D01*
X205886505Y-162492958D01*
X205930898Y-162586803D01*
X205971898Y-162682232D01*
X206009301Y-162779335D01*
X206042904Y-162878200D01*
X206037312Y-162922721D01*
X206020823Y-162971897D01*
X205993864Y-163025440D01*
X205956864Y-163083066D01*
X205910252Y-163144486D01*
X205854457Y-163209415D01*
X205717030Y-163348652D01*
X205548014Y-163498484D01*
X205350835Y-163656619D01*
X205128925Y-163820764D01*
X204885710Y-163988627D01*
X204624621Y-164157916D01*
X204349086Y-164326338D01*
X204062534Y-164491600D01*
X203768394Y-164651410D01*
X203470095Y-164803476D01*
X203171066Y-164945506D01*
X202874736Y-165075206D01*
X202584534Y-165190284D01*
X201889612Y-165376345D01*
X201221720Y-165524813D01*
X200579588Y-165633719D01*
X199961946Y-165701093D01*
X199367522Y-165724964D01*
X198795046Y-165703363D01*
X198243247Y-165634319D01*
X197974705Y-165581390D01*
X197710855Y-165515862D01*
X197451539Y-165437489D01*
X197196599Y-165346023D01*
X196945875Y-165241219D01*
X196699208Y-165122831D01*
X196456440Y-164990612D01*
X196217412Y-164844316D01*
X195981965Y-164683696D01*
X195749940Y-164508508D01*
X195521178Y-164318503D01*
X195295521Y-164113436D01*
X195072809Y-163893062D01*
X194852884Y-163657132D01*
X194420760Y-163137625D01*
X193997877Y-162552944D01*
X193869416Y-162316691D01*
X193748219Y-162060872D01*
X193635211Y-161790290D01*
X193531323Y-161509748D01*
X193437481Y-161224050D01*
X193354613Y-160937997D01*
X193283648Y-160656392D01*
X193225512Y-160384039D01*
X193181134Y-160125740D01*
X193151442Y-159886299D01*
X193137362Y-159670518D01*
X193139824Y-159483199D01*
X193159755Y-159329146D01*
X193176561Y-159266096D01*
X193198083Y-159213162D01*
X193224435Y-159170947D01*
X193255735Y-159140050D01*
X193292098Y-159121071D01*
X193333639Y-159114612D01*
X193444094Y-159338167D01*
G37*
X193444094Y-159338167D02*
X193567433Y-159558402D01*
X193702923Y-159775033D01*
X193849831Y-159987776D01*
X194007423Y-160196346D01*
X194174966Y-160400458D01*
X194351725Y-160599828D01*
X194536968Y-160794171D01*
X194729960Y-160983202D01*
X194929968Y-161166638D01*
X195136259Y-161344194D01*
X195348099Y-161515584D01*
X195564754Y-161680525D01*
X195785491Y-161838732D01*
X196009576Y-161989921D01*
X196236275Y-162133806D01*
X196645757Y-162314457D01*
X197056209Y-162460313D01*
X197467888Y-162571325D01*
X197881048Y-162647445D01*
X198295943Y-162688622D01*
X198712830Y-162694808D01*
X199131963Y-162665953D01*
X199553597Y-162602010D01*
X199977987Y-162502927D01*
X200405389Y-162368657D01*
X200836057Y-162199149D01*
X201270246Y-161994356D01*
X201708211Y-161754227D01*
X202150207Y-161478715D01*
X202596490Y-161167768D01*
X203047315Y-160821339D01*
X203243279Y-160667326D01*
X203429239Y-160527817D01*
X203600901Y-160405567D01*
X203753971Y-160303331D01*
X203884153Y-160223863D01*
X203939320Y-160193529D01*
X203987154Y-160169920D01*
X204027119Y-160153381D01*
X204058678Y-160144255D01*
X204081294Y-160142889D01*
X204089081Y-160145223D01*
X204094431Y-160149625D01*
X204209863Y-160319507D01*
X204333757Y-160486172D01*
X204464482Y-160650328D01*
X204600405Y-160812684D01*
X205163442Y-161458261D01*
X205300877Y-161622233D01*
X205433718Y-161788653D01*
X205560333Y-161958227D01*
X205679091Y-162131664D01*
X205788359Y-162309672D01*
X205886505Y-162492958D01*
X205930898Y-162586803D01*
X205971898Y-162682232D01*
X206009301Y-162779335D01*
X206042904Y-162878200D01*
X206037312Y-162922721D01*
X206020823Y-162971897D01*
X205993864Y-163025440D01*
X205956864Y-163083066D01*
X205910252Y-163144486D01*
X205854457Y-163209415D01*
X205717030Y-163348652D01*
X205548014Y-163498484D01*
X205350835Y-163656619D01*
X205128925Y-163820764D01*
X204885710Y-163988627D01*
X204624621Y-164157916D01*
X204349086Y-164326338D01*
X204062534Y-164491600D01*
X203768394Y-164651410D01*
X203470095Y-164803476D01*
X203171066Y-164945506D01*
X202874736Y-165075206D01*
X202584534Y-165190284D01*
X201889612Y-165376345D01*
X201221720Y-165524813D01*
X200579588Y-165633719D01*
X199961946Y-165701093D01*
X199367522Y-165724964D01*
X198795046Y-165703363D01*
X198243247Y-165634319D01*
X197974705Y-165581390D01*
X197710855Y-165515862D01*
X197451539Y-165437489D01*
X197196599Y-165346023D01*
X196945875Y-165241219D01*
X196699208Y-165122831D01*
X196456440Y-164990612D01*
X196217412Y-164844316D01*
X195981965Y-164683696D01*
X195749940Y-164508508D01*
X195521178Y-164318503D01*
X195295521Y-164113436D01*
X195072809Y-163893062D01*
X194852884Y-163657132D01*
X194420760Y-163137625D01*
X193997877Y-162552944D01*
X193869416Y-162316691D01*
X193748219Y-162060872D01*
X193635211Y-161790290D01*
X193531323Y-161509748D01*
X193437481Y-161224050D01*
X193354613Y-160937997D01*
X193283648Y-160656392D01*
X193225512Y-160384039D01*
X193181134Y-160125740D01*
X193151442Y-159886299D01*
X193137362Y-159670518D01*
X193139824Y-159483199D01*
X193159755Y-159329146D01*
X193176561Y-159266096D01*
X193198083Y-159213162D01*
X193224435Y-159170947D01*
X193255735Y-159140050D01*
X193292098Y-159121071D01*
X193333639Y-159114612D01*
X193444094Y-159338167D01*
X195903054Y-159780653D02*
X198364401Y-157051464D01*
X198364401Y-157051464D02*
X201099727Y-159583580D01*
X201099727Y-159583580D02*
X200927191Y-159732801D01*
X200927191Y-159732801D02*
X200759795Y-159890504D01*
X200759795Y-159890504D02*
X200596584Y-160055202D01*
X200596584Y-160055202D02*
X200436599Y-160225410D01*
X200436599Y-160225410D02*
X199809769Y-160931606D01*
X199809769Y-160931606D02*
X199651551Y-161107064D01*
X199651551Y-161107064D02*
X199490814Y-161279113D01*
X199490814Y-161279113D02*
X199326601Y-161446265D01*
X199326601Y-161446265D02*
X199157953Y-161607036D01*
X199157953Y-161607036D02*
X198983913Y-161759938D01*
X198983913Y-161759938D02*
X198803524Y-161903484D01*
X198803524Y-161903484D02*
X198615828Y-162036190D01*
X198615828Y-162036190D02*
X198419868Y-162156567D01*
X198419868Y-162156567D02*
X197728213Y-161666001D01*
X197728213Y-161666001D02*
X197360945Y-161399951D01*
X197360945Y-161399951D02*
X197178435Y-161260845D01*
X197178435Y-161260845D02*
X196999145Y-161117344D01*
X196999145Y-161117344D02*
X196824927Y-160969196D01*
X196824927Y-160969196D02*
X196657634Y-160816146D01*
X196657634Y-160816146D02*
X196499119Y-160657939D01*
X196499119Y-160657939D02*
X196351235Y-160494321D01*
X196351235Y-160494321D02*
X196215833Y-160325038D01*
X196215833Y-160325038D02*
X196094768Y-160149835D01*
X196094768Y-160149835D02*
X196040190Y-160059934D01*
X196040190Y-160059934D02*
X195989890Y-159968458D01*
X195989890Y-159968458D02*
X195944101Y-159875375D01*
X195944101Y-159875375D02*
X195903054Y-159780653D01*
X195903054Y-159780653D02*
X195903054Y-159780653D01*
G36*
X201099727Y-159583580D02*
G01*
X200927191Y-159732801D01*
X200759795Y-159890504D01*
X200596584Y-160055202D01*
X200436599Y-160225410D01*
X199809769Y-160931606D01*
X199651551Y-161107064D01*
X199490814Y-161279113D01*
X199326601Y-161446265D01*
X199157953Y-161607036D01*
X198983913Y-161759938D01*
X198803524Y-161903484D01*
X198615828Y-162036190D01*
X198419868Y-162156567D01*
X197728213Y-161666001D01*
X197360945Y-161399951D01*
X197178435Y-161260845D01*
X196999145Y-161117344D01*
X196824927Y-160969196D01*
X196657634Y-160816146D01*
X196499119Y-160657939D01*
X196351235Y-160494321D01*
X196215833Y-160325038D01*
X196094768Y-160149835D01*
X196040190Y-160059934D01*
X195989890Y-159968458D01*
X195944101Y-159875375D01*
X195903054Y-159780653D01*
X198364401Y-157051464D01*
X201099727Y-159583580D01*
G37*
X201099727Y-159583580D02*
X200927191Y-159732801D01*
X200759795Y-159890504D01*
X200596584Y-160055202D01*
X200436599Y-160225410D01*
X199809769Y-160931606D01*
X199651551Y-161107064D01*
X199490814Y-161279113D01*
X199326601Y-161446265D01*
X199157953Y-161607036D01*
X198983913Y-161759938D01*
X198803524Y-161903484D01*
X198615828Y-162036190D01*
X198419868Y-162156567D01*
X197728213Y-161666001D01*
X197360945Y-161399951D01*
X197178435Y-161260845D01*
X196999145Y-161117344D01*
X196824927Y-160969196D01*
X196657634Y-160816146D01*
X196499119Y-160657939D01*
X196351235Y-160494321D01*
X196215833Y-160325038D01*
X196094768Y-160149835D01*
X196040190Y-160059934D01*
X195989890Y-159968458D01*
X195944101Y-159875375D01*
X195903054Y-159780653D01*
X198364401Y-157051464D01*
X201099727Y-159583580D01*
D12*
X239193333Y-117131904D02*
X239460000Y-117931904D01*
X239726666Y-117131904D01*
X240450476Y-117855714D02*
X240412380Y-117893809D01*
X240298095Y-117931904D01*
X240221904Y-117931904D01*
X240107619Y-117893809D01*
X240031428Y-117817619D01*
X239993333Y-117741428D01*
X239955238Y-117589047D01*
X239955238Y-117474761D01*
X239993333Y-117322380D01*
X240031428Y-117246190D01*
X240107619Y-117170000D01*
X240221904Y-117131904D01*
X240298095Y-117131904D01*
X240412380Y-117170000D01*
X240450476Y-117208095D01*
X241250476Y-117855714D02*
X241212380Y-117893809D01*
X241098095Y-117931904D01*
X241021904Y-117931904D01*
X240907619Y-117893809D01*
X240831428Y-117817619D01*
X240793333Y-117741428D01*
X240755238Y-117589047D01*
X240755238Y-117474761D01*
X240793333Y-117322380D01*
X240831428Y-117246190D01*
X240907619Y-117170000D01*
X241021904Y-117131904D01*
X241098095Y-117131904D01*
X241212380Y-117170000D01*
X241250476Y-117208095D01*
X248888571Y-120471904D02*
X248888571Y-119671904D01*
X249193333Y-119671904D01*
X249269523Y-119710000D01*
X249307619Y-119748095D01*
X249345714Y-119824285D01*
X249345714Y-119938571D01*
X249307619Y-120014761D01*
X249269523Y-120052857D01*
X249193333Y-120090952D01*
X248888571Y-120090952D01*
X249840952Y-119671904D02*
X249917142Y-119671904D01*
X249993333Y-119710000D01*
X250031428Y-119748095D01*
X250069523Y-119824285D01*
X250107619Y-119976666D01*
X250107619Y-120167142D01*
X250069523Y-120319523D01*
X250031428Y-120395714D01*
X249993333Y-120433809D01*
X249917142Y-120471904D01*
X249840952Y-120471904D01*
X249764761Y-120433809D01*
X249726666Y-120395714D01*
X249688571Y-120319523D01*
X249650476Y-120167142D01*
X249650476Y-119976666D01*
X249688571Y-119824285D01*
X249726666Y-119748095D01*
X249764761Y-119710000D01*
X249840952Y-119671904D01*
X250412380Y-119748095D02*
X250450476Y-119710000D01*
X250526666Y-119671904D01*
X250717142Y-119671904D01*
X250793333Y-119710000D01*
X250831428Y-119748095D01*
X250869523Y-119824285D01*
X250869523Y-119900476D01*
X250831428Y-120014761D01*
X250374285Y-120471904D01*
X250869523Y-120471904D01*
X248888571Y-112851904D02*
X248888571Y-112051904D01*
X249193333Y-112051904D01*
X249269523Y-112090000D01*
X249307619Y-112128095D01*
X249345714Y-112204285D01*
X249345714Y-112318571D01*
X249307619Y-112394761D01*
X249269523Y-112432857D01*
X249193333Y-112470952D01*
X248888571Y-112470952D01*
X249840952Y-112051904D02*
X249917142Y-112051904D01*
X249993333Y-112090000D01*
X250031428Y-112128095D01*
X250069523Y-112204285D01*
X250107619Y-112356666D01*
X250107619Y-112547142D01*
X250069523Y-112699523D01*
X250031428Y-112775714D01*
X249993333Y-112813809D01*
X249917142Y-112851904D01*
X249840952Y-112851904D01*
X249764761Y-112813809D01*
X249726666Y-112775714D01*
X249688571Y-112699523D01*
X249650476Y-112547142D01*
X249650476Y-112356666D01*
X249688571Y-112204285D01*
X249726666Y-112128095D01*
X249764761Y-112090000D01*
X249840952Y-112051904D01*
X250602857Y-112051904D02*
X250679047Y-112051904D01*
X250755238Y-112090000D01*
X250793333Y-112128095D01*
X250831428Y-112204285D01*
X250869523Y-112356666D01*
X250869523Y-112547142D01*
X250831428Y-112699523D01*
X250793333Y-112775714D01*
X250755238Y-112813809D01*
X250679047Y-112851904D01*
X250602857Y-112851904D01*
X250526666Y-112813809D01*
X250488571Y-112775714D01*
X250450476Y-112699523D01*
X250412380Y-112547142D01*
X250412380Y-112356666D01*
X250450476Y-112204285D01*
X250488571Y-112128095D01*
X250526666Y-112090000D01*
X250602857Y-112051904D01*
X239288571Y-123011904D02*
X239288571Y-122211904D01*
X239593333Y-122211904D01*
X239669523Y-122250000D01*
X239707619Y-122288095D01*
X239745714Y-122364285D01*
X239745714Y-122478571D01*
X239707619Y-122554761D01*
X239669523Y-122592857D01*
X239593333Y-122630952D01*
X239288571Y-122630952D01*
X240050476Y-122288095D02*
X240088571Y-122250000D01*
X240164761Y-122211904D01*
X240355238Y-122211904D01*
X240431428Y-122250000D01*
X240469523Y-122288095D01*
X240507619Y-122364285D01*
X240507619Y-122440476D01*
X240469523Y-122554761D01*
X240012380Y-123011904D01*
X240507619Y-123011904D01*
X241002857Y-122211904D02*
X241079047Y-122211904D01*
X241155238Y-122250000D01*
X241193333Y-122288095D01*
X241231428Y-122364285D01*
X241269523Y-122516666D01*
X241269523Y-122707142D01*
X241231428Y-122859523D01*
X241193333Y-122935714D01*
X241155238Y-122973809D01*
X241079047Y-123011904D01*
X241002857Y-123011904D01*
X240926666Y-122973809D01*
X240888571Y-122935714D01*
X240850476Y-122859523D01*
X240812380Y-122707142D01*
X240812380Y-122516666D01*
X240850476Y-122364285D01*
X240888571Y-122288095D01*
X240926666Y-122250000D01*
X241002857Y-122211904D01*
X239650476Y-112090000D02*
X239574285Y-112051904D01*
X239460000Y-112051904D01*
X239345714Y-112090000D01*
X239269523Y-112166190D01*
X239231428Y-112242380D01*
X239193333Y-112394761D01*
X239193333Y-112509047D01*
X239231428Y-112661428D01*
X239269523Y-112737619D01*
X239345714Y-112813809D01*
X239460000Y-112851904D01*
X239536190Y-112851904D01*
X239650476Y-112813809D01*
X239688571Y-112775714D01*
X239688571Y-112509047D01*
X239536190Y-112509047D01*
X240031428Y-112851904D02*
X240031428Y-112051904D01*
X240488571Y-112851904D01*
X240488571Y-112051904D01*
X240869523Y-112851904D02*
X240869523Y-112051904D01*
X241060000Y-112051904D01*
X241174285Y-112090000D01*
X241250476Y-112166190D01*
X241288571Y-112242380D01*
X241326666Y-112394761D01*
X241326666Y-112509047D01*
X241288571Y-112661428D01*
X241250476Y-112737619D01*
X241174285Y-112813809D01*
X241060000Y-112851904D01*
X240869523Y-112851904D01*
X239288571Y-133171904D02*
X239288571Y-132371904D01*
X239593333Y-132371904D01*
X239669523Y-132410000D01*
X239707619Y-132448095D01*
X239745714Y-132524285D01*
X239745714Y-132638571D01*
X239707619Y-132714761D01*
X239669523Y-132752857D01*
X239593333Y-132790952D01*
X239288571Y-132790952D01*
X240507619Y-133171904D02*
X240050476Y-133171904D01*
X240279047Y-133171904D02*
X240279047Y-132371904D01*
X240202857Y-132486190D01*
X240126666Y-132562380D01*
X240050476Y-132600476D01*
X241193333Y-132638571D02*
X241193333Y-133171904D01*
X241002857Y-132333809D02*
X240812380Y-132905238D01*
X241307619Y-132905238D01*
X248888571Y-110311904D02*
X248888571Y-109511904D01*
X249193333Y-109511904D01*
X249269523Y-109550000D01*
X249307619Y-109588095D01*
X249345714Y-109664285D01*
X249345714Y-109778571D01*
X249307619Y-109854761D01*
X249269523Y-109892857D01*
X249193333Y-109930952D01*
X248888571Y-109930952D01*
X249840952Y-109511904D02*
X249917142Y-109511904D01*
X249993333Y-109550000D01*
X250031428Y-109588095D01*
X250069523Y-109664285D01*
X250107619Y-109816666D01*
X250107619Y-110007142D01*
X250069523Y-110159523D01*
X250031428Y-110235714D01*
X249993333Y-110273809D01*
X249917142Y-110311904D01*
X249840952Y-110311904D01*
X249764761Y-110273809D01*
X249726666Y-110235714D01*
X249688571Y-110159523D01*
X249650476Y-110007142D01*
X249650476Y-109816666D01*
X249688571Y-109664285D01*
X249726666Y-109588095D01*
X249764761Y-109550000D01*
X249840952Y-109511904D01*
X250869523Y-110311904D02*
X250412380Y-110311904D01*
X250640952Y-110311904D02*
X250640952Y-109511904D01*
X250564761Y-109626190D01*
X250488571Y-109702380D01*
X250412380Y-109740476D01*
X248888571Y-130631904D02*
X248888571Y-129831904D01*
X249193333Y-129831904D01*
X249269523Y-129870000D01*
X249307619Y-129908095D01*
X249345714Y-129984285D01*
X249345714Y-130098571D01*
X249307619Y-130174761D01*
X249269523Y-130212857D01*
X249193333Y-130250952D01*
X248888571Y-130250952D01*
X249840952Y-129831904D02*
X249917142Y-129831904D01*
X249993333Y-129870000D01*
X250031428Y-129908095D01*
X250069523Y-129984285D01*
X250107619Y-130136666D01*
X250107619Y-130327142D01*
X250069523Y-130479523D01*
X250031428Y-130555714D01*
X249993333Y-130593809D01*
X249917142Y-130631904D01*
X249840952Y-130631904D01*
X249764761Y-130593809D01*
X249726666Y-130555714D01*
X249688571Y-130479523D01*
X249650476Y-130327142D01*
X249650476Y-130136666D01*
X249688571Y-129984285D01*
X249726666Y-129908095D01*
X249764761Y-129870000D01*
X249840952Y-129831904D01*
X250793333Y-129831904D02*
X250640952Y-129831904D01*
X250564761Y-129870000D01*
X250526666Y-129908095D01*
X250450476Y-130022380D01*
X250412380Y-130174761D01*
X250412380Y-130479523D01*
X250450476Y-130555714D01*
X250488571Y-130593809D01*
X250564761Y-130631904D01*
X250717142Y-130631904D01*
X250793333Y-130593809D01*
X250831428Y-130555714D01*
X250869523Y-130479523D01*
X250869523Y-130289047D01*
X250831428Y-130212857D01*
X250793333Y-130174761D01*
X250717142Y-130136666D01*
X250564761Y-130136666D01*
X250488571Y-130174761D01*
X250450476Y-130212857D01*
X250412380Y-130289047D01*
X239288571Y-128091904D02*
X239288571Y-127291904D01*
X239593333Y-127291904D01*
X239669523Y-127330000D01*
X239707619Y-127368095D01*
X239745714Y-127444285D01*
X239745714Y-127558571D01*
X239707619Y-127634761D01*
X239669523Y-127672857D01*
X239593333Y-127710952D01*
X239288571Y-127710952D01*
X240507619Y-128091904D02*
X240050476Y-128091904D01*
X240279047Y-128091904D02*
X240279047Y-127291904D01*
X240202857Y-127406190D01*
X240126666Y-127482380D01*
X240050476Y-127520476D01*
X240964761Y-127634761D02*
X240888571Y-127596666D01*
X240850476Y-127558571D01*
X240812380Y-127482380D01*
X240812380Y-127444285D01*
X240850476Y-127368095D01*
X240888571Y-127330000D01*
X240964761Y-127291904D01*
X241117142Y-127291904D01*
X241193333Y-127330000D01*
X241231428Y-127368095D01*
X241269523Y-127444285D01*
X241269523Y-127482380D01*
X241231428Y-127558571D01*
X241193333Y-127596666D01*
X241117142Y-127634761D01*
X240964761Y-127634761D01*
X240888571Y-127672857D01*
X240850476Y-127710952D01*
X240812380Y-127787142D01*
X240812380Y-127939523D01*
X240850476Y-128015714D01*
X240888571Y-128053809D01*
X240964761Y-128091904D01*
X241117142Y-128091904D01*
X241193333Y-128053809D01*
X241231428Y-128015714D01*
X241269523Y-127939523D01*
X241269523Y-127787142D01*
X241231428Y-127710952D01*
X241193333Y-127672857D01*
X241117142Y-127634761D01*
X239288571Y-130631904D02*
X239288571Y-129831904D01*
X239593333Y-129831904D01*
X239669523Y-129870000D01*
X239707619Y-129908095D01*
X239745714Y-129984285D01*
X239745714Y-130098571D01*
X239707619Y-130174761D01*
X239669523Y-130212857D01*
X239593333Y-130250952D01*
X239288571Y-130250952D01*
X240507619Y-130631904D02*
X240050476Y-130631904D01*
X240279047Y-130631904D02*
X240279047Y-129831904D01*
X240202857Y-129946190D01*
X240126666Y-130022380D01*
X240050476Y-130060476D01*
X241231428Y-129831904D02*
X240850476Y-129831904D01*
X240812380Y-130212857D01*
X240850476Y-130174761D01*
X240926666Y-130136666D01*
X241117142Y-130136666D01*
X241193333Y-130174761D01*
X241231428Y-130212857D01*
X241269523Y-130289047D01*
X241269523Y-130479523D01*
X241231428Y-130555714D01*
X241193333Y-130593809D01*
X241117142Y-130631904D01*
X240926666Y-130631904D01*
X240850476Y-130593809D01*
X240812380Y-130555714D01*
X239707619Y-110311904D02*
X239440952Y-109930952D01*
X239250476Y-110311904D02*
X239250476Y-109511904D01*
X239555238Y-109511904D01*
X239631428Y-109550000D01*
X239669523Y-109588095D01*
X239707619Y-109664285D01*
X239707619Y-109778571D01*
X239669523Y-109854761D01*
X239631428Y-109892857D01*
X239555238Y-109930952D01*
X239250476Y-109930952D01*
X240012380Y-110083333D02*
X240393333Y-110083333D01*
X239936190Y-110311904D02*
X240202857Y-109511904D01*
X240469523Y-110311904D01*
X240660000Y-109511904D02*
X240850476Y-110311904D01*
X241002857Y-109740476D01*
X241155238Y-110311904D01*
X241345714Y-109511904D01*
X239821904Y-115391904D02*
X239555238Y-115010952D01*
X239364761Y-115391904D02*
X239364761Y-114591904D01*
X239669523Y-114591904D01*
X239745714Y-114630000D01*
X239783809Y-114668095D01*
X239821904Y-114744285D01*
X239821904Y-114858571D01*
X239783809Y-114934761D01*
X239745714Y-114972857D01*
X239669523Y-115010952D01*
X239364761Y-115010952D01*
X240126666Y-115353809D02*
X240240952Y-115391904D01*
X240431428Y-115391904D01*
X240507619Y-115353809D01*
X240545714Y-115315714D01*
X240583809Y-115239523D01*
X240583809Y-115163333D01*
X240545714Y-115087142D01*
X240507619Y-115049047D01*
X240431428Y-115010952D01*
X240279047Y-114972857D01*
X240202857Y-114934761D01*
X240164761Y-114896666D01*
X240126666Y-114820476D01*
X240126666Y-114744285D01*
X240164761Y-114668095D01*
X240202857Y-114630000D01*
X240279047Y-114591904D01*
X240469523Y-114591904D01*
X240583809Y-114630000D01*
X240812380Y-114591904D02*
X241269523Y-114591904D01*
X241040952Y-115391904D02*
X241040952Y-114591904D01*
X248888571Y-125551904D02*
X248888571Y-124751904D01*
X249193333Y-124751904D01*
X249269523Y-124790000D01*
X249307619Y-124828095D01*
X249345714Y-124904285D01*
X249345714Y-125018571D01*
X249307619Y-125094761D01*
X249269523Y-125132857D01*
X249193333Y-125170952D01*
X248888571Y-125170952D01*
X249840952Y-124751904D02*
X249917142Y-124751904D01*
X249993333Y-124790000D01*
X250031428Y-124828095D01*
X250069523Y-124904285D01*
X250107619Y-125056666D01*
X250107619Y-125247142D01*
X250069523Y-125399523D01*
X250031428Y-125475714D01*
X249993333Y-125513809D01*
X249917142Y-125551904D01*
X249840952Y-125551904D01*
X249764761Y-125513809D01*
X249726666Y-125475714D01*
X249688571Y-125399523D01*
X249650476Y-125247142D01*
X249650476Y-125056666D01*
X249688571Y-124904285D01*
X249726666Y-124828095D01*
X249764761Y-124790000D01*
X249840952Y-124751904D01*
X250793333Y-125018571D02*
X250793333Y-125551904D01*
X250602857Y-124713809D02*
X250412380Y-125285238D01*
X250907619Y-125285238D01*
X249250476Y-114630000D02*
X249174285Y-114591904D01*
X249060000Y-114591904D01*
X248945714Y-114630000D01*
X248869523Y-114706190D01*
X248831428Y-114782380D01*
X248793333Y-114934761D01*
X248793333Y-115049047D01*
X248831428Y-115201428D01*
X248869523Y-115277619D01*
X248945714Y-115353809D01*
X249060000Y-115391904D01*
X249136190Y-115391904D01*
X249250476Y-115353809D01*
X249288571Y-115315714D01*
X249288571Y-115049047D01*
X249136190Y-115049047D01*
X249631428Y-115391904D02*
X249631428Y-114591904D01*
X250088571Y-115391904D01*
X250088571Y-114591904D01*
X250469523Y-115391904D02*
X250469523Y-114591904D01*
X250660000Y-114591904D01*
X250774285Y-114630000D01*
X250850476Y-114706190D01*
X250888571Y-114782380D01*
X250926666Y-114934761D01*
X250926666Y-115049047D01*
X250888571Y-115201428D01*
X250850476Y-115277619D01*
X250774285Y-115353809D01*
X250660000Y-115391904D01*
X250469523Y-115391904D01*
X248888571Y-138251904D02*
X248888571Y-137451904D01*
X249193333Y-137451904D01*
X249269523Y-137490000D01*
X249307619Y-137528095D01*
X249345714Y-137604285D01*
X249345714Y-137718571D01*
X249307619Y-137794761D01*
X249269523Y-137832857D01*
X249193333Y-137870952D01*
X248888571Y-137870952D01*
X249840952Y-137451904D02*
X249917142Y-137451904D01*
X249993333Y-137490000D01*
X250031428Y-137528095D01*
X250069523Y-137604285D01*
X250107619Y-137756666D01*
X250107619Y-137947142D01*
X250069523Y-138099523D01*
X250031428Y-138175714D01*
X249993333Y-138213809D01*
X249917142Y-138251904D01*
X249840952Y-138251904D01*
X249764761Y-138213809D01*
X249726666Y-138175714D01*
X249688571Y-138099523D01*
X249650476Y-137947142D01*
X249650476Y-137756666D01*
X249688571Y-137604285D01*
X249726666Y-137528095D01*
X249764761Y-137490000D01*
X249840952Y-137451904D01*
X250488571Y-138251904D02*
X250640952Y-138251904D01*
X250717142Y-138213809D01*
X250755238Y-138175714D01*
X250831428Y-138061428D01*
X250869523Y-137909047D01*
X250869523Y-137604285D01*
X250831428Y-137528095D01*
X250793333Y-137490000D01*
X250717142Y-137451904D01*
X250564761Y-137451904D01*
X250488571Y-137490000D01*
X250450476Y-137528095D01*
X250412380Y-137604285D01*
X250412380Y-137794761D01*
X250450476Y-137870952D01*
X250488571Y-137909047D01*
X250564761Y-137947142D01*
X250717142Y-137947142D01*
X250793333Y-137909047D01*
X250831428Y-137870952D01*
X250869523Y-137794761D01*
X249250476Y-117170000D02*
X249174285Y-117131904D01*
X249060000Y-117131904D01*
X248945714Y-117170000D01*
X248869523Y-117246190D01*
X248831428Y-117322380D01*
X248793333Y-117474761D01*
X248793333Y-117589047D01*
X248831428Y-117741428D01*
X248869523Y-117817619D01*
X248945714Y-117893809D01*
X249060000Y-117931904D01*
X249136190Y-117931904D01*
X249250476Y-117893809D01*
X249288571Y-117855714D01*
X249288571Y-117589047D01*
X249136190Y-117589047D01*
X249631428Y-117931904D02*
X249631428Y-117131904D01*
X250088571Y-117931904D01*
X250088571Y-117131904D01*
X250469523Y-117931904D02*
X250469523Y-117131904D01*
X250660000Y-117131904D01*
X250774285Y-117170000D01*
X250850476Y-117246190D01*
X250888571Y-117322380D01*
X250926666Y-117474761D01*
X250926666Y-117589047D01*
X250888571Y-117741428D01*
X250850476Y-117817619D01*
X250774285Y-117893809D01*
X250660000Y-117931904D01*
X250469523Y-117931904D01*
X248888571Y-128091904D02*
X248888571Y-127291904D01*
X249193333Y-127291904D01*
X249269523Y-127330000D01*
X249307619Y-127368095D01*
X249345714Y-127444285D01*
X249345714Y-127558571D01*
X249307619Y-127634761D01*
X249269523Y-127672857D01*
X249193333Y-127710952D01*
X248888571Y-127710952D01*
X249840952Y-127291904D02*
X249917142Y-127291904D01*
X249993333Y-127330000D01*
X250031428Y-127368095D01*
X250069523Y-127444285D01*
X250107619Y-127596666D01*
X250107619Y-127787142D01*
X250069523Y-127939523D01*
X250031428Y-128015714D01*
X249993333Y-128053809D01*
X249917142Y-128091904D01*
X249840952Y-128091904D01*
X249764761Y-128053809D01*
X249726666Y-128015714D01*
X249688571Y-127939523D01*
X249650476Y-127787142D01*
X249650476Y-127596666D01*
X249688571Y-127444285D01*
X249726666Y-127368095D01*
X249764761Y-127330000D01*
X249840952Y-127291904D01*
X250831428Y-127291904D02*
X250450476Y-127291904D01*
X250412380Y-127672857D01*
X250450476Y-127634761D01*
X250526666Y-127596666D01*
X250717142Y-127596666D01*
X250793333Y-127634761D01*
X250831428Y-127672857D01*
X250869523Y-127749047D01*
X250869523Y-127939523D01*
X250831428Y-128015714D01*
X250793333Y-128053809D01*
X250717142Y-128091904D01*
X250526666Y-128091904D01*
X250450476Y-128053809D01*
X250412380Y-128015714D01*
X239288571Y-138251904D02*
X239288571Y-137451904D01*
X239593333Y-137451904D01*
X239669523Y-137490000D01*
X239707619Y-137528095D01*
X239745714Y-137604285D01*
X239745714Y-137718571D01*
X239707619Y-137794761D01*
X239669523Y-137832857D01*
X239593333Y-137870952D01*
X239288571Y-137870952D01*
X240507619Y-138251904D02*
X240050476Y-138251904D01*
X240279047Y-138251904D02*
X240279047Y-137451904D01*
X240202857Y-137566190D01*
X240126666Y-137642380D01*
X240050476Y-137680476D01*
X241002857Y-137451904D02*
X241079047Y-137451904D01*
X241155238Y-137490000D01*
X241193333Y-137528095D01*
X241231428Y-137604285D01*
X241269523Y-137756666D01*
X241269523Y-137947142D01*
X241231428Y-138099523D01*
X241193333Y-138175714D01*
X241155238Y-138213809D01*
X241079047Y-138251904D01*
X241002857Y-138251904D01*
X240926666Y-138213809D01*
X240888571Y-138175714D01*
X240850476Y-138099523D01*
X240812380Y-137947142D01*
X240812380Y-137756666D01*
X240850476Y-137604285D01*
X240888571Y-137528095D01*
X240926666Y-137490000D01*
X241002857Y-137451904D01*
X239288571Y-120471904D02*
X239288571Y-119671904D01*
X239593333Y-119671904D01*
X239669523Y-119710000D01*
X239707619Y-119748095D01*
X239745714Y-119824285D01*
X239745714Y-119938571D01*
X239707619Y-120014761D01*
X239669523Y-120052857D01*
X239593333Y-120090952D01*
X239288571Y-120090952D01*
X240050476Y-119748095D02*
X240088571Y-119710000D01*
X240164761Y-119671904D01*
X240355238Y-119671904D01*
X240431428Y-119710000D01*
X240469523Y-119748095D01*
X240507619Y-119824285D01*
X240507619Y-119900476D01*
X240469523Y-120014761D01*
X240012380Y-120471904D01*
X240507619Y-120471904D01*
X241269523Y-120471904D02*
X240812380Y-120471904D01*
X241040952Y-120471904D02*
X241040952Y-119671904D01*
X240964761Y-119786190D01*
X240888571Y-119862380D01*
X240812380Y-119900476D01*
X248888571Y-123011904D02*
X248888571Y-122211904D01*
X249193333Y-122211904D01*
X249269523Y-122250000D01*
X249307619Y-122288095D01*
X249345714Y-122364285D01*
X249345714Y-122478571D01*
X249307619Y-122554761D01*
X249269523Y-122592857D01*
X249193333Y-122630952D01*
X248888571Y-122630952D01*
X249840952Y-122211904D02*
X249917142Y-122211904D01*
X249993333Y-122250000D01*
X250031428Y-122288095D01*
X250069523Y-122364285D01*
X250107619Y-122516666D01*
X250107619Y-122707142D01*
X250069523Y-122859523D01*
X250031428Y-122935714D01*
X249993333Y-122973809D01*
X249917142Y-123011904D01*
X249840952Y-123011904D01*
X249764761Y-122973809D01*
X249726666Y-122935714D01*
X249688571Y-122859523D01*
X249650476Y-122707142D01*
X249650476Y-122516666D01*
X249688571Y-122364285D01*
X249726666Y-122288095D01*
X249764761Y-122250000D01*
X249840952Y-122211904D01*
X250374285Y-122211904D02*
X250869523Y-122211904D01*
X250602857Y-122516666D01*
X250717142Y-122516666D01*
X250793333Y-122554761D01*
X250831428Y-122592857D01*
X250869523Y-122669047D01*
X250869523Y-122859523D01*
X250831428Y-122935714D01*
X250793333Y-122973809D01*
X250717142Y-123011904D01*
X250488571Y-123011904D01*
X250412380Y-122973809D01*
X250374285Y-122935714D01*
X248888571Y-133171904D02*
X248888571Y-132371904D01*
X249193333Y-132371904D01*
X249269523Y-132410000D01*
X249307619Y-132448095D01*
X249345714Y-132524285D01*
X249345714Y-132638571D01*
X249307619Y-132714761D01*
X249269523Y-132752857D01*
X249193333Y-132790952D01*
X248888571Y-132790952D01*
X249840952Y-132371904D02*
X249917142Y-132371904D01*
X249993333Y-132410000D01*
X250031428Y-132448095D01*
X250069523Y-132524285D01*
X250107619Y-132676666D01*
X250107619Y-132867142D01*
X250069523Y-133019523D01*
X250031428Y-133095714D01*
X249993333Y-133133809D01*
X249917142Y-133171904D01*
X249840952Y-133171904D01*
X249764761Y-133133809D01*
X249726666Y-133095714D01*
X249688571Y-133019523D01*
X249650476Y-132867142D01*
X249650476Y-132676666D01*
X249688571Y-132524285D01*
X249726666Y-132448095D01*
X249764761Y-132410000D01*
X249840952Y-132371904D01*
X250374285Y-132371904D02*
X250907619Y-132371904D01*
X250564761Y-133171904D01*
X239288571Y-135711904D02*
X239288571Y-134911904D01*
X239593333Y-134911904D01*
X239669523Y-134950000D01*
X239707619Y-134988095D01*
X239745714Y-135064285D01*
X239745714Y-135178571D01*
X239707619Y-135254761D01*
X239669523Y-135292857D01*
X239593333Y-135330952D01*
X239288571Y-135330952D01*
X240507619Y-135711904D02*
X240050476Y-135711904D01*
X240279047Y-135711904D02*
X240279047Y-134911904D01*
X240202857Y-135026190D01*
X240126666Y-135102380D01*
X240050476Y-135140476D01*
X241193333Y-134911904D02*
X241040952Y-134911904D01*
X240964761Y-134950000D01*
X240926666Y-134988095D01*
X240850476Y-135102380D01*
X240812380Y-135254761D01*
X240812380Y-135559523D01*
X240850476Y-135635714D01*
X240888571Y-135673809D01*
X240964761Y-135711904D01*
X241117142Y-135711904D01*
X241193333Y-135673809D01*
X241231428Y-135635714D01*
X241269523Y-135559523D01*
X241269523Y-135369047D01*
X241231428Y-135292857D01*
X241193333Y-135254761D01*
X241117142Y-135216666D01*
X240964761Y-135216666D01*
X240888571Y-135254761D01*
X240850476Y-135292857D01*
X240812380Y-135369047D01*
X239288571Y-125551904D02*
X239288571Y-124751904D01*
X239593333Y-124751904D01*
X239669523Y-124790000D01*
X239707619Y-124828095D01*
X239745714Y-124904285D01*
X239745714Y-125018571D01*
X239707619Y-125094761D01*
X239669523Y-125132857D01*
X239593333Y-125170952D01*
X239288571Y-125170952D01*
X240507619Y-125551904D02*
X240050476Y-125551904D01*
X240279047Y-125551904D02*
X240279047Y-124751904D01*
X240202857Y-124866190D01*
X240126666Y-124942380D01*
X240050476Y-124980476D01*
X240888571Y-125551904D02*
X241040952Y-125551904D01*
X241117142Y-125513809D01*
X241155238Y-125475714D01*
X241231428Y-125361428D01*
X241269523Y-125209047D01*
X241269523Y-124904285D01*
X241231428Y-124828095D01*
X241193333Y-124790000D01*
X241117142Y-124751904D01*
X240964761Y-124751904D01*
X240888571Y-124790000D01*
X240850476Y-124828095D01*
X240812380Y-124904285D01*
X240812380Y-125094761D01*
X240850476Y-125170952D01*
X240888571Y-125209047D01*
X240964761Y-125247142D01*
X241117142Y-125247142D01*
X241193333Y-125209047D01*
X241231428Y-125170952D01*
X241269523Y-125094761D01*
X248888571Y-135711904D02*
X248888571Y-134911904D01*
X249193333Y-134911904D01*
X249269523Y-134950000D01*
X249307619Y-134988095D01*
X249345714Y-135064285D01*
X249345714Y-135178571D01*
X249307619Y-135254761D01*
X249269523Y-135292857D01*
X249193333Y-135330952D01*
X248888571Y-135330952D01*
X249840952Y-134911904D02*
X249917142Y-134911904D01*
X249993333Y-134950000D01*
X250031428Y-134988095D01*
X250069523Y-135064285D01*
X250107619Y-135216666D01*
X250107619Y-135407142D01*
X250069523Y-135559523D01*
X250031428Y-135635714D01*
X249993333Y-135673809D01*
X249917142Y-135711904D01*
X249840952Y-135711904D01*
X249764761Y-135673809D01*
X249726666Y-135635714D01*
X249688571Y-135559523D01*
X249650476Y-135407142D01*
X249650476Y-135216666D01*
X249688571Y-135064285D01*
X249726666Y-134988095D01*
X249764761Y-134950000D01*
X249840952Y-134911904D01*
X250564761Y-135254761D02*
X250488571Y-135216666D01*
X250450476Y-135178571D01*
X250412380Y-135102380D01*
X250412380Y-135064285D01*
X250450476Y-134988095D01*
X250488571Y-134950000D01*
X250564761Y-134911904D01*
X250717142Y-134911904D01*
X250793333Y-134950000D01*
X250831428Y-134988095D01*
X250869523Y-135064285D01*
X250869523Y-135102380D01*
X250831428Y-135178571D01*
X250793333Y-135216666D01*
X250717142Y-135254761D01*
X250564761Y-135254761D01*
X250488571Y-135292857D01*
X250450476Y-135330952D01*
X250412380Y-135407142D01*
X250412380Y-135559523D01*
X250450476Y-135635714D01*
X250488571Y-135673809D01*
X250564761Y-135711904D01*
X250717142Y-135711904D01*
X250793333Y-135673809D01*
X250831428Y-135635714D01*
X250869523Y-135559523D01*
X250869523Y-135407142D01*
X250831428Y-135330952D01*
X250793333Y-135292857D01*
X250717142Y-135254761D01*
X236170000Y-139160000D02*
X253950000Y-139160000D01*
X236170000Y-106140000D02*
X236170000Y-139160000D01*
X253950000Y-139160000D02*
X253950000Y-106140000D01*
X238710000Y-108680000D02*
X236170000Y-108680000D01*
X238710000Y-111220000D02*
X236170000Y-111220000D01*
X253950000Y-106140000D02*
X236170000Y-106140000D01*
X238710000Y-108680000D02*
X238710000Y-111220000D01*
D13*
X237440000Y-109950000D03*
D14*
X237440000Y-112490000D03*
X237440000Y-115030000D03*
X237440000Y-117570000D03*
X237440000Y-120110000D03*
X237440000Y-122650000D03*
X237440000Y-125190000D03*
X237440000Y-127730000D03*
X237440000Y-130270000D03*
X237440000Y-132810000D03*
X237440000Y-135350000D03*
X237440000Y-137890000D03*
X252680000Y-109950000D03*
X252680000Y-112490000D03*
X252680000Y-115030000D03*
X252680000Y-117570000D03*
X252680000Y-120110000D03*
X252680000Y-122650000D03*
X252680000Y-125190000D03*
X252680000Y-127730000D03*
X252680000Y-130270000D03*
X252680000Y-132810000D03*
X252680000Y-135350000D03*
X252680000Y-137890000D03*
%LPC*%
D15*
X243651090Y-198670869D03*
D16*
X238887950Y-195920869D03*
D15*
X234124810Y-193170869D03*
D17*
X236457823Y-190129972D03*
X245118077Y-195129972D03*
X241837950Y-190811319D03*
X241837950Y-190811319D03*
D16*
X149276737Y-158561085D03*
D15*
X143797666Y-159040442D03*
X154755808Y-158081728D03*
D17*
X153926519Y-154339766D03*
X143964572Y-155211324D03*
X148762518Y-152683536D03*
X148762518Y-152683536D03*
D15*
X193460000Y-138920000D03*
D16*
X187960000Y-138920000D03*
D15*
X182460000Y-138920000D03*
D17*
X182960000Y-135120000D03*
X192960000Y-135120000D03*
X187960000Y-133020000D03*
X187960000Y-133020000D03*
D15*
X151792513Y-124211108D03*
D16*
X146313442Y-124690465D03*
D15*
X140834371Y-125169822D03*
D17*
X141001277Y-121340704D03*
X150963224Y-120469146D03*
X145799223Y-118812916D03*
X145799223Y-118812916D03*
D15*
X231560000Y-132920000D03*
X220560000Y-132920000D03*
D16*
X226060000Y-132920000D03*
D17*
X221060000Y-129120000D03*
X231060000Y-129120000D03*
X226060000Y-127020000D03*
X226060000Y-127020000D03*
D16*
X168910000Y-111920000D03*
D15*
X174410000Y-111920000D03*
X163410000Y-111920000D03*
D17*
X163910000Y-108120000D03*
X173910000Y-108120000D03*
X168910000Y-106020000D03*
X168910000Y-106020000D03*
D15*
X182460000Y-104920000D03*
D16*
X187960000Y-104920000D03*
D15*
X193460000Y-104920000D03*
D17*
X182960000Y-101120000D03*
X192960000Y-101120000D03*
X187960000Y-99020000D03*
X187960000Y-99020000D03*
D15*
X142316018Y-142105132D03*
X153274160Y-141146418D03*
D16*
X147795089Y-141625775D03*
D17*
X152444871Y-137404456D03*
X142482924Y-138276014D03*
X147280870Y-135748226D03*
X147280870Y-135748226D03*
D15*
X218536353Y-184170869D03*
X228062633Y-189670869D03*
D16*
X223299493Y-186920869D03*
D17*
X220869366Y-181129972D03*
X229529620Y-186129972D03*
X226249493Y-181811319D03*
X226249493Y-181811319D03*
D16*
X207010000Y-112920000D03*
D15*
X201510000Y-112920000D03*
X212510000Y-112920000D03*
D17*
X212010000Y-109120000D03*
X202010000Y-109120000D03*
X207010000Y-107020000D03*
X207010000Y-107020000D03*
D15*
X220560000Y-115920000D03*
X231560000Y-115920000D03*
D16*
X226060000Y-115920000D03*
D17*
X221060000Y-112120000D03*
X231060000Y-112120000D03*
X226060000Y-110020000D03*
X226060000Y-110020000D03*
D15*
X193460000Y-121920000D03*
X182460000Y-121920000D03*
D16*
X187960000Y-121920000D03*
D17*
X182960000Y-118120000D03*
X192960000Y-118120000D03*
X187960000Y-116020000D03*
X187960000Y-116020000D03*
D15*
X174410000Y-145920000D03*
D16*
X168910000Y-145920000D03*
D15*
X163410000Y-145920000D03*
D17*
X163910000Y-142120000D03*
X173910000Y-142120000D03*
X168910000Y-140020000D03*
X168910000Y-140020000D03*
D18*
X246460000Y-155620000D03*
X253460000Y-155620000D03*
D19*
X243760000Y-157920000D03*
X243760000Y-153320000D03*
X244860000Y-153320000D03*
X244860000Y-157920000D03*
X248860000Y-157920000D03*
X248860000Y-153320000D03*
X251860000Y-153320000D03*
X251860000Y-157920000D03*
D15*
X220560000Y-149920000D03*
D16*
X226060000Y-149920000D03*
D15*
X231560000Y-149920000D03*
D17*
X231060000Y-146120000D03*
X221060000Y-146120000D03*
X226060000Y-144020000D03*
X226060000Y-144020000D03*
D15*
X212510000Y-146920000D03*
D16*
X207010000Y-146920000D03*
D15*
X201510000Y-146920000D03*
D17*
X212010000Y-143120000D03*
X202010000Y-143120000D03*
X207010000Y-141020000D03*
X207010000Y-141020000D03*
D20*
X237440000Y-109950000D03*
D21*
X237440000Y-112490000D03*
X237440000Y-115030000D03*
X237440000Y-117570000D03*
X237440000Y-120110000D03*
X237440000Y-122650000D03*
X237440000Y-125190000D03*
X237440000Y-127730000D03*
X237440000Y-130270000D03*
X237440000Y-132810000D03*
X237440000Y-135350000D03*
X237440000Y-137890000D03*
X252680000Y-109950000D03*
X252680000Y-112490000D03*
X252680000Y-115030000D03*
X252680000Y-117570000D03*
X252680000Y-120110000D03*
X252680000Y-122650000D03*
X252680000Y-125190000D03*
X252680000Y-127730000D03*
X252680000Y-130270000D03*
X252680000Y-132810000D03*
X252680000Y-135350000D03*
X252680000Y-137890000D03*
D15*
X174410000Y-128920000D03*
X163410000Y-128920000D03*
D16*
X168910000Y-128920000D03*
D17*
X173910000Y-125120000D03*
X163910000Y-125120000D03*
X168910000Y-123020000D03*
X168910000Y-123020000D03*
D16*
X207010000Y-129920000D03*
D15*
X212510000Y-129920000D03*
X201510000Y-129920000D03*
D17*
X202010000Y-126120000D03*
X212010000Y-126120000D03*
X207010000Y-124020000D03*
X207010000Y-124020000D03*
M02*
