M48
; DRILL file {KiCad (6.0.0-0)} date Sunday, February 13, 2022 at 11:37:54 AM
; FORMAT={-:-/ absolute / metric / decimal}
; #@! TF.CreationDate,2022-02-13T11:37:54-06:00
; #@! TF.GenerationSoftware,Kicad,Pcbnew,(6.0.0-0)
; #@! TF.FileFunction,NonPlated,1,2,NPTH
FMAT,2
METRIC
; #@! TA.AperFunction,NonPlated,NPTH,ComponentDrill
T1C1.500
; #@! TA.AperFunction,NonPlated,NPTH,ComponentDrill
T2C1.702
; #@! TA.AperFunction,NonPlated,NPTH,ComponentDrill
T3C3.429
%
G90
G05
T1
X246.46Y-155.62
X253.46Y-155.62
T2
X140.834Y-125.17
X142.316Y-142.105
X143.798Y-159.04
X151.793Y-124.211
X153.274Y-141.146
X154.756Y-158.082
X163.41Y-111.92
X163.41Y-128.92
X163.41Y-145.92
X174.41Y-111.92
X174.41Y-128.92
X174.41Y-145.92
X182.46Y-104.92
X182.46Y-121.92
X182.46Y-138.92
X193.46Y-104.92
X193.46Y-121.92
X193.46Y-138.92
X201.51Y-112.92
X201.51Y-129.92
X201.51Y-146.92
X212.51Y-112.92
X212.51Y-129.92
X212.51Y-146.92
X218.536Y-184.171
X220.56Y-115.92
X220.56Y-132.92
X220.56Y-149.92
X228.063Y-189.671
X231.56Y-115.92
X231.56Y-132.92
X231.56Y-149.92
X234.125Y-193.171
X243.651Y-198.671
T3
X146.313Y-124.69
X147.795Y-141.626
X149.277Y-158.561
X168.91Y-111.92
X168.91Y-128.92
X168.91Y-145.92
X187.96Y-104.92
X187.96Y-121.92
X187.96Y-138.92
X207.01Y-112.92
X207.01Y-129.92
X207.01Y-146.92
X223.299Y-186.921
X226.06Y-115.92
X226.06Y-132.92
X226.06Y-149.92
X238.888Y-195.921
T0
M30
