M48
; DRILL file {KiCad (6.0.0-0)} date Sunday, February 13, 2022 at 11:37:54 AM
; FORMAT={-:-/ absolute / metric / decimal}
; #@! TF.CreationDate,2022-02-13T11:37:54-06:00
; #@! TF.GenerationSoftware,Kicad,Pcbnew,(6.0.0-0)
; #@! TF.FileFunction,Plated,1,2,PTH
FMAT,2
METRIC
; #@! TA.AperFunction,Plated,PTH,ViaDrill
T1C0.400
; #@! TA.AperFunction,Plated,PTH,ComponentDrill
T2C0.900
; #@! TA.AperFunction,Plated,PTH,ComponentDrill
T3C1.092
; #@! TA.AperFunction,Plated,PTH,ComponentDrill
T4C1.270
%
G90
G05
T1
X204.0Y-118.0
X249.0Y-149.0
T3
X237.44Y-109.95
X237.44Y-112.49
X237.44Y-115.03
X237.44Y-117.57
X237.44Y-120.11
X237.44Y-122.65
X237.44Y-125.19
X237.44Y-127.73
X237.44Y-130.27
X237.44Y-132.81
X237.44Y-135.35
X237.44Y-137.89
X252.68Y-109.95
X252.68Y-112.49
X252.68Y-115.03
X252.68Y-117.57
X252.68Y-120.11
X252.68Y-122.65
X252.68Y-125.19
X252.68Y-127.73
X252.68Y-130.27
X252.68Y-132.81
X252.68Y-135.35
X252.68Y-137.89
T4
X141.001Y-121.341
X142.483Y-138.276
X143.965Y-155.211
X145.799Y-118.813
X145.799Y-118.813
X147.281Y-135.748
X147.281Y-135.748
X148.763Y-152.684
X148.763Y-152.684
X150.963Y-120.469
X152.445Y-137.404
X153.927Y-154.34
X163.91Y-108.12
X163.91Y-125.12
X163.91Y-142.12
X168.91Y-106.02
X168.91Y-106.02
X168.91Y-123.02
X168.91Y-123.02
X168.91Y-140.02
X168.91Y-140.02
X173.91Y-108.12
X173.91Y-125.12
X173.91Y-142.12
X182.96Y-101.12
X182.96Y-118.12
X182.96Y-135.12
X187.96Y-99.02
X187.96Y-99.02
X187.96Y-116.02
X187.96Y-116.02
X187.96Y-133.02
X187.96Y-133.02
X192.96Y-101.12
X192.96Y-118.12
X192.96Y-135.12
X202.01Y-109.12
X202.01Y-126.12
X202.01Y-143.12
X207.01Y-107.02
X207.01Y-107.02
X207.01Y-124.02
X207.01Y-124.02
X207.01Y-141.02
X207.01Y-141.02
X212.01Y-109.12
X212.01Y-126.12
X212.01Y-143.12
X220.869Y-181.13
X221.06Y-112.12
X221.06Y-129.12
X221.06Y-146.12
X226.06Y-110.02
X226.06Y-110.02
X226.06Y-127.02
X226.06Y-127.02
X226.06Y-144.02
X226.06Y-144.02
X226.249Y-181.811
X226.249Y-181.811
X229.53Y-186.13
X231.06Y-112.12
X231.06Y-129.12
X231.06Y-146.12
X236.458Y-190.13
X241.838Y-190.811
X241.838Y-190.811
X245.118Y-195.13
T2
G00X244.06Y-153.32
M15
G01X243.46Y-153.32
M16
G05
G00X244.06Y-157.92
M15
G01X243.46Y-157.92
M16
G05
G00X245.16Y-153.32
M15
G01X244.56Y-153.32
M16
G05
G00X245.16Y-157.92
M15
G01X244.56Y-157.92
M16
G05
G00X249.16Y-153.32
M15
G01X248.56Y-153.32
M16
G05
G00X249.16Y-157.92
M15
G01X248.56Y-157.92
M16
G05
G00X252.16Y-153.32
M15
G01X251.56Y-153.32
M16
G05
G00X252.16Y-157.92
M15
G01X251.56Y-157.92
M16
G05
T0
M30
