  0
SECTION
  2
HEADER
  9
$ACADVER
  1
AC1014
  9
$HANDSEED
  5
FFFF
  9
$MEASUREMENT
 70
     1
  0
ENDSEC
  0
SECTION
  2
TABLES
  0
TABLE
  2
VPORT
  5
8
330
0
100
AcDbSymbolTable
 70
     4
  0
VPORT
  5
2E
330
8
100
AcDbSymbolTableRecord
100
AcDbViewportTableRecord
  2
*ACTIVE
 70
     0
 10
0.0
 20
0.0
 11
1.0
 21
1.0
 12
210.0
 22
148.5
 13
0.0
 23
0.0
 14
10.0
 24
10.0
 15
10.0
 25
10.0
 16
0.0
 26
0.0
 36
1.0
 17
0.0
 27
0.0
 37
0.0
 40
341.0
 41
1.24
 42
50.0
 43
0.0
 44
0.0
 50
0.0
 51
0.0
 71
     0
 72
   100
 73
     1
 74
     3
 75
     0
 76
     0
 77
     0
 78
     0
  0
ENDTAB
  0
TABLE
  2
LTYPE
  5
5
330
0
100
AcDbSymbolTable
 70
     1
  0
LTYPE
  5
14
330
5
100
AcDbSymbolTableRecord
100
AcDbLinetypeTableRecord
  2
BYBLOCK
 70
     0
  3

 72
    65
 73
     0
 40
0.0
  0
LTYPE
  5
15
330
5
100
AcDbSymbolTableRecord
100
AcDbLinetypeTableRecord
  2
BYLAYER
 70
     0
  3

 72
    65
 73
     0
 40
0.0
  0
LTYPE
  5
16
330
5
100
AcDbSymbolTableRecord
100
AcDbLinetypeTableRecord
  2
CONTINUOUS
 70
     0
  3
Solid line
 72
    65
 73
     0
 40
0.0
  0
ENDTAB
  0
TABLE
  2
LAYER
  5
2
100
AcDbSymbolTable
 70
2
  0
LAYER
  5
50
100
AcDbSymbolTableRecord
100
AcDbLayerTableRecord
  2
0
 70
0
  6
CONTINUOUS
  0
LAYER
  5
51
100
AcDbSymbolTableRecord
100
AcDbLayerTableRecord
  2
layout
 70
0
  6
CONTINUOUS
  0
ENDTAB
  0
TABLE
  2
STYLE
  5
3
330
0
100
AcDbSymbolTable
 70
     1
  0
STYLE
  5
11
330
3
100
AcDbSymbolTableRecord
100
AcDbTextStyleTableRecord
  2
STANDARD
 70
     0
 40
0.0
 41
1.0
 50
0.0
 71
     0
 42
2.5
  3
txt
  4

  0
ENDTAB
  0
TABLE
  2
VIEW
  5
6
330
0
100
AcDbSymbolTable
 70
     0
  0
ENDTAB
  0
TABLE
  2
UCS
  5
7
330
0
100
AcDbSymbolTable
 70
     0
  0
ENDTAB
  0
TABLE
  2
APPID
  5
9
330
0
100
AcDbSymbolTable
 70
     2
  0
APPID
  5
12
330
9
100
AcDbSymbolTableRecord
100
AcDbRegAppTableRecord
  2
ACAD
 70
     0
  0
ENDTAB
  0
TABLE
  2
DIMSTYLE
  5
A
330
0
100
AcDbSymbolTable
 70
     1
  0
DIMSTYLE
105
27
330
A
100
AcDbSymbolTableRecord
100
AcDbDimStyleTableRecord
  2
ISO-25
 70
     0
  3

  4

  5

  6

  7

 40
1.0
 41
2.5
 42
0.625
 43
3.75
 44
1.25
 45
0.0
 46
0.0
 47
0.0
 48
0.0
140
2.5
141
2.5
142
0.0
143
0.03937007874016
144
1.0
145
0.0
146
1.0
147
0.625
 71
     0
 72
     0
 73
     0
 74
     0
 75
     0
 76
     0
 77
     1
 78
     8
170
     0
171
     3
172
     1
173
     0
174
     0
175
     0
176
     0
177
     0
178
     0
270
     2
271
     2
272
     2
273
     2
274
     3
340
11
275
     0
280
     0
281
     0
282
     0
283
     0
284
     8
285
     0
286
     0
287
     3
288
     0
  0
ENDTAB
  0
TABLE
  2
BLOCK_RECORD
  5
1
330
0
100
AcDbSymbolTable
 70
     1
  0
BLOCK_RECORD
  5
1F
330
1
100
AcDbSymbolTableRecord
100
AcDbBlockTableRecord
  2
*MODEL_SPACE
  0
BLOCK_RECORD
  5
1B
330
1
100
AcDbSymbolTableRecord
100
AcDbBlockTableRecord
  2
*PAPER_SPACE
  0
ENDTAB
  0
ENDSEC
  0
SECTION
  2
BLOCKS
  0
BLOCK
  5
20
330
1F
100
AcDbEntity
  8
0
100
AcDbBlockBegin
  2
*MODEL_SPACE
 70
     0
 10
0.0
 20
0.0
 30
0.0
  3
*MODEL_SPACE
  1

  0
ENDBLK
  5
21
330
1F
100
AcDbEntity
  8
0
100
AcDbBlockEnd
  0
BLOCK
  5
1C
330
1B
100
AcDbEntity
 67
     1
  8
0
100
AcDbBlockBegin
  2
*PAPER_SPACE
  1

  0
ENDBLK
  5
1D
330
1B
100
AcDbEntity
 67
     1
  8
0
100
AcDbBlockEnd
  0
ENDSEC
  0
SECTION
  2
ENTITIES
  0
SPLINE
  5
100
100
AcDbEntity
  8
layout
 62
7
100
AcDbSpline
 70
8
 71
3
 72
8
 73
4
 74
0
 40
0
 40
0
 40
0
 40
0
 40
1
 40
1
 40
1
 40
1
 10
588.600374
 20
-328.453714
 30
0.0
 10
586.020731
 20
-328.453714
 30
0.0
 10
583.695096
 20
-330.007654
 30
0.0
 10
582.707910
 20
-332.390933
 30
0.0
  0
SPLINE
  5
101
100
AcDbEntity
  8
layout
 62
7
100
AcDbSpline
 70
8
 71
3
 72
8
 73
4
 74
0
 40
0
 40
0
 40
0
 40
0
 40
1
 40
1
 40
1
 40
1
 10
582.707910
 20
-332.390933
 30
0.0
 10
581.720723
 20
-334.774212
 30
0.0
 10
582.266394
 20
-337.517485
 30
0.0
 10
584.090477
 20
-339.341568
 30
0.0
  0
SPLINE
  5
102
100
AcDbEntity
  8
layout
 62
7
100
AcDbSpline
 70
8
 71
3
 72
8
 73
4
 74
0
 40
0
 40
0
 40
0
 40
0
 40
1
 40
1
 40
1
 40
1
 10
584.090477
 20
-339.341568
 30
0.0
 10
585.914560
 20
-341.165651
 30
0.0
 10
588.657833
 20
-341.711322
 30
0.0
 10
591.041112
 20
-340.724136
 30
0.0
  0
SPLINE
  5
103
100
AcDbEntity
  8
layout
 62
7
100
AcDbSpline
 70
8
 71
3
 72
8
 73
4
 74
0
 40
0
 40
0
 40
0
 40
0
 40
1
 40
1
 40
1
 40
1
 10
591.041112
 20
-340.724136
 30
0.0
 10
593.424391
 20
-339.736949
 30
0.0
 10
594.978331
 20
-337.411314
 30
0.0
 10
594.978331
 20
-334.831672
 30
0.0
  0
SPLINE
  5
104
100
AcDbEntity
  8
layout
 62
7
100
AcDbSpline
 70
8
 71
3
 72
8
 73
4
 74
0
 40
0
 40
0
 40
0
 40
0
 40
1
 40
1
 40
1
 40
1
 10
594.978331
 20
-334.831672
 30
0.0
 10
594.978331
 20
-333.140132
 30
0.0
 10
594.306369
 20
-331.517874
 30
0.0
 10
593.110270
 20
-330.321775
 30
0.0
  0
SPLINE
  5
105
100
AcDbEntity
  8
layout
 62
7
100
AcDbSpline
 70
8
 71
3
 72
8
 73
4
 74
0
 40
0
 40
0
 40
0
 40
0
 40
1
 40
1
 40
1
 40
1
 10
593.110270
 20
-330.321775
 30
0.0
 10
591.914171
 20
-329.125676
 30
0.0
 10
590.291913
 20
-328.453714
 30
0.0
 10
588.600374
 20
-328.453714
 30
0.0
  0
SPLINE
  5
106
100
AcDbEntity
  8
layout
 62
7
100
AcDbSpline
 70
8
 71
3
 72
8
 73
4
 74
0
 40
0
 40
0
 40
0
 40
0
 40
1
 40
1
 40
1
 40
1
 10
514.834952
 20
-348.219100
 30
0.0
 10
512.255309
 20
-348.219100
 30
0.0
 10
509.929675
 20
-349.773039
 30
0.0
 10
508.942488
 20
-352.156318
 30
0.0
  0
SPLINE
  5
107
100
AcDbEntity
  8
layout
 62
7
100
AcDbSpline
 70
8
 71
3
 72
8
 73
4
 74
0
 40
0
 40
0
 40
0
 40
0
 40
1
 40
1
 40
1
 40
1
 10
508.942488
 20
-352.156318
 30
0.0
 10
507.955301
 20
-354.539598
 30
0.0
 10
508.500972
 20
-357.282871
 30
0.0
 10
510.325055
 20
-359.106953
 30
0.0
  0
SPLINE
  5
108
100
AcDbEntity
  8
layout
 62
7
100
AcDbSpline
 70
8
 71
3
 72
8
 73
4
 74
0
 40
0
 40
0
 40
0
 40
0
 40
1
 40
1
 40
1
 40
1
 10
510.325055
 20
-359.106953
 30
0.0
 10
512.149138
 20
-360.931036
 30
0.0
 10
514.892411
 20
-361.476707
 30
0.0
 10
517.275691
 20
-360.489521
 30
0.0
  0
SPLINE
  5
109
100
AcDbEntity
  8
layout
 62
7
100
AcDbSpline
 70
8
 71
3
 72
8
 73
4
 74
0
 40
0
 40
0
 40
0
 40
0
 40
1
 40
1
 40
1
 40
1
 10
517.275691
 20
-360.489521
 30
0.0
 10
519.658970
 20
-359.502334
 30
0.0
 10
521.212909
 20
-357.176700
 30
0.0
 10
521.212909
 20
-354.597057
 30
0.0
  0
SPLINE
  5
10a
100
AcDbEntity
  8
layout
 62
7
100
AcDbSpline
 70
8
 71
3
 72
8
 73
4
 74
0
 40
0
 40
0
 40
0
 40
0
 40
1
 40
1
 40
1
 40
1
 10
521.212909
 20
-354.597057
 30
0.0
 10
521.212909
 20
-352.905517
 30
0.0
 10
520.540948
 20
-351.283259
 30
0.0
 10
519.344849
 20
-350.087160
 30
0.0
  0
SPLINE
  5
10b
100
AcDbEntity
  8
layout
 62
7
100
AcDbSpline
 70
8
 71
3
 72
8
 73
4
 74
0
 40
0
 40
0
 40
0
 40
0
 40
1
 40
1
 40
1
 40
1
 10
519.344849
 20
-350.087160
 30
0.0
 10
518.148750
 20
-348.891061
 30
0.0
 10
516.526491
 20
-348.219100
 30
0.0
 10
514.834952
 20
-348.219100
 30
0.0
  0
LWPOLYLINE
  5
10c
100
AcDbEntity
  8
layout
 62
7
100
AcDbPolyline
 90
1
 70
1
 10
588.600374
 20
-328.453714
 30
0.0
  0
SPLINE
  5
10d
100
AcDbEntity
  8
layout
 62
7
100
AcDbSpline
 70
8
 71
3
 72
8
 73
4
 74
0
 40
0
 40
0
 40
0
 40
0
 40
1
 40
1
 40
1
 40
1
 10
534.600383
 20
-421.984544
 30
0.0
 10
532.020740
 20
-421.984544
 30
0.0
 10
529.695105
 20
-423.538483
 30
0.0
 10
528.707919
 20
-425.921763
 30
0.0
  0
SPLINE
  5
10e
100
AcDbEntity
  8
layout
 62
7
100
AcDbSpline
 70
8
 71
3
 72
8
 73
4
 74
0
 40
0
 40
0
 40
0
 40
0
 40
1
 40
1
 40
1
 40
1
 10
528.707919
 20
-425.921763
 30
0.0
 10
527.720732
 20
-428.305042
 30
0.0
 10
528.266403
 20
-431.048315
 30
0.0
 10
530.090486
 20
-432.872398
 30
0.0
  0
SPLINE
  5
10f
100
AcDbEntity
  8
layout
 62
7
100
AcDbSpline
 70
8
 71
3
 72
8
 73
4
 74
0
 40
0
 40
0
 40
0
 40
0
 40
1
 40
1
 40
1
 40
1
 10
530.090486
 20
-432.872398
 30
0.0
 10
531.914569
 20
-434.696481
 30
0.0
 10
534.657842
 20
-435.242152
 30
0.0
 10
537.041121
 20
-434.254965
 30
0.0
  0
SPLINE
  5
110
100
AcDbEntity
  8
layout
 62
7
100
AcDbSpline
 70
8
 71
3
 72
8
 73
4
 74
0
 40
0
 40
0
 40
0
 40
0
 40
1
 40
1
 40
1
 40
1
 10
537.041121
 20
-434.254965
 30
0.0
 10
539.424400
 20
-433.267779
 30
0.0
 10
540.978340
 20
-430.942144
 30
0.0
 10
540.978340
 20
-428.362501
 30
0.0
  0
SPLINE
  5
111
100
AcDbEntity
  8
layout
 62
7
100
AcDbSpline
 70
8
 71
3
 72
8
 73
4
 74
0
 40
0
 40
0
 40
0
 40
0
 40
1
 40
1
 40
1
 40
1
 10
540.978340
 20
-428.362501
 30
0.0
 10
540.978340
 20
-426.670962
 30
0.0
 10
540.306378
 20
-425.048703
 30
0.0
 10
539.110279
 20
-423.852604
 30
0.0
  0
SPLINE
  5
112
100
AcDbEntity
  8
layout
 62
7
100
AcDbSpline
 70
8
 71
3
 72
8
 73
4
 74
0
 40
0
 40
0
 40
0
 40
0
 40
1
 40
1
 40
1
 40
1
 10
539.110279
 20
-423.852604
 30
0.0
 10
537.914180
 20
-422.656505
 30
0.0
 10
536.291922
 20
-421.984544
 30
0.0
 10
534.600383
 20
-421.984544
 30
0.0
  0
LWPOLYLINE
  5
113
100
AcDbEntity
  8
layout
 62
7
100
AcDbPolyline
 90
1
 70
1
 10
514.834952
 20
-348.219100
 30
0.0
  0
SPLINE
  5
114
100
AcDbEntity
  8
layout
 62
7
100
AcDbSpline
 70
8
 71
3
 72
8
 73
4
 74
0
 40
0
 40
0
 40
0
 40
0
 40
1
 40
1
 40
1
 40
1
 10
676.516991
 20
-522.875910
 30
0.0
 10
673.937348
 20
-522.875910
 30
0.0
 10
671.611714
 20
-524.429850
 30
0.0
 10
670.624527
 20
-526.813129
 30
0.0
  0
SPLINE
  5
115
100
AcDbEntity
  8
layout
 62
7
100
AcDbSpline
 70
8
 71
3
 72
8
 73
4
 74
0
 40
0
 40
0
 40
0
 40
0
 40
1
 40
1
 40
1
 40
1
 10
670.624527
 20
-526.813129
 30
0.0
 10
669.637340
 20
-529.196408
 30
0.0
 10
670.183011
 20
-531.939681
 30
0.0
 10
672.007094
 20
-533.763764
 30
0.0
  0
SPLINE
  5
116
100
AcDbEntity
  8
layout
 62
7
100
AcDbSpline
 70
8
 71
3
 72
8
 73
4
 74
0
 40
0
 40
0
 40
0
 40
0
 40
1
 40
1
 40
1
 40
1
 10
672.007094
 20
-533.763764
 30
0.0
 10
673.831177
 20
-535.587847
 30
0.0
 10
676.574450
 20
-536.133518
 30
0.0
 10
678.957729
 20
-535.146331
 30
0.0
  0
SPLINE
  5
117
100
AcDbEntity
  8
layout
 62
7
100
AcDbSpline
 70
8
 71
3
 72
8
 73
4
 74
0
 40
0
 40
0
 40
0
 40
0
 40
1
 40
1
 40
1
 40
1
 10
678.957729
 20
-535.146331
 30
0.0
 10
681.341009
 20
-534.159145
 30
0.0
 10
682.894948
 20
-531.833510
 30
0.0
 10
682.894948
 20
-529.253867
 30
0.0
  0
SPLINE
  5
118
100
AcDbEntity
  8
layout
 62
7
100
AcDbSpline
 70
8
 71
3
 72
8
 73
4
 74
0
 40
0
 40
0
 40
0
 40
0
 40
1
 40
1
 40
1
 40
1
 10
682.894948
 20
-529.253867
 30
0.0
 10
682.894948
 20
-527.562328
 30
0.0
 10
682.222987
 20
-525.940070
 30
0.0
 10
681.026888
 20
-524.743971
 30
0.0
  0
SPLINE
  5
119
100
AcDbEntity
  8
layout
 62
7
100
AcDbSpline
 70
8
 71
3
 72
8
 73
4
 74
0
 40
0
 40
0
 40
0
 40
0
 40
1
 40
1
 40
1
 40
1
 10
681.026888
 20
-524.743971
 30
0.0
 10
679.830789
 20
-523.547872
 30
0.0
 10
678.208530
 20
-522.875910
 30
0.0
 10
676.516991
 20
-522.875910
 30
0.0
  0
LWPOLYLINE
  5
11a
100
AcDbEntity
  8
layout
 62
7
100
AcDbPolyline
 90
1
 70
1
 10
534.600383
 20
-421.984544
 30
0.0
  0
SPLINE
  5
11b
100
AcDbEntity
  8
layout
 62
7
100
AcDbSpline
 70
8
 71
3
 72
8
 73
4
 74
0
 40
0
 40
0
 40
0
 40
0
 40
1
 40
1
 40
1
 40
1
 10
744.548533
 20
-405.946698
 30
0.0
 10
741.968890
 20
-405.946698
 30
0.0
 10
739.643255
 20
-407.500637
 30
0.0
 10
738.656069
 20
-409.883916
 30
0.0
  0
SPLINE
  5
11c
100
AcDbEntity
  8
layout
 62
7
100
AcDbSpline
 70
8
 71
3
 72
8
 73
4
 74
0
 40
0
 40
0
 40
0
 40
0
 40
1
 40
1
 40
1
 40
1
 10
738.656069
 20
-409.883916
 30
0.0
 10
737.668882
 20
-412.267195
 30
0.0
 10
738.214553
 20
-415.010468
 30
0.0
 10
740.038636
 20
-416.834551
 30
0.0
  0
SPLINE
  5
11d
100
AcDbEntity
  8
layout
 62
7
100
AcDbSpline
 70
8
 71
3
 72
8
 73
4
 74
0
 40
0
 40
0
 40
0
 40
0
 40
1
 40
1
 40
1
 40
1
 10
740.038636
 20
-416.834551
 30
0.0
 10
741.862719
 20
-418.658634
 30
0.0
 10
744.605992
 20
-419.204305
 30
0.0
 10
746.989271
 20
-418.217119
 30
0.0
  0
SPLINE
  5
11e
100
AcDbEntity
  8
layout
 62
7
100
AcDbSpline
 70
8
 71
3
 72
8
 73
4
 74
0
 40
0
 40
0
 40
0
 40
0
 40
1
 40
1
 40
1
 40
1
 10
746.989271
 20
-418.217119
 30
0.0
 10
749.372551
 20
-417.229932
 30
0.0
 10
750.926490
 20
-414.904298
 30
0.0
 10
750.926490
 20
-412.324655
 30
0.0
  0
SPLINE
  5
11f
100
AcDbEntity
  8
layout
 62
7
100
AcDbSpline
 70
8
 71
3
 72
8
 73
4
 74
0
 40
0
 40
0
 40
0
 40
0
 40
1
 40
1
 40
1
 40
1
 10
750.926490
 20
-412.324655
 30
0.0
 10
750.926490
 20
-410.633115
 30
0.0
 10
750.254529
 20
-409.010857
 30
0.0
 10
749.058430
 20
-407.814758
 30
0.0
  0
SPLINE
  5
120
100
AcDbEntity
  8
layout
 62
7
100
AcDbSpline
 70
8
 71
3
 72
8
 73
4
 74
0
 40
0
 40
0
 40
0
 40
0
 40
1
 40
1
 40
1
 40
1
 10
749.058430
 20
-407.814758
 30
0.0
 10
747.862331
 20
-406.618659
 30
0.0
 10
746.240072
 20
-405.946698
 30
0.0
 10
744.548533
 20
-405.946698
 30
0.0
  0
LWPOLYLINE
  5
121
100
AcDbEntity
  8
layout
 62
7
100
AcDbPolyline
 90
1
 70
1
 10
676.516991
 20
-522.875910
 30
0.0
  0
SPLINE
  5
122
100
AcDbEntity
  8
layout
 62
7
100
AcDbSpline
 70
8
 71
3
 72
8
 73
4
 74
0
 40
0
 40
0
 40
0
 40
0
 40
1
 40
1
 40
1
 40
1
 10
706.989452
 20
-405.946698
 30
0.0
 10
704.409810
 20
-405.946698
 30
0.0
 10
702.084175
 20
-407.500637
 30
0.0
 10
701.096988
 20
-409.883916
 30
0.0
  0
SPLINE
  5
123
100
AcDbEntity
  8
layout
 62
7
100
AcDbSpline
 70
8
 71
3
 72
8
 73
4
 74
0
 40
0
 40
0
 40
0
 40
0
 40
1
 40
1
 40
1
 40
1
 10
701.096988
 20
-409.883916
 30
0.0
 10
700.109802
 20
-412.267195
 30
0.0
 10
700.655473
 20
-415.010468
 30
0.0
 10
702.479556
 20
-416.834551
 30
0.0
  0
SPLINE
  5
124
100
AcDbEntity
  8
layout
 62
7
100
AcDbSpline
 70
8
 71
3
 72
8
 73
4
 74
0
 40
0
 40
0
 40
0
 40
0
 40
1
 40
1
 40
1
 40
1
 10
702.479556
 20
-416.834551
 30
0.0
 10
704.303639
 20
-418.658634
 30
0.0
 10
707.046912
 20
-419.204305
 30
0.0
 10
709.430191
 20
-418.217119
 30
0.0
  0
SPLINE
  5
125
100
AcDbEntity
  8
layout
 62
7
100
AcDbSpline
 70
8
 71
3
 72
8
 73
4
 74
0
 40
0
 40
0
 40
0
 40
0
 40
1
 40
1
 40
1
 40
1
 10
709.430191
 20
-418.217119
 30
0.0
 10
711.813470
 20
-417.229932
 30
0.0
 10
713.367410
 20
-414.904298
 30
0.0
 10
713.367410
 20
-412.324655
 30
0.0
  0
SPLINE
  5
126
100
AcDbEntity
  8
layout
 62
7
100
AcDbSpline
 70
8
 71
3
 72
8
 73
4
 74
0
 40
0
 40
0
 40
0
 40
0
 40
1
 40
1
 40
1
 40
1
 10
713.367410
 20
-412.324655
 30
0.0
 10
713.367410
 20
-410.633115
 30
0.0
 10
712.695448
 20
-409.010857
 30
0.0
 10
711.499349
 20
-407.814758
 30
0.0
  0
SPLINE
  5
127
100
AcDbEntity
  8
layout
 62
7
100
AcDbSpline
 70
8
 71
3
 72
8
 73
4
 74
0
 40
0
 40
0
 40
0
 40
0
 40
1
 40
1
 40
1
 40
1
 10
711.499349
 20
-407.814758
 30
0.0
 10
710.303250
 20
-406.618659
 30
0.0
 10
708.680992
 20
-405.946698
 30
0.0
 10
706.989452
 20
-405.946698
 30
0.0
  0
LWPOLYLINE
  5
128
100
AcDbEntity
  8
layout
 62
7
100
AcDbPolyline
 90
1
 70
1
 10
744.548533
 20
-405.946698
 30
0.0
  0
SPLINE
  5
129
100
AcDbEntity
  8
layout
 62
7
100
AcDbSpline
 70
8
 71
3
 72
8
 73
4
 74
0
 40
0
 40
0
 40
0
 40
0
 40
1
 40
1
 40
1
 40
1
 10
638.249249
 20
-292.560795
 30
0.0
 10
635.669606
 20
-292.560795
 30
0.0
 10
633.343971
 20
-294.114734
 30
0.0
 10
632.356785
 20
-296.498013
 30
0.0
  0
SPLINE
  5
12a
100
AcDbEntity
  8
layout
 62
7
100
AcDbSpline
 70
8
 71
3
 72
8
 73
4
 74
0
 40
0
 40
0
 40
0
 40
0
 40
1
 40
1
 40
1
 40
1
 10
632.356785
 20
-296.498013
 30
0.0
 10
631.369598
 20
-298.881292
 30
0.0
 10
631.915269
 20
-301.624565
 30
0.0
 10
633.739352
 20
-303.448648
 30
0.0
  0
SPLINE
  5
12b
100
AcDbEntity
  8
layout
 62
7
100
AcDbSpline
 70
8
 71
3
 72
8
 73
4
 74
0
 40
0
 40
0
 40
0
 40
0
 40
1
 40
1
 40
1
 40
1
 10
633.739352
 20
-303.448648
 30
0.0
 10
635.563435
 20
-305.272731
 30
0.0
 10
638.306708
 20
-305.818402
 30
0.0
 10
640.689987
 20
-304.831216
 30
0.0
  0
SPLINE
  5
12c
100
AcDbEntity
  8
layout
 62
7
100
AcDbSpline
 70
8
 71
3
 72
8
 73
4
 74
0
 40
0
 40
0
 40
0
 40
0
 40
1
 40
1
 40
1
 40
1
 10
640.689987
 20
-304.831216
 30
0.0
 10
643.073266
 20
-303.844029
 30
0.0
 10
644.627206
 20
-301.518394
 30
0.0
 10
644.627206
 20
-298.938752
 30
0.0
  0
SPLINE
  5
12d
100
AcDbEntity
  8
layout
 62
7
100
AcDbSpline
 70
8
 71
3
 72
8
 73
4
 74
0
 40
0
 40
0
 40
0
 40
0
 40
1
 40
1
 40
1
 40
1
 10
644.627206
 20
-298.938752
 30
0.0
 10
644.627206
 20
-297.247212
 30
0.0
 10
643.955244
 20
-295.624954
 30
0.0
 10
642.759145
 20
-294.428855
 30
0.0
  0
SPLINE
  5
12e
100
AcDbEntity
  8
layout
 62
7
100
AcDbSpline
 70
8
 71
3
 72
8
 73
4
 74
0
 40
0
 40
0
 40
0
 40
0
 40
1
 40
1
 40
1
 40
1
 10
642.759145
 20
-294.428855
 30
0.0
 10
641.563046
 20
-293.232756
 30
0.0
 10
639.940788
 20
-292.560795
 30
0.0
 10
638.249249
 20
-292.560795
 30
0.0
  0
LWPOLYLINE
  5
12f
100
AcDbEntity
  8
layout
 62
7
100
AcDbPolyline
 90
1
 70
1
 10
706.989452
 20
-405.946698
 30
0.0
  0
SPLINE
  5
130
100
AcDbEntity
  8
layout
 62
7
100
AcDbSpline
 70
8
 71
3
 72
8
 73
4
 74
0
 40
0
 40
0
 40
0
 40
0
 40
1
 40
1
 40
1
 40
1
 10
470.296380
 20
-484.608168
 30
0.0
 10
467.716737
 20
-484.608168
 30
0.0
 10
465.391102
 20
-486.162107
 30
0.0
 10
464.403916
 20
-488.545387
 30
0.0
  0
SPLINE
  5
131
100
AcDbEntity
  8
layout
 62
7
100
AcDbSpline
 70
8
 71
3
 72
8
 73
4
 74
0
 40
0
 40
0
 40
0
 40
0
 40
1
 40
1
 40
1
 40
1
 10
464.403916
 20
-488.545387
 30
0.0
 10
463.416729
 20
-490.928666
 30
0.0
 10
463.962400
 20
-493.671939
 30
0.0
 10
465.786483
 20
-495.496022
 30
0.0
  0
SPLINE
  5
132
100
AcDbEntity
  8
layout
 62
7
100
AcDbSpline
 70
8
 71
3
 72
8
 73
4
 74
0
 40
0
 40
0
 40
0
 40
0
 40
1
 40
1
 40
1
 40
1
 10
465.786483
 20
-495.496022
 30
0.0
 10
467.610566
 20
-497.320105
 30
0.0
 10
470.353839
 20
-497.865776
 30
0.0
 10
472.737118
 20
-496.878589
 30
0.0
  0
SPLINE
  5
133
100
AcDbEntity
  8
layout
 62
7
100
AcDbSpline
 70
8
 71
3
 72
8
 73
4
 74
0
 40
0
 40
0
 40
0
 40
0
 40
1
 40
1
 40
1
 40
1
 10
472.737118
 20
-496.878589
 30
0.0
 10
475.120397
 20
-495.891402
 30
0.0
 10
476.674337
 20
-493.565768
 30
0.0
 10
476.674337
 20
-490.986125
 30
0.0
  0
SPLINE
  5
134
100
AcDbEntity
  8
layout
 62
7
100
AcDbSpline
 70
8
 71
3
 72
8
 73
4
 74
0
 40
0
 40
0
 40
0
 40
0
 40
1
 40
1
 40
1
 40
1
 10
476.674337
 20
-490.986125
 30
0.0
 10
476.674337
 20
-489.294586
 30
0.0
 10
476.002375
 20
-487.672327
 30
0.0
 10
474.806276
 20
-486.476228
 30
0.0
  0
SPLINE
  5
135
100
AcDbEntity
  8
layout
 62
7
100
AcDbSpline
 70
8
 71
3
 72
8
 73
4
 74
0
 40
0
 40
0
 40
0
 40
0
 40
1
 40
1
 40
1
 40
1
 10
474.806276
 20
-486.476228
 30
0.0
 10
473.610177
 20
-485.280129
 30
0.0
 10
471.987919
 20
-484.608168
 30
0.0
 10
470.296380
 20
-484.608168
 30
0.0
  0
LWPOLYLINE
  5
136
100
AcDbEntity
  8
layout
 62
7
100
AcDbPolyline
 90
1
 70
1
 10
638.249249
 20
-292.560795
 30
0.0
  0
SPLINE
  5
137
100
AcDbEntity
  8
layout
 62
7
100
AcDbSpline
 70
8
 71
3
 72
8
 73
4
 74
0
 40
0
 40
0
 40
0
 40
0
 40
1
 40
1
 40
1
 40
1
 10
432.737299
 20
-335.789170
 30
0.0
 10
430.157656
 20
-335.789170
 30
0.0
 10
427.832022
 20
-337.343109
 30
0.0
 10
426.844835
 20
-339.726389
 30
0.0
  0
SPLINE
  5
138
100
AcDbEntity
  8
layout
 62
7
100
AcDbSpline
 70
8
 71
3
 72
8
 73
4
 74
0
 40
0
 40
0
 40
0
 40
0
 40
1
 40
1
 40
1
 40
1
 10
426.844835
 20
-339.726389
 30
0.0
 10
425.857649
 20
-342.109668
 30
0.0
 10
426.403320
 20
-344.852941
 30
0.0
 10
428.227403
 20
-346.677024
 30
0.0
  0
SPLINE
  5
139
100
AcDbEntity
  8
layout
 62
7
100
AcDbSpline
 70
8
 71
3
 72
8
 73
4
 74
0
 40
0
 40
0
 40
0
 40
0
 40
1
 40
1
 40
1
 40
1
 10
428.227403
 20
-346.677024
 30
0.0
 10
430.051486
 20
-348.501107
 30
0.0
 10
432.794759
 20
-349.046778
 30
0.0
 10
435.178038
 20
-348.059591
 30
0.0
  0
SPLINE
  5
13a
100
AcDbEntity
  8
layout
 62
7
100
AcDbSpline
 70
8
 71
3
 72
8
 73
4
 74
0
 40
0
 40
0
 40
0
 40
0
 40
1
 40
1
 40
1
 40
1
 10
435.178038
 20
-348.059591
 30
0.0
 10
437.561317
 20
-347.072405
 30
0.0
 10
439.115256
 20
-344.746770
 30
0.0
 10
439.115256
 20
-342.167127
 30
0.0
  0
SPLINE
  5
13b
100
AcDbEntity
  8
layout
 62
7
100
AcDbSpline
 70
8
 71
3
 72
8
 73
4
 74
0
 40
0
 40
0
 40
0
 40
0
 40
1
 40
1
 40
1
 40
1
 10
439.115256
 20
-342.167127
 30
0.0
 10
439.115256
 20
-340.475588
 30
0.0
 10
438.443295
 20
-338.853329
 30
0.0
 10
437.247196
 20
-337.657231
 30
0.0
  0
SPLINE
  5
13c
100
AcDbEntity
  8
layout
 62
7
100
AcDbSpline
 70
8
 71
3
 72
8
 73
4
 74
0
 40
0
 40
0
 40
0
 40
0
 40
1
 40
1
 40
1
 40
1
 10
437.247196
 20
-337.657231
 30
0.0
 10
436.051097
 20
-336.461132
 30
0.0
 10
434.428839
 20
-335.789170
 30
0.0
 10
432.737299
 20
-335.789170
 30
0.0
  0
LWPOLYLINE
  5
13d
100
AcDbEntity
  8
layout
 62
7
100
AcDbPolyline
 90
1
 70
1
 10
470.296380
 20
-484.608168
 30
0.0
  0
LWPOLYLINE
  5
13e
100
AcDbEntity
  8
layout
 62
7
100
AcDbPolyline
 90
1
 70
1
 10
432.737299
 20
-335.789170
 30
0.0
  0
LWPOLYLINE
  5
13f
100
AcDbEntity
  8
layout
 62
2
100
AcDbPolyline
 90
2
 70
0
 10
391.533599
 20
-355.013608
 30
0.0
 10
405.002002
 20
-507.703998
 30
0.0
  0
SPLINE
  5
140
100
AcDbEntity
  8
layout
 62
2
100
AcDbSpline
 70
8
 71
3
 72
8
 73
4
 74
0
 40
0
 40
0
 40
0
 40
0
 40
1
 40
1
 40
1
 40
1
 10
755.178490
 20
-315.281374
 30
0.0
 10
755.085509
 20
-314.128751
 30
0.0
 10
754.173862
 20
-313.211735
 30
0.0
 10
753.021805
 20
-313.111990
 30
0.0
  0
LWPOLYLINE
  5
141
100
AcDbEntity
  8
layout
 62
2
100
AcDbPolyline
 90
2
 70
0
 10
755.178461
 20
-502.984536
 30
0.0
 10
755.178461
 20
-428.794014
 30
0.0
  0
LWPOLYLINE
  5
142
100
AcDbEntity
  8
layout
 62
2
100
AcDbPolyline
 90
2
 70
0
 10
753.021805
 20
-313.111990
 30
0.0
 10
696.359524
 20
-313.111990
 30
0.0
  0
LWPOLYLINE
  5
143
100
AcDbEntity
  8
layout
 62
2
100
AcDbPolyline
 90
2
 70
0
 10
755.178461
 20
-320.966543
 30
0.0
 10
755.178461
 20
-315.281374
 30
0.0
  0
LWPOLYLINE
  5
144
100
AcDbEntity
  8
layout
 62
2
100
AcDbPolyline
 90
2
 70
0
 10
610.979939
 20
-546.233406
 30
0.0
 10
660.189421
 20
-564.176726
 30
0.0
  0
LWPOLYLINE
  5
145
100
AcDbEntity
  8
layout
 62
2
100
AcDbPolyline
 90
2
 70
0
 10
755.178461
 20
-319.467836
 30
0.0
 10
755.178461
 20
-430.749864
 30
0.0
  0
SPLINE
  5
146
100
AcDbEntity
  8
layout
 62
2
100
AcDbSpline
 70
8
 71
3
 72
8
 73
4
 74
0
 40
0
 40
0
 40
0
 40
0
 40
1
 40
1
 40
1
 40
1
 10
696.359524
 20
-313.111990
 30
0.0
 10
596.654795
 20
-258.187650
 30
0.0
 10
472.720408
 20
-275.223771
 30
0.0
 10
391.533599
 20
-355.013608
 30
0.0
  0
LWPOLYLINE
  5
147
100
AcDbEntity
  8
layout
 62
2
100
AcDbPolyline
 90
2
 70
0
 10
660.189421
 20
-564.176726
 30
0.0
 10
705.458743
 20
-589.660207
 30
0.0
  0
LWPOLYLINE
  5
148
100
AcDbEntity
  8
layout
 62
2
100
AcDbPolyline
 90
2
 70
0
 10
405.002002
 20
-507.703998
 30
0.0
 10
610.979939
 20
-546.233406
 30
0.0
  0
LWPOLYLINE
  5
149
100
AcDbEntity
  8
layout
 62
2
100
AcDbPolyline
 90
2
 70
0
 10
705.458743
 20
-589.660207
 30
0.0
 10
755.178461
 20
-503.033377
 30
0.0
  0
ENDSEC
  0
SECTION
  2
OBJECTS
  0
DICTIONARY
  5
C
330
0
100
AcDbDictionary
  3
ACAD_GROUP
350
D
  3
ACAD_MLINESTYLE
350
17
  0
DICTIONARY
  5
D
330
C
100
AcDbDictionary
  0
DICTIONARY
  5
1A
330
C
100
AcDbDictionary
  0
DICTIONARY
  5
17
330
C
100
AcDbDictionary
  3
STANDARD
350
18
  0
DICTIONARY
  5
19
330
C
100
AcDbDictionary
  0
ENDSEC
  0
EOF
