  0
SECTION
  2
HEADER
  9
$ACADVER
  1
AC1014
  9
$HANDSEED
  5
FFFF
  9
$MEASUREMENT
 70
     1
  0
ENDSEC
  0
SECTION
  2
TABLES
  0
TABLE
  2
VPORT
  5
8
330
0
100
AcDbSymbolTable
 70
     4
  0
VPORT
  5
2E
330
8
100
AcDbSymbolTableRecord
100
AcDbViewportTableRecord
  2
*ACTIVE
 70
     0
 10
0.0
 20
0.0
 11
1.0
 21
1.0
 12
210.0
 22
148.5
 13
0.0
 23
0.0
 14
10.0
 24
10.0
 15
10.0
 25
10.0
 16
0.0
 26
0.0
 36
1.0
 17
0.0
 27
0.0
 37
0.0
 40
341.0
 41
1.24
 42
50.0
 43
0.0
 44
0.0
 50
0.0
 51
0.0
 71
     0
 72
   100
 73
     1
 74
     3
 75
     0
 76
     0
 77
     0
 78
     0
  0
ENDTAB
  0
TABLE
  2
LTYPE
  5
5
330
0
100
AcDbSymbolTable
 70
     1
  0
LTYPE
  5
14
330
5
100
AcDbSymbolTableRecord
100
AcDbLinetypeTableRecord
  2
BYBLOCK
 70
     0
  3

 72
    65
 73
     0
 40
0.0
  0
LTYPE
  5
15
330
5
100
AcDbSymbolTableRecord
100
AcDbLinetypeTableRecord
  2
BYLAYER
 70
     0
  3

 72
    65
 73
     0
 40
0.0
  0
LTYPE
  5
16
330
5
100
AcDbSymbolTableRecord
100
AcDbLinetypeTableRecord
  2
CONTINUOUS
 70
     0
  3
Solid line
 72
    65
 73
     0
 40
0.0
  0
ENDTAB
  0
TABLE
  2
LAYER
  5
2
100
AcDbSymbolTable
 70
2
  0
LAYER
  5
50
100
AcDbSymbolTableRecord
100
AcDbLayerTableRecord
  2
0
 70
0
  6
CONTINUOUS
  0
LAYER
  5
51
100
AcDbSymbolTableRecord
100
AcDbLayerTableRecord
  2
layout
 70
0
  6
CONTINUOUS
  0
ENDTAB
  0
TABLE
  2
STYLE
  5
3
330
0
100
AcDbSymbolTable
 70
     1
  0
STYLE
  5
11
330
3
100
AcDbSymbolTableRecord
100
AcDbTextStyleTableRecord
  2
STANDARD
 70
     0
 40
0.0
 41
1.0
 50
0.0
 71
     0
 42
2.5
  3
txt
  4

  0
ENDTAB
  0
TABLE
  2
VIEW
  5
6
330
0
100
AcDbSymbolTable
 70
     0
  0
ENDTAB
  0
TABLE
  2
UCS
  5
7
330
0
100
AcDbSymbolTable
 70
     0
  0
ENDTAB
  0
TABLE
  2
APPID
  5
9
330
0
100
AcDbSymbolTable
 70
     2
  0
APPID
  5
12
330
9
100
AcDbSymbolTableRecord
100
AcDbRegAppTableRecord
  2
ACAD
 70
     0
  0
ENDTAB
  0
TABLE
  2
DIMSTYLE
  5
A
330
0
100
AcDbSymbolTable
 70
     1
  0
DIMSTYLE
105
27
330
A
100
AcDbSymbolTableRecord
100
AcDbDimStyleTableRecord
  2
ISO-25
 70
     0
  3

  4

  5

  6

  7

 40
1.0
 41
2.5
 42
0.625
 43
3.75
 44
1.25
 45
0.0
 46
0.0
 47
0.0
 48
0.0
140
2.5
141
2.5
142
0.0
143
0.03937007874016
144
1.0
145
0.0
146
1.0
147
0.625
 71
     0
 72
     0
 73
     0
 74
     0
 75
     0
 76
     0
 77
     1
 78
     8
170
     0
171
     3
172
     1
173
     0
174
     0
175
     0
176
     0
177
     0
178
     0
270
     2
271
     2
272
     2
273
     2
274
     3
340
11
275
     0
280
     0
281
     0
282
     0
283
     0
284
     8
285
     0
286
     0
287
     3
288
     0
  0
ENDTAB
  0
TABLE
  2
BLOCK_RECORD
  5
1
330
0
100
AcDbSymbolTable
 70
     1
  0
BLOCK_RECORD
  5
1F
330
1
100
AcDbSymbolTableRecord
100
AcDbBlockTableRecord
  2
*MODEL_SPACE
  0
BLOCK_RECORD
  5
1B
330
1
100
AcDbSymbolTableRecord
100
AcDbBlockTableRecord
  2
*PAPER_SPACE
  0
ENDTAB
  0
ENDSEC
  0
SECTION
  2
BLOCKS
  0
BLOCK
  5
20
330
1F
100
AcDbEntity
  8
0
100
AcDbBlockBegin
  2
*MODEL_SPACE
 70
     0
 10
0.0
 20
0.0
 30
0.0
  3
*MODEL_SPACE
  1

  0
ENDBLK
  5
21
330
1F
100
AcDbEntity
  8
0
100
AcDbBlockEnd
  0
BLOCK
  5
1C
330
1B
100
AcDbEntity
 67
     1
  8
0
100
AcDbBlockBegin
  2
*PAPER_SPACE
  1

  0
ENDBLK
  5
1D
330
1B
100
AcDbEntity
 67
     1
  8
0
100
AcDbBlockEnd
  0
ENDSEC
  0
SECTION
  2
ENTITIES
  0
SPLINE
  5
100
100
AcDbEntity
  8
layout
 62
7
100
AcDbSpline
 70
8
 71
3
 72
8
 73
4
 74
0
 40
0
 40
0
 40
0
 40
0
 40
1
 40
1
 40
1
 40
1
 10
207.645132
 20
-115.871171
 30
0.0
 10
206.735091
 20
-115.871171
 30
0.0
 10
205.914659
 20
-116.419367
 30
0.0
 10
205.566401
 20
-117.260135
 30
0.0
  0
SPLINE
  5
101
100
AcDbEntity
  8
layout
 62
7
100
AcDbSpline
 70
8
 71
3
 72
8
 73
4
 74
0
 40
0
 40
0
 40
0
 40
0
 40
1
 40
1
 40
1
 40
1
 10
205.566401
 20
-117.260135
 30
0.0
 10
205.218144
 20
-118.100903
 30
0.0
 10
205.410645
 20
-119.068668
 30
0.0
 10
206.054140
 20
-119.712164
 30
0.0
  0
SPLINE
  5
102
100
AcDbEntity
  8
layout
 62
7
100
AcDbSpline
 70
8
 71
3
 72
8
 73
4
 74
0
 40
0
 40
0
 40
0
 40
0
 40
1
 40
1
 40
1
 40
1
 10
206.054140
 20
-119.712164
 30
0.0
 10
206.697636
 20
-120.355660
 30
0.0
 10
207.665402
 20
-120.548161
 30
0.0
 10
208.506170
 20
-120.199903
 30
0.0
  0
SPLINE
  5
103
100
AcDbEntity
  8
layout
 62
7
100
AcDbSpline
 70
8
 71
3
 72
8
 73
4
 74
0
 40
0
 40
0
 40
0
 40
0
 40
1
 40
1
 40
1
 40
1
 10
208.506170
 20
-120.199903
 30
0.0
 10
209.346938
 20
-119.851646
 30
0.0
 10
209.895133
 20
-119.031214
 30
0.0
 10
209.895133
 20
-118.121173
 30
0.0
  0
SPLINE
  5
104
100
AcDbEntity
  8
layout
 62
7
100
AcDbSpline
 70
8
 71
3
 72
8
 73
4
 74
0
 40
0
 40
0
 40
0
 40
0
 40
1
 40
1
 40
1
 40
1
 10
209.895133
 20
-118.121173
 30
0.0
 10
209.895133
 20
-117.524436
 30
0.0
 10
209.658080
 20
-116.952139
 30
0.0
 10
209.236123
 20
-116.530182
 30
0.0
  0
SPLINE
  5
105
100
AcDbEntity
  8
layout
 62
7
100
AcDbSpline
 70
8
 71
3
 72
8
 73
4
 74
0
 40
0
 40
0
 40
0
 40
0
 40
1
 40
1
 40
1
 40
1
 10
209.236123
 20
-116.530182
 30
0.0
 10
208.814166
 20
-116.108225
 30
0.0
 10
208.241869
 20
-115.871171
 30
0.0
 10
207.645132
 20
-115.871171
 30
0.0
  0
SPLINE
  5
106
100
AcDbEntity
  8
layout
 62
7
100
AcDbSpline
 70
8
 71
3
 72
8
 73
4
 74
0
 40
0
 40
0
 40
0
 40
0
 40
1
 40
1
 40
1
 40
1
 10
181.622330
 20
-122.843960
 30
0.0
 10
180.712290
 20
-122.843960
 30
0.0
 10
179.891857
 20
-123.392155
 30
0.0
 10
179.543600
 20
-124.232923
 30
0.0
  0
SPLINE
  5
107
100
AcDbEntity
  8
layout
 62
7
100
AcDbSpline
 70
8
 71
3
 72
8
 73
4
 74
0
 40
0
 40
0
 40
0
 40
0
 40
1
 40
1
 40
1
 40
1
 10
179.543600
 20
-124.232923
 30
0.0
 10
179.195342
 20
-125.073691
 30
0.0
 10
179.387843
 20
-126.041457
 30
0.0
 10
180.031339
 20
-126.684953
 30
0.0
  0
SPLINE
  5
108
100
AcDbEntity
  8
layout
 62
7
100
AcDbSpline
 70
8
 71
3
 72
8
 73
4
 74
0
 40
0
 40
0
 40
0
 40
0
 40
1
 40
1
 40
1
 40
1
 10
180.031339
 20
-126.684953
 30
0.0
 10
180.674835
 20
-127.328449
 30
0.0
 10
181.642601
 20
-127.520950
 30
0.0
 10
182.483369
 20
-127.172692
 30
0.0
  0
SPLINE
  5
109
100
AcDbEntity
  8
layout
 62
7
100
AcDbSpline
 70
8
 71
3
 72
8
 73
4
 74
0
 40
0
 40
0
 40
0
 40
0
 40
1
 40
1
 40
1
 40
1
 10
182.483369
 20
-127.172692
 30
0.0
 10
183.324137
 20
-126.824435
 30
0.0
 10
183.872332
 20
-126.004002
 30
0.0
 10
183.872332
 20
-125.093962
 30
0.0
  0
SPLINE
  5
10a
100
AcDbEntity
  8
layout
 62
7
100
AcDbSpline
 70
8
 71
3
 72
8
 73
4
 74
0
 40
0
 40
0
 40
0
 40
0
 40
1
 40
1
 40
1
 40
1
 10
183.872332
 20
-125.093962
 30
0.0
 10
183.872332
 20
-124.497224
 30
0.0
 10
183.635279
 20
-123.924928
 30
0.0
 10
183.213322
 20
-123.502970
 30
0.0
  0
SPLINE
  5
10b
100
AcDbEntity
  8
layout
 62
7
100
AcDbSpline
 70
8
 71
3
 72
8
 73
4
 74
0
 40
0
 40
0
 40
0
 40
0
 40
1
 40
1
 40
1
 40
1
 10
183.213322
 20
-123.502970
 30
0.0
 10
182.791364
 20
-123.081013
 30
0.0
 10
182.219068
 20
-122.843960
 30
0.0
 10
181.622330
 20
-122.843960
 30
0.0
  0
LWPOLYLINE
  5
10c
100
AcDbEntity
  8
layout
 62
7
100
AcDbPolyline
 90
1
 70
1
 10
207.645132
 20
-115.871171
 30
0.0
  0
SPLINE
  5
10d
100
AcDbEntity
  8
layout
 62
7
100
AcDbSpline
 70
8
 71
3
 72
8
 73
4
 74
0
 40
0
 40
0
 40
0
 40
0
 40
1
 40
1
 40
1
 40
1
 10
188.595135
 20
-148.866770
 30
0.0
 10
187.685094
 20
-148.866770
 30
0.0
 10
186.864662
 20
-149.414965
 30
0.0
 10
186.516405
 20
-150.255733
 30
0.0
  0
SPLINE
  5
10e
100
AcDbEntity
  8
layout
 62
7
100
AcDbSpline
 70
8
 71
3
 72
8
 73
4
 74
0
 40
0
 40
0
 40
0
 40
0
 40
1
 40
1
 40
1
 40
1
 10
186.516405
 20
-150.255733
 30
0.0
 10
186.168147
 20
-151.096501
 30
0.0
 10
186.360648
 20
-152.064267
 30
0.0
 10
187.004144
 20
-152.707763
 30
0.0
  0
SPLINE
  5
10f
100
AcDbEntity
  8
layout
 62
7
100
AcDbSpline
 70
8
 71
3
 72
8
 73
4
 74
0
 40
0
 40
0
 40
0
 40
0
 40
1
 40
1
 40
1
 40
1
 10
187.004144
 20
-152.707763
 30
0.0
 10
187.647640
 20
-153.351258
 30
0.0
 10
188.615405
 20
-153.543759
 30
0.0
 10
189.456173
 20
-153.195502
 30
0.0
  0
SPLINE
  5
110
100
AcDbEntity
  8
layout
 62
7
100
AcDbSpline
 70
8
 71
3
 72
8
 73
4
 74
0
 40
0
 40
0
 40
0
 40
0
 40
1
 40
1
 40
1
 40
1
 10
189.456173
 20
-153.195502
 30
0.0
 10
190.296941
 20
-152.847244
 30
0.0
 10
190.845137
 20
-152.026812
 30
0.0
 10
190.845137
 20
-151.116771
 30
0.0
  0
SPLINE
  5
111
100
AcDbEntity
  8
layout
 62
7
100
AcDbSpline
 70
8
 71
3
 72
8
 73
4
 74
0
 40
0
 40
0
 40
0
 40
0
 40
1
 40
1
 40
1
 40
1
 10
190.845137
 20
-151.116771
 30
0.0
 10
190.845137
 20
-150.520034
 30
0.0
 10
190.608083
 20
-149.947737
 30
0.0
 10
190.186126
 20
-149.525780
 30
0.0
  0
SPLINE
  5
112
100
AcDbEntity
  8
layout
 62
7
100
AcDbSpline
 70
8
 71
3
 72
8
 73
4
 74
0
 40
0
 40
0
 40
0
 40
0
 40
1
 40
1
 40
1
 40
1
 10
190.186126
 20
-149.525780
 30
0.0
 10
189.764169
 20
-149.103823
 30
0.0
 10
189.191873
 20
-148.866770
 30
0.0
 10
188.595135
 20
-148.866770
 30
0.0
  0
LWPOLYLINE
  5
113
100
AcDbEntity
  8
layout
 62
7
100
AcDbPolyline
 90
1
 70
1
 10
181.622330
 20
-122.843960
 30
0.0
  0
SPLINE
  5
114
100
AcDbEntity
  8
layout
 62
7
100
AcDbSpline
 70
8
 71
3
 72
8
 73
4
 74
0
 40
0
 40
0
 40
0
 40
0
 40
1
 40
1
 40
1
 40
1
 10
238.660161
 20
-184.459002
 30
0.0
 10
237.750120
 20
-184.459002
 30
0.0
 10
236.929688
 20
-185.007197
 30
0.0
 10
236.581430
 20
-185.847965
 30
0.0
  0
SPLINE
  5
115
100
AcDbEntity
  8
layout
 62
7
100
AcDbSpline
 70
8
 71
3
 72
8
 73
4
 74
0
 40
0
 40
0
 40
0
 40
0
 40
1
 40
1
 40
1
 40
1
 10
236.581430
 20
-185.847965
 30
0.0
 10
236.233173
 20
-186.688733
 30
0.0
 10
236.425673
 20
-187.656499
 30
0.0
 10
237.069169
 20
-188.299995
 30
0.0
  0
SPLINE
  5
116
100
AcDbEntity
  8
layout
 62
7
100
AcDbSpline
 70
8
 71
3
 72
8
 73
4
 74
0
 40
0
 40
0
 40
0
 40
0
 40
1
 40
1
 40
1
 40
1
 10
237.069169
 20
-188.299995
 30
0.0
 10
237.712665
 20
-188.943490
 30
0.0
 10
238.680431
 20
-189.135991
 30
0.0
 10
239.521199
 20
-188.787734
 30
0.0
  0
SPLINE
  5
117
100
AcDbEntity
  8
layout
 62
7
100
AcDbSpline
 70
8
 71
3
 72
8
 73
4
 74
0
 40
0
 40
0
 40
0
 40
0
 40
1
 40
1
 40
1
 40
1
 10
239.521199
 20
-188.787734
 30
0.0
 10
240.361967
 20
-188.439476
 30
0.0
 10
240.910162
 20
-187.619044
 30
0.0
 10
240.910162
 20
-186.709003
 30
0.0
  0
SPLINE
  5
118
100
AcDbEntity
  8
layout
 62
7
100
AcDbSpline
 70
8
 71
3
 72
8
 73
4
 74
0
 40
0
 40
0
 40
0
 40
0
 40
1
 40
1
 40
1
 40
1
 10
240.910162
 20
-186.709003
 30
0.0
 10
240.910162
 20
-186.112266
 30
0.0
 10
240.673109
 20
-185.539969
 30
0.0
 10
240.251152
 20
-185.118012
 30
0.0
  0
SPLINE
  5
119
100
AcDbEntity
  8
layout
 62
7
100
AcDbSpline
 70
8
 71
3
 72
8
 73
4
 74
0
 40
0
 40
0
 40
0
 40
0
 40
1
 40
1
 40
1
 40
1
 10
240.251152
 20
-185.118012
 30
0.0
 10
239.829195
 20
-184.696055
 30
0.0
 10
239.256898
 20
-184.459002
 30
0.0
 10
238.660161
 20
-184.459002
 30
0.0
  0
LWPOLYLINE
  5
11a
100
AcDbEntity
  8
layout
 62
7
100
AcDbPolyline
 90
1
 70
1
 10
188.595135
 20
-148.866770
 30
0.0
  0
SPLINE
  5
11b
100
AcDbEntity
  8
layout
 62
7
100
AcDbSpline
 70
8
 71
3
 72
8
 73
4
 74
0
 40
0
 40
0
 40
0
 40
0
 40
1
 40
1
 40
1
 40
1
 10
262.660177
 20
-143.208974
 30
0.0
 10
261.750136
 20
-143.208974
 30
0.0
 10
260.929704
 20
-143.757169
 30
0.0
 10
260.581447
 20
-144.597937
 30
0.0
  0
SPLINE
  5
11c
100
AcDbEntity
  8
layout
 62
7
100
AcDbSpline
 70
8
 71
3
 72
8
 73
4
 74
0
 40
0
 40
0
 40
0
 40
0
 40
1
 40
1
 40
1
 40
1
 10
260.581447
 20
-144.597937
 30
0.0
 10
260.233189
 20
-145.438705
 30
0.0
 10
260.425690
 20
-146.406471
 30
0.0
 10
261.069186
 20
-147.049967
 30
0.0
  0
SPLINE
  5
11d
100
AcDbEntity
  8
layout
 62
7
100
AcDbSpline
 70
8
 71
3
 72
8
 73
4
 74
0
 40
0
 40
0
 40
0
 40
0
 40
1
 40
1
 40
1
 40
1
 10
261.069186
 20
-147.049967
 30
0.0
 10
261.712681
 20
-147.693463
 30
0.0
 10
262.680447
 20
-147.885963
 30
0.0
 10
263.521215
 20
-147.537706
 30
0.0
  0
SPLINE
  5
11e
100
AcDbEntity
  8
layout
 62
7
100
AcDbSpline
 70
8
 71
3
 72
8
 73
4
 74
0
 40
0
 40
0
 40
0
 40
0
 40
1
 40
1
 40
1
 40
1
 10
263.521215
 20
-147.537706
 30
0.0
 10
264.361983
 20
-147.189448
 30
0.0
 10
264.910178
 20
-146.369016
 30
0.0
 10
264.910178
 20
-145.458975
 30
0.0
  0
SPLINE
  5
11f
100
AcDbEntity
  8
layout
 62
7
100
AcDbSpline
 70
8
 71
3
 72
8
 73
4
 74
0
 40
0
 40
0
 40
0
 40
0
 40
1
 40
1
 40
1
 40
1
 10
264.910178
 20
-145.458975
 30
0.0
 10
264.910178
 20
-144.862238
 30
0.0
 10
264.673125
 20
-144.289941
 30
0.0
 10
264.251168
 20
-143.867984
 30
0.0
  0
SPLINE
  5
120
100
AcDbEntity
  8
layout
 62
7
100
AcDbSpline
 70
8
 71
3
 72
8
 73
4
 74
0
 40
0
 40
0
 40
0
 40
0
 40
1
 40
1
 40
1
 40
1
 10
264.251168
 20
-143.867984
 30
0.0
 10
263.829211
 20
-143.446027
 30
0.0
 10
263.256914
 20
-143.208974
 30
0.0
 10
262.660177
 20
-143.208974
 30
0.0
  0
LWPOLYLINE
  5
121
100
AcDbEntity
  8
layout
 62
7
100
AcDbPolyline
 90
1
 70
1
 10
238.660161
 20
-184.459002
 30
0.0
  0
SPLINE
  5
122
100
AcDbEntity
  8
layout
 62
7
100
AcDbSpline
 70
8
 71
3
 72
8
 73
4
 74
0
 40
0
 40
0
 40
0
 40
0
 40
1
 40
1
 40
1
 40
1
 10
249.410168
 20
-143.208974
 30
0.0
 10
248.500127
 20
-143.208974
 30
0.0
 10
247.679695
 20
-143.757169
 30
0.0
 10
247.331438
 20
-144.597937
 30
0.0
  0
SPLINE
  5
123
100
AcDbEntity
  8
layout
 62
7
100
AcDbSpline
 70
8
 71
3
 72
8
 73
4
 74
0
 40
0
 40
0
 40
0
 40
0
 40
1
 40
1
 40
1
 40
1
 10
247.331438
 20
-144.597937
 30
0.0
 10
246.983180
 20
-145.438705
 30
0.0
 10
247.175681
 20
-146.406471
 30
0.0
 10
247.819177
 20
-147.049967
 30
0.0
  0
SPLINE
  5
124
100
AcDbEntity
  8
layout
 62
7
100
AcDbSpline
 70
8
 71
3
 72
8
 73
4
 74
0
 40
0
 40
0
 40
0
 40
0
 40
1
 40
1
 40
1
 40
1
 10
247.819177
 20
-147.049967
 30
0.0
 10
248.462673
 20
-147.693463
 30
0.0
 10
249.430438
 20
-147.885963
 30
0.0
 10
250.271206
 20
-147.537706
 30
0.0
  0
SPLINE
  5
125
100
AcDbEntity
  8
layout
 62
7
100
AcDbSpline
 70
8
 71
3
 72
8
 73
4
 74
0
 40
0
 40
0
 40
0
 40
0
 40
1
 40
1
 40
1
 40
1
 10
250.271206
 20
-147.537706
 30
0.0
 10
251.111974
 20
-147.189448
 30
0.0
 10
251.660169
 20
-146.369016
 30
0.0
 10
251.660169
 20
-145.458975
 30
0.0
  0
SPLINE
  5
126
100
AcDbEntity
  8
layout
 62
7
100
AcDbSpline
 70
8
 71
3
 72
8
 73
4
 74
0
 40
0
 40
0
 40
0
 40
0
 40
1
 40
1
 40
1
 40
1
 10
251.660169
 20
-145.458975
 30
0.0
 10
251.660169
 20
-144.862238
 30
0.0
 10
251.423116
 20
-144.289941
 30
0.0
 10
251.001159
 20
-143.867984
 30
0.0
  0
SPLINE
  5
127
100
AcDbEntity
  8
layout
 62
7
100
AcDbSpline
 70
8
 71
3
 72
8
 73
4
 74
0
 40
0
 40
0
 40
0
 40
0
 40
1
 40
1
 40
1
 40
1
 10
251.001159
 20
-143.867984
 30
0.0
 10
250.579202
 20
-143.446027
 30
0.0
 10
250.006905
 20
-143.208974
 30
0.0
 10
249.410168
 20
-143.208974
 30
0.0
  0
LWPOLYLINE
  5
128
100
AcDbEntity
  8
layout
 62
7
100
AcDbPolyline
 90
1
 70
1
 10
262.660177
 20
-143.208974
 30
0.0
  0
SPLINE
  5
129
100
AcDbEntity
  8
layout
 62
7
100
AcDbSpline
 70
8
 71
3
 72
8
 73
4
 74
0
 40
0
 40
0
 40
0
 40
0
 40
1
 40
1
 40
1
 40
1
 10
225.160152
 20
-103.208947
 30
0.0
 10
224.250111
 20
-103.208947
 30
0.0
 10
223.429679
 20
-103.757142
 30
0.0
 10
223.081421
 20
-104.597910
 30
0.0
  0
SPLINE
  5
12a
100
AcDbEntity
  8
layout
 62
7
100
AcDbSpline
 70
8
 71
3
 72
8
 73
4
 74
0
 40
0
 40
0
 40
0
 40
0
 40
1
 40
1
 40
1
 40
1
 10
223.081421
 20
-104.597910
 30
0.0
 10
222.733164
 20
-105.438678
 30
0.0
 10
222.925664
 20
-106.406444
 30
0.0
 10
223.569160
 20
-107.049940
 30
0.0
  0
SPLINE
  5
12b
100
AcDbEntity
  8
layout
 62
7
100
AcDbSpline
 70
8
 71
3
 72
8
 73
4
 74
0
 40
0
 40
0
 40
0
 40
0
 40
1
 40
1
 40
1
 40
1
 10
223.569160
 20
-107.049940
 30
0.0
 10
224.212656
 20
-107.693436
 30
0.0
 10
225.180422
 20
-107.885936
 30
0.0
 10
226.021190
 20
-107.537679
 30
0.0
  0
SPLINE
  5
12c
100
AcDbEntity
  8
layout
 62
7
100
AcDbSpline
 70
8
 71
3
 72
8
 73
4
 74
0
 40
0
 40
0
 40
0
 40
0
 40
1
 40
1
 40
1
 40
1
 10
226.021190
 20
-107.537679
 30
0.0
 10
226.861958
 20
-107.189421
 30
0.0
 10
227.410153
 20
-106.368989
 30
0.0
 10
227.410153
 20
-105.458948
 30
0.0
  0
SPLINE
  5
12d
100
AcDbEntity
  8
layout
 62
7
100
AcDbSpline
 70
8
 71
3
 72
8
 73
4
 74
0
 40
0
 40
0
 40
0
 40
0
 40
1
 40
1
 40
1
 40
1
 10
227.410153
 20
-105.458948
 30
0.0
 10
227.410153
 20
-104.862211
 30
0.0
 10
227.173100
 20
-104.289914
 30
0.0
 10
226.751143
 20
-103.867957
 30
0.0
  0
SPLINE
  5
12e
100
AcDbEntity
  8
layout
 62
7
100
AcDbSpline
 70
8
 71
3
 72
8
 73
4
 74
0
 40
0
 40
0
 40
0
 40
0
 40
1
 40
1
 40
1
 40
1
 10
226.751143
 20
-103.867957
 30
0.0
 10
226.329186
 20
-103.446000
 30
0.0
 10
225.756889
 20
-103.208947
 30
0.0
 10
225.160152
 20
-103.208947
 30
0.0
  0
LWPOLYLINE
  5
12f
100
AcDbEntity
  8
layout
 62
7
100
AcDbPolyline
 90
1
 70
1
 10
249.410168
 20
-143.208974
 30
0.0
  0
SPLINE
  5
130
100
AcDbEntity
  8
layout
 62
7
100
AcDbSpline
 70
8
 71
3
 72
8
 73
4
 74
0
 40
0
 40
0
 40
0
 40
0
 40
1
 40
1
 40
1
 40
1
 10
165.910112
 20
-170.958993
 30
0.0
 10
165.000071
 20
-170.958993
 30
0.0
 10
164.179639
 20
-171.507188
 30
0.0
 10
163.831381
 20
-172.347956
 30
0.0
  0
SPLINE
  5
131
100
AcDbEntity
  8
layout
 62
7
100
AcDbSpline
 70
8
 71
3
 72
8
 73
4
 74
0
 40
0
 40
0
 40
0
 40
0
 40
1
 40
1
 40
1
 40
1
 10
163.831381
 20
-172.347956
 30
0.0
 10
163.483124
 20
-173.188724
 30
0.0
 10
163.675624
 20
-174.156490
 30
0.0
 10
164.319120
 20
-174.799985
 30
0.0
  0
SPLINE
  5
132
100
AcDbEntity
  8
layout
 62
7
100
AcDbSpline
 70
8
 71
3
 72
8
 73
4
 74
0
 40
0
 40
0
 40
0
 40
0
 40
1
 40
1
 40
1
 40
1
 10
164.319120
 20
-174.799985
 30
0.0
 10
164.962616
 20
-175.443481
 30
0.0
 10
165.930382
 20
-175.635982
 30
0.0
 10
166.771150
 20
-175.287724
 30
0.0
  0
SPLINE
  5
133
100
AcDbEntity
  8
layout
 62
7
100
AcDbSpline
 70
8
 71
3
 72
8
 73
4
 74
0
 40
0
 40
0
 40
0
 40
0
 40
1
 40
1
 40
1
 40
1
 10
166.771150
 20
-175.287724
 30
0.0
 10
167.611918
 20
-174.939467
 30
0.0
 10
168.160113
 20
-174.119035
 30
0.0
 10
168.160113
 20
-173.208994
 30
0.0
  0
SPLINE
  5
134
100
AcDbEntity
  8
layout
 62
7
100
AcDbSpline
 70
8
 71
3
 72
8
 73
4
 74
0
 40
0
 40
0
 40
0
 40
0
 40
1
 40
1
 40
1
 40
1
 10
168.160113
 20
-173.208994
 30
0.0
 10
168.160113
 20
-172.612257
 30
0.0
 10
167.923060
 20
-172.039960
 30
0.0
 10
167.501103
 20
-171.618003
 30
0.0
  0
SPLINE
  5
135
100
AcDbEntity
  8
layout
 62
7
100
AcDbSpline
 70
8
 71
3
 72
8
 73
4
 74
0
 40
0
 40
0
 40
0
 40
0
 40
1
 40
1
 40
1
 40
1
 10
167.501103
 20
-171.618003
 30
0.0
 10
167.079146
 20
-171.196046
 30
0.0
 10
166.506849
 20
-170.958993
 30
0.0
 10
165.910112
 20
-170.958993
 30
0.0
  0
LWPOLYLINE
  5
136
100
AcDbEntity
  8
layout
 62
7
100
AcDbPolyline
 90
1
 70
1
 10
225.160152
 20
-103.208947
 30
0.0
  0
SPLINE
  5
137
100
AcDbEntity
  8
layout
 62
7
100
AcDbSpline
 70
8
 71
3
 72
8
 73
4
 74
0
 40
0
 40
0
 40
0
 40
0
 40
1
 40
1
 40
1
 40
1
 10
152.660103
 20
-118.458957
 30
0.0
 10
151.750062
 20
-118.458957
 30
0.0
 10
150.929630
 20
-119.007153
 30
0.0
 10
150.581372
 20
-119.847920
 30
0.0
  0
SPLINE
  5
138
100
AcDbEntity
  8
layout
 62
7
100
AcDbSpline
 70
8
 71
3
 72
8
 73
4
 74
0
 40
0
 40
0
 40
0
 40
0
 40
1
 40
1
 40
1
 40
1
 10
150.581372
 20
-119.847920
 30
0.0
 10
150.233115
 20
-120.688688
 30
0.0
 10
150.425616
 20
-121.656454
 30
0.0
 10
151.069111
 20
-122.299950
 30
0.0
  0
SPLINE
  5
139
100
AcDbEntity
  8
layout
 62
7
100
AcDbSpline
 70
8
 71
3
 72
8
 73
4
 74
0
 40
0
 40
0
 40
0
 40
0
 40
1
 40
1
 40
1
 40
1
 10
151.069111
 20
-122.299950
 30
0.0
 10
151.712607
 20
-122.943446
 30
0.0
 10
152.680373
 20
-123.135947
 30
0.0
 10
153.521141
 20
-122.787689
 30
0.0
  0
SPLINE
  5
13a
100
AcDbEntity
  8
layout
 62
7
100
AcDbSpline
 70
8
 71
3
 72
8
 73
4
 74
0
 40
0
 40
0
 40
0
 40
0
 40
1
 40
1
 40
1
 40
1
 10
153.521141
 20
-122.787689
 30
0.0
 10
154.361909
 20
-122.439432
 30
0.0
 10
154.910104
 20
-121.618999
 30
0.0
 10
154.910104
 20
-120.708959
 30
0.0
  0
SPLINE
  5
13b
100
AcDbEntity
  8
layout
 62
7
100
AcDbSpline
 70
8
 71
3
 72
8
 73
4
 74
0
 40
0
 40
0
 40
0
 40
0
 40
1
 40
1
 40
1
 40
1
 10
154.910104
 20
-120.708959
 30
0.0
 10
154.910104
 20
-120.112221
 30
0.0
 10
154.673051
 20
-119.539925
 30
0.0
 10
154.251094
 20
-119.117967
 30
0.0
  0
SPLINE
  5
13c
100
AcDbEntity
  8
layout
 62
7
100
AcDbSpline
 70
8
 71
3
 72
8
 73
4
 74
0
 40
0
 40
0
 40
0
 40
0
 40
1
 40
1
 40
1
 40
1
 10
154.251094
 20
-119.117967
 30
0.0
 10
153.829137
 20
-118.696010
 30
0.0
 10
153.256840
 20
-118.458957
 30
0.0
 10
152.660103
 20
-118.458957
 30
0.0
  0
LWPOLYLINE
  5
13d
100
AcDbEntity
  8
layout
 62
7
100
AcDbPolyline
 90
1
 70
1
 10
165.910112
 20
-170.958993
 30
0.0
  0
LWPOLYLINE
  5
13e
100
AcDbEntity
  8
layout
 62
7
100
AcDbPolyline
 90
1
 70
1
 10
152.660103
 20
-118.458957
 30
0.0
  0
LWPOLYLINE
  5
13f
100
AcDbEntity
  8
layout
 62
2
100
AcDbPolyline
 90
2
 70
0
 10
138.124353
 20
-125.240912
 30
0.0
 10
142.875706
 20
-179.106688
 30
0.0
  0
SPLINE
  5
140
100
AcDbEntity
  8
layout
 62
2
100
AcDbSpline
 70
8
 71
3
 72
8
 73
4
 74
0
 40
0
 40
0
 40
0
 40
0
 40
1
 40
1
 40
1
 40
1
 10
266.410189
 20
-111.224262
 30
0.0
 10
266.377388
 20
-110.817643
 30
0.0
 10
266.055779
 20
-110.494140
 30
0.0
 10
265.649359
 20
-110.458952
 30
0.0
  0
LWPOLYLINE
  5
141
100
AcDbEntity
  8
layout
 62
2
100
AcDbPolyline
 90
2
 70
0
 10
266.410179
 20
-177.441767
 30
0.0
 10
266.410179
 20
-151.268999
 30
0.0
  0
LWPOLYLINE
  5
142
100
AcDbEntity
  8
layout
 62
2
100
AcDbPolyline
 90
2
 70
0
 10
265.649359
 20
-110.458952
 30
0.0
 10
245.660165
 20
-110.458952
 30
0.0
  0
LWPOLYLINE
  5
143
100
AcDbEntity
  8
layout
 62
2
100
AcDbPolyline
 90
2
 70
0
 10
266.410179
 20
-113.229864
 30
0.0
 10
266.410179
 20
-111.224262
 30
0.0
  0
LWPOLYLINE
  5
144
100
AcDbEntity
  8
layout
 62
2
100
AcDbPolyline
 90
2
 70
0
 10
215.540145
 20
-192.699007
 30
0.0
 10
232.900157
 20
-199.029011
 30
0.0
  0
LWPOLYLINE
  5
145
100
AcDbEntity
  8
layout
 62
2
100
AcDbPolyline
 90
2
 70
0
 10
266.410179
 20
-112.701153
 30
0.0
 10
266.410179
 20
-151.958980
 30
0.0
  0
SPLINE
  5
146
100
AcDbEntity
  8
layout
 62
2
100
AcDbSpline
 70
8
 71
3
 72
8
 73
4
 74
0
 40
0
 40
0
 40
0
 40
0
 40
1
 40
1
 40
1
 40
1
 10
245.660165
 20
-110.458952
 30
0.0
 10
210.486553
 20
-91.082865
 30
0.0
 10
166.765255
 20
-97.092830
 30
0.0
 10
138.124353
 20
-125.240912
 30
0.0
  0
LWPOLYLINE
  5
147
100
AcDbEntity
  8
layout
 62
2
100
AcDbPolyline
 90
2
 70
0
 10
232.900157
 20
-199.029011
 30
0.0
 10
248.870168
 20
-208.019018
 30
0.0
  0
LWPOLYLINE
  5
148
100
AcDbEntity
  8
layout
 62
2
100
AcDbPolyline
 90
2
 70
0
 10
142.875706
 20
-179.106688
 30
0.0
 10
215.540145
 20
-192.699007
 30
0.0
  0
LWPOLYLINE
  5
149
100
AcDbEntity
  8
layout
 62
2
100
AcDbPolyline
 90
2
 70
0
 10
248.870168
 20
-208.019018
 30
0.0
 10
266.410179
 20
-177.458997
 30
0.0
  0
ENDSEC
  0
SECTION
  2
OBJECTS
  0
DICTIONARY
  5
C
330
0
100
AcDbDictionary
  3
ACAD_GROUP
350
D
  3
ACAD_MLINESTYLE
350
17
  0
DICTIONARY
  5
D
330
C
100
AcDbDictionary
  0
DICTIONARY
  5
1A
330
C
100
AcDbDictionary
  0
DICTIONARY
  5
17
330
C
100
AcDbDictionary
  3
STANDARD
350
18
  0
DICTIONARY
  5
19
330
C
100
AcDbDictionary
  0
ENDSEC
  0
EOF
