G04 #@! TF.GenerationSoftware,KiCad,Pcbnew,(6.0.4)*
G04 #@! TF.CreationDate,2022-07-01T15:58:50-05:00*
G04 #@! TF.ProjectId,om,6f6d2e6b-6963-4616-945f-706362585858,v1.0.0*
G04 #@! TF.SameCoordinates,Original*
G04 #@! TF.FileFunction,Soldermask,Top*
G04 #@! TF.FilePolarity,Negative*
%FSLAX46Y46*%
G04 Gerber Fmt 4.6, Leading zero omitted, Abs format (unit mm)*
G04 Created by KiCad (PCBNEW (6.0.4)) date 2022-07-01 15:58:50*
%MOMM*%
%LPD*%
G01*
G04 APERTURE LIST*
G04 Aperture macros list*
%AMRoundRect*
0 Rectangle with rounded corners*
0 $1 Rounding radius*
0 $2 $3 $4 $5 $6 $7 $8 $9 X,Y pos of 4 corners*
0 Add a 4 corners polygon primitive as box body*
4,1,4,$2,$3,$4,$5,$6,$7,$8,$9,$2,$3,0*
0 Add four circle primitives for the rounded corners*
1,1,$1+$1,$2,$3*
1,1,$1+$1,$4,$5*
1,1,$1+$1,$6,$7*
1,1,$1+$1,$8,$9*
0 Add four rect primitives between the rounded corners*
20,1,$1+$1,$2,$3,$4,$5,0*
20,1,$1+$1,$4,$5,$6,$7,0*
20,1,$1+$1,$6,$7,$8,$9,0*
20,1,$1+$1,$8,$9,$2,$3,0*%
%AMFreePoly0*
4,1,14,0.635355,0.435355,0.650000,0.400000,0.650000,0.200000,0.635355,0.164645,0.035355,-0.435355,0.000000,-0.450000,-0.035355,-0.435355,-0.635355,0.164645,-0.650000,0.200000,-0.650000,0.400000,-0.635355,0.435355,-0.600000,0.450000,0.600000,0.450000,0.635355,0.435355,0.635355,0.435355,$1*%
%AMFreePoly1*
4,1,16,0.635355,1.035355,0.650000,1.000000,0.650000,-0.250000,0.635355,-0.285355,0.600000,-0.300000,-0.600000,-0.300000,-0.635355,-0.285355,-0.650000,-0.250000,-0.650000,1.000000,-0.635355,1.035355,-0.600000,1.050000,-0.564645,1.035355,0.000000,0.470710,0.564645,1.035355,0.600000,1.050000,0.635355,1.035355,0.635355,1.035355,$1*%
G04 Aperture macros list end*
%ADD10C,0.300000*%
%ADD11C,0.250000*%
%ADD12C,0.100000*%
%ADD13C,1.100000*%
%ADD14RoundRect,0.050000X-0.450000X0.450000X-0.450000X-0.450000X0.450000X-0.450000X0.450000X0.450000X0*%
%ADD15RoundRect,0.050000X-0.625000X0.450000X-0.625000X-0.450000X0.625000X-0.450000X0.625000X0.450000X0*%
%ADD16C,1.801800*%
%ADD17C,3.529000*%
%ADD18C,2.132000*%
%ADD19RoundRect,0.050000X0.850000X-0.600000X0.850000X0.600000X-0.850000X0.600000X-0.850000X-0.600000X0*%
%ADD20O,1.800000X1.300000*%
%ADD21C,4.500000*%
%ADD22C,1.600000*%
%ADD23O,1.700000X2.300000*%
%ADD24FreePoly0,90.000000*%
%ADD25C,1.700000*%
%ADD26FreePoly0,270.000000*%
%ADD27RoundRect,0.050000X-0.800000X0.800000X-0.800000X-0.800000X0.800000X-0.800000X0.800000X0.800000X0*%
%ADD28FreePoly1,270.000000*%
%ADD29FreePoly1,90.000000*%
%ADD30RoundRect,0.050000X-0.317500X-0.571500X0.317500X-0.571500X0.317500X0.571500X-0.317500X0.571500X0*%
G04 APERTURE END LIST*
D10*
X240816161Y-169956449D02*
X240816161Y-166956449D01*
X241959019Y-166956449D01*
X242244733Y-167099307D01*
X242387590Y-167242164D01*
X242530447Y-167527878D01*
X242530447Y-167956449D01*
X242387590Y-168242164D01*
X242244733Y-168385021D01*
X241959019Y-168527878D01*
X240816161Y-168527878D01*
X245530447Y-169956449D02*
X244530447Y-168527878D01*
X243816161Y-169956449D02*
X243816161Y-166956449D01*
X244959019Y-166956449D01*
X245244733Y-167099307D01*
X245387590Y-167242164D01*
X245530447Y-167527878D01*
X245530447Y-167956449D01*
X245387590Y-168242164D01*
X245244733Y-168385021D01*
X244959019Y-168527878D01*
X243816161Y-168527878D01*
X247387590Y-166956449D02*
X247959019Y-166956449D01*
X248244733Y-167099307D01*
X248530447Y-167385021D01*
X248673304Y-167956449D01*
X248673304Y-168956449D01*
X248530447Y-169527878D01*
X248244733Y-169813592D01*
X247959019Y-169956449D01*
X247387590Y-169956449D01*
X247101876Y-169813592D01*
X246816161Y-169527878D01*
X246673304Y-168956449D01*
X246673304Y-167956449D01*
X246816161Y-167385021D01*
X247101876Y-167099307D01*
X247387590Y-166956449D01*
X250959019Y-168385021D02*
X251387590Y-168527878D01*
X251530447Y-168670735D01*
X251673304Y-168956449D01*
X251673304Y-169385021D01*
X251530447Y-169670735D01*
X251387590Y-169813592D01*
X251101876Y-169956449D01*
X249959019Y-169956449D01*
X249959019Y-166956449D01*
X250959019Y-166956449D01*
X251244733Y-167099307D01*
X251387590Y-167242164D01*
X251530447Y-167527878D01*
X251530447Y-167813592D01*
X251387590Y-168099307D01*
X251244733Y-168242164D01*
X250959019Y-168385021D01*
X249959019Y-168385021D01*
X254387590Y-169956449D02*
X252959019Y-169956449D01*
X252959019Y-166956449D01*
X255387590Y-168385021D02*
X256387590Y-168385021D01*
X256816161Y-169956449D02*
X255387590Y-169956449D01*
X255387590Y-166956449D01*
X256816161Y-166956449D01*
X258101876Y-169956449D02*
X258101876Y-166956449D01*
X259101876Y-169099307D01*
X260101876Y-166956449D01*
X260101876Y-169956449D01*
X238530447Y-170956449D02*
X240244733Y-170956449D01*
X239387590Y-173956449D02*
X239387590Y-170956449D01*
X241816161Y-170956449D02*
X242387590Y-170956449D01*
X242673304Y-171099307D01*
X242959019Y-171385021D01*
X243101876Y-171956449D01*
X243101876Y-172956449D01*
X242959019Y-173527878D01*
X242673304Y-173813592D01*
X242387590Y-173956449D01*
X241816161Y-173956449D01*
X241530447Y-173813592D01*
X241244733Y-173527878D01*
X241101876Y-172956449D01*
X241101876Y-171956449D01*
X241244733Y-171385021D01*
X241530447Y-171099307D01*
X241816161Y-170956449D01*
X244959019Y-170956449D02*
X245530447Y-170956449D01*
X245816161Y-171099307D01*
X246101876Y-171385021D01*
X246244733Y-171956449D01*
X246244733Y-172956449D01*
X246101876Y-173527878D01*
X245816161Y-173813592D01*
X245530447Y-173956449D01*
X244959019Y-173956449D01*
X244673304Y-173813592D01*
X244387590Y-173527878D01*
X244244733Y-172956449D01*
X244244733Y-171956449D01*
X244387590Y-171385021D01*
X244673304Y-171099307D01*
X244959019Y-170956449D01*
X250816161Y-172385021D02*
X251244733Y-172527878D01*
X251387590Y-172670735D01*
X251530447Y-172956449D01*
X251530447Y-173385021D01*
X251387590Y-173670735D01*
X251244733Y-173813592D01*
X250959019Y-173956449D01*
X249816161Y-173956449D01*
X249816161Y-170956449D01*
X250816161Y-170956449D01*
X251101876Y-171099307D01*
X251244733Y-171242164D01*
X251387590Y-171527878D01*
X251387590Y-171813592D01*
X251244733Y-172099307D01*
X251101876Y-172242164D01*
X250816161Y-172385021D01*
X249816161Y-172385021D01*
X252816161Y-170956449D02*
X252816161Y-173385021D01*
X252959019Y-173670735D01*
X253101876Y-173813592D01*
X253387590Y-173956449D01*
X253959019Y-173956449D01*
X254244733Y-173813592D01*
X254387590Y-173670735D01*
X254530447Y-173385021D01*
X254530447Y-170956449D01*
X255816161Y-173813592D02*
X256244733Y-173956449D01*
X256959019Y-173956449D01*
X257244733Y-173813592D01*
X257387590Y-173670735D01*
X257530447Y-173385021D01*
X257530447Y-173099307D01*
X257387590Y-172813592D01*
X257244733Y-172670735D01*
X256959019Y-172527878D01*
X256387590Y-172385021D01*
X256101876Y-172242164D01*
X255959019Y-172099307D01*
X255816161Y-171813592D01*
X255816161Y-171527878D01*
X255959019Y-171242164D01*
X256101876Y-171099307D01*
X256387590Y-170956449D01*
X257101876Y-170956449D01*
X257530447Y-171099307D01*
X259387590Y-172527878D02*
X259387590Y-173956449D01*
X258387590Y-170956449D02*
X259387590Y-172527878D01*
X260387590Y-170956449D01*
X242054257Y-174956449D02*
X242054257Y-177385021D01*
X242144733Y-177670735D01*
X242235209Y-177813592D01*
X242416161Y-177956449D01*
X242778066Y-177956449D01*
X242959019Y-177813592D01*
X243049495Y-177670735D01*
X243139971Y-177385021D01*
X243139971Y-174956449D01*
X244044733Y-177956449D02*
X244044733Y-174956449D01*
X245130447Y-177956449D01*
X245130447Y-174956449D01*
X245854257Y-174956449D02*
X246306638Y-177956449D01*
X246668542Y-175813592D01*
X247030447Y-177956449D01*
X247482828Y-174956449D01*
X248568542Y-174956449D02*
X248930447Y-174956449D01*
X249111399Y-175099307D01*
X249292352Y-175385021D01*
X249382828Y-175956449D01*
X249382828Y-176956449D01*
X249292352Y-177527878D01*
X249111399Y-177813592D01*
X248930447Y-177956449D01*
X248568542Y-177956449D01*
X248387590Y-177813592D01*
X248206638Y-177527878D01*
X248116161Y-176956449D01*
X248116161Y-175956449D01*
X248206638Y-175385021D01*
X248387590Y-175099307D01*
X248568542Y-174956449D01*
X251282828Y-177956449D02*
X250649495Y-176527878D01*
X250197114Y-177956449D02*
X250197114Y-174956449D01*
X250920923Y-174956449D01*
X251101876Y-175099307D01*
X251192352Y-175242164D01*
X251282828Y-175527878D01*
X251282828Y-175956449D01*
X251192352Y-176242164D01*
X251101876Y-176385021D01*
X250920923Y-176527878D01*
X250197114Y-176527878D01*
X251825685Y-174956449D02*
X252911399Y-174956449D01*
X252368542Y-177956449D02*
X252368542Y-174956449D01*
X253544733Y-177956449D02*
X253544733Y-174956449D01*
X253544733Y-176385021D02*
X254630447Y-176385021D01*
X254630447Y-177956449D02*
X254630447Y-174956449D01*
X255535209Y-177956449D02*
X255535209Y-174956449D01*
X256439971Y-177956449D02*
X256439971Y-174956449D01*
X257525685Y-177956449D01*
X257525685Y-174956449D01*
X258430447Y-176385021D02*
X259063780Y-176385021D01*
X259335209Y-177956449D02*
X258430447Y-177956449D01*
X258430447Y-174956449D01*
X259335209Y-174956449D01*
X260059019Y-177813592D02*
X260330447Y-177956449D01*
X260782828Y-177956449D01*
X260963780Y-177813592D01*
X261054257Y-177670735D01*
X261144733Y-177385021D01*
X261144733Y-177099307D01*
X261054257Y-176813592D01*
X260963780Y-176670735D01*
X260782828Y-176527878D01*
X260420923Y-176385021D01*
X260239971Y-176242164D01*
X260149495Y-176099307D01*
X260059019Y-175813592D01*
X260059019Y-175527878D01*
X260149495Y-175242164D01*
X260239971Y-175099307D01*
X260420923Y-174956449D01*
X260873304Y-174956449D01*
X261144733Y-175099307D01*
X261868542Y-177813592D02*
X262139971Y-177956449D01*
X262592352Y-177956449D01*
X262773304Y-177813592D01*
X262863780Y-177670735D01*
X262954257Y-177385021D01*
X262954257Y-177099307D01*
X262863780Y-176813592D01*
X262773304Y-176670735D01*
X262592352Y-176527878D01*
X262230447Y-176385021D01*
X262049495Y-176242164D01*
X261959019Y-176099307D01*
X261868542Y-175813592D01*
X261868542Y-175527878D01*
X261959019Y-175242164D01*
X262049495Y-175099307D01*
X262230447Y-174956449D01*
X262682828Y-174956449D01*
X262954257Y-175099307D01*
D11*
X257057000Y-133970000D02*
G75*
G03*
X257057000Y-133970000I-125000J0D01*
G01*
X255533000Y-118730000D02*
G75*
G03*
X255533000Y-118730000I-125000J0D01*
G01*
X255533000Y-126350000D02*
G75*
G03*
X255533000Y-126350000I-125000J0D01*
G01*
X257057000Y-123810000D02*
G75*
G03*
X257057000Y-123810000I-125000J0D01*
G01*
X257057000Y-116190000D02*
G75*
G03*
X257057000Y-116190000I-125000J0D01*
G01*
X255533000Y-121270000D02*
G75*
G03*
X255533000Y-121270000I-125000J0D01*
G01*
X257057000Y-118730000D02*
G75*
G03*
X257057000Y-118730000I-125000J0D01*
G01*
X257057000Y-128890000D02*
G75*
G03*
X257057000Y-128890000I-125000J0D01*
G01*
X257057000Y-136510000D02*
G75*
G03*
X257057000Y-136510000I-125000J0D01*
G01*
X257057000Y-131430000D02*
G75*
G03*
X257057000Y-131430000I-125000J0D01*
G01*
X257057000Y-139050000D02*
G75*
G03*
X257057000Y-139050000I-125000J0D01*
G01*
X255533000Y-123810000D02*
G75*
G03*
X255533000Y-123810000I-125000J0D01*
G01*
X255533000Y-141590000D02*
G75*
G03*
X255533000Y-141590000I-125000J0D01*
G01*
X255533000Y-131430000D02*
G75*
G03*
X255533000Y-131430000I-125000J0D01*
G01*
X255533000Y-133970000D02*
G75*
G03*
X255533000Y-133970000I-125000J0D01*
G01*
X255533000Y-116190000D02*
G75*
G03*
X255533000Y-116190000I-125000J0D01*
G01*
X257057000Y-113650000D02*
G75*
G03*
X257057000Y-113650000I-125000J0D01*
G01*
X255533000Y-113650000D02*
G75*
G03*
X255533000Y-113650000I-125000J0D01*
G01*
X257057000Y-141590000D02*
G75*
G03*
X257057000Y-141590000I-125000J0D01*
G01*
X257057000Y-126350000D02*
G75*
G03*
X257057000Y-126350000I-125000J0D01*
G01*
X255533000Y-136510000D02*
G75*
G03*
X255533000Y-136510000I-125000J0D01*
G01*
X255533000Y-139050000D02*
G75*
G03*
X255533000Y-139050000I-125000J0D01*
G01*
X257057000Y-121270000D02*
G75*
G03*
X257057000Y-121270000I-125000J0D01*
G01*
X255533000Y-128890000D02*
G75*
G03*
X255533000Y-128890000I-125000J0D01*
G01*
G36*
X262266000Y-139558000D02*
G01*
X261250000Y-139558000D01*
X261250000Y-138542000D01*
X262266000Y-138542000D01*
X262266000Y-139558000D01*
G37*
D12*
X262266000Y-139558000D02*
X261250000Y-139558000D01*
X261250000Y-138542000D01*
X262266000Y-138542000D01*
X262266000Y-139558000D01*
G36*
X251090000Y-129398000D02*
G01*
X250074000Y-129398000D01*
X250074000Y-128382000D01*
X251090000Y-128382000D01*
X251090000Y-129398000D01*
G37*
X251090000Y-129398000D02*
X250074000Y-129398000D01*
X250074000Y-128382000D01*
X251090000Y-128382000D01*
X251090000Y-129398000D01*
G36*
X262266000Y-134478000D02*
G01*
X261250000Y-134478000D01*
X261250000Y-133462000D01*
X262266000Y-133462000D01*
X262266000Y-134478000D01*
G37*
X262266000Y-134478000D02*
X261250000Y-134478000D01*
X261250000Y-133462000D01*
X262266000Y-133462000D01*
X262266000Y-134478000D01*
G36*
X251090000Y-139558000D02*
G01*
X250074000Y-139558000D01*
X250074000Y-138542000D01*
X251090000Y-138542000D01*
X251090000Y-139558000D01*
G37*
X251090000Y-139558000D02*
X250074000Y-139558000D01*
X250074000Y-138542000D01*
X251090000Y-138542000D01*
X251090000Y-139558000D01*
G36*
X262266000Y-131938000D02*
G01*
X261250000Y-131938000D01*
X261250000Y-130922000D01*
X262266000Y-130922000D01*
X262266000Y-131938000D01*
G37*
X262266000Y-131938000D02*
X261250000Y-131938000D01*
X261250000Y-130922000D01*
X262266000Y-130922000D01*
X262266000Y-131938000D01*
G36*
X262266000Y-129398000D02*
G01*
X261250000Y-129398000D01*
X261250000Y-128382000D01*
X262266000Y-128382000D01*
X262266000Y-129398000D01*
G37*
X262266000Y-129398000D02*
X261250000Y-129398000D01*
X261250000Y-128382000D01*
X262266000Y-128382000D01*
X262266000Y-129398000D01*
G36*
X262266000Y-119238000D02*
G01*
X261250000Y-119238000D01*
X261250000Y-118222000D01*
X262266000Y-118222000D01*
X262266000Y-119238000D01*
G37*
X262266000Y-119238000D02*
X261250000Y-119238000D01*
X261250000Y-118222000D01*
X262266000Y-118222000D01*
X262266000Y-119238000D01*
G36*
X251090000Y-119238000D02*
G01*
X250074000Y-119238000D01*
X250074000Y-118222000D01*
X251090000Y-118222000D01*
X251090000Y-119238000D01*
G37*
X251090000Y-119238000D02*
X250074000Y-119238000D01*
X250074000Y-118222000D01*
X251090000Y-118222000D01*
X251090000Y-119238000D01*
G36*
X251090000Y-116698000D02*
G01*
X250074000Y-116698000D01*
X250074000Y-115682000D01*
X251090000Y-115682000D01*
X251090000Y-116698000D01*
G37*
X251090000Y-116698000D02*
X250074000Y-116698000D01*
X250074000Y-115682000D01*
X251090000Y-115682000D01*
X251090000Y-116698000D01*
G36*
X251090000Y-134478000D02*
G01*
X250074000Y-134478000D01*
X250074000Y-133462000D01*
X251090000Y-133462000D01*
X251090000Y-134478000D01*
G37*
X251090000Y-134478000D02*
X250074000Y-134478000D01*
X250074000Y-133462000D01*
X251090000Y-133462000D01*
X251090000Y-134478000D01*
G36*
X251090000Y-126858000D02*
G01*
X250074000Y-126858000D01*
X250074000Y-125842000D01*
X251090000Y-125842000D01*
X251090000Y-126858000D01*
G37*
X251090000Y-126858000D02*
X250074000Y-126858000D01*
X250074000Y-125842000D01*
X251090000Y-125842000D01*
X251090000Y-126858000D01*
G36*
X262266000Y-124318000D02*
G01*
X261250000Y-124318000D01*
X261250000Y-123302000D01*
X262266000Y-123302000D01*
X262266000Y-124318000D01*
G37*
X262266000Y-124318000D02*
X261250000Y-124318000D01*
X261250000Y-123302000D01*
X262266000Y-123302000D01*
X262266000Y-124318000D01*
G36*
X251090000Y-124318000D02*
G01*
X250074000Y-124318000D01*
X250074000Y-123302000D01*
X251090000Y-123302000D01*
X251090000Y-124318000D01*
G37*
X251090000Y-124318000D02*
X250074000Y-124318000D01*
X250074000Y-123302000D01*
X251090000Y-123302000D01*
X251090000Y-124318000D01*
G36*
X251090000Y-142098000D02*
G01*
X250074000Y-142098000D01*
X250074000Y-141082000D01*
X251090000Y-141082000D01*
X251090000Y-142098000D01*
G37*
X251090000Y-142098000D02*
X250074000Y-142098000D01*
X250074000Y-141082000D01*
X251090000Y-141082000D01*
X251090000Y-142098000D01*
G36*
X262266000Y-116698000D02*
G01*
X261250000Y-116698000D01*
X261250000Y-115682000D01*
X262266000Y-115682000D01*
X262266000Y-116698000D01*
G37*
X262266000Y-116698000D02*
X261250000Y-116698000D01*
X261250000Y-115682000D01*
X262266000Y-115682000D01*
X262266000Y-116698000D01*
G36*
X262266000Y-137018000D02*
G01*
X261250000Y-137018000D01*
X261250000Y-136002000D01*
X262266000Y-136002000D01*
X262266000Y-137018000D01*
G37*
X262266000Y-137018000D02*
X261250000Y-137018000D01*
X261250000Y-136002000D01*
X262266000Y-136002000D01*
X262266000Y-137018000D01*
G36*
X262266000Y-142098000D02*
G01*
X261250000Y-142098000D01*
X261250000Y-141082000D01*
X262266000Y-141082000D01*
X262266000Y-142098000D01*
G37*
X262266000Y-142098000D02*
X261250000Y-142098000D01*
X261250000Y-141082000D01*
X262266000Y-141082000D01*
X262266000Y-142098000D01*
G36*
X251090000Y-114158000D02*
G01*
X250074000Y-114158000D01*
X250074000Y-113142000D01*
X251090000Y-113142000D01*
X251090000Y-114158000D01*
G37*
X251090000Y-114158000D02*
X250074000Y-114158000D01*
X250074000Y-113142000D01*
X251090000Y-113142000D01*
X251090000Y-114158000D01*
G36*
X262266000Y-121778000D02*
G01*
X261250000Y-121778000D01*
X261250000Y-120762000D01*
X262266000Y-120762000D01*
X262266000Y-121778000D01*
G37*
X262266000Y-121778000D02*
X261250000Y-121778000D01*
X261250000Y-120762000D01*
X262266000Y-120762000D01*
X262266000Y-121778000D01*
G36*
X262266000Y-126858000D02*
G01*
X261250000Y-126858000D01*
X261250000Y-125842000D01*
X262266000Y-125842000D01*
X262266000Y-126858000D01*
G37*
X262266000Y-126858000D02*
X261250000Y-126858000D01*
X261250000Y-125842000D01*
X262266000Y-125842000D01*
X262266000Y-126858000D01*
G36*
X251090000Y-121778000D02*
G01*
X250074000Y-121778000D01*
X250074000Y-120762000D01*
X251090000Y-120762000D01*
X251090000Y-121778000D01*
G37*
X251090000Y-121778000D02*
X250074000Y-121778000D01*
X250074000Y-120762000D01*
X251090000Y-120762000D01*
X251090000Y-121778000D01*
G36*
X251090000Y-131938000D02*
G01*
X250074000Y-131938000D01*
X250074000Y-130922000D01*
X251090000Y-130922000D01*
X251090000Y-131938000D01*
G37*
X251090000Y-131938000D02*
X250074000Y-131938000D01*
X250074000Y-130922000D01*
X251090000Y-130922000D01*
X251090000Y-131938000D01*
G36*
X251090000Y-137018000D02*
G01*
X250074000Y-137018000D01*
X250074000Y-136002000D01*
X251090000Y-136002000D01*
X251090000Y-137018000D01*
G37*
X251090000Y-137018000D02*
X250074000Y-137018000D01*
X250074000Y-136002000D01*
X251090000Y-136002000D01*
X251090000Y-137018000D01*
G36*
X262266000Y-114158000D02*
G01*
X261250000Y-114158000D01*
X261250000Y-113142000D01*
X262266000Y-113142000D01*
X262266000Y-114158000D01*
G37*
X262266000Y-114158000D02*
X261250000Y-114158000D01*
X261250000Y-113142000D01*
X262266000Y-113142000D01*
X262266000Y-114158000D01*
D13*
X262310000Y-158460000D03*
D14*
X263410000Y-153260000D03*
D13*
X262310000Y-155460000D03*
D14*
X261210000Y-153260000D03*
X261210000Y-160660000D03*
X263410000Y-160660000D03*
D15*
X260235000Y-159210000D03*
X260235000Y-156210000D03*
X260235000Y-154710000D03*
D16*
X240670000Y-120620000D03*
X229670000Y-120620000D03*
D17*
X235170000Y-120620000D03*
D18*
X230170000Y-116820000D03*
X240170000Y-116820000D03*
X235170000Y-114720000D03*
X235170000Y-114720000D03*
D19*
X246600000Y-151955000D03*
D20*
X246600000Y-153955000D03*
X246600000Y-149955000D03*
D21*
X207645000Y-118122216D03*
X181622216Y-125095000D03*
X188595000Y-151117784D03*
X238660000Y-186710000D03*
D17*
X149303719Y-134703502D03*
D16*
X154782790Y-134224145D03*
X143824648Y-135182859D03*
D18*
X143991554Y-131353741D03*
X153953501Y-130482183D03*
X148789500Y-128825953D03*
X148789500Y-128825953D03*
D22*
X271160000Y-112220000D03*
X271160000Y-119220000D03*
D23*
X273460000Y-121920000D03*
X268860000Y-121920000D03*
X268860000Y-120820000D03*
X273460000Y-120820000D03*
X268860000Y-116820000D03*
X273460000Y-116820000D03*
X268860000Y-113820000D03*
X273460000Y-113820000D03*
D17*
X235170000Y-137620000D03*
D16*
X229670000Y-137620000D03*
X240670000Y-137620000D03*
D18*
X240170000Y-133820000D03*
X230170000Y-133820000D03*
X235170000Y-131720000D03*
X235170000Y-131720000D03*
D21*
X262660000Y-145460000D03*
D16*
X222151158Y-185565252D03*
X232487776Y-189327474D03*
D17*
X227319467Y-187446363D03*
D18*
X223920680Y-182165430D03*
X233317607Y-185585632D03*
X229337386Y-181902177D03*
X229337386Y-181902177D03*
D21*
X249410000Y-145460000D03*
D16*
X146787943Y-169053479D03*
X157746085Y-168094765D03*
D17*
X152267014Y-168574122D03*
D18*
X146954849Y-165224361D03*
X156916796Y-164352803D03*
X151752795Y-162696573D03*
X151752795Y-162696573D03*
D16*
X169760000Y-116620000D03*
D17*
X175260000Y-116620000D03*
D16*
X180760000Y-116620000D03*
D18*
X170260000Y-112820000D03*
X180260000Y-112820000D03*
X175260000Y-110720000D03*
X175260000Y-110720000D03*
D24*
X250328000Y-113650000D03*
D25*
X248550000Y-113650000D03*
X263790000Y-113650000D03*
X263790000Y-121270000D03*
D26*
X262012000Y-139050000D03*
D25*
X263790000Y-131430000D03*
X263790000Y-139050000D03*
D26*
X262012000Y-116190000D03*
D25*
X248550000Y-118730000D03*
X263790000Y-123810000D03*
D26*
X262012000Y-121270000D03*
D24*
X250328000Y-136510000D03*
X250328000Y-131430000D03*
D26*
X262012000Y-123810000D03*
D25*
X248550000Y-126350000D03*
X248550000Y-131430000D03*
X248550000Y-116190000D03*
X263790000Y-133970000D03*
D26*
X262012000Y-113650000D03*
X262012000Y-136510000D03*
D25*
X263790000Y-128890000D03*
D26*
X262012000Y-141590000D03*
X262012000Y-128890000D03*
X262012000Y-131430000D03*
D25*
X263790000Y-126350000D03*
D27*
X248550000Y-113650000D03*
D26*
X262012000Y-133970000D03*
D24*
X250328000Y-123810000D03*
X250328000Y-118730000D03*
D25*
X263790000Y-141590000D03*
D24*
X250328000Y-133970000D03*
D25*
X248550000Y-139050000D03*
D24*
X250328000Y-116190000D03*
D25*
X248550000Y-136510000D03*
X263790000Y-116190000D03*
X248550000Y-121270000D03*
D26*
X262012000Y-118730000D03*
D24*
X250328000Y-126350000D03*
D25*
X263790000Y-118730000D03*
D24*
X250328000Y-139050000D03*
X250328000Y-141590000D03*
D26*
X262012000Y-126350000D03*
D25*
X248550000Y-133970000D03*
D24*
X250328000Y-128890000D03*
D25*
X248550000Y-128890000D03*
X248550000Y-141590000D03*
X248550000Y-123810000D03*
D24*
X250328000Y-121270000D03*
D25*
X263790000Y-136510000D03*
D28*
X260996000Y-113650000D03*
X260996000Y-116190000D03*
X260996000Y-118730000D03*
X260996000Y-121270000D03*
X260996000Y-123810000D03*
X260996000Y-126350000D03*
X260996000Y-128890000D03*
X260996000Y-131430000D03*
X260996000Y-133970000D03*
X260996000Y-136510000D03*
X260996000Y-139050000D03*
X260996000Y-141590000D03*
D29*
X251344000Y-141590000D03*
X251344000Y-139050000D03*
X251344000Y-136510000D03*
X251344000Y-133970000D03*
X251344000Y-131430000D03*
X251344000Y-128890000D03*
X251344000Y-126350000D03*
X251344000Y-123810000D03*
X251344000Y-121270000D03*
X251344000Y-118730000D03*
X251344000Y-116190000D03*
X251344000Y-113650000D03*
D17*
X175260000Y-133620000D03*
D16*
X169760000Y-133620000D03*
X180760000Y-133620000D03*
D18*
X170260000Y-129820000D03*
X180260000Y-129820000D03*
X175260000Y-127720000D03*
X175260000Y-127720000D03*
D16*
X240670000Y-154620000D03*
X229670000Y-154620000D03*
D17*
X235170000Y-154620000D03*
D18*
X230170000Y-150820000D03*
X240170000Y-150820000D03*
X235170000Y-148720000D03*
X235170000Y-148720000D03*
D21*
X225160000Y-105460000D03*
D16*
X240453823Y-192960070D03*
D17*
X245216963Y-195710070D03*
D16*
X249980103Y-198460070D03*
D18*
X251447090Y-194919173D03*
X242786836Y-189919173D03*
X248166963Y-190600520D03*
X248166963Y-190600520D03*
D17*
X217170000Y-134620000D03*
D16*
X211670000Y-134620000D03*
X222670000Y-134620000D03*
D18*
X222170000Y-130820000D03*
X212170000Y-130820000D03*
X217170000Y-128720000D03*
X217170000Y-128720000D03*
D21*
X165910000Y-173210000D03*
D25*
X266660000Y-116960000D03*
D16*
X211670000Y-117620000D03*
X222670000Y-117620000D03*
D17*
X217170000Y-117620000D03*
D18*
X212170000Y-113820000D03*
X222170000Y-113820000D03*
X217170000Y-111720000D03*
X217170000Y-111720000D03*
D17*
X198120000Y-126620000D03*
D16*
X203620000Y-126620000D03*
X192620000Y-126620000D03*
D18*
X203120000Y-122820000D03*
X193120000Y-122820000D03*
X198120000Y-120720000D03*
X198120000Y-120720000D03*
D25*
X266660000Y-114710000D03*
D16*
X203620000Y-109620000D03*
D17*
X198120000Y-109620000D03*
D16*
X192620000Y-109620000D03*
D18*
X203120000Y-105820000D03*
X193120000Y-105820000D03*
X198120000Y-103720000D03*
X198120000Y-103720000D03*
D16*
X211670000Y-151620000D03*
D17*
X217170000Y-151620000D03*
D16*
X222670000Y-151620000D03*
D18*
X212170000Y-147820000D03*
X222170000Y-147820000D03*
X217170000Y-145720000D03*
X217170000Y-145720000D03*
D25*
X266660000Y-119210000D03*
D16*
X145306295Y-152118169D03*
X156264437Y-151159455D03*
D17*
X150785366Y-151638812D03*
D18*
X155435148Y-147417493D03*
X145473201Y-148289051D03*
X150271147Y-145761263D03*
X150271147Y-145761263D03*
D21*
X152660000Y-120710000D03*
D17*
X175260000Y-150620000D03*
D16*
X180760000Y-150620000D03*
X169760000Y-150620000D03*
D18*
X180260000Y-146820000D03*
X170260000Y-146820000D03*
X175260000Y-144720000D03*
X175260000Y-144720000D03*
D30*
X216659620Y-105460000D03*
X217660380Y-105460000D03*
D17*
X198120000Y-143620000D03*
D16*
X203620000Y-143620000D03*
X192620000Y-143620000D03*
D18*
X203120000Y-139820000D03*
X193120000Y-139820000D03*
X198120000Y-137720000D03*
X198120000Y-137720000D03*
D13*
X262297500Y-158460000D03*
X262297500Y-155460000D03*
M02*
