%FSLAX45Y45*%
G04 Gerber Fmt 4.5, Leading zero omitted, Abs format (unit mm)*
G04 Created by KiCad (PCBNEW (6.0.4)) date 2022-07-01 15:59:25*
%MOMM*%
%LPD*%
G01*
G04 APERTURE LIST*
%TA.AperFunction,Profile*%
%ADD10C,0.050000*%
%TD*%
%ADD11C,0.200000*%
%ADD12C,0.090000*%
%ADD13C,0.150000*%
%ADD14C,0.170180*%
%ADD15C,0.342900*%
G04 APERTURE END LIST*
D10*
X13812426Y-12524195D02*
X14287561Y-17910769D01*
X27515337Y-12343949D02*
X27516000Y-11121000D01*
X26641000Y-17746000D02*
X26641000Y-16196697D01*
X26691000Y-12071000D02*
G75*
G03*
X26641000Y-12071000I-25000J-2241D01*
G01*
X26541000Y-15296000D02*
G75*
G03*
X26441000Y-15396000I270J-100270D01*
G01*
X26766000Y-11046000D02*
X27439918Y-11044469D01*
X26641001Y-11122531D02*
G75*
G03*
X26564918Y-11046000I-83291J-6719D01*
G01*
X26691000Y-12346000D02*
G75*
G03*
X26766000Y-12421000I81580J6580D01*
G01*
X26564918Y-11046000D02*
X24566000Y-11046000D01*
X26641000Y-11323091D02*
X26641000Y-11122531D01*
X21554000Y-19270000D02*
X23290000Y-19903000D01*
X26641000Y-12071000D02*
X26641000Y-15196000D01*
X26441000Y-15996000D02*
G75*
G03*
X26541000Y-16096000I99380J-620D01*
G01*
X23290000Y-19903000D02*
X24887000Y-20802000D01*
X27438806Y-12420028D02*
G75*
G03*
X27515337Y-12343949I-6717J83289D01*
G01*
X26766000Y-12421000D02*
X27438807Y-12420031D01*
X24566000Y-11046000D02*
G75*
G03*
X13812426Y-12524195I-4384341J-7958941D01*
G01*
X26641000Y-11323091D02*
G75*
G03*
X26691000Y-11323091I25000J2241D01*
G01*
X14287561Y-17910769D02*
X21554000Y-19270000D01*
X26691000Y-11323091D02*
X26691000Y-11121000D01*
X26441000Y-15396000D02*
X26441000Y-15996000D01*
X24887000Y-20802000D02*
X26641000Y-17746000D01*
X26766000Y-11046000D02*
G75*
G03*
X26691000Y-11121000I6580J-81580D01*
G01*
X26691000Y-12346000D02*
X26691000Y-12071000D01*
X26541000Y-15296000D02*
G75*
G03*
X26641000Y-15196000I-300J100300D01*
G01*
X26640996Y-16196697D02*
G75*
G03*
X26541000Y-16096000I-99756J937D01*
G01*
X27516001Y-11121000D02*
G75*
G03*
X27439918Y-11044469I-83291J-6720D01*
G01*
D11*
D12*
X26184750Y-15501000D02*
X26274750Y-15591000D01*
X26274750Y-15501000D02*
X26184750Y-15591000D01*
X26184750Y-15801000D02*
X26274750Y-15891000D01*
X26274750Y-15801000D02*
X26184750Y-15891000D01*
X26186000Y-15501000D02*
X26276000Y-15591000D01*
X26276000Y-15501000D02*
X26186000Y-15591000D01*
X26186000Y-15801000D02*
X26276000Y-15891000D01*
X26276000Y-15801000D02*
X26186000Y-15891000D01*
D13*
X27191000Y-11222000D02*
G75*
G03*
X27191000Y-11222000I-75000J0D01*
G01*
X27191000Y-11922000D02*
G75*
G03*
X27191000Y-11922000I-75000J0D01*
G01*
D14*
X14382465Y-13433196D02*
X14382465Y-13603376D01*
X14297375Y-13518286D02*
X14467555Y-13518286D01*
X14530629Y-15126727D02*
X14530629Y-15296907D01*
X14445539Y-15211817D02*
X14615719Y-15211817D01*
X14678794Y-16820258D02*
X14678794Y-16990438D01*
X14593704Y-16905348D02*
X14763884Y-16905348D01*
X15478279Y-13337324D02*
X15478279Y-13507504D01*
X15393189Y-13422414D02*
X15563369Y-13422414D01*
X15626444Y-15030855D02*
X15626444Y-15201035D01*
X15541354Y-15115945D02*
X15711534Y-15115945D01*
X15774608Y-16724386D02*
X15774608Y-16894567D01*
X15689518Y-16809477D02*
X15859698Y-16809477D01*
X16976000Y-11576910D02*
X16976000Y-11747090D01*
X16890910Y-11662000D02*
X17061090Y-11662000D01*
X16976000Y-13276910D02*
X16976000Y-13447090D01*
X16890910Y-13362000D02*
X17061090Y-13362000D01*
X16976000Y-14976910D02*
X16976000Y-15147090D01*
X16890910Y-15062000D02*
X17061090Y-15062000D01*
X18076000Y-11576910D02*
X18076000Y-11747090D01*
X17990910Y-11662000D02*
X18161090Y-11662000D01*
X18076000Y-13276910D02*
X18076000Y-13447090D01*
X17990910Y-13362000D02*
X18161090Y-13362000D01*
X18076000Y-14976910D02*
X18076000Y-15147090D01*
X17990910Y-15062000D02*
X18161090Y-15062000D01*
X19262000Y-10876910D02*
X19262000Y-11047090D01*
X19176910Y-10962000D02*
X19347090Y-10962000D01*
X19262000Y-12576910D02*
X19262000Y-12747090D01*
X19176910Y-12662000D02*
X19347090Y-12662000D01*
X19262000Y-14276910D02*
X19262000Y-14447090D01*
X19176910Y-14362000D02*
X19347090Y-14362000D01*
X20362000Y-10876910D02*
X20362000Y-11047090D01*
X20276910Y-10962000D02*
X20447090Y-10962000D01*
X20362000Y-12576910D02*
X20362000Y-12747090D01*
X20276910Y-12662000D02*
X20447090Y-12662000D01*
X20362000Y-14276910D02*
X20362000Y-14447090D01*
X20276910Y-14362000D02*
X20447090Y-14362000D01*
X21167000Y-11676910D02*
X21167000Y-11847090D01*
X21081910Y-11762000D02*
X21252090Y-11762000D01*
X21167000Y-13376910D02*
X21167000Y-13547090D01*
X21081910Y-13462000D02*
X21252090Y-13462000D01*
X21167000Y-15076910D02*
X21167000Y-15247090D01*
X21081910Y-15162000D02*
X21252090Y-15162000D01*
X22215116Y-18471435D02*
X22215116Y-18641615D01*
X22130026Y-18556525D02*
X22300206Y-18556525D01*
X22267000Y-11676910D02*
X22267000Y-11847090D01*
X22181910Y-11762000D02*
X22352090Y-11762000D01*
X22267000Y-13376910D02*
X22267000Y-13547090D01*
X22181910Y-13462000D02*
X22352090Y-13462000D01*
X22267000Y-15076910D02*
X22267000Y-15247090D01*
X22181910Y-15162000D02*
X22352090Y-15162000D01*
X22967000Y-11976910D02*
X22967000Y-12147090D01*
X22881910Y-12062000D02*
X23052090Y-12062000D01*
X22967000Y-13676910D02*
X22967000Y-13847090D01*
X22881910Y-13762000D02*
X23052090Y-13762000D01*
X22967000Y-15376910D02*
X22967000Y-15547090D01*
X22881910Y-15462000D02*
X23052090Y-15462000D01*
X23248778Y-18847657D02*
X23248778Y-19017837D01*
X23163688Y-18932747D02*
X23333868Y-18932747D01*
X24045382Y-19210917D02*
X24045382Y-19381097D01*
X23960292Y-19296007D02*
X24130472Y-19296007D01*
X24067000Y-11976910D02*
X24067000Y-12147090D01*
X23981910Y-12062000D02*
X24152090Y-12062000D01*
X24067000Y-13676910D02*
X24067000Y-13847090D01*
X23981910Y-13762000D02*
X24152090Y-13762000D01*
X24067000Y-15376910D02*
X24067000Y-15547090D01*
X23981910Y-15462000D02*
X24152090Y-15462000D01*
X24998010Y-19760917D02*
X24998010Y-19931097D01*
X24912920Y-19846007D02*
X25083100Y-19846007D01*
D15*
X15051606Y-13591585D02*
X15051606Y-13349116D01*
X14809137Y-13349116D01*
X14809137Y-13591585D01*
X15051606Y-13591585D01*
X15199771Y-15285116D02*
X15199771Y-15042647D01*
X14957302Y-15042647D01*
X14957302Y-15285116D01*
X15199771Y-15285116D01*
X15347936Y-16978647D02*
X15347936Y-16736178D01*
X15105467Y-16736178D01*
X15105467Y-16978647D01*
X15347936Y-16978647D01*
X17647235Y-11783235D02*
X17647235Y-11540765D01*
X17404765Y-11540765D01*
X17404765Y-11783235D01*
X17647235Y-11783235D01*
X17647235Y-13483235D02*
X17647235Y-13240765D01*
X17404765Y-13240765D01*
X17404765Y-13483235D01*
X17647235Y-13483235D01*
X17647235Y-15183235D02*
X17647235Y-14940765D01*
X17404765Y-14940765D01*
X17404765Y-15183235D01*
X17647235Y-15183235D01*
X19933235Y-11083235D02*
X19933235Y-10840765D01*
X19690765Y-10840765D01*
X19690765Y-11083235D01*
X19933235Y-11083235D01*
X19933235Y-12783235D02*
X19933235Y-12540765D01*
X19690765Y-12540765D01*
X19690765Y-12783235D01*
X19933235Y-12783235D01*
X19933235Y-14483235D02*
X19933235Y-14240765D01*
X19690765Y-14240765D01*
X19690765Y-14483235D01*
X19933235Y-14483235D01*
X21838235Y-11883235D02*
X21838235Y-11640765D01*
X21595765Y-11640765D01*
X21595765Y-11883235D01*
X21838235Y-11883235D01*
X21838235Y-13583235D02*
X21838235Y-13340765D01*
X21595765Y-13340765D01*
X21595765Y-13583235D01*
X21838235Y-13583235D01*
X21838235Y-15283235D02*
X21838235Y-15040765D01*
X21595765Y-15040765D01*
X21595765Y-15283235D01*
X21838235Y-15283235D01*
X22853181Y-18865871D02*
X22853181Y-18623402D01*
X22610712Y-18623402D01*
X22610712Y-18865871D01*
X22853181Y-18865871D01*
X23638235Y-12183235D02*
X23638235Y-11940765D01*
X23395765Y-11940765D01*
X23395765Y-12183235D01*
X23638235Y-12183235D01*
X23638235Y-13883235D02*
X23638235Y-13640765D01*
X23395765Y-13640765D01*
X23395765Y-13883235D01*
X23638235Y-13883235D01*
X23638235Y-15583235D02*
X23638235Y-15340765D01*
X23395765Y-15340765D01*
X23395765Y-15583235D01*
X23638235Y-15583235D01*
X24642931Y-19692242D02*
X24642931Y-19449772D01*
X24400462Y-19449772D01*
X24400462Y-19692242D01*
X24642931Y-19692242D01*
D11*
X14067545Y-21114976D02*
X14067545Y-20914976D01*
X14115164Y-20914976D01*
X14143736Y-20924500D01*
X14162783Y-20943548D01*
X14172307Y-20962595D01*
X14181831Y-21000690D01*
X14181831Y-21029262D01*
X14172307Y-21067357D01*
X14162783Y-21086405D01*
X14143736Y-21105452D01*
X14115164Y-21114976D01*
X14067545Y-21114976D01*
X14267545Y-21114976D02*
X14267545Y-20981643D01*
X14267545Y-21019738D02*
X14277069Y-21000690D01*
X14286593Y-20991167D01*
X14305640Y-20981643D01*
X14324688Y-20981643D01*
X14391355Y-21114976D02*
X14391355Y-20981643D01*
X14391355Y-20914976D02*
X14381831Y-20924500D01*
X14391355Y-20934024D01*
X14400878Y-20924500D01*
X14391355Y-20914976D01*
X14391355Y-20934024D01*
X14515164Y-21114976D02*
X14496117Y-21105452D01*
X14486593Y-21086405D01*
X14486593Y-20914976D01*
X14619926Y-21114976D02*
X14600878Y-21105452D01*
X14591355Y-21086405D01*
X14591355Y-20914976D01*
X14848498Y-21114976D02*
X14848498Y-20914976D01*
X14915164Y-21057833D01*
X14981831Y-20914976D01*
X14981831Y-21114976D01*
X15162783Y-21114976D02*
X15162783Y-21010214D01*
X15153259Y-20991167D01*
X15134212Y-20981643D01*
X15096117Y-20981643D01*
X15077069Y-20991167D01*
X15162783Y-21105452D02*
X15143736Y-21114976D01*
X15096117Y-21114976D01*
X15077069Y-21105452D01*
X15067545Y-21086405D01*
X15067545Y-21067357D01*
X15077069Y-21048310D01*
X15096117Y-21038786D01*
X15143736Y-21038786D01*
X15162783Y-21029262D01*
X15258021Y-20981643D02*
X15258021Y-21181643D01*
X15258021Y-20991167D02*
X15277069Y-20981643D01*
X15315164Y-20981643D01*
X15334212Y-20991167D01*
X15343736Y-21000690D01*
X15353259Y-21019738D01*
X15353259Y-21076881D01*
X15343736Y-21095929D01*
X15334212Y-21105452D01*
X15315164Y-21114976D01*
X15277069Y-21114976D01*
X15258021Y-21105452D01*
X15438974Y-21095929D02*
X15448498Y-21105452D01*
X15438974Y-21114976D01*
X15429450Y-21105452D01*
X15438974Y-21095929D01*
X15438974Y-21114976D01*
X15438974Y-20991167D02*
X15448498Y-21000690D01*
X15438974Y-21010214D01*
X15429450Y-21000690D01*
X15438974Y-20991167D01*
X15438974Y-21010214D01*
D12*
X13719926Y-21399500D02*
X13809926Y-21489500D01*
X13809926Y-21399500D02*
X13719926Y-21489500D01*
D11*
X14105640Y-21334976D02*
X14124688Y-21334976D01*
X14143736Y-21344500D01*
X14153259Y-21354024D01*
X14162783Y-21373071D01*
X14172307Y-21411167D01*
X14172307Y-21458786D01*
X14162783Y-21496881D01*
X14153259Y-21515929D01*
X14143736Y-21525452D01*
X14124688Y-21534976D01*
X14105640Y-21534976D01*
X14086593Y-21525452D01*
X14077069Y-21515929D01*
X14067545Y-21496881D01*
X14058021Y-21458786D01*
X14058021Y-21411167D01*
X14067545Y-21373071D01*
X14077069Y-21354024D01*
X14086593Y-21344500D01*
X14105640Y-21334976D01*
X14258021Y-21515929D02*
X14267545Y-21525452D01*
X14258021Y-21534976D01*
X14248498Y-21525452D01*
X14258021Y-21515929D01*
X14258021Y-21534976D01*
X14362783Y-21534976D02*
X14400878Y-21534976D01*
X14419926Y-21525452D01*
X14429450Y-21515929D01*
X14448498Y-21487357D01*
X14458021Y-21449262D01*
X14458021Y-21373071D01*
X14448498Y-21354024D01*
X14438974Y-21344500D01*
X14419926Y-21334976D01*
X14381831Y-21334976D01*
X14362783Y-21344500D01*
X14353259Y-21354024D01*
X14343736Y-21373071D01*
X14343736Y-21420690D01*
X14353259Y-21439738D01*
X14362783Y-21449262D01*
X14381831Y-21458786D01*
X14419926Y-21458786D01*
X14438974Y-21449262D01*
X14448498Y-21439738D01*
X14458021Y-21420690D01*
X14581831Y-21334976D02*
X14600878Y-21334976D01*
X14619926Y-21344500D01*
X14629450Y-21354024D01*
X14638974Y-21373071D01*
X14648498Y-21411167D01*
X14648498Y-21458786D01*
X14638974Y-21496881D01*
X14629450Y-21515929D01*
X14619926Y-21525452D01*
X14600878Y-21534976D01*
X14581831Y-21534976D01*
X14562783Y-21525452D01*
X14553259Y-21515929D01*
X14543736Y-21496881D01*
X14534212Y-21458786D01*
X14534212Y-21411167D01*
X14543736Y-21373071D01*
X14553259Y-21354024D01*
X14562783Y-21344500D01*
X14581831Y-21334976D01*
X14772307Y-21334976D02*
X14791355Y-21334976D01*
X14810402Y-21344500D01*
X14819926Y-21354024D01*
X14829450Y-21373071D01*
X14838974Y-21411167D01*
X14838974Y-21458786D01*
X14829450Y-21496881D01*
X14819926Y-21515929D01*
X14810402Y-21525452D01*
X14791355Y-21534976D01*
X14772307Y-21534976D01*
X14753259Y-21525452D01*
X14743736Y-21515929D01*
X14734212Y-21496881D01*
X14724688Y-21458786D01*
X14724688Y-21411167D01*
X14734212Y-21373071D01*
X14743736Y-21354024D01*
X14753259Y-21344500D01*
X14772307Y-21334976D01*
X14924688Y-21534976D02*
X14924688Y-21401643D01*
X14924688Y-21420690D02*
X14934212Y-21411167D01*
X14953259Y-21401643D01*
X14981831Y-21401643D01*
X15000878Y-21411167D01*
X15010402Y-21430214D01*
X15010402Y-21534976D01*
X15010402Y-21430214D02*
X15019926Y-21411167D01*
X15038974Y-21401643D01*
X15067545Y-21401643D01*
X15086593Y-21411167D01*
X15096117Y-21430214D01*
X15096117Y-21534976D01*
X15191355Y-21534976D02*
X15191355Y-21401643D01*
X15191355Y-21420690D02*
X15200878Y-21411167D01*
X15219926Y-21401643D01*
X15248498Y-21401643D01*
X15267545Y-21411167D01*
X15277069Y-21430214D01*
X15277069Y-21534976D01*
X15277069Y-21430214D02*
X15286593Y-21411167D01*
X15305640Y-21401643D01*
X15334212Y-21401643D01*
X15353259Y-21411167D01*
X15362783Y-21430214D01*
X15362783Y-21534976D01*
X15753259Y-21325452D02*
X15581831Y-21582595D01*
X16010402Y-21334976D02*
X16029450Y-21334976D01*
X16048498Y-21344500D01*
X16058021Y-21354024D01*
X16067545Y-21373071D01*
X16077069Y-21411167D01*
X16077069Y-21458786D01*
X16067545Y-21496881D01*
X16058021Y-21515929D01*
X16048498Y-21525452D01*
X16029450Y-21534976D01*
X16010402Y-21534976D01*
X15991355Y-21525452D01*
X15981831Y-21515929D01*
X15972307Y-21496881D01*
X15962783Y-21458786D01*
X15962783Y-21411167D01*
X15972307Y-21373071D01*
X15981831Y-21354024D01*
X15991355Y-21344500D01*
X16010402Y-21334976D01*
X16162783Y-21515929D02*
X16172307Y-21525452D01*
X16162783Y-21534976D01*
X16153259Y-21525452D01*
X16162783Y-21515929D01*
X16162783Y-21534976D01*
X16296117Y-21334976D02*
X16315164Y-21334976D01*
X16334212Y-21344500D01*
X16343736Y-21354024D01*
X16353259Y-21373071D01*
X16362783Y-21411167D01*
X16362783Y-21458786D01*
X16353259Y-21496881D01*
X16343736Y-21515929D01*
X16334212Y-21525452D01*
X16315164Y-21534976D01*
X16296117Y-21534976D01*
X16277069Y-21525452D01*
X16267545Y-21515929D01*
X16258021Y-21496881D01*
X16248498Y-21458786D01*
X16248498Y-21411167D01*
X16258021Y-21373071D01*
X16267545Y-21354024D01*
X16277069Y-21344500D01*
X16296117Y-21334976D01*
X16429450Y-21334976D02*
X16553259Y-21334976D01*
X16486593Y-21411167D01*
X16515164Y-21411167D01*
X16534212Y-21420690D01*
X16543736Y-21430214D01*
X16553259Y-21449262D01*
X16553259Y-21496881D01*
X16543736Y-21515929D01*
X16534212Y-21525452D01*
X16515164Y-21534976D01*
X16458021Y-21534976D01*
X16438974Y-21525452D01*
X16429450Y-21515929D01*
X16734212Y-21334976D02*
X16638974Y-21334976D01*
X16629450Y-21430214D01*
X16638974Y-21420690D01*
X16658021Y-21411167D01*
X16705640Y-21411167D01*
X16724688Y-21420690D01*
X16734212Y-21430214D01*
X16743736Y-21449262D01*
X16743736Y-21496881D01*
X16734212Y-21515929D01*
X16724688Y-21525452D01*
X16705640Y-21534976D01*
X16658021Y-21534976D01*
X16638974Y-21525452D01*
X16629450Y-21515929D01*
X16915164Y-21401643D02*
X16915164Y-21534976D01*
X16867545Y-21325452D02*
X16819926Y-21468310D01*
X16943736Y-21468310D01*
X17010402Y-21334976D02*
X17010402Y-21373071D01*
X17086593Y-21334976D02*
X17086593Y-21373071D01*
X17381831Y-21611167D02*
X17372307Y-21601643D01*
X17353260Y-21573071D01*
X17343736Y-21554024D01*
X17334212Y-21525452D01*
X17324688Y-21477833D01*
X17324688Y-21439738D01*
X17334212Y-21392119D01*
X17343736Y-21363548D01*
X17353260Y-21344500D01*
X17372307Y-21315929D01*
X17381831Y-21306405D01*
X17543736Y-21401643D02*
X17543736Y-21534976D01*
X17496117Y-21325452D02*
X17448498Y-21468310D01*
X17572307Y-21468310D01*
X17800879Y-21534976D02*
X17800879Y-21334976D01*
X17886593Y-21534976D02*
X17886593Y-21430214D01*
X17877069Y-21411167D01*
X17858021Y-21401643D01*
X17829450Y-21401643D01*
X17810402Y-21411167D01*
X17800879Y-21420690D01*
X18010402Y-21534976D02*
X17991355Y-21525452D01*
X17981831Y-21515929D01*
X17972307Y-21496881D01*
X17972307Y-21439738D01*
X17981831Y-21420690D01*
X17991355Y-21411167D01*
X18010402Y-21401643D01*
X18038974Y-21401643D01*
X18058021Y-21411167D01*
X18067545Y-21420690D01*
X18077069Y-21439738D01*
X18077069Y-21496881D01*
X18067545Y-21515929D01*
X18058021Y-21525452D01*
X18038974Y-21534976D01*
X18010402Y-21534976D01*
X18191355Y-21534976D02*
X18172307Y-21525452D01*
X18162783Y-21506405D01*
X18162783Y-21334976D01*
X18343736Y-21525452D02*
X18324688Y-21534976D01*
X18286593Y-21534976D01*
X18267545Y-21525452D01*
X18258021Y-21506405D01*
X18258021Y-21430214D01*
X18267545Y-21411167D01*
X18286593Y-21401643D01*
X18324688Y-21401643D01*
X18343736Y-21411167D01*
X18353260Y-21430214D01*
X18353260Y-21449262D01*
X18258021Y-21468310D01*
X18429450Y-21525452D02*
X18448498Y-21534976D01*
X18486593Y-21534976D01*
X18505640Y-21525452D01*
X18515164Y-21506405D01*
X18515164Y-21496881D01*
X18505640Y-21477833D01*
X18486593Y-21468310D01*
X18458021Y-21468310D01*
X18438974Y-21458786D01*
X18429450Y-21439738D01*
X18429450Y-21430214D01*
X18438974Y-21411167D01*
X18458021Y-21401643D01*
X18486593Y-21401643D01*
X18505640Y-21411167D01*
X18581831Y-21611167D02*
X18591355Y-21601643D01*
X18610402Y-21573071D01*
X18619926Y-21554024D01*
X18629450Y-21525452D01*
X18638974Y-21477833D01*
X18638974Y-21439738D01*
X18629450Y-21392119D01*
X18619926Y-21363548D01*
X18610402Y-21344500D01*
X18591355Y-21315929D01*
X18581831Y-21306405D01*
X18943736Y-21611167D02*
X18934212Y-21601643D01*
X18915164Y-21573071D01*
X18905640Y-21554024D01*
X18896117Y-21525452D01*
X18886593Y-21477833D01*
X18886593Y-21439738D01*
X18896117Y-21392119D01*
X18905640Y-21363548D01*
X18915164Y-21344500D01*
X18934212Y-21315929D01*
X18943736Y-21306405D01*
X19019926Y-21401643D02*
X19019926Y-21534976D01*
X19019926Y-21420690D02*
X19029450Y-21411167D01*
X19048498Y-21401643D01*
X19077069Y-21401643D01*
X19096117Y-21411167D01*
X19105640Y-21430214D01*
X19105640Y-21534976D01*
X19229450Y-21534976D02*
X19210402Y-21525452D01*
X19200879Y-21515929D01*
X19191355Y-21496881D01*
X19191355Y-21439738D01*
X19200879Y-21420690D01*
X19210402Y-21411167D01*
X19229450Y-21401643D01*
X19258021Y-21401643D01*
X19277069Y-21411167D01*
X19286593Y-21420690D01*
X19296117Y-21439738D01*
X19296117Y-21496881D01*
X19286593Y-21515929D01*
X19277069Y-21525452D01*
X19258021Y-21534976D01*
X19229450Y-21534976D01*
X19353260Y-21401643D02*
X19429450Y-21401643D01*
X19381831Y-21334976D02*
X19381831Y-21506405D01*
X19391355Y-21525452D01*
X19410402Y-21534976D01*
X19429450Y-21534976D01*
X19648498Y-21401643D02*
X19648498Y-21601643D01*
X19648498Y-21411167D02*
X19667545Y-21401643D01*
X19705640Y-21401643D01*
X19724688Y-21411167D01*
X19734212Y-21420690D01*
X19743736Y-21439738D01*
X19743736Y-21496881D01*
X19734212Y-21515929D01*
X19724688Y-21525452D01*
X19705640Y-21534976D01*
X19667545Y-21534976D01*
X19648498Y-21525452D01*
X19858021Y-21534976D02*
X19838974Y-21525452D01*
X19829450Y-21506405D01*
X19829450Y-21334976D01*
X20019926Y-21534976D02*
X20019926Y-21430214D01*
X20010402Y-21411167D01*
X19991355Y-21401643D01*
X19953260Y-21401643D01*
X19934212Y-21411167D01*
X20019926Y-21525452D02*
X20000879Y-21534976D01*
X19953260Y-21534976D01*
X19934212Y-21525452D01*
X19924688Y-21506405D01*
X19924688Y-21487357D01*
X19934212Y-21468310D01*
X19953260Y-21458786D01*
X20000879Y-21458786D01*
X20019926Y-21449262D01*
X20086593Y-21401643D02*
X20162783Y-21401643D01*
X20115164Y-21334976D02*
X20115164Y-21506405D01*
X20124688Y-21525452D01*
X20143736Y-21534976D01*
X20162783Y-21534976D01*
X20305640Y-21525452D02*
X20286593Y-21534976D01*
X20248498Y-21534976D01*
X20229450Y-21525452D01*
X20219926Y-21506405D01*
X20219926Y-21430214D01*
X20229450Y-21411167D01*
X20248498Y-21401643D01*
X20286593Y-21401643D01*
X20305640Y-21411167D01*
X20315164Y-21430214D01*
X20315164Y-21449262D01*
X20219926Y-21468310D01*
X20486593Y-21534976D02*
X20486593Y-21334976D01*
X20486593Y-21525452D02*
X20467545Y-21534976D01*
X20429450Y-21534976D01*
X20410402Y-21525452D01*
X20400879Y-21515929D01*
X20391355Y-21496881D01*
X20391355Y-21439738D01*
X20400879Y-21420690D01*
X20410402Y-21411167D01*
X20429450Y-21401643D01*
X20467545Y-21401643D01*
X20486593Y-21411167D01*
X20562783Y-21611167D02*
X20572307Y-21601643D01*
X20591355Y-21573071D01*
X20600879Y-21554024D01*
X20610402Y-21525452D01*
X20619926Y-21477833D01*
X20619926Y-21439738D01*
X20610402Y-21392119D01*
X20600879Y-21363548D01*
X20591355Y-21344500D01*
X20572307Y-21315929D01*
X20562783Y-21306405D01*
D13*
X13809926Y-21708500D02*
G75*
G03*
X13809926Y-21708500I-75000J0D01*
G01*
D11*
X14172307Y-21798976D02*
X14058021Y-21798976D01*
X14115164Y-21798976D02*
X14115164Y-21598976D01*
X14096117Y-21627548D01*
X14077069Y-21646595D01*
X14058021Y-21656119D01*
X14258021Y-21779929D02*
X14267545Y-21789452D01*
X14258021Y-21798976D01*
X14248498Y-21789452D01*
X14258021Y-21779929D01*
X14258021Y-21798976D01*
X14448498Y-21598976D02*
X14353259Y-21598976D01*
X14343736Y-21694214D01*
X14353259Y-21684690D01*
X14372307Y-21675167D01*
X14419926Y-21675167D01*
X14438974Y-21684690D01*
X14448498Y-21694214D01*
X14458021Y-21713262D01*
X14458021Y-21760881D01*
X14448498Y-21779929D01*
X14438974Y-21789452D01*
X14419926Y-21798976D01*
X14372307Y-21798976D01*
X14353259Y-21789452D01*
X14343736Y-21779929D01*
X14581831Y-21598976D02*
X14600878Y-21598976D01*
X14619926Y-21608500D01*
X14629450Y-21618024D01*
X14638974Y-21637071D01*
X14648498Y-21675167D01*
X14648498Y-21722786D01*
X14638974Y-21760881D01*
X14629450Y-21779929D01*
X14619926Y-21789452D01*
X14600878Y-21798976D01*
X14581831Y-21798976D01*
X14562783Y-21789452D01*
X14553259Y-21779929D01*
X14543736Y-21760881D01*
X14534212Y-21722786D01*
X14534212Y-21675167D01*
X14543736Y-21637071D01*
X14553259Y-21618024D01*
X14562783Y-21608500D01*
X14581831Y-21598976D01*
X14772307Y-21598976D02*
X14791355Y-21598976D01*
X14810402Y-21608500D01*
X14819926Y-21618024D01*
X14829450Y-21637071D01*
X14838974Y-21675167D01*
X14838974Y-21722786D01*
X14829450Y-21760881D01*
X14819926Y-21779929D01*
X14810402Y-21789452D01*
X14791355Y-21798976D01*
X14772307Y-21798976D01*
X14753259Y-21789452D01*
X14743736Y-21779929D01*
X14734212Y-21760881D01*
X14724688Y-21722786D01*
X14724688Y-21675167D01*
X14734212Y-21637071D01*
X14743736Y-21618024D01*
X14753259Y-21608500D01*
X14772307Y-21598976D01*
X14924688Y-21798976D02*
X14924688Y-21665643D01*
X14924688Y-21684690D02*
X14934212Y-21675167D01*
X14953259Y-21665643D01*
X14981831Y-21665643D01*
X15000878Y-21675167D01*
X15010402Y-21694214D01*
X15010402Y-21798976D01*
X15010402Y-21694214D02*
X15019926Y-21675167D01*
X15038974Y-21665643D01*
X15067545Y-21665643D01*
X15086593Y-21675167D01*
X15096117Y-21694214D01*
X15096117Y-21798976D01*
X15191355Y-21798976D02*
X15191355Y-21665643D01*
X15191355Y-21684690D02*
X15200878Y-21675167D01*
X15219926Y-21665643D01*
X15248498Y-21665643D01*
X15267545Y-21675167D01*
X15277069Y-21694214D01*
X15277069Y-21798976D01*
X15277069Y-21694214D02*
X15286593Y-21675167D01*
X15305640Y-21665643D01*
X15334212Y-21665643D01*
X15353259Y-21675167D01*
X15362783Y-21694214D01*
X15362783Y-21798976D01*
X15753259Y-21589452D02*
X15581831Y-21846595D01*
X16010402Y-21598976D02*
X16029450Y-21598976D01*
X16048498Y-21608500D01*
X16058021Y-21618024D01*
X16067545Y-21637071D01*
X16077069Y-21675167D01*
X16077069Y-21722786D01*
X16067545Y-21760881D01*
X16058021Y-21779929D01*
X16048498Y-21789452D01*
X16029450Y-21798976D01*
X16010402Y-21798976D01*
X15991355Y-21789452D01*
X15981831Y-21779929D01*
X15972307Y-21760881D01*
X15962783Y-21722786D01*
X15962783Y-21675167D01*
X15972307Y-21637071D01*
X15981831Y-21618024D01*
X15991355Y-21608500D01*
X16010402Y-21598976D01*
X16162783Y-21779929D02*
X16172307Y-21789452D01*
X16162783Y-21798976D01*
X16153259Y-21789452D01*
X16162783Y-21779929D01*
X16162783Y-21798976D01*
X16296117Y-21598976D02*
X16315164Y-21598976D01*
X16334212Y-21608500D01*
X16343736Y-21618024D01*
X16353259Y-21637071D01*
X16362783Y-21675167D01*
X16362783Y-21722786D01*
X16353259Y-21760881D01*
X16343736Y-21779929D01*
X16334212Y-21789452D01*
X16315164Y-21798976D01*
X16296117Y-21798976D01*
X16277069Y-21789452D01*
X16267545Y-21779929D01*
X16258021Y-21760881D01*
X16248498Y-21722786D01*
X16248498Y-21675167D01*
X16258021Y-21637071D01*
X16267545Y-21618024D01*
X16277069Y-21608500D01*
X16296117Y-21598976D01*
X16543736Y-21598976D02*
X16448498Y-21598976D01*
X16438974Y-21694214D01*
X16448498Y-21684690D01*
X16467545Y-21675167D01*
X16515164Y-21675167D01*
X16534212Y-21684690D01*
X16543736Y-21694214D01*
X16553259Y-21713262D01*
X16553259Y-21760881D01*
X16543736Y-21779929D01*
X16534212Y-21789452D01*
X16515164Y-21798976D01*
X16467545Y-21798976D01*
X16448498Y-21789452D01*
X16438974Y-21779929D01*
X16648498Y-21798976D02*
X16686593Y-21798976D01*
X16705640Y-21789452D01*
X16715164Y-21779929D01*
X16734212Y-21751357D01*
X16743736Y-21713262D01*
X16743736Y-21637071D01*
X16734212Y-21618024D01*
X16724688Y-21608500D01*
X16705640Y-21598976D01*
X16667545Y-21598976D01*
X16648498Y-21608500D01*
X16638974Y-21618024D01*
X16629450Y-21637071D01*
X16629450Y-21684690D01*
X16638974Y-21703738D01*
X16648498Y-21713262D01*
X16667545Y-21722786D01*
X16705640Y-21722786D01*
X16724688Y-21713262D01*
X16734212Y-21703738D01*
X16743736Y-21684690D01*
X16934212Y-21798976D02*
X16819926Y-21798976D01*
X16877069Y-21798976D02*
X16877069Y-21598976D01*
X16858021Y-21627548D01*
X16838974Y-21646595D01*
X16819926Y-21656119D01*
X17010402Y-21598976D02*
X17010402Y-21637071D01*
X17086593Y-21598976D02*
X17086593Y-21637071D01*
X17381831Y-21875167D02*
X17372307Y-21865643D01*
X17353260Y-21837071D01*
X17343736Y-21818024D01*
X17334212Y-21789452D01*
X17324688Y-21741833D01*
X17324688Y-21703738D01*
X17334212Y-21656119D01*
X17343736Y-21627548D01*
X17353260Y-21608500D01*
X17372307Y-21579929D01*
X17381831Y-21570405D01*
X17448498Y-21618024D02*
X17458021Y-21608500D01*
X17477069Y-21598976D01*
X17524688Y-21598976D01*
X17543736Y-21608500D01*
X17553260Y-21618024D01*
X17562783Y-21637071D01*
X17562783Y-21656119D01*
X17553260Y-21684690D01*
X17438974Y-21798976D01*
X17562783Y-21798976D01*
X17800879Y-21798976D02*
X17800879Y-21598976D01*
X17886593Y-21798976D02*
X17886593Y-21694214D01*
X17877069Y-21675167D01*
X17858021Y-21665643D01*
X17829450Y-21665643D01*
X17810402Y-21675167D01*
X17800879Y-21684690D01*
X18010402Y-21798976D02*
X17991355Y-21789452D01*
X17981831Y-21779929D01*
X17972307Y-21760881D01*
X17972307Y-21703738D01*
X17981831Y-21684690D01*
X17991355Y-21675167D01*
X18010402Y-21665643D01*
X18038974Y-21665643D01*
X18058021Y-21675167D01*
X18067545Y-21684690D01*
X18077069Y-21703738D01*
X18077069Y-21760881D01*
X18067545Y-21779929D01*
X18058021Y-21789452D01*
X18038974Y-21798976D01*
X18010402Y-21798976D01*
X18191355Y-21798976D02*
X18172307Y-21789452D01*
X18162783Y-21770405D01*
X18162783Y-21598976D01*
X18343736Y-21789452D02*
X18324688Y-21798976D01*
X18286593Y-21798976D01*
X18267545Y-21789452D01*
X18258021Y-21770405D01*
X18258021Y-21694214D01*
X18267545Y-21675167D01*
X18286593Y-21665643D01*
X18324688Y-21665643D01*
X18343736Y-21675167D01*
X18353260Y-21694214D01*
X18353260Y-21713262D01*
X18258021Y-21732310D01*
X18429450Y-21789452D02*
X18448498Y-21798976D01*
X18486593Y-21798976D01*
X18505640Y-21789452D01*
X18515164Y-21770405D01*
X18515164Y-21760881D01*
X18505640Y-21741833D01*
X18486593Y-21732310D01*
X18458021Y-21732310D01*
X18438974Y-21722786D01*
X18429450Y-21703738D01*
X18429450Y-21694214D01*
X18438974Y-21675167D01*
X18458021Y-21665643D01*
X18486593Y-21665643D01*
X18505640Y-21675167D01*
X18581831Y-21875167D02*
X18591355Y-21865643D01*
X18610402Y-21837071D01*
X18619926Y-21818024D01*
X18629450Y-21789452D01*
X18638974Y-21741833D01*
X18638974Y-21703738D01*
X18629450Y-21656119D01*
X18619926Y-21627548D01*
X18610402Y-21608500D01*
X18591355Y-21579929D01*
X18581831Y-21570405D01*
X18943736Y-21875167D02*
X18934212Y-21865643D01*
X18915164Y-21837071D01*
X18905640Y-21818024D01*
X18896117Y-21789452D01*
X18886593Y-21741833D01*
X18886593Y-21703738D01*
X18896117Y-21656119D01*
X18905640Y-21627548D01*
X18915164Y-21608500D01*
X18934212Y-21579929D01*
X18943736Y-21570405D01*
X19019926Y-21665643D02*
X19019926Y-21798976D01*
X19019926Y-21684690D02*
X19029450Y-21675167D01*
X19048498Y-21665643D01*
X19077069Y-21665643D01*
X19096117Y-21675167D01*
X19105640Y-21694214D01*
X19105640Y-21798976D01*
X19229450Y-21798976D02*
X19210402Y-21789452D01*
X19200879Y-21779929D01*
X19191355Y-21760881D01*
X19191355Y-21703738D01*
X19200879Y-21684690D01*
X19210402Y-21675167D01*
X19229450Y-21665643D01*
X19258021Y-21665643D01*
X19277069Y-21675167D01*
X19286593Y-21684690D01*
X19296117Y-21703738D01*
X19296117Y-21760881D01*
X19286593Y-21779929D01*
X19277069Y-21789452D01*
X19258021Y-21798976D01*
X19229450Y-21798976D01*
X19353260Y-21665643D02*
X19429450Y-21665643D01*
X19381831Y-21598976D02*
X19381831Y-21770405D01*
X19391355Y-21789452D01*
X19410402Y-21798976D01*
X19429450Y-21798976D01*
X19648498Y-21665643D02*
X19648498Y-21865643D01*
X19648498Y-21675167D02*
X19667545Y-21665643D01*
X19705640Y-21665643D01*
X19724688Y-21675167D01*
X19734212Y-21684690D01*
X19743736Y-21703738D01*
X19743736Y-21760881D01*
X19734212Y-21779929D01*
X19724688Y-21789452D01*
X19705640Y-21798976D01*
X19667545Y-21798976D01*
X19648498Y-21789452D01*
X19858021Y-21798976D02*
X19838974Y-21789452D01*
X19829450Y-21770405D01*
X19829450Y-21598976D01*
X20019926Y-21798976D02*
X20019926Y-21694214D01*
X20010402Y-21675167D01*
X19991355Y-21665643D01*
X19953260Y-21665643D01*
X19934212Y-21675167D01*
X20019926Y-21789452D02*
X20000879Y-21798976D01*
X19953260Y-21798976D01*
X19934212Y-21789452D01*
X19924688Y-21770405D01*
X19924688Y-21751357D01*
X19934212Y-21732310D01*
X19953260Y-21722786D01*
X20000879Y-21722786D01*
X20019926Y-21713262D01*
X20086593Y-21665643D02*
X20162783Y-21665643D01*
X20115164Y-21598976D02*
X20115164Y-21770405D01*
X20124688Y-21789452D01*
X20143736Y-21798976D01*
X20162783Y-21798976D01*
X20305640Y-21789452D02*
X20286593Y-21798976D01*
X20248498Y-21798976D01*
X20229450Y-21789452D01*
X20219926Y-21770405D01*
X20219926Y-21694214D01*
X20229450Y-21675167D01*
X20248498Y-21665643D01*
X20286593Y-21665643D01*
X20305640Y-21675167D01*
X20315164Y-21694214D01*
X20315164Y-21713262D01*
X20219926Y-21732310D01*
X20486593Y-21798976D02*
X20486593Y-21598976D01*
X20486593Y-21789452D02*
X20467545Y-21798976D01*
X20429450Y-21798976D01*
X20410402Y-21789452D01*
X20400879Y-21779929D01*
X20391355Y-21760881D01*
X20391355Y-21703738D01*
X20400879Y-21684690D01*
X20410402Y-21675167D01*
X20429450Y-21665643D01*
X20467545Y-21665643D01*
X20486593Y-21675167D01*
X20562783Y-21875167D02*
X20572307Y-21865643D01*
X20591355Y-21837071D01*
X20600879Y-21818024D01*
X20610402Y-21789452D01*
X20619926Y-21741833D01*
X20619926Y-21703738D01*
X20610402Y-21656119D01*
X20600879Y-21627548D01*
X20591355Y-21608500D01*
X20572307Y-21579929D01*
X20562783Y-21570405D01*
D14*
X13724836Y-21893410D02*
X13724836Y-22063590D01*
X13639746Y-21978500D02*
X13809926Y-21978500D01*
D11*
X14172307Y-22068976D02*
X14058021Y-22068976D01*
X14115164Y-22068976D02*
X14115164Y-21868976D01*
X14096117Y-21897548D01*
X14077069Y-21916595D01*
X14058021Y-21926119D01*
X14258021Y-22049929D02*
X14267545Y-22059452D01*
X14258021Y-22068976D01*
X14248498Y-22059452D01*
X14258021Y-22049929D01*
X14258021Y-22068976D01*
X14334212Y-21868976D02*
X14467545Y-21868976D01*
X14381831Y-22068976D01*
X14581831Y-21868976D02*
X14600878Y-21868976D01*
X14619926Y-21878500D01*
X14629450Y-21888024D01*
X14638974Y-21907071D01*
X14648498Y-21945167D01*
X14648498Y-21992786D01*
X14638974Y-22030881D01*
X14629450Y-22049929D01*
X14619926Y-22059452D01*
X14600878Y-22068976D01*
X14581831Y-22068976D01*
X14562783Y-22059452D01*
X14553259Y-22049929D01*
X14543736Y-22030881D01*
X14534212Y-21992786D01*
X14534212Y-21945167D01*
X14543736Y-21907071D01*
X14553259Y-21888024D01*
X14562783Y-21878500D01*
X14581831Y-21868976D01*
X14724688Y-21888024D02*
X14734212Y-21878500D01*
X14753259Y-21868976D01*
X14800878Y-21868976D01*
X14819926Y-21878500D01*
X14829450Y-21888024D01*
X14838974Y-21907071D01*
X14838974Y-21926119D01*
X14829450Y-21954690D01*
X14715164Y-22068976D01*
X14838974Y-22068976D01*
X14924688Y-22068976D02*
X14924688Y-21935643D01*
X14924688Y-21954690D02*
X14934212Y-21945167D01*
X14953259Y-21935643D01*
X14981831Y-21935643D01*
X15000878Y-21945167D01*
X15010402Y-21964214D01*
X15010402Y-22068976D01*
X15010402Y-21964214D02*
X15019926Y-21945167D01*
X15038974Y-21935643D01*
X15067545Y-21935643D01*
X15086593Y-21945167D01*
X15096117Y-21964214D01*
X15096117Y-22068976D01*
X15191355Y-22068976D02*
X15191355Y-21935643D01*
X15191355Y-21954690D02*
X15200878Y-21945167D01*
X15219926Y-21935643D01*
X15248498Y-21935643D01*
X15267545Y-21945167D01*
X15277069Y-21964214D01*
X15277069Y-22068976D01*
X15277069Y-21964214D02*
X15286593Y-21945167D01*
X15305640Y-21935643D01*
X15334212Y-21935643D01*
X15353259Y-21945167D01*
X15362783Y-21964214D01*
X15362783Y-22068976D01*
X15753259Y-21859452D02*
X15581831Y-22116595D01*
X16010402Y-21868976D02*
X16029450Y-21868976D01*
X16048498Y-21878500D01*
X16058021Y-21888024D01*
X16067545Y-21907071D01*
X16077069Y-21945167D01*
X16077069Y-21992786D01*
X16067545Y-22030881D01*
X16058021Y-22049929D01*
X16048498Y-22059452D01*
X16029450Y-22068976D01*
X16010402Y-22068976D01*
X15991355Y-22059452D01*
X15981831Y-22049929D01*
X15972307Y-22030881D01*
X15962783Y-21992786D01*
X15962783Y-21945167D01*
X15972307Y-21907071D01*
X15981831Y-21888024D01*
X15991355Y-21878500D01*
X16010402Y-21868976D01*
X16162783Y-22049929D02*
X16172307Y-22059452D01*
X16162783Y-22068976D01*
X16153259Y-22059452D01*
X16162783Y-22049929D01*
X16162783Y-22068976D01*
X16296117Y-21868976D02*
X16315164Y-21868976D01*
X16334212Y-21878500D01*
X16343736Y-21888024D01*
X16353259Y-21907071D01*
X16362783Y-21945167D01*
X16362783Y-21992786D01*
X16353259Y-22030881D01*
X16343736Y-22049929D01*
X16334212Y-22059452D01*
X16315164Y-22068976D01*
X16296117Y-22068976D01*
X16277069Y-22059452D01*
X16267545Y-22049929D01*
X16258021Y-22030881D01*
X16248498Y-21992786D01*
X16248498Y-21945167D01*
X16258021Y-21907071D01*
X16267545Y-21888024D01*
X16277069Y-21878500D01*
X16296117Y-21868976D01*
X16534212Y-21868976D02*
X16496117Y-21868976D01*
X16477069Y-21878500D01*
X16467545Y-21888024D01*
X16448498Y-21916595D01*
X16438974Y-21954690D01*
X16438974Y-22030881D01*
X16448498Y-22049929D01*
X16458021Y-22059452D01*
X16477069Y-22068976D01*
X16515164Y-22068976D01*
X16534212Y-22059452D01*
X16543736Y-22049929D01*
X16553259Y-22030881D01*
X16553259Y-21983262D01*
X16543736Y-21964214D01*
X16534212Y-21954690D01*
X16515164Y-21945167D01*
X16477069Y-21945167D01*
X16458021Y-21954690D01*
X16448498Y-21964214D01*
X16438974Y-21983262D01*
X16619926Y-21868976D02*
X16753259Y-21868976D01*
X16667545Y-22068976D01*
X16867545Y-21868976D02*
X16886593Y-21868976D01*
X16905640Y-21878500D01*
X16915164Y-21888024D01*
X16924688Y-21907071D01*
X16934212Y-21945167D01*
X16934212Y-21992786D01*
X16924688Y-22030881D01*
X16915164Y-22049929D01*
X16905640Y-22059452D01*
X16886593Y-22068976D01*
X16867545Y-22068976D01*
X16848498Y-22059452D01*
X16838974Y-22049929D01*
X16829450Y-22030881D01*
X16819926Y-21992786D01*
X16819926Y-21945167D01*
X16829450Y-21907071D01*
X16838974Y-21888024D01*
X16848498Y-21878500D01*
X16867545Y-21868976D01*
X17010402Y-21868976D02*
X17010402Y-21907071D01*
X17086593Y-21868976D02*
X17086593Y-21907071D01*
X17381831Y-22145167D02*
X17372307Y-22135643D01*
X17353260Y-22107071D01*
X17343736Y-22088024D01*
X17334212Y-22059452D01*
X17324688Y-22011833D01*
X17324688Y-21973738D01*
X17334212Y-21926119D01*
X17343736Y-21897548D01*
X17353260Y-21878500D01*
X17372307Y-21849929D01*
X17381831Y-21840405D01*
X17438974Y-21868976D02*
X17562783Y-21868976D01*
X17496117Y-21945167D01*
X17524688Y-21945167D01*
X17543736Y-21954690D01*
X17553260Y-21964214D01*
X17562783Y-21983262D01*
X17562783Y-22030881D01*
X17553260Y-22049929D01*
X17543736Y-22059452D01*
X17524688Y-22068976D01*
X17467545Y-22068976D01*
X17448498Y-22059452D01*
X17438974Y-22049929D01*
X17734212Y-21935643D02*
X17734212Y-22068976D01*
X17686593Y-21859452D02*
X17638974Y-22002310D01*
X17762783Y-22002310D01*
X17991355Y-22068976D02*
X17991355Y-21868976D01*
X18077069Y-22068976D02*
X18077069Y-21964214D01*
X18067545Y-21945167D01*
X18048498Y-21935643D01*
X18019926Y-21935643D01*
X18000879Y-21945167D01*
X17991355Y-21954690D01*
X18200879Y-22068976D02*
X18181831Y-22059452D01*
X18172307Y-22049929D01*
X18162783Y-22030881D01*
X18162783Y-21973738D01*
X18172307Y-21954690D01*
X18181831Y-21945167D01*
X18200879Y-21935643D01*
X18229450Y-21935643D01*
X18248498Y-21945167D01*
X18258021Y-21954690D01*
X18267545Y-21973738D01*
X18267545Y-22030881D01*
X18258021Y-22049929D01*
X18248498Y-22059452D01*
X18229450Y-22068976D01*
X18200879Y-22068976D01*
X18381831Y-22068976D02*
X18362783Y-22059452D01*
X18353260Y-22040405D01*
X18353260Y-21868976D01*
X18534212Y-22059452D02*
X18515164Y-22068976D01*
X18477069Y-22068976D01*
X18458021Y-22059452D01*
X18448498Y-22040405D01*
X18448498Y-21964214D01*
X18458021Y-21945167D01*
X18477069Y-21935643D01*
X18515164Y-21935643D01*
X18534212Y-21945167D01*
X18543736Y-21964214D01*
X18543736Y-21983262D01*
X18448498Y-22002310D01*
X18619926Y-22059452D02*
X18638974Y-22068976D01*
X18677069Y-22068976D01*
X18696117Y-22059452D01*
X18705640Y-22040405D01*
X18705640Y-22030881D01*
X18696117Y-22011833D01*
X18677069Y-22002310D01*
X18648498Y-22002310D01*
X18629450Y-21992786D01*
X18619926Y-21973738D01*
X18619926Y-21964214D01*
X18629450Y-21945167D01*
X18648498Y-21935643D01*
X18677069Y-21935643D01*
X18696117Y-21945167D01*
X18772307Y-22145167D02*
X18781831Y-22135643D01*
X18800879Y-22107071D01*
X18810402Y-22088024D01*
X18819926Y-22059452D01*
X18829450Y-22011833D01*
X18829450Y-21973738D01*
X18819926Y-21926119D01*
X18810402Y-21897548D01*
X18800879Y-21878500D01*
X18781831Y-21849929D01*
X18772307Y-21840405D01*
X19134212Y-22145167D02*
X19124688Y-22135643D01*
X19105640Y-22107071D01*
X19096117Y-22088024D01*
X19086593Y-22059452D01*
X19077069Y-22011833D01*
X19077069Y-21973738D01*
X19086593Y-21926119D01*
X19096117Y-21897548D01*
X19105640Y-21878500D01*
X19124688Y-21849929D01*
X19134212Y-21840405D01*
X19210402Y-21935643D02*
X19210402Y-22068976D01*
X19210402Y-21954690D02*
X19219926Y-21945167D01*
X19238974Y-21935643D01*
X19267545Y-21935643D01*
X19286593Y-21945167D01*
X19296117Y-21964214D01*
X19296117Y-22068976D01*
X19419926Y-22068976D02*
X19400879Y-22059452D01*
X19391355Y-22049929D01*
X19381831Y-22030881D01*
X19381831Y-21973738D01*
X19391355Y-21954690D01*
X19400879Y-21945167D01*
X19419926Y-21935643D01*
X19448498Y-21935643D01*
X19467545Y-21945167D01*
X19477069Y-21954690D01*
X19486593Y-21973738D01*
X19486593Y-22030881D01*
X19477069Y-22049929D01*
X19467545Y-22059452D01*
X19448498Y-22068976D01*
X19419926Y-22068976D01*
X19543736Y-21935643D02*
X19619926Y-21935643D01*
X19572307Y-21868976D02*
X19572307Y-22040405D01*
X19581831Y-22059452D01*
X19600879Y-22068976D01*
X19619926Y-22068976D01*
X19838974Y-21935643D02*
X19838974Y-22135643D01*
X19838974Y-21945167D02*
X19858021Y-21935643D01*
X19896117Y-21935643D01*
X19915164Y-21945167D01*
X19924688Y-21954690D01*
X19934212Y-21973738D01*
X19934212Y-22030881D01*
X19924688Y-22049929D01*
X19915164Y-22059452D01*
X19896117Y-22068976D01*
X19858021Y-22068976D01*
X19838974Y-22059452D01*
X20048498Y-22068976D02*
X20029450Y-22059452D01*
X20019926Y-22040405D01*
X20019926Y-21868976D01*
X20210402Y-22068976D02*
X20210402Y-21964214D01*
X20200879Y-21945167D01*
X20181831Y-21935643D01*
X20143736Y-21935643D01*
X20124688Y-21945167D01*
X20210402Y-22059452D02*
X20191355Y-22068976D01*
X20143736Y-22068976D01*
X20124688Y-22059452D01*
X20115164Y-22040405D01*
X20115164Y-22021357D01*
X20124688Y-22002310D01*
X20143736Y-21992786D01*
X20191355Y-21992786D01*
X20210402Y-21983262D01*
X20277069Y-21935643D02*
X20353260Y-21935643D01*
X20305640Y-21868976D02*
X20305640Y-22040405D01*
X20315164Y-22059452D01*
X20334212Y-22068976D01*
X20353260Y-22068976D01*
X20496117Y-22059452D02*
X20477069Y-22068976D01*
X20438974Y-22068976D01*
X20419926Y-22059452D01*
X20410402Y-22040405D01*
X20410402Y-21964214D01*
X20419926Y-21945167D01*
X20438974Y-21935643D01*
X20477069Y-21935643D01*
X20496117Y-21945167D01*
X20505640Y-21964214D01*
X20505640Y-21983262D01*
X20410402Y-22002310D01*
X20677069Y-22068976D02*
X20677069Y-21868976D01*
X20677069Y-22059452D02*
X20658021Y-22068976D01*
X20619926Y-22068976D01*
X20600879Y-22059452D01*
X20591355Y-22049929D01*
X20581831Y-22030881D01*
X20581831Y-21973738D01*
X20591355Y-21954690D01*
X20600879Y-21945167D01*
X20619926Y-21935643D01*
X20658021Y-21935643D01*
X20677069Y-21945167D01*
X20753260Y-22145167D02*
X20762783Y-22135643D01*
X20781831Y-22107071D01*
X20791355Y-22088024D01*
X20800879Y-22059452D01*
X20810402Y-22011833D01*
X20810402Y-21973738D01*
X20800879Y-21926119D01*
X20791355Y-21897548D01*
X20781831Y-21878500D01*
X20762783Y-21849929D01*
X20753260Y-21840405D01*
X13780638Y-22339391D02*
X13780638Y-22197969D01*
X13639215Y-22197969D01*
X13639215Y-22339391D01*
X13780638Y-22339391D01*
X14048498Y-22159156D02*
X14172307Y-22159156D01*
X14105640Y-22235347D01*
X14134212Y-22235347D01*
X14153259Y-22244870D01*
X14162783Y-22254394D01*
X14172307Y-22273442D01*
X14172307Y-22321061D01*
X14162783Y-22340109D01*
X14153259Y-22349632D01*
X14134212Y-22359156D01*
X14077069Y-22359156D01*
X14058021Y-22349632D01*
X14048498Y-22340109D01*
X14258021Y-22340109D02*
X14267545Y-22349632D01*
X14258021Y-22359156D01*
X14248498Y-22349632D01*
X14258021Y-22340109D01*
X14258021Y-22359156D01*
X14438974Y-22225823D02*
X14438974Y-22359156D01*
X14391355Y-22149632D02*
X14343736Y-22292490D01*
X14467545Y-22292490D01*
X14534212Y-22178204D02*
X14543736Y-22168680D01*
X14562783Y-22159156D01*
X14610402Y-22159156D01*
X14629450Y-22168680D01*
X14638974Y-22178204D01*
X14648498Y-22197251D01*
X14648498Y-22216299D01*
X14638974Y-22244870D01*
X14524688Y-22359156D01*
X14648498Y-22359156D01*
X14743736Y-22359156D02*
X14781831Y-22359156D01*
X14800878Y-22349632D01*
X14810402Y-22340109D01*
X14829450Y-22311537D01*
X14838974Y-22273442D01*
X14838974Y-22197251D01*
X14829450Y-22178204D01*
X14819926Y-22168680D01*
X14800878Y-22159156D01*
X14762783Y-22159156D01*
X14743736Y-22168680D01*
X14734212Y-22178204D01*
X14724688Y-22197251D01*
X14724688Y-22244870D01*
X14734212Y-22263918D01*
X14743736Y-22273442D01*
X14762783Y-22282966D01*
X14800878Y-22282966D01*
X14819926Y-22273442D01*
X14829450Y-22263918D01*
X14838974Y-22244870D01*
X14924688Y-22359156D02*
X14924688Y-22225823D01*
X14924688Y-22244870D02*
X14934212Y-22235347D01*
X14953259Y-22225823D01*
X14981831Y-22225823D01*
X15000878Y-22235347D01*
X15010402Y-22254394D01*
X15010402Y-22359156D01*
X15010402Y-22254394D02*
X15019926Y-22235347D01*
X15038974Y-22225823D01*
X15067545Y-22225823D01*
X15086593Y-22235347D01*
X15096117Y-22254394D01*
X15096117Y-22359156D01*
X15191355Y-22359156D02*
X15191355Y-22225823D01*
X15191355Y-22244870D02*
X15200878Y-22235347D01*
X15219926Y-22225823D01*
X15248498Y-22225823D01*
X15267545Y-22235347D01*
X15277069Y-22254394D01*
X15277069Y-22359156D01*
X15277069Y-22254394D02*
X15286593Y-22235347D01*
X15305640Y-22225823D01*
X15334212Y-22225823D01*
X15353259Y-22235347D01*
X15362783Y-22254394D01*
X15362783Y-22359156D01*
X15753259Y-22149632D02*
X15581831Y-22406775D01*
X16010402Y-22159156D02*
X16029450Y-22159156D01*
X16048498Y-22168680D01*
X16058021Y-22178204D01*
X16067545Y-22197251D01*
X16077069Y-22235347D01*
X16077069Y-22282966D01*
X16067545Y-22321061D01*
X16058021Y-22340109D01*
X16048498Y-22349632D01*
X16029450Y-22359156D01*
X16010402Y-22359156D01*
X15991355Y-22349632D01*
X15981831Y-22340109D01*
X15972307Y-22321061D01*
X15962783Y-22282966D01*
X15962783Y-22235347D01*
X15972307Y-22197251D01*
X15981831Y-22178204D01*
X15991355Y-22168680D01*
X16010402Y-22159156D01*
X16162783Y-22340109D02*
X16172307Y-22349632D01*
X16162783Y-22359156D01*
X16153259Y-22349632D01*
X16162783Y-22340109D01*
X16162783Y-22359156D01*
X16362783Y-22359156D02*
X16248498Y-22359156D01*
X16305640Y-22359156D02*
X16305640Y-22159156D01*
X16286593Y-22187728D01*
X16267545Y-22206775D01*
X16248498Y-22216299D01*
X16429450Y-22159156D02*
X16553259Y-22159156D01*
X16486593Y-22235347D01*
X16515164Y-22235347D01*
X16534212Y-22244870D01*
X16543736Y-22254394D01*
X16553259Y-22273442D01*
X16553259Y-22321061D01*
X16543736Y-22340109D01*
X16534212Y-22349632D01*
X16515164Y-22359156D01*
X16458021Y-22359156D01*
X16438974Y-22349632D01*
X16429450Y-22340109D01*
X16734212Y-22159156D02*
X16638974Y-22159156D01*
X16629450Y-22254394D01*
X16638974Y-22244870D01*
X16658021Y-22235347D01*
X16705640Y-22235347D01*
X16724688Y-22244870D01*
X16734212Y-22254394D01*
X16743736Y-22273442D01*
X16743736Y-22321061D01*
X16734212Y-22340109D01*
X16724688Y-22349632D01*
X16705640Y-22359156D01*
X16658021Y-22359156D01*
X16638974Y-22349632D01*
X16629450Y-22340109D01*
X16867545Y-22159156D02*
X16886593Y-22159156D01*
X16905640Y-22168680D01*
X16915164Y-22178204D01*
X16924688Y-22197251D01*
X16934212Y-22235347D01*
X16934212Y-22282966D01*
X16924688Y-22321061D01*
X16915164Y-22340109D01*
X16905640Y-22349632D01*
X16886593Y-22359156D01*
X16867545Y-22359156D01*
X16848498Y-22349632D01*
X16838974Y-22340109D01*
X16829450Y-22321061D01*
X16819926Y-22282966D01*
X16819926Y-22235347D01*
X16829450Y-22197251D01*
X16838974Y-22178204D01*
X16848498Y-22168680D01*
X16867545Y-22159156D01*
X17010402Y-22159156D02*
X17010402Y-22197251D01*
X17086593Y-22159156D02*
X17086593Y-22197251D01*
X17381831Y-22435347D02*
X17372307Y-22425823D01*
X17353260Y-22397251D01*
X17343736Y-22378204D01*
X17334212Y-22349632D01*
X17324688Y-22302013D01*
X17324688Y-22263918D01*
X17334212Y-22216299D01*
X17343736Y-22187728D01*
X17353260Y-22168680D01*
X17372307Y-22140109D01*
X17381831Y-22130585D01*
X17562783Y-22359156D02*
X17448498Y-22359156D01*
X17505640Y-22359156D02*
X17505640Y-22159156D01*
X17486593Y-22187728D01*
X17467545Y-22206775D01*
X17448498Y-22216299D01*
X17629450Y-22159156D02*
X17762783Y-22159156D01*
X17677069Y-22359156D01*
X17991355Y-22359156D02*
X17991355Y-22159156D01*
X18077069Y-22359156D02*
X18077069Y-22254394D01*
X18067545Y-22235347D01*
X18048498Y-22225823D01*
X18019926Y-22225823D01*
X18000879Y-22235347D01*
X17991355Y-22244870D01*
X18200879Y-22359156D02*
X18181831Y-22349632D01*
X18172307Y-22340109D01*
X18162783Y-22321061D01*
X18162783Y-22263918D01*
X18172307Y-22244870D01*
X18181831Y-22235347D01*
X18200879Y-22225823D01*
X18229450Y-22225823D01*
X18248498Y-22235347D01*
X18258021Y-22244870D01*
X18267545Y-22263918D01*
X18267545Y-22321061D01*
X18258021Y-22340109D01*
X18248498Y-22349632D01*
X18229450Y-22359156D01*
X18200879Y-22359156D01*
X18381831Y-22359156D02*
X18362783Y-22349632D01*
X18353260Y-22330585D01*
X18353260Y-22159156D01*
X18534212Y-22349632D02*
X18515164Y-22359156D01*
X18477069Y-22359156D01*
X18458021Y-22349632D01*
X18448498Y-22330585D01*
X18448498Y-22254394D01*
X18458021Y-22235347D01*
X18477069Y-22225823D01*
X18515164Y-22225823D01*
X18534212Y-22235347D01*
X18543736Y-22254394D01*
X18543736Y-22273442D01*
X18448498Y-22292490D01*
X18619926Y-22349632D02*
X18638974Y-22359156D01*
X18677069Y-22359156D01*
X18696117Y-22349632D01*
X18705640Y-22330585D01*
X18705640Y-22321061D01*
X18696117Y-22302013D01*
X18677069Y-22292490D01*
X18648498Y-22292490D01*
X18629450Y-22282966D01*
X18619926Y-22263918D01*
X18619926Y-22254394D01*
X18629450Y-22235347D01*
X18648498Y-22225823D01*
X18677069Y-22225823D01*
X18696117Y-22235347D01*
X18772307Y-22435347D02*
X18781831Y-22425823D01*
X18800879Y-22397251D01*
X18810402Y-22378204D01*
X18819926Y-22349632D01*
X18829450Y-22302013D01*
X18829450Y-22263918D01*
X18819926Y-22216299D01*
X18810402Y-22187728D01*
X18800879Y-22168680D01*
X18781831Y-22140109D01*
X18772307Y-22130585D01*
X19134212Y-22435347D02*
X19124688Y-22425823D01*
X19105640Y-22397251D01*
X19096117Y-22378204D01*
X19086593Y-22349632D01*
X19077069Y-22302013D01*
X19077069Y-22263918D01*
X19086593Y-22216299D01*
X19096117Y-22187728D01*
X19105640Y-22168680D01*
X19124688Y-22140109D01*
X19134212Y-22130585D01*
X19210402Y-22225823D02*
X19210402Y-22359156D01*
X19210402Y-22244870D02*
X19219926Y-22235347D01*
X19238974Y-22225823D01*
X19267545Y-22225823D01*
X19286593Y-22235347D01*
X19296117Y-22254394D01*
X19296117Y-22359156D01*
X19419926Y-22359156D02*
X19400879Y-22349632D01*
X19391355Y-22340109D01*
X19381831Y-22321061D01*
X19381831Y-22263918D01*
X19391355Y-22244870D01*
X19400879Y-22235347D01*
X19419926Y-22225823D01*
X19448498Y-22225823D01*
X19467545Y-22235347D01*
X19477069Y-22244870D01*
X19486593Y-22263918D01*
X19486593Y-22321061D01*
X19477069Y-22340109D01*
X19467545Y-22349632D01*
X19448498Y-22359156D01*
X19419926Y-22359156D01*
X19543736Y-22225823D02*
X19619926Y-22225823D01*
X19572307Y-22159156D02*
X19572307Y-22330585D01*
X19581831Y-22349632D01*
X19600879Y-22359156D01*
X19619926Y-22359156D01*
X19838974Y-22225823D02*
X19838974Y-22425823D01*
X19838974Y-22235347D02*
X19858021Y-22225823D01*
X19896117Y-22225823D01*
X19915164Y-22235347D01*
X19924688Y-22244870D01*
X19934212Y-22263918D01*
X19934212Y-22321061D01*
X19924688Y-22340109D01*
X19915164Y-22349632D01*
X19896117Y-22359156D01*
X19858021Y-22359156D01*
X19838974Y-22349632D01*
X20048498Y-22359156D02*
X20029450Y-22349632D01*
X20019926Y-22330585D01*
X20019926Y-22159156D01*
X20210402Y-22359156D02*
X20210402Y-22254394D01*
X20200879Y-22235347D01*
X20181831Y-22225823D01*
X20143736Y-22225823D01*
X20124688Y-22235347D01*
X20210402Y-22349632D02*
X20191355Y-22359156D01*
X20143736Y-22359156D01*
X20124688Y-22349632D01*
X20115164Y-22330585D01*
X20115164Y-22311537D01*
X20124688Y-22292490D01*
X20143736Y-22282966D01*
X20191355Y-22282966D01*
X20210402Y-22273442D01*
X20277069Y-22225823D02*
X20353260Y-22225823D01*
X20305640Y-22159156D02*
X20305640Y-22330585D01*
X20315164Y-22349632D01*
X20334212Y-22359156D01*
X20353260Y-22359156D01*
X20496117Y-22349632D02*
X20477069Y-22359156D01*
X20438974Y-22359156D01*
X20419926Y-22349632D01*
X20410402Y-22330585D01*
X20410402Y-22254394D01*
X20419926Y-22235347D01*
X20438974Y-22225823D01*
X20477069Y-22225823D01*
X20496117Y-22235347D01*
X20505640Y-22254394D01*
X20505640Y-22273442D01*
X20410402Y-22292490D01*
X20677069Y-22359156D02*
X20677069Y-22159156D01*
X20677069Y-22349632D02*
X20658021Y-22359156D01*
X20619926Y-22359156D01*
X20600879Y-22349632D01*
X20591355Y-22340109D01*
X20581831Y-22321061D01*
X20581831Y-22263918D01*
X20591355Y-22244870D01*
X20600879Y-22235347D01*
X20619926Y-22225823D01*
X20658021Y-22225823D01*
X20677069Y-22235347D01*
X20753260Y-22435347D02*
X20762783Y-22425823D01*
X20781831Y-22397251D01*
X20791355Y-22378204D01*
X20800879Y-22349632D01*
X20810402Y-22302013D01*
X20810402Y-22263918D01*
X20800879Y-22216299D01*
X20791355Y-22187728D01*
X20781831Y-22168680D01*
X20762783Y-22140109D01*
X20753260Y-22130585D01*
M02*
