M48
; DRILL file {KiCad (6.0.4)} date Fri Jul  1 15:59:21 2022
; FORMAT={-:-/ absolute / metric / decimal}
; #@! TF.CreationDate,2022-07-01T15:59:21-05:00
; #@! TF.GenerationSoftware,Kicad,Pcbnew,(6.0.4)
; #@! TF.FileFunction,NonPlated,1,2,NPTH
FMAT,2
METRIC
; #@! TA.AperFunction,NonPlated,NPTH,ComponentDrill
T1C0.900
; #@! TA.AperFunction,NonPlated,NPTH,ComponentDrill
T2C1.500
; #@! TA.AperFunction,NonPlated,NPTH,ComponentDrill
T3C1.702
; #@! TA.AperFunction,NonPlated,NPTH,ComponentDrill
T4C3.429
%
G90
G05
T1
X262.298Y-155.46
X262.298Y-158.46
X262.31Y-155.46
X262.31Y-158.46
T2
X271.16Y-112.22
X271.16Y-119.22
T3
X143.825Y-135.183
X145.306Y-152.118
X146.788Y-169.053
X154.783Y-134.224
X156.264Y-151.159
X157.746Y-168.095
X169.76Y-116.62
X169.76Y-133.62
X169.76Y-150.62
X180.76Y-116.62
X180.76Y-133.62
X180.76Y-150.62
X192.62Y-109.62
X192.62Y-126.62
X192.62Y-143.62
X203.62Y-109.62
X203.62Y-126.62
X203.62Y-143.62
X211.67Y-117.62
X211.67Y-134.62
X211.67Y-151.62
X222.151Y-185.565
X222.67Y-117.62
X222.67Y-134.62
X222.67Y-151.62
X229.67Y-120.62
X229.67Y-137.62
X229.67Y-154.62
X232.488Y-189.327
X240.454Y-192.96
X240.67Y-120.62
X240.67Y-137.62
X240.67Y-154.62
X249.98Y-198.46
T4
X149.304Y-134.704
X150.785Y-151.639
X152.267Y-168.574
X175.26Y-116.62
X175.26Y-133.62
X175.26Y-150.62
X198.12Y-109.62
X198.12Y-126.62
X198.12Y-143.62
X217.17Y-117.62
X217.17Y-134.62
X217.17Y-151.62
X227.319Y-187.446
X235.17Y-120.62
X235.17Y-137.62
X235.17Y-154.62
X245.217Y-195.71
T0
M30
