<svg width="113mm" height="75mm" viewBox="0 0 113 75" xmlns="http://www.w3.org/2000/svg"><g id="svgGroup" stroke-linecap="round" fill-rule="evenodd" font-size="9pt" stroke="#000" stroke-width="0.25mm" fill="none" style="stroke:#000;stroke-width:0.25mm;fill:none"><path d="M 0 38 L 18 38 L 18 56 L 0 56 L 0 38 Z M 0 19 L 18 19 L 18 37 L 0 37 L 0 19 Z M 0 0 L 18 0 L 18 18 L 0 18 L 0 0 Z M 19 38 L 37 38 L 37 56 L 19 56 L 19 38 Z M 19 19 L 37 19 L 37 37 L 19 37 L 19 19 Z M 19 0 L 37 0 L 37 18 L 19 18 L 19 0 Z M 38 38 L 56 38 L 56 56 L 38 56 L 38 38 Z M 38 19 L 56 19 L 56 37 L 38 37 L 38 19 Z M 38 0 L 56 0 L 56 18 L 38 18 L 38 0 Z M 57 38 L 75 38 L 75 56 L 57 56 L 57 38 Z M 57 19 L 75 19 L 75 37 L 57 37 L 57 19 Z M 57 0 L 75 0 L 75 18 L 57 18 L 57 0 Z M 76 38 L 94 38 L 94 56 L 76 56 L 76 38 Z M 76 19 L 94 19 L 94 37 L 76 37 L 76 19 Z M 76 0 L 94 0 L 94 18 L 76 18 L 76 0 Z M 76 57 L 94 57 L 94 75 L 76 75 L 76 57 Z M 95 57 L 113 57 L 113 75 L 95 75 L 95 57 Z" vector-effect="non-scaling-stroke"/></g></svg>